<?xml version="1.0" encoding="utf-8"?>
<!-- Generator: Adobe Illustrator 25.1.0, SVG Export Plug-In . SVG Version: 6.00 Build 0)  -->
<svg version="1.1" id="Layer_1" xmlns="http://www.w3.org/2000/svg" xmlns:xlink="http://www.w3.org/1999/xlink" x="0px" y="0px"
	 width="1024px" height="768px" viewBox="0 0 1024 768" style="enable-background:new 0 0 1024 768;" xml:space="preserve">
<style type="text/css">
	.st0{fill:#2F368F;}
	.st1{fill:#FFFFFF;}
	.st2{fill:none;}
	.st3{fill-rule:evenodd;clip-rule:evenodd;fill:#FFFFFF;}
	.st4{fill:#FFD54F;}
	.st5{display:none;}
</style>
<g id="Layer_3">
</g>
<g id="Layer_1_1_">
	<g>
		<path class="st0" d="M512,64.6c-10.4,0-20.1,1.5-28.1,4.3L37,227.7c-10.2,3.6-19.6,10.9-26.4,20.6C3.7,257.9,0,269.2,0,280.1
			v207.8c0,10.9,3.7,22.2,10.5,31.8c6.8,9.6,16.2,16.9,26.4,20.6l447,158.8c8,2.8,17.7,4.3,28.1,4.3c10.3,0,20.1-1.5,28.1-4.3
			l447-158.8c10.3-3.6,19.6-10.9,26.4-20.6c6.8-9.6,10.5-20.9,10.5-31.8V280.1c0-10.9-3.7-22.2-10.5-31.8
			c-6.8-9.6-16.2-16.9-26.4-20.6l-447-158.8C532.1,66.1,522.3,64.6,512,64.6"/>
		<path class="st1" d="M981,244.6L534,85.9c-6-2.1-13.8-3.3-22-3.3s-16,1.2-22.1,3.3L43,244.6c-14,5-25,20.5-25,35.4v207.8
			c0,14.9,11,30.5,25,35.4l447,158.8c6,2.1,13.8,3.3,22.1,3.3s16-1.2,22.1-3.3l447-158.8c14-5,25-20.6,25-35.4V280.1
			C1006,265.2,995,249.6,981,244.6z M997.1,487.9c0,11.1-8.6,23.3-19,27L531,673.7c-5.2,1.9-12.1,2.8-19,2.8c-6.9,0-13.8-0.9-19-2.8
			L46,514.9c-10.5-3.7-19-15.9-19-27V280.1c0-11.1,8.6-23.3,19-27l447-158.8c5.2-1.9,12.1-2.8,19-2.8s13.8,0.9,19,2.8l447,158.8
			c10.5,3.7,19,15.9,19,27L997.1,487.9L997.1,487.9z"/>
		<path class="st1" d="M49.7,516.1c9.4,3.5,19.5,5.4,30.1,5.4c24.2,0,46-9.9,61.7-25.9h0h0c15.7,16,37.6,25.9,61.7,25.9
			c24.2,0,46-9.9,61.7-25.9h0c15.7,16,37.6,25.9,61.7,25.9c24.2,0,46-9.9,61.7-25.9h0c15.7,16,37.6,25.9,61.7,25.9
			c24.2,0,46-9.9,61.7-25.9c15.7,16,37.6,25.9,61.7,25.9c24.2,0,46-9.9,61.7-25.9h0c15.7,16,37.6,25.9,61.7,25.9
			c24.2,0,46-9.9,61.7-25.9h0c15.7,16,37.6,25.9,61.7,25.9c24.2,0,46-9.9,61.7-25.9h0h0c15.7,16,37.6,25.9,61.7,25.9
			c10.6,0,20.7-1.9,30.1-5.4l-0.1,4.6L531.1,677.7c-10.5,3.7-27.8,3.7-38.3,0L50.1,521.1L49.7,516.1z"/>
		<g>
			<path class="st0" d="M314,563.8c15.8,1.1,19.7,3.1,19.7,15.4c0,8.8,0.4,17.5-23.1,17.5c-13.6,0-22.6-0.3-22.6-17.8h13.7
				c0,5.5,2,6.1,9,6.1c6.7,0,8.9-0.4,8.9-4.9c0-4.6-0.8-4.5-7.5-5l-3.1-0.2c-13.2-0.9-20.8-0.9-20.8-16.1c0-15.3,8.6-16.3,22.5-16.3
				c11.7,0,21.6,0.2,21.6,14.9v2.2h-13.6c0-5.5-2.3-5.5-8-5.5c-7.7,0-8.3,1.6-8.3,4.6c0,4.3,2.1,4.4,5.8,4.7L314,563.8z"/>
			<polygon class="st0" points="401.1,542.9 415.3,542.9 403.5,596.3 383,596.3 375.7,562.9 375.2,562.9 367.4,596.3 347.1,596.3 
				335.6,542.9 350,542.9 357.7,584 358.2,584 368.2,542.9 383,542.9 392.5,584 393,584 			"/>
			<rect x="419.1" y="542.9" class="st0" width="14.2" height="53.3"/>
			<polygon class="st0" points="456.3,596.3 442.1,596.3 442.1,542.9 464.6,542.9 474.8,576.4 475.3,576.4 485,542.9 508.1,542.9 
				508.1,596.3 493.8,596.3 495.3,555.4 494.8,555.4 481.2,596.3 468.9,596.3 455.3,555.4 454.9,555.4 			"/>
			<path class="st0" d="M587.3,576.1v1.6c0,5.8-0.1,11.1-4.9,15.1c-4.8,4-10.7,3.9-16.9,3.9c-14.5,0-25.1-0.7-25.1-20.2v-13.8
				c0-17.6,9.5-20.2,25.1-20.2c14.6,0,21.5,1.5,21.8,17.5v2.1h-14.6V560c-0.5-4.8-3.8-5.1-8.7-5.1c-8.1,0-8.9,2.5-8.9,10.1v8.3
				c0,8,0.4,11,8.9,11c5.9,0,8.7-0.4,8.7-6.7v-1.6H587.3z"/>
			<polygon class="st0" points="608,583.9 630.3,583.9 630.3,596.3 593.8,596.3 593.8,542.9 608,542.9 			"/>
			<path class="st0" d="M681.7,542.9v35.5c0,14.2-6.7,18.2-22.3,18.2c-21.3,0-23.6-5.4-23.6-18.2v-35.5H650v35.3
				c0,6,3.4,6.1,9.4,6.1c6,0,8.1-0.5,8.1-6.8v-34.6H681.7z"/>
			<path class="st0" d="M690.3,542.9h28c10.6,0,16.9,2,16.9,13.7c0,6.8-1.3,11.2-8.4,12.3v0.6c7.9,0.5,9.2,5.3,9.2,11.9
				c0,13.1-6.1,14.9-17.4,14.9h-28.3L690.3,542.9L690.3,542.9z M704.6,564.3h10.2c5,0,6.2-0.9,6.2-5.1c0-3.2-0.5-4.4-4.5-4.5h-11.9
				V564.3z M704.6,584.6h10.7c4.6,0,6.5-1.1,6.5-5.4c0-4.4-1.6-5-6.3-5h-11L704.6,584.6L704.6,584.6z"/>
		</g>
		
			<rect x="453.6" y="70.5" transform="matrix(0.22 -0.9755 0.9755 0.22 226.1996 624.4683)" class="st2" width="100" height="200.5"/>
		<g>
			<g>
				<path class="st3" d="M574,170.3c-0.1,0-0.2,0.1-0.3,0.1c0.5,0.2-0.4,0.9,0.2,1.1C574.1,171,573.8,170.8,574,170.3z"/>
				<path class="st3" d="M567.7,171.1c0.3-0.4,0.1-1,0.1-1.3c0-0.1,0.1-0.6,0-0.5c-0.3,0.3,0.1,1-0.2,1.5
					C567.8,170.8,567.7,170.9,567.7,171.1z"/>
				<path class="st3" d="M576.6,171.1c0.4,0.1,0.2,0.7-0.1,0.9c0.2,0.4,0.2,0.8,0.1,1.4c0.2,0.1,0.1-0.4,0.2-0.7
					c0.1-0.3,0.2-1.1,0.3-1.4C577.1,171,576.9,171.2,576.6,171.1z"/>
				<path class="st3" d="M569.4,169.9c-0.4,0.3-0.1,0.8-0.2,1.2C569.5,170.9,569.2,170.3,569.4,169.9z"/>
				<path class="st3" d="M566.4,169.5c-0.4,0.4-0.1,1.1-0.2,1.6C566.6,170.6,566.2,170,566.4,169.5z"/>
				<path class="st3" d="M578.2,172.2c-0.2,0.5-0.1,1.2-0.1,1.9c0.4,0,0.3-0.7,0.4-1.1c0-0.4,0.5-0.2,0.3-0.6
					C578.7,172.2,578.5,172.2,578.2,172.2z"/>
				<path class="st3" d="M590.6,179.1c0.9,0.6,2.1,0.4,2.3-0.7c-0.1-1.1-1.2-1.5-1.9-1.3C590.2,177.3,590,178.4,590.6,179.1z
					 M591.6,177.8c-0.1,0.1-0.3,0.1-0.5,0c0-0.1,0-0.2,0-0.3c0.2,0,0.3-0.2,0.6-0.1C591.6,177.5,591.7,177.6,591.6,177.8z"/>
				<path class="st3" d="M581.1,177.9c-0.3-0.1-0.2,0.3-0.2,0.7c-0.3,3,0.2,5.4,0.4,8.2c0.1,0.8,0,1.6,0.2,2.6
					c0.1,0.4,0.3,1.4,0.5,2.1c0.2,0.9,0.5,2.1,0.7,3.1c0.2-0.7-0.1-1.3-0.2-1.9c-0.1-0.7-0.1-1.4-0.1-2.2c-0.1-1.3-0.5-2.6-0.6-3.9
					c-0.2-1.3-0.4-2.7-0.4-4.1C581.1,181,581.1,179.5,581.1,177.9z"/>
				<path class="st3" d="M550.4,173.2c-0.1,0-0.2,0-0.3-0.1c0.1,0.6-0.5,0.2-0.5,0.5c0.4,0,0.6,0.1,0.8,0.3
					C550.5,173.5,550.1,173.5,550.4,173.2z"/>
				<path class="st3" d="M578.1,179.1c-0.2,1.3-0.1,2.8,0,4.4c0.2,2.6,0.4,5,0.9,7.4c0,0.2-0.1,0.5,0,0.6c0,0.1,0.2,0.2,0.2,0.4
					c0.3,1.4,0.7,2.7,0.9,4.1c0.2-0.3,0-0.7,0-1c-0.2-1-0.2-2.1-0.4-3.3c-0.1-0.7-0.2-1.4-0.4-2.1c-0.1-0.7-0.1-1.4-0.3-2.1
					c0-0.2-0.2-0.3-0.2-0.5c0-0.2,0-0.4,0-0.5C578.6,184.3,578.2,181.6,578.1,179.1z"/>
				<path class="st3" d="M569.9,180.4c-0.1,0-0.1,0.1-0.1,0.2c0.1,2.4,0.7,5.2,0.9,7.6c0,0.4,0,0.8,0.1,1.2c0,0.2,0,0.5,0,0.6
					c0,0.1,0.2,0.2,0.3,0.4c0,0.1-0.1,0.2-0.1,0.3c0,0.1,0.2,0.1,0.2,0.1c0,0.1-0.1,0.3-0.1,0.4c0,0.3,0.2,0.8,0.3,1.3
					c0.1,0.6,0.1,0.7,0.5,1.3c0.1,0.1,0.2,0.6,0.5,0.3c0.5,0,0.3-0.6,0.3-0.8c0-0.8-0.4-1.7-0.6-2.5
					C571.4,187.4,570.4,183.9,569.9,180.4z"/>
				<path class="st3" d="M567.3,181.2c-0.2,0.9,0.1,1.9,0.2,2.9c0.1,1,0.2,2,0.6,2.7c-0.4,0.2-0.1,0.6-0.1,1c0.1,1,0.2,2.4,0.6,3.3
					c0.6-2.2-0.5-4.2-0.6-6.4C567.9,183.5,567.5,182.4,567.3,181.2z"/>
				<path class="st3" d="M568.7,181.7c-0.1,0-0.1,0.2-0.2,0.3c0.3,2.2,0.6,4.8,0.9,7.2c0.1,1,0.2,1.7,0.5,2.7c0,0.2,0.1,0.5,0.1,0.5
					c0,0,0.2,0,0.2,0c0,0-0.1,0.2,0,0.2c0,0,0.2,0,0.2,0c0.1,0.1,0.2,0.7,0.7,0.6c0.2-0.8-0.2-1.6-0.4-2.5c-0.1-0.6-0.2-1.1-0.3-1.7
					c-0.1-0.3-0.3-1.4-0.4-1.6C569.6,185.8,569.2,183.6,568.7,181.7z"/>
				<path class="st3" d="M607.5,190c-0.7,0.3-0.5,1.3-0.1,1.7c0.3-0.3,0.6-0.5,0.8-0.8C608.2,190.4,607.9,190.2,607.5,190z"/>
				<path class="st3" d="M606,189.8c-0.6,0.4-0.3,1.2-0.1,1.7C606.5,191.2,606.9,190.1,606,189.8z"/>
				<path class="st3" d="M604.6,189.7c-0.4,0.2-0.5,1.4-0.1,1.6C604.9,190.7,605,190.2,604.6,189.7z"/>
				<path class="st3" d="M603.1,189.8c-0.5,0.1-0.1,0.7-0.2,1.1C603.1,190.8,603.2,190,603.1,189.8z"/>
				<path class="st3" d="M557.4,183.7c-0.1,0.9,0,2,0.2,3c0.1,0.6,0.2,1.2,0.4,2c0.2,0.9,0.5,1.8,0.7,2.8c0.3-0.9,0.1-1.8,0-2.8
					C558.3,187.2,557.9,185.4,557.4,183.7z"/>
				<path class="st3" d="M496.7,174c-0.3-0.1-0.3,0.2-0.4,0.4C496.5,174.3,496.7,174.2,496.7,174z"/>
				<path class="st3" d="M543.1,183.6c-0.1-0.3-0.5,0-0.5,0.2C542.8,183.9,542.8,183.6,543.1,183.6z"/>
				<path class="st3" d="M520.5,179.3c-0.1,0-0.1,0.2-0.2,0.2c-0.2,1.7-0.9,3.1-1.4,4.5c-0.1,0.5-0.2,1-0.4,1.4
					c-0.1,0.3-0.4,0.5-0.6,0.7c-0.2,0.4-0.2,0.8-0.4,1.2c-0.2,0.4-0.6,0.8-0.8,1.1c-0.3,0.4-0.5,0.9-0.8,1.2c-0.3,0.4-0.6,0.7-0.9,1
					c-0.3,0.3-0.7,0.7-0.8,1.1c0.7,0.2,1.1-0.5,1.4-0.9c1-1.3,2-3,2.9-4.4c0.2-1.3,1.1-2.4,1.4-3.8
					C520.2,181.6,520.4,180.3,520.5,179.3z"/>
				<path class="st3" d="M549.7,184.9c-0.2,1,0.1,2,0.2,3c0.3,2.9,0.7,6.1,0.7,9.3c0.4-0.3,0.2-1,0.2-1.6
					C550.9,191.9,550.5,188.1,549.7,184.9z"/>
				<path class="st3" d="M517.2,178.8c-0.4,0-0.3,0.6-0.4,0.8c-0.1,0.3-0.2,0.4-0.3,0.7c-0.3,0.8-0.6,1.5-0.9,2.2
					c-0.1,0.2-0.2,0.4-0.3,0.7c-0.4,0.9-0.6,1.7-1.2,2.6c-0.3,0.4-0.6,0.7-0.7,1.1c-0.5,0.5-0.9,0.9-1.3,1.6
					c-0.1,0.1-0.2,0.3-0.3,0.5c-0.5,0.6-1.2,0.9-1.8,1.6c0.3,0.4,0.7,0,1.1,0c0.1-0.2,0.4-0.4,0.5-0.6c0.1-0.2,0.2-0.4,0.3-0.6
					c0.2-0.3,0.7-0.5,0.9-0.8c0.1-0.1,0-0.2,0.1-0.3c0.2-0.2,0.5-0.3,0.6-0.5c0.2-0.3,0.4-0.7,0.6-1.1c0.1-0.2,0.6-0.6,0.7-0.9
					c0.1-0.3,0.1-0.6,0.3-0.9c0.2-0.3,0.5-0.6,0.7-0.9C516.7,182.4,516.7,180.3,517.2,178.8z"/>
				<path class="st3" d="M508.1,177.3c-0.8,1.1-1.4,2.3-2.2,3.3c-0.3,0.3-0.6,0.5-0.9,0.9c-0.3,0.3-0.5,0.7-0.7,1
					c-0.3,0.3-0.6,0.6-0.9,0.9c-0.3,0.3-0.5,0.6-0.8,0.9c-0.5,0.5-1.1,0.8-1.6,1.4c-0.2,0.2-0.3,0.4-0.4,0.6
					c-0.3,0.2-0.8,0.3-1.1,0.5c-0.4,0.3-0.7,0.7-1,1c-0.2,0.2-0.4,0.3-0.6,0.4c-0.1,0.1-0.1,0.2-0.3,0.3c0,0-1.7,1.3-2.5,1.9
					c0.4,0.1,0.9-0.3,1.3-0.6c0.4-0.3,0.8-0.7,1.2-0.9c0.4-0.3,0.9-0.5,1.3-0.8c0.1-0.1,0.2-0.3,0.3-0.4c0.4-0.3,0.9-0.5,1.2-0.9
					c0.3-0.3,1.1-0.8,1.7-1.3c0.5-0.4,0.9-0.8,1.3-1.2c0.6-0.6,1.2-1.3,1.9-2C506.5,180.9,507.4,179.3,508.1,177.3z"/>
				<path class="st3" d="M525.3,180.5c-0.1,0-0.2,0-0.2,0.1c-0.4,1.7-0.6,3.2-1.1,5.3c-0.2,0.9-0.6,2-1.1,3.2
					c-0.4,0.8-0.7,1.7-1.1,2.3c-0.5,0.8-1.5,1.4-1.4,2.4c0.4-0.1,0.7-0.6,0.9-0.9c0.3-0.4,0.4-0.8,0.6-1.2c0.6-1.1,1.4-2.3,1.8-3.4
					c0.5-1.3,1.1-3.4,1.4-4.7c0.2-1.1,0.3-2,0.2-2.8C525.4,180.7,525.2,180.7,525.3,180.5z"/>
				<path class="st3" d="M510,177.7c-0.4,0.7-0.9,1.4-1.3,2.1c-0.1,0.1-0.3,0.3-0.3,0.4c-0.4,0.5-0.4,1.3-1,1.5
					c-2.7,4.1-6.6,6.6-10.1,9.5c0.3,0.1,0.8-0.3,1.2-0.5c0.2-0.1,0.3-0.3,0.5-0.4c0.1-0.1,0.1-0.2,0.3-0.3c0,0,0.2,0.1,0.2,0
					c0.1-0.1,0.2-0.2,0.4-0.4c0.2-0.1,0.5-0.3,0.9-0.6c0.4-0.3,0.7-0.6,1-0.9c0.3-0.2,0.7-0.3,1-0.6c0.4-0.3,0.6-0.8,1-1.1
					c0.1-0.1,0.2-0.1,0.3-0.1c0.2-0.2,0.5-0.5,0.9-0.6c0.6-0.9,1.5-1.5,2.2-2.3c0.1-0.1,0.1-0.4,0.2-0.5c0.1-0.1,0.3-0.1,0.4-0.3
					c0.4-0.5,0.6-1,0.9-1.5c0.3-0.5,0.8-1.1,1.1-1.8C509.6,178.8,509.7,178.3,510,177.7z"/>
				<path class="st3" d="M529.9,181.7c-0.1,0-0.2,0-0.2,0.1c-0.2,0.2-0.2,0.5-0.3,0.8c-0.1,0.4-0.1,0.8-0.2,1.5
					c-0.1,0.5-0.3,2.2-0.2,2.7c0.1,0.5-0.2,1.4-0.4,2.2c-0.2,0.8-0.6,2.1-1,3c-0.3,0.9-0.8,1.6-1.1,2.5c0.6-0.1,0.9-0.9,1.1-1.4
					c0.1-0.3,0.3-0.7,0.4-1c0.3-0.7,0.5-1.4,0.7-2.2c0.2-0.8,0.2-1.6,0.5-2.6c0.1-0.3,0.3-0.5,0.4-0.8
					C530.2,184.9,530.1,183.1,529.9,181.7z"/>
				<path class="st3" d="M528.3,181.4c-0.1,0-0.1,0-0.1,0.1c-0.4,0.9-0.5,2.4-0.6,3.3c-0.1,0.9-0.1,2-0.3,2.9
					c-0.2,0.7-0.4,1.3-0.7,2c-0.3,0.7-0.4,1.6-0.7,2.2c-0.2,0.4-0.6,0.7-0.7,1.3c-0.3,0.4-0.6,0.7-0.7,1.5c0.7-0.6,1.2-1.7,1.7-2.7
					c0.3-0.7,0.6-1.2,0.8-2.1c0.3-0.9,0.6-1.9,0.9-2.9c0.3-1,0.6-2.7,0.7-3.9C528.6,182.5,528.5,182,528.3,181.4z"/>
				<path class="st3" d="M533,182.8c0-0.1-0.2-0.1-0.2,0c-0.3,0.3-0.5,0.8-0.5,1.2c-0.1,0.5,0.2,1,0.2,1.4c0,0.3-0.1,0.5-0.2,0.8
					c0,0.4,0.1,0.9,0.1,1.3c-0.2,3.5-1.6,6.6-2.9,9.8c1.1-1.3,1.6-3,2.1-4.6c0.6-1.9,1.1-4.7,1.5-7.4c0-0.3,0.2-0.7,0.2-0.9
					C533.3,183.9,532.9,183.3,533,182.8z"/>
				<path class="st3" d="M534.3,183.3c-0.7,0.7-0.5,1.6-0.4,2.3c0.1,0.6,0,1.7,0,2.5c-0.1,1.2-0.3,2.3-0.6,3.7
					c-0.2,0.9-0.3,1.8-0.6,2.7c-0.4,1-1,1.9-1.2,3.2c0.5-0.4,0.6-1.1,1-1.8c0.1-0.2,0.3-0.4,0.3-0.6c0.1-0.2,0.1-0.5,0.2-0.8
					c0.1-0.3,0.3-0.5,0.4-0.8c0.4-1.6,0.7-3.6,1-5.4c0.1-0.7,0.3-1.4,0.4-1.9c0-0.3-0.1-0.6-0.1-0.9c0-0.2,0.2-0.4,0.2-0.5
					c0-0.1-0.1-0.3-0.1-0.3c0-0.1,0.1-0.3,0.1-0.4C534.6,183.8,534.2,183.5,534.3,183.3z"/>
				<path class="st3" d="M536,184c-0.2-0.1-0.2,0.1-0.3,0c-0.5,0.4-0.2,1.9-0.2,2.9c0,1.5,0,3.9-0.7,6.6c-0.2,0.7-0.5,1.2-0.5,2
					c0.6-0.6,0.6-1.6,0.8-2.5c0.3-1.2,0.6-2.8,0.8-4.4c0.1-0.6,0.1-1.2,0.1-1.9c0.1-0.6,0.3-1.3,0.2-1.8c0-0.1,0-0.6-0.1-0.7
					C536.1,184.3,535.8,184.2,536,184z"/>
				<path class="st3" d="M537.1,184.5c-0.5,0.4-0.1,1.1-0.1,1.6c0,0.6,0,1.2,0,1.8c0,1.1,0,2.3-0.1,3.5c-0.2,2-0.8,4.1-1.4,6.2
					c0.7-1.4,1.1-3.2,1.5-5c0.5-2.3,0.5-4.4,0.6-6.3c0-0.3-0.1-1.2,0.3-1.1C537.6,185,537.5,184.6,537.1,184.5z"/>
				<path class="st3" d="M469.4,172.2c-0.2,0-0.3,0.2-0.5,0.3c-1,0.7-1.9,2.1-2.7,3.3c-0.7,1.1-1.5,2.2-1.9,3.5
					c0.4-0.1,0.5-0.5,0.7-0.8c0.6-1,1-2,1.7-3C467.6,174.4,468.8,173.5,469.4,172.2z"/>
				<path class="st3" d="M467,172c-0.2-0.1-0.2,0.1-0.3,0c-2,2-3.6,4.8-4.5,8.1c0.6-1.1,1-2.1,1.6-3.2c0.8-1.7,2-3.1,3.1-4.5
					c0,0,0-0.1,0-0.1C467,172.3,467,172.1,467,172z"/>
				<path class="st3" d="M464.6,171.9c-2,1.7-3.4,5.2-4,8.1c0.5-1.2,0.9-2.3,1.5-3.5c0.1-0.2,0.2-0.3,0.3-0.5c0.1-0.2,0-0.4,0.1-0.5
					C463.1,174.1,464.1,173.2,464.6,171.9z"/>
				<path class="st3" d="M539.9,185.9c0.2,3.1,0.4,6.3-0.4,10.4c0.4-0.2,0.3-0.7,0.4-1.1c0.2-1.1,0.3-2.1,0.4-2.9
					c0.1-1.2,0.2-2.8,0.2-4.2c0-0.2-0.1-0.4-0.1-0.5c0-0.2,0.2-0.3,0.2-0.5c0-0.4-0.2-0.6-0.1-1.1
					C540.3,186,540.1,185.9,539.9,185.9z"/>
				<path class="st3" d="M462,172.3c-0.1,0.1-0.4,0.4-0.6,0.6c-0.1,0.1-0.3,0.7-0.5,1.1c-0.3,0.6-0.7,1.3-1,2
					c-0.4,1.2-0.5,2.4-0.9,3.6c0.5-0.4,0.4-1,0.6-1.6c0.3-0.9,0.8-2,1.2-2.9C461.2,174.1,461.8,173.1,462,172.3z"/>
				<path class="st3" d="M555.8,189.9c-0.2,1.1,0,2.4,0.2,3.6c0.2,1.2,0.5,2.4,0.5,3.6C556.9,195.1,556.3,192.2,555.8,189.9z"/>
				<path class="st3" d="M457.6,173c-0.9,1.2-1.6,4-1.7,6.3C456.6,177.1,457.2,175,457.6,173z"/>
				<path class="st3" d="M455.8,173.2c-0.9,1.4-1.3,3.7-1.3,5.7C455,177,455.6,174.9,455.8,173.2z"/>
				<path class="st3" d="M575.1,195.4C574.7,195.7,575.3,196.1,575.1,195.4L575.1,195.4z"/>
				<path class="st3" d="M572.5,195.2c-0.3,0.3,0.1,0.9,0.1,1.3C572.8,196.2,572.4,195.7,572.5,195.2z"/>
				<path class="st3" d="M454,173.5c-1,1.3-0.9,3.3-1.1,5.1c0.5-0.4,0.4-1.2,0.6-2C453.8,175.7,454.1,174.7,454,173.5z"/>
				<path class="st3" d="M452.4,173.6c-0.9,1.3-0.8,3.3-0.8,4.9C452.1,176.6,452.5,175.6,452.4,173.6z"/>
				<path class="st3" d="M450.8,174c-0.8,0.7-0.7,3.3-0.6,4.5C450.8,177.1,450.9,175.3,450.8,174z"/>
				<path class="st3" d="M449.4,174.3c-0.2-0.1-0.2,0.1-0.3,0c-0.4,1.1-0.4,2.8-0.2,4C449.4,177,449.3,175.4,449.4,174.3z"/>
				<path class="st3" d="M448,174.6c-0.1,0-0.2,0-0.3-0.1c-0.6,1.3-0.2,2.6-0.2,3.7C447.9,177.2,448.1,175.6,448,174.6z"/>
				<path class="st3" d="M446.5,174.5c-1,0.8-0.3,2.5-0.4,3.6c0.3-0.1,0.3-0.9,0.4-1.5C446.7,175.7,446.8,175,446.5,174.5z"/>
				<path class="st3" d="M444.6,175.1c0,1.1,0.1,2.1,0.3,3c0.3-0.5,0.4-1.2,0.4-1.8c0.1-0.6,0.3-1.2-0.2-1.4
					C444.9,174.5,444.9,175.1,444.6,175.1z"/>
				<path class="st3" d="M443.2,175.6c-0.1,0.4,0.1,0.9,0.2,1.3c0.1,0.4-0.1,1,0.3,1.2c0.1-0.9,0.5-2,0.4-2.7
					C443.9,175.2,443.4,175.4,443.2,175.6z"/>
				<path class="st3" d="M442.8,175.6c-0.6-0.2-0.8,0.1-1,0.4c-0.1-0.1-0.1-0.3-0.5-0.3c-0.3,0-0.6,0.1-0.8,0.4
					c-1.1,0-1.8,0.4-2.7,0.7c-1.2,0-2.1,0.6-3.4,0.5c-0.1,0.3-0.5,0.1-0.5,0.4c-0.1-0.2-0.5-0.2-0.6-0.1c-0.5,0.1-0.9,0.4-1.7,0.3
					c-0.3,0.3-0.8,0.4-1.3,0.4c-0.3,0.3-0.7,0.4-1,0.7c-0.4-0.3-0.8,0-1.1,0.1c0.1,0.7,0.1,1.4,0,1.9c0.7-0.2,0.8-1.3,1.2-1.9
					c0.2,0.1,0.2,0.5,0.3,0.7c0.6,0,1-0.3,1.2-0.7c0.7,0.2,1.2,0,1.5-0.5c0.5,0.4,1.3,0.2,1.4-0.3c0.3,0.1,0.3,0.4,0.8,0.4
					c0.2-0.2,0.4-0.5,0.6-0.7c0.2-0.2,0.3,0.6,0.7,0.6c0.3-0.2,0.4-0.7,0.6-1.1c0.4,0.2,0.2,0.8,0.8,0.9c0.3-0.3,0.2-1,0.6-1.3
					c0.3,0.3,0.3,0.8,0.5,1.2c0.6,0,0.4-1,0.7-1.4c0.5,0.2,0.4,0.9,0.6,1.4c0.5-0.5,0.4-1.2,0.8-1.9c0.5,0.4,0.3,1.3,0.6,1.8
					c0.3-0.5,0.3-1.6,0.6-2.1c0.7,0.4,0.2,1.6,0.8,2.1C442.5,177.3,442.9,176.3,442.8,175.6z"/>
				<path class="st3" d="M513.6,192.5c-0.1,0-0.2,0-0.2,0.1c-0.3,0.4-0.8,0.5-0.9,1.1C513.1,193.7,513.8,193.3,513.6,192.5z"/>
				<path class="st3" d="M526.2,195.4c-0.5,0.1-0.7,0.6-0.9,1.2C525.9,196.5,526.1,196.1,526.2,195.4z"/>
				<path class="st3" d="M520.1,194.3c-0.4,0.2-1.2,0.3-1,1C519.5,195.2,519.9,195,520.1,194.3z"/>
				<path class="st3" d="M539.2,198c-0.5,0-0.3,0.3-0.3,0.7C539.1,198.6,539.2,198.3,539.2,198z"/>
				<path class="st3" d="M427.5,177.3c-0.2,0-0.1,0.3-0.3,0.3c-0.4,2.4-1.4,4.8-2.1,7.2c1.4-1.8,1.7-4.7,2.5-7
					C427.8,177.5,427.5,177.5,427.5,177.3z"/>
				<path class="st3" d="M524.1,195.3c-0.4,0.1-0.9,0.2-0.9,0.9C523.7,196.1,524,195.9,524.1,195.3z"/>
				<path class="st3" d="M535.5,197.7c-0.3-0.1,0,0.5-0.3,0.4C535.3,198.5,535.5,197.9,535.5,197.7z"/>
				<path class="st3" d="M524.5,197.9c-0.3,0.1-0.4,0.2-0.5,0.5C524.2,198.4,524.4,198.2,524.5,197.9z"/>
				<path class="st3" d="M539,207.3c-0.9,0.7-1.4,1.8-2.1,2.8C537.7,209.3,538.6,208.6,539,207.3z"/>
				<path class="st3" d="M477.9,199.9c-0.1-0.8,0.3-1.9,0.4-2.9c0-0.4-0.1-0.8,0-1.2c0.2-0.6,0.8-1.1,1.2-1.7c0.6-1,1.1-2.1,1-3.5
					c-0.2-1.6-1.6-2.7-2.8-3.7c-0.9-0.8-1.9-1.7-3-2.1c-0.8-0.3-1.6-0.5-2.4-0.8c-0.7-0.3-1.4-0.6-2.3-0.7c-0.4,0,0.2,0.6,0.4,0.8
					c0.5,0.8,1.2,2.1,1.8,2.9c0.9-0.4,1.3-1.4,2-2.1c1.3,0.2,2.2,1.3,3.2,2.2c0.4,0.4,0.9,0.8,1.4,1.3c0.4,0.4,1.1,0.9,1.2,1.3
					c0.3,0.7,0.2,1.8,0.1,2.6c-0.3,1.1-1.2,2.1-1.9,3c-1.5,1.8-3,3.4-4.6,5c-0.8,0.8-2,1.5-2,2.7c2-0.3,3.8-1.1,5.5-2
					c3.5-1.8,6-3.6,9.5-6c0.5-0.4,1.2-0.8,1.8-1.2c1.1-0.7,2.3-1.8,4-1.4c1.3,0.3,2.8,1.2,4.4,2c1.4,0.6,3,1.2,4.6,1.8
					c5,1.8,10,3.3,15.6,4.7c6.5,1.6,13.1,2.6,19.6,3.1c-0.2,0.6-1.2,0.8-1.5,1.5c-0.1,0.4,0.2,1.2,0.3,2.2c0.1,0.7,0.1,1.5,0.1,2.3
					c0.1,2,0.2,3.7,0,5.9c-0.2,1.7-0.5,3.2-0.5,4.9c0.7,0,1.4-0.3,2-0.7c1.5-0.8,2.8-2.1,4-3.5c2.5-2.9,4.1-7.4,5.4-12.3
					c0.6-0.5,1.4-0.4,2.1-0.5c5.2-0.2,10.4-0.8,15.6-1.5c5.7-0.7,11.5-1.3,17.1-2.7c2.7-0.7,5.4-1.4,8.1-2c2.8-0.6,5.6-1,8.4-1.5
					c3.4-0.7,7-1.3,10.5-2.1c1.6-0.4,3.4-0.6,5.1-1.1c0.6-0.2,0.9-0.2,1.5-0.5c0.6-0.3,0.8-0.4,1-1.5c-0.3-0.7-1-0.5-1.5-0.9
					c-0.1-0.1-0.1-0.3-0.1-0.3c-0.1,0-0.2,0.1-0.3,0c0,0,0-0.2-0.1-0.2c-0.2-0.1-0.2,0.2-0.2,0.2c-0.2,0-0.2-0.3-0.5-0.4
					c-0.1-0.1-0.5,0.1-0.5-0.2c-0.3,0.1-0.3,0-0.6,0.2c-0.3,0,0-0.4-0.2-0.5c-0.3,0.1-0.5,0.1-0.6,0.4c-0.3,0-0.7-0.8-0.8-0.2
					c-0.3,0-0.2-0.2-0.3-0.4c-0.3-0.1-0.3,0.2-0.5,0.2c-0.2,0-0.2-0.5-0.3-0.1c-0.4,0-0.1-0.4-0.5-0.4c-0.2,0.1-1.4,0.2-1.6-0.4
					c-0.3-0.2-0.3,0.2-0.5,0.2c-0.2,0.1-0.2-0.2-0.3-0.3c-0.2-0.1-0.3,0.2-0.3,0.1c-0.2,0-0.2-0.2-0.4-0.3c-0.2-0.1-0.2,0.2-0.5,0.1
					c-0.1,0-0.1-0.3-0.3-0.3c0,0.2-0.1,0.3-0.3,0.3c-0.4,0-0.4-0.3-0.6-0.4c-0.2,0-0.1,0.3-0.3,0.3c-0.6-0.3-1.2,0.1-2.1-0.3
					c0.1-0.7,0.7-1.7,1.5-1.7c-0.1-0.6,0.7-0.1,0.6-0.7c0.1-0.1,0.3-0.1,0.5,0c0-0.4,0.2-0.6,0.6-0.4c-0.3-0.5,0.6-0.4,0.6-0.8
					c0.2,0,0.4,0,0.4,0.2c0.3,0,0.1-0.6,0.3-0.7c0.1,0.1,0.2,0.3,0.2,0.5c0.2,0,0.1-0.6,0.3-0.8c0.2-0.2,0.2,0.4,0.3,0.5
					c0.3-0.2,0-0.6,0.2-1c0.4,0,0.1,0.4,0.5,0.4c0.3-0.2,0.1-0.5,0.2-0.8c0.1-0.3,0.3-0.1,0.5,0c0-0.2,0.1-0.4,0.1-0.6
					c0.3,0,0.2,0.2,0.5,0.2c0.1-0.2-0.1-0.2,0-0.4c0.2-0.1,0.6,0,0.5-0.5c0.3,0,0.2,0.2,0.5,0.2c0-0.2,0.1-0.3,0.1-0.5
					c0.7,0.3,0.2-0.6,0.8-0.2c0.1-0.2-0.1-0.3,0-0.4c0,0,0.2,0.1,0.2,0c0,0,0-0.2,0-0.2c0,0,0.2,0.1,0.2,0c0,0,0-0.2,0-0.2
					c0.1-0.1,0.5,0.1,0.4-0.3c0.2,0.1,0.4-0.2,0.8-0.3c0.6-0.4,0.6-0.8,0-1.1c-3.5-2.2-7.2-4-10.8-6.3c-3.5-2.2-7.2-4.1-11-6.2
					c-6.7-3.7-15.2-6.6-22.7-10c-0.5-0.2-1.2-0.5-1.5-0.7c-0.7-0.6-1.2-2.4-1.6-3.5c-1.3-3.4-3-7.1-4.6-10.3
					c-0.4-0.7-0.8-1.4-1.2-2.1c-0.4-0.7-0.7-1.5-1.3-2c-0.6,1-2.5,0.9-3.3-0.1c-0.8,0.3-1.4,0.9-2.5,0.6c-0.7-0.2-1-0.8-1.6-1
					c-0.4,1.1-1.6,1.5-2.6,1c-0.5-0.2-0.7-0.7-1.1-0.9c-0.6,1.3-2.5,1.6-3.7,0.4c-0.7,1.2-2.5,1.5-3.7,0.5c-0.6,0.2-1.2,1.1-2,1.2
					c-0.4,0.1-0.9-0.1-1.4-0.3c-0.7,0.9-2,1.5-3.6,0.8c-0.5,1.4-2,1.9-3.7,1.1c-0.5,1-2.1,1.6-3.3,0.8c-0.3,0.1-0.4,0.5-0.6,0.7
					c-0.9,0.7-2,0.9-3.3,0.2c-0.5,1.1-1.5,1.6-3.2,1.1c-0.8,1.1-1.9,1.8-3.6,1.6c-1,1.7-3.3,1.4-5.6,1.7c-0.7,0.1-1.4,0.2-2.1,0.4
					c-1,0.2-1.5,0.7-2.7,0.3c-0.4-0.1-0.9-0.4-1.4-0.7c-0.8-0.5-1.5-1-2.3-1.6c-0.4-0.3-0.8-0.5-1.1-0.7c-2.4-1.6-4.4-3-7-4.6
					c-1.6-1-3.3-1.9-5.1-2.8c-1-0.4-2-1-2.9-1.2c-0.4-0.1-0.8-0.2-1.3,0c0,1.1,0.9,1.9,1.6,2.6c1.8,1.9,3.6,3.7,5.3,5.8
					c0.6,0.8,1.2,1.4,1.4,2.5c-0.2,2.4-1.7,3.2-3.2,4c-2.2,1.3-5.1,1.7-7.5,2.8c-1-0.8-1.7-1.7-3-2.4c-0.4,1.1-0.8,2.4-1.4,3.5
					c-0.2,0.3-0.4,0.8-0.6,0.9c-0.5,0.5-1.2,0.4-1.7,0.8c-0.8-0.8-1.7-1.5-2.8-2.1c-0.4,1.7-1.1,3-1.8,4.3c-0.2,0.2-0.5,0.3-0.7,0.4
					c-1-0.7-1.6-1.6-2.8-2.1c-0.3,0.9-0.8,1.7-1.2,2.5c-0.6,1.1-0.8,1.7-1.9,2c-0.8-0.6-1.6-1.3-2.3-2c-0.3,0.2-0.4,0.6-0.6,1
					c-0.4,0.8-1,1.6-1.5,2.3c-0.1,0.2-0.1,0.4-0.2,0.5c-0.3,0.4-0.7,0.7-1.2,0.8c-0.9-0.5-1.5-1.3-2.4-1.8c-0.3,0.6-0.8,1.3-1.2,2.1
					c-0.4,0.6-0.7,1.8-1.4,1.9c-0.5,0-0.7-0.6-1.1-0.8c-0.5-0.4-1-0.5-1.4-0.8c-0.9,1.5-1.5,3.3-3,3.7c-0.8-0.7-1.6-1.4-2.8-1.8
					c-0.6,1.3-1.4,2.1-2.1,3.2c-1.3,0.7-2.3-0.7-3.5-1.1c-0.5,0.4-0.7,1.1-1.1,1.6c-0.4,0.5-0.9,0.9-1.1,1.6c-1.1,0.7-2-0.5-3.1-0.8
					c-0.6,1-1.2,2.1-1.8,3.1c-1.1,0.2-2.3,0.9-3.3,1.2c-0.8,0.2-3.4-0.6-4.4-0.8c-3.2-0.8-5.7-2.5-8.6-3.7c-2.2-0.9-4.3-1.6-6.8-2.3
					c-0.7-0.2-1.7-0.4-2.8-0.5c-2.1-0.2-4.5-0.2-6.6,0.1c-1,0.1-1.9,0.4-2.9,0.6c-0.9,0.2-2.1,0.3-2.4,1.3c1.5,0.8,3.5,1.3,5.5,1.8
					c7.5,1.9,12.4,6.3,17.6,10c0.2,1.4,0.2,3,1.3,3.7c1.3,5.3,2,11.8,1.2,18.8c-0.1,1.3-0.5,2.7-0.8,4.1c-0.4,2.3-0.9,4.2-1.3,6.5
					c-0.1,0.5-0.3,1.1-0.1,1.6c0.8,0,1.4-0.9,2-1.4c0.9-0.8,2-1.9,2.7-3.2c1.3-2.3,2.4-5.2,3.2-8.3c0.8-3.2,1.4-7.3,1.9-10.7
					c0.2-1.8,0.7-4.4,1.3-6.2c0.6-2.1,1.6-4.6,2.5-5.2c0.2-0.1,1-0.3,1.3-0.4c0.5-0.1,1-0.1,1.3-0.4c0.5,0.4,1.1,0.5,1.5,0.8
					c0.4,0.3,0.8,0.8,1.3,0.9c0.4-0.7,0.9-1.4,1.3-2.1c0.6,0,1,0.6,1.4,0.9c0.3,0.2,0.5,0.2,0.8,0.4c0.4,0.3,0.7,0.7,1.2,1
					c0.5,0,0.7-0.7,0.9-1c0.3-0.4,0.7-0.7,0.8-1.2c0.3-0.1,0.6,0.1,0.9-0.1c0.8,0.8,1.6,1.7,2.5,2.5c1.2-0.3,1.5-1.8,2.5-2.4
					c0.9,0.1,1.4,0.8,1.9,1.3c0.3,0.2,0.6,0.4,0.8,0.7c0.2,0.2,0.4,0.6,0.8,0.7c0.6-0.8,1.1-1.7,1.7-2.3c0.7-0.2,0.7,0.5,0.9,0.8
					c0.3,0.3,0.6,0.5,0.8,0.8c0.5,0.6,0.9,1.2,1.5,1.7c0.6-0.9,1.4-1.5,1.8-2.5c0.2,0,0.5,0.1,0.7,0.1c0.3,0.1,0,0.6,0.2,0.8
					c0.5,0.4,1,0.8,1.5,1.3c0.4,0.5,0.7,1.1,1.3,1.4c0.5-1,1.1-1.8,1.7-2.7c0.4,0,0.6,0.1,0.8,0.3c0.2,0,0,0.4,0,0.5
					c1.1,0.9,1.4,2.2,2.3,3.2c1-0.5,1.6-1.5,2.2-2.6c0.2,0,0.3,0.1,0.5,0.1c-4.7-1.5-11.3-2.9-16.6-3.5c-2.1-0.3-4.5-0.4-6.8-0.5
					c-2.8-0.2-5.8,0-8.4,0.1c-1.1,0.1-2.2,0.1-3.2,0.3c-1.3,0.2-1.9,0.1-3.2,0.6c-0.7,0.2-1.7,0.5-2.1,1c-0.9,0.9-1.3,3.2-1.9,4.5
					c-0.3-0.1-0.3-0.4-0.2-0.8c-0.4,0.7-1.2,0.8-1.7,1.5c-0.1-0.5-0.3-0.9-0.4-1.4c-0.4,0.2-0.4,0.3-0.5,0.6
					c-0.6,0.3-0.8,1.1-1.4,1.3c-0.2,0.4-0.5,0.7-0.7,1c-0.1,0.1-0.2,0.1-0.2,0.2c-0.1,0.1,0,0.3-0.1,0.4c-0.2,0.2-0.5,0.3-0.6,0.5
					c-0.2,0.2-0.3,0.6-0.4,0.9c-0.2,0.2-0.7,0-1,0.1c-0.1-0.8,0.4-1.1,0.9-1.3c0-0.4,0.5-0.6,0.8-0.9c0.3-0.3,0.4-0.8,0.8-1
					c0.3-2.3,1.4-3.5,2.1-5.4c0.4-1.2,0.9-2.3,1-3.7c-0.7,1.5-1.1,3.3-1.9,4.9c-0.2,0.5-0.4,1.1-0.7,1.5c-0.3,0.5-0.9,0.7-1.1,1.3
					c-0.9,0.4-1.7,1.1-1.9,2.4c-0.4,0.4-1.1,0.2-1.5,0.6c-0.2-0.8,0.5-0.8,0.6-1.6c0.3,0.2,0.2-0.2,0.4-0.3c0.3-0.1,0.8,0,1-0.6
					c0.2-0.5-0.2-0.3-0.2-0.5c0.1-0.3,0.4-0.3,0.5-0.5c-0.1-0.4,0.3-0.6,0.3-0.7c0,0-0.1-0.1-0.1-0.2c0.5-1.1,1.5-2.1,1.9-3.5
					c0.4-1.3,0.8-2.7,1.6-3.6c0.1-0.4,0-0.6-0.1-0.8c0.3,0,0.4-0.1,0.6-0.2c0.2,0.2,0.3,0.4,0.1,0.7c0.2,0.1,0.5,0.2,0.4,0.5
					c0.6-0.1,1.3-0.3,1.7,0c0.3-0.2,0.8-0.3,0.9-0.9c0,0.4,0.4,0.4,0.6,0.5c0,0.5-0.6,0.9-0.4,1.2c0.8,0.2,0.8-0.7,0.6-1.2
					c0.2-0.3,0.4-0.6,0.7-0.6c0.7,0.2-0.1,0.9,0.3,1.3c0.6,0.1,0.6-0.9,0.4-1.2c0.3-0.2,0.4-0.7,0.9-0.4c0.3,0.3-0.4,0.8-0.1,1
					c0.6,0.5,1-0.6,0.6-1.1c0.2-0.3,0.3-0.6,0.8-0.4c0.5,0.2-0.3,0.8,0,1.2c0.4,0.2,0.4-0.2,0.7-0.2c0.3-0.4-0.1-0.6-0.1-1
					c0.2-0.2,0.4-0.5,0.8-0.4c0.5,0.2-0.3,0.9-0.1,1.1c0.5,0.2,0.6-0.2,0.9-0.3c0.1-0.4-0.2-0.6-0.3-0.9c0.2-0.1,0.5-0.6,0.8-0.3
					c0.4,0.2-0.3,0.5-0.2,1c0.5,0.2,0.7,0,1-0.1c0.2-0.5-0.2-0.6-0.3-0.9c0.3-0.3,0.3-0.7,0.8-0.4c0.3,0.4-0.2,0.7-0.2,1.1
					c0.5,0.2,0.7-0.1,1-0.2c0.1-0.4-0.4-0.4-0.3-0.9c0.1-0.3,0.5-0.6,0.8-0.3c0.3,0.3-0.4,0.8-0.1,1.1c0.4,0.2,0.6-0.1,0.8-0.3
					c0.1-0.4-0.3-0.5-0.3-0.8c0.2-0.3,0.3-0.7,0.8-0.5c0.5,0.3-0.4,0.8-0.1,1.3c0.4,0.1,0.5-0.2,0.8-0.3c0.1-0.4-0.3-0.5-0.2-0.9
					c0.2-0.4,0.5-0.7,0.9-0.4c0.3,0.2-0.5,0.8,0,1c0.4,0.1,0.3-0.8,0.3-1c0.2-0.2,0.4-0.3,0.6-0.4c0.5,0,0.3,0.4,0.6,0.5
					c0-0.6,0.4-0.7,0.6-1c0.6,0.2,1,0,1.3-0.3c0.2,0.1,0.2,0.3,0.6,0.3c0.4,0,0.6-0.4,0.9-0.5c0.8,0.3,1-0.2,1.4-0.4
					c0.1,0.2,0.5,0.2,0.6,0.4c0.4-0.2,0.6-0.6,1-0.8c0.2,0.2,0.5,0.3,0.5,0.6c0.3-0.4,0.7-0.7,0.9-1.1c0.1,0.3,0.7,0.3,0.6,0.7
					c0.4-0.3,0.8-0.6,1-1c0.5,0.1,0.4,0.6,0.8,0.7c0.3-0.5,0.8-0.7,1.1-1.2c0.4,0.1,0.4,0.5,0.8,0.7c0.3-0.6,1-0.7,1.3-1.3
					c0,0.4,0.5,0.5,0.6,0.9c0.5-0.4,1.1-0.7,1.6-1.2c0.3,0.1,0.5,0.3,0.9,0.4c0.9-0.3,1.5-0.9,2.2-1.5c0.1,0.4,0.3,0.6,0.5,0.9
					c1.1-0.5,2.1-1.1,3.1-1.8c-0.5,0.4,0.1,0.9,0,1.3c0.9-0.6,1.9-0.9,2.8-1.5c0.4-0.3,0.7-0.6,1.1-0.9c0.4-0.3,0.8-0.5,1.2-0.7
					c-0.8,0.7-1.5,1.6-1.7,2.5c3-1.6,5.8-3.5,8.5-5.4c0,0.2-0.5,0.2-0.3,0.4c-1,1-2.3,2.1-3.4,3.3c-0.1,0.1-0.1,0.3-0.2,0.4
					c-0.1,0.1-1,0.5-0.5,0.6c0.6-0.6,1.4-0.9,2-1.3c0.7-0.4,1.3-0.9,1.9-1.3c0.2-0.1,0.4-0.1,0.6-0.2c0.2-0.1,0.2-0.3,0.4-0.5
					c0.9-0.6,2-1.2,2.8-2.1c0,0.5-0.7,1.2-1.1,1.6c-0.6,1.1-1.1,1.8-2.1,2.5c0.3,0,0.7-0.3,0.9-0.5c0.3-0.2,0.7-0.4,1-0.6
					c0.2-0.2,0.4-0.4,0.6-0.6c0.1-0.1,0.3-0.1,0.4-0.1c0.1-0.1,0.2-0.2,0.3-0.3c0.2-0.2,0.5-0.3,0.7-0.5c0.2-0.2,0.3-0.5,0.5-0.6
					c0,0,0.2,0,0.2-0.1c0.7-0.6,1.5-1.6,2.2-2.5c0,0.8-0.7,1.4-1.1,2.1c-0.1,0.2-0.1,0.5-0.2,0.7c-0.5,0.9-1.2,1.6-1.8,2.3
					c0.3,0.1,0.5-0.3,0.7-0.5c1.6-1.3,3.6-3,4.9-5c-0.1,0.6-0.4,1.4-0.6,2.1c-0.4,1.1-1,2.1-1.7,2.9c0.2,0.1,0.7-0.6,1-0.9
					c1.3-1.3,2.9-2.9,3.7-5.2c-0.2,1.7-0.8,3.5-1.5,5.1c1.4-1.4,2.6-3.2,3.5-5.5c-0.1,1.8-0.4,3.3-0.9,5c1.1-1.4,2-3.1,2.7-5
					c0,1.1,0,2.9-0.4,4.4c0,0-0.4,0.6-0.1,0.4c0.7-1.9,1.8-3,2.2-5.6c-0.1,1.7,0.2,3.1-0.1,4.8c0.4-0.2,0.5-0.9,0.7-1.4
					c0.4-0.8,0.9-1.7,1-2.7c0.2,1.2,0.3,2.4,0.3,3.8c0.5-1.4,1.2-2.8,1.3-3.9c0.3,0.3,0.1,0.8,0.2,1.2c0,0.2,0.2,0.4,0.2,0.6
					c0,0.1,0.1,0.5,0.1,0.6c0.1,0.5-0.1,1-0.1,1.5c0.4-1.2,1-2.6,1.1-3.8c0.2,1.2,0.6,2.1,0.5,3.5c0.5-1,0.8-2.3,1-3.6
					c0.2,1.2,0.7,2.2,0.6,3.6c0.5-1.7,0.7-2.7,0.8-4c0.3,1.2,0.6,2.5,0.8,3.9c-0.1,0.5,0.1,0.3,0.1-0.1c-0.1-0.9,0.6-3,0.5-3.9
					c0.4,1.2,0.6,2.5,0.9,3.9c-0.2,0.5,0.3-0.1,0-0.1c0.3-1.7,0.4-2.4,0.5-4.2c0.4,1.4,0.9,2.9,1,4.5c0.3-1.5,0.3-2.9,0.4-4.6
					c0.4,1.3,0.8,2.8,1,4.2c0,0.1-0.1,0.4,0.1,0.3c-0.1-1.9,0.2-3.1,0.2-4.9c0.5,1.7,1,3.3,1.2,5.2c0.1-0.8,0.1-1.7,0.2-2.6
					c0-0.9,0-1.9,0-2.7c0.6,1.7,1.1,3.5,1.3,5.6c0.2-0.8,0.1-1.8,0.1-2.8c0-1,0-1.9,0-2.7c0.5,1.8,1.1,3.5,1.3,5.4
					c0.1-1.6,0-3.7,0-5.5c0.5,1.7,1.1,3.4,1.4,5.2c0.3-0.6,0.1-1.3,0-1.9c0-1.3,0-2.5-0.2-3.6c0.4,0.9,0.6,1.9,0.8,2.9
					c0.3,1,0.6,1.9,0.7,3c0.2-0.8,0-1.7,0-2.7c0-0.9,0-1.9-0.1-2.8c0.4,0.9,0.6,1.8,0.9,2.7c0.3,0.9,0.6,1.9,0.6,2.9
					c0.2-0.4,0.1-0.9,0-1.4c-0.1-1.3-0.1-2.9-0.3-4.2c0.7,1.7,1.2,3.6,1.6,5.6c0.2-0.4,0-0.8-0.1-1.3c-0.1-1.3,0-2.9-0.2-4.2
					c0.7,1.8,1.2,3.6,1.6,5.6c0.1-0.8-0.1-1.7-0.1-2.7c-0.1-0.9-0.1-1.9-0.1-2.8c0.6,1.8,1.2,3.7,1.6,5.6c0-1.6-0.3-3.7-0.3-5.6
					c0.7,1.9,1.3,3.8,1.7,5.9c0.2-0.9-0.1-1.9-0.2-2.9c-0.1-1-0.1-2.1-0.2-3.1c0.6,1.8,1.2,3.6,1.6,5.6c0.3-0.6-0.1-1.3-0.2-2
					c-0.1-0.6,0-1.2-0.1-1.8c-0.1-0.6-0.1-1.2-0.1-1.7c0.7,1.8,1.2,3.8,1.7,5.7c0.2-0.4,0-0.9-0.1-1.4c-0.1-1.2-0.2-2.6-0.3-4.2
					c0.4,1.4,0.9,2.6,1.3,4c0.1,0.4,0.1,0.9,0.3,1.3c0-0.1,0.1,0.7,0.1,0c0-1.6-0.3-3.7-0.4-5.3c0.5,1.1,0.7,2.4,1.1,3.5
					c0.2,0.6,0.5,1.3,0.6,2c0.2-0.4,0.1-0.8,0-1.3c-0.1-1.3-0.2-2.8-0.3-4.1c0.5,1.7,1,3.4,1.5,5.1c0.3-1.6-0.2-3.6-0.3-5.5
					c0.5,1.9,1,3.8,1.6,5.7c0.3-1.8-0.2-3.8-0.3-5.7c0.5,0.9,0.5,2,0.7,2.9c0.3,1,0.7,1.8,0.9,2.7c0.2-0.9,0.1-1.9,0-2.9
					c-0.1-0.9-0.3-1.9-0.3-2.7c0.5,0.4,0.4,1,0.5,1.5c0.3,1.4,0.8,2.9,1.2,4.4c0.3-1.9-0.2-4-0.3-5.9c0.3,0.5,0.2,1,0.4,1.6
					c0.3,1.4,0.9,3,1.3,4.5c0.3-0.9-0.1-1.9-0.1-2.9c-0.1-1.1-0.1-2.1-0.2-3.1c0.4,2.2,1,4.2,1.6,6.3c0.2-1,0-2.2,0-3.3
					c0-1.1-0.2-2.2-0.3-3.2c0.2,0.5,0.3,1,0.3,1.7c0.1,0.9,0.5,1.9,0.8,2.8c0.1,0.4,0.1,0.8,0.2,1.2c0.1,0.4,0.4,0.7,0.3,1.1
					c0.3-0.7,0-1.5,0-2.2c-0.1-1.6-0.1-3.1-0.2-4.5c0.3,1,0.4,2,0.6,3c0.3,1.3,0.7,2.7,1,4.1c0.2-1.2-0.1-2.5-0.2-3.7
					c0-0.6,0.1-1.3,0-1.9c-0.1-0.6-0.3-1.2-0.2-1.8c0.2,1.4,0.4,2.7,0.8,4c0.3,1.3,0.6,2.5,0.9,3.8c0.3-0.5,0-1.2-0.1-2
					c0-0.2,0.1-0.4,0.1-0.6c0-0.2-0.2-0.3-0.2-0.6c-0.1-1.3,0.2-2.7-0.1-4c0.3,0.1,0.2,0.7,0.2,1.1c0,0.3,0.1,0.7,0.1,1.1
					c0.1,0.7,0.5,1.3,0.6,1.9c0.1,0.3,0,0.7,0,1c0.1,0.2,0.2,0.5,0.3,0.7c0.1,0.5,0.2,1.1,0.3,1.7c0.4-0.5,0-1.1,0-1.6
					c0-0.3,0.2-0.5,0.2-0.8c0-0.5-0.2-1-0.2-1.5c0-0.6,0.2-1.1,0.1-1.8c0.6,2.1,1,4.3,1.5,6.4c0.2-0.5,0-1,0-1.6
					c0-0.5,0.1-1.2,0-1.7c0-0.2-0.2-0.4-0.2-0.6c0-0.5,0.2-1.1,0.2-1.6c0-1-0.3-1.9-0.1-2.8c0.2,3,1,5.6,1.5,8.4
					c0.1-1.7-0.3-4,0-5.8c0.5,1.4,0.6,3,1,4.5c0.1,0.2,0.2,0.4,0.3,0.7c0.1,0.2-0.2,0.6,0.2,0.7c-0.2-1.7-0.3-3.8-0.1-5.4
					c0.5,0.8,0.5,1.8,0.7,2.8c0.2,0.9,0.5,1.8,0.6,2.8c0.3-0.1,0.2-0.6,0.2-0.9c0-1.4-0.3-2.7,0.1-4.4c0.6,1.7,0.7,3.9,1.2,5.6
					c0.3-1.5-0.2-3.9,0.2-5.9c0.5,1.9,0.6,4.1,1.1,6c0.4-1.7-0.1-3.8,0.3-5.6c0.7,1.7,0.5,4.1,1.1,5.9c0.4-1.8-0.1-4,0.4-5.6
					c0.5,1.8,0.4,3.9,1,5.7c0.5-1.7,0-3.3,0.4-5.2c0.5,0.8,0.3,1.8,0.4,2.7c0.1,0.9,0.3,1.9,0.6,2.7c0.4-1.8,0.1-2.9,0.5-5
					c0.4,1.6,0.3,3.6,0.9,5.1c0.6-1.6,0.1-3,0.7-4.7c0.3,1.1,0.2,2.5,0.5,3.7c0.1,0.4,0,0.9,0.4,1c0.4-1.4,0-2.6,0.5-4
					c0.5,1.3,0.1,3.1,0.7,4.3c0.4-0.2,0.4-0.8,0.4-1.1c0.1-0.8,0-1.8,0.3-2.7c0.3,0.2,0.2,0.8,0.2,1.1c0.1,1,0.2,2.3,0.6,3.1
					c-0.2,0.5,0.1,0.7,0,1.2c0.3-1.4,0.3-2.8,0.7-4.9c0.5,1.1,0.1,3,0.7,4.1c0,0.3-0.1,0.7,0.2,0.8c-0.2-0.5,0.1-1.1,0.2-1.7
					c0.1-1,0.1-2,0.4-2.9c0.5,1.3,0,2.9,0.6,4c-0.1,0.5,0.1,0.8,0,1.3c0.4-0.3,0.1-0.8,0.1-1.3c0.2-1.2,0.5-2.5,0.8-3.7
					c0.4,0.8,0.1,1.9,0.2,2.9c0,0.4,0.3,0.7,0.3,1.1c0,0.3-0.2,0.9,0,1.3c0-0.1,0.2,0,0.1,0.1c0.3-0.4,0.3-1.3,0.1-1.6
					c0.5-0.7,0.3-2.5,0.9-3.5c0.4,1.2,0,2.9,0.6,3.9c-0.1,0.3-0.1,0.7-0.1,0.9c0,0.2-0.1,0.6,0.2,0.7c-0.1-1.7,0.2-3.4,0.8-5.1
					c0.4,0.9,0.1,1.9,0.2,2.9c0,0.2,0.2,0.3,0.2,0.6c0.1,0.6,0,1.3,0.1,2c0.2-1.4,0.3-3.7,1-5c0.4,1.2,0.1,2.4,0.4,3.5
					c0.7-0.5,0.5-2.2,1-2.8c0.5,0.8-0.1,2.1,0.7,2.8c-0.1-0.3,0.2-0.3,0.3-0.6c0.2-0.5,0.2-1.2,0.6-1.9c0.3,0.5,0,1.3,0.1,1.9
					c0.1,0.4,0.6,0.5,0.4,0.9c0.5-0.4,0.8-1.2,1-2c0.3,0.7-0.1,1.7,0.6,2.1c-0.2,0.6-0.1,1-0.2,1.6c0.4-0.5,0.1-0.9,0.2-1.3
					c0.2-0.5,0.9-0.8,0.8-1.7c0.3,0.4,0,1.3,0.6,1.6c-0.1,0.6-0.1,1.1-0.1,1.7c0.4-0.4,0.1-0.9,0.2-1.3c0.2-0.5,0.8-0.7,0.9-1.3
					c0.1,0.5,0.1,1.1,0.5,1.4c0.2,0,0.4-0.1,0.7,0c-0.3-0.2,0.1-0.3,0.2-0.5c0.1-0.2-0.1-0.4,0.1-0.5c0,0.6,0.2,1.1,0.5,1.5
					c0,0.5-0.2,1-0.1,1.6c0,0.2-0.1,0.3-0.1,0.5c0.1,0,0.1-0.2,0.2-0.3c0.1-0.7,0.3-1.5,0.2-1.8c0.4-0.1,0.7-0.3,0.8-0.8
					c0.3,0,0.2,0.8,0.1,0.8c0.2,0.3,0.7,0.4,1.2,0.4c0.1-0.2,0.1-0.3,0.2-0.7c0.4,0.2-0.1,0.9,0.7,0.9c-0.1,0.2-0.2,0.3-0.1,0.5
					c0.4-0.2,1.1-0.4,1.1-1.5c0.2,0.3-0.2,1,0,1.4c0.3,0.1,0.6,0.1,0.8,0.1c0.2,0,0.6,0.1,0.6-0.2c0.2,0.1,0.4,0.3,0.7,0.3
					c0.6-0.2,1,0,1.9,0c0.2,0,0.5-0.1,0.7-0.1c0.8,0.1,1.6,0.3,2.4,0.3c1.7,0.1,3.2-0.1,4.6,0.3c0.4,0.1,1.1,0.3,1.7,0.4
					c1.2,0.3,2.5,0.9,3.8,1.3c0.3,0.1,0.6,0.1,0.8,0.2c0.4,0.2,1,0.7,1.6,0.3c0.3,0.7,1.5,0.6,1.9,1c-0.3,0.4-0.8,0.3-1.1,0.2
					c-0.6-0.1-1.2-0.5-1.9-0.7c-0.3-0.1-0.6-0.1-0.9-0.2c-1-0.3-2-0.9-2.7-1c-0.1,0-1.7-0.4-2-0.5c-0.7-0.1-1.7-0.4-2.3-0.6
					c-0.9,0.4-2-0.4-2.8,0.1c-0.5-0.3-1.2-0.3-1.6-0.1c-0.4-0.1-0.6-0.3-1-0.4c-0.4,0.4-1.1,0.2-1.7-0.1c-0.2,0.1-0.5,0.1-0.7,0.3
					c-0.6-0.2-1.2-0.5-1.6,0c-0.1-0.4-0.9-0.7-1.2-0.3c-0.2,0.7,0.2,1.2,0,2.1c0.4-0.3,0.4-1.4,1-1.4c0.8,0.6,0.4,1.6,0.4,2.7
					c0.4-0.8,0.4-2.2,1.1-2.6c0.3,0.1,0.2,0.5,0.3,0.8c0.1,0.6,0.2,1.5,0.1,2.4c0.4-1,0.7-1.8,1.3-2.7c0,0.2,0.3,0.9,0,1.3
					c0.1,0,0.2-0.1,0.3,0c-0.2,0.4,0.1,1.1,0,1.6c0,0.4-0.2,0.9-0.2,1.3c-0.1,0.8-0.1,1.5-0.3,2.5c-0.1,1.1,0.1,2.4,0.2,3.5
					c0.1,2.3,0.2,4.7,0.6,6.9c0.1,0.3,0.2,0.5,0.3,0.8c0.1,0.6,0.1,1.5,0.4,2.1c0.1,0.2,0,0,0-0.1c-0.2-1.8-0.4-3.8-0.6-6
					c-0.1-0.9-0.2-1.8-0.3-2.9c-0.1-0.7-0.1-1.9-0.1-2.6c0-0.5,0.1-0.9,0.1-1.6c0-1.3-0.2-2.6-0.1-3.7c0.2-1.2,1-1.8,1.2-3
					c0.1,1.6,0.1,2.7-0.1,4.6c-0.3,2.1-0.2,4.2-0.1,6.1c0.1,2.8,0.7,5.6,1.1,8.5c0.1-0.7,0-1.3-0.1-2.2c-0.2-1.5-0.4-3.7-0.5-5.4
					c-0.1-1.5,0-3,0.1-4.5c0.1-1.5-0.1-3,0.4-4.6c0.2-0.6,0.7-1,0.6-1.7c0.3,0.2,0,0.6-0.1,0.8c0,0.6,0.3,1.3,0.2,1.9
					c-0.1,0.5-0.3,1-0.4,1.5c0,0.2,0.1,0.3,0.1,0.5c0.1,1-0.1,2-0.1,3c0,0.8,0.1,1.7,0.1,2.1c0,0.2-0.1,0.5,0,0.7
					c0,0.1,0.2,0.2,0.2,0.2c0,0.3,0,0.7,0,1c0.1,0.9,0.2,1.8,0.3,2.6c0.2-0.7,0-1.5,0-2.2c0-0.7,0-1.2,0-1.9c0-0.5,0-2.3,0-3.6
					c0-0.8,0-1.4,0.4-2c0.4,0.3,0.6,0.7,0.7,1.2c-0.1,0.6-0.3,1.3-0.2,1.9c0,1.1,0.1,3.3,0.3,5.1c0.3-0.3,0.1-0.7,0.1-1
					c0.1-1.7,0.2-3.7,0.1-5.4c0.3,0,0,0,0.3-0.4c0.1-0.1,0.2-0.4,0.4-0.4c0.5,0.2,0.3,0.5,0.1,1c0.1,0.2,0.1,0.4,0.2,0.6
					c-0.2,1.7,0.1,3.7,0.2,5.4c0.3-1.4,0.3-3.6,0.3-5c0-0.3,0.2-0.4,0.4-0.5c-0.1-0.3-0.2-0.6-0.2-1c0.2-0.4,0.8,0,1,0.2
					c-0.1,0.3-0.3,0.5-0.5,0.9c0.3,0.1,0.2,0.4,0.4,0.6c-0.5,1.2,0,2.8,0,4.2c0.4-1.2,0.2-2.5,0.4-3.8c0.1-0.6,0.4-1.2,0.2-1.8
					c0.2-0.2,0.4-0.3,0.8-0.3c0.3,0.3-0.1,0.9,0.2,1.4c-0.4,1.2,0,2.6-0.1,3.9c0.1-0.6,0.4-1.5,0.6-2.4c0.1-0.6-0.1-1.2,0-1.8
					c0-0.1,0.4-1.5,0.7-1.5c0.7,0.1,0.1,2.2,0,3.1c-0.1,0.3,0.2,0.2,0.3,0.4c-0.1,0.5-0.1,1,0.2,1.2c0.1-0.7,0.2-1.9,0.8-2.4
					c0.1-0.8-0.2-1.4-0.1-1.9c0.1-0.4,0.5-0.6,0.6-1.1c0.5,0.8,0.1,1.8-0.3,2.6c0.2,0.1,0.2,0.2,0,0.3c-0.2,0.3,0.3,0.2,0.4,0.4
					c-0.1,0.8-0.2,1.2-0.1,2.1c0.5-0.5,0.2-1.3,0.4-2c0.1-0.3,0.4-0.5,0.5-0.9c0.1-0.4,0-1,0.2-1.5c0.2-0.7,0.6-1.3,0.8-2.1
					c0.5,0.7-0.2,2.2-0.3,3.2c0,0.5,0.1,0.9,0.1,1.3c0,0.3-0.1,0.6-0.2,0.8c0,0.2,0.1,0.5,0.1,0.8c0,0.4-0.2,0.7-0.2,1.1
					c0,0.3-0.2,0.9,0.2,1.1c0.2-2.1,0.5-4.6,1.1-6.7c0.3-1.1,0.9-1.9,1.3-2.7c0,0.4,0.1,0.9,0.1,1.4c-0.1,0.8-0.5,1.6-0.7,2.4
					c-0.1,0.6-0.2,1.2-0.3,2.1c0,0.3-0.2,0.9,0.2,1c0.7-1.6,0.7-4,1.4-5.5c0.4-0.8,1-1.2,1.2-2.1c0.2,0.3-0.1,0.7-0.1,1
					c0,0.2,0.1,0.4,0.1,0.5c-0.2,1-0.9,2-1.1,3c-0.1,0.3-0.1,0.7-0.1,1c0,0.3-0.2,0.8,0.3,0.9c1.2-2,1.1-5,2.7-6.4
					c0.5,1.9-1.9,3.7-1,5.4c0.5-0.3,0.8-1,1.2-1.4c0.4-0.1,0,0.4,0.4,0.3c0.7-0.1,1.2-0.6,1.7-1.1c1,0,1.5-0.8,2.4-1.3
					c0.4-0.2,0.9-0.3,1.2-0.4c0.2-0.1,0.2-0.3,0.5-0.3c0.3,0,0.3,0.2,0.6,0.1c-0.3,0.6-0.9,0.5-1.4,0.8c-0.6,0.3-1.1,0.7-1.7,1.1
					c-1.4,0.8-2.7,1.6-4.1,2.5c-0.5,0.3-1,0.6-1.5,1c-0.2,0.2-0.3,0.5-0.5,0.6c-0.2,0.2-0.4,0.3-0.6,0.5c-0.5,0.5-1.1,1.2-1.6,1.8
					c-0.9,1.1-1.9,2.8-3.8,2.4c-0.5-0.1-1.1-0.6-1.6-0.7c1.4,2.3,5,1.1,5.6-0.9c1,0.1,2.1,0.3,3.5,0.4c1.9,0.2,3.9,0.3,5.6,0.8
					c0.2,0.1,0.4,0,0.5,0.3c0.6-0.2,1.2,0.2,1.9,0.2c0.1,0,0.4-0.1,0.5-0.1c1,0.1,2,0.5,2.9,1.1c-0.5,0.5-1.1,0-1.6-0.1
					c-0.6,0-1.2,0.3-1.7-0.1c-0.3,0-0.6,0.1-0.8,0.3c-0.2-0.2-0.5-0.3-0.8-0.5c-0.4,0-0.7,0.2-0.8,0.5c0.1,0.4,0.4,0.7,0.8,1
					c0.1-0.4,0.5-0.3,0.6-0.5c0.3,0.2,0.6,0.5,0.7,0.8c-0.3,0.5-0.4,1.4-1,1.4c-0.2-0.3-0.3-0.8-0.4-1.1c-0.5,0.2-0.5,1.1-0.9,1.4
					c-0.6-0.1-0.3-0.8-0.7-1.1c-0.4,0.2-0.4,1-0.7,1.4c-0.7-0.1-0.6-0.7-0.9-1c-0.3,0.2-0.3,0.9-0.7,0.9c-0.5,0-0.6-0.2-0.8-0.5
					c-0.2,0.2-0.4,0.5-0.7,0.5c-0.5,0-0.5-0.3-0.9-0.4c0,0.4-0.4,0.3-0.6,0.5c-0.4,0-0.4-0.3-0.8-0.4c0,0.4-0.4,0.3-0.6,0.5
					c-0.9-0.5-1.2,0.5-2-0.1c-0.3,0.3-1.3,0.7-1.4,0.1c-0.3,0-0.2,0.5-0.5,0.5c-0.3,0.1-0.8,0-1-0.2c0.2,0.3-0.3,0.3-0.4,0.5
					c-0.3-0.2-0.6,0.2-0.7-0.1c-0.2,0.2-0.6,0.2-0.8,0.4c-0.2,0-0.4-0.1-0.6-0.1c-0.8,0.5-1.8,0.4-2.8,0.6c-0.9,0.2-1.8,0.3-2.7,0.4
					c-1.8,0.2-3.7,0.5-5.6,0.8c-3.7,0.6-7.6,1.2-11.5,1.1c-1.9-0.1-4.4-0.6-6.5-1.1c-1.3-0.3-2.8-0.7-3.7-1.6
					c-0.6-0.6-1.2-1.8-1.7-2.7c-0.7-1.3-1.9-3.2-2.2-4.9c-0.1-0.8,0-1.7-0.1-2.6c-0.1-1.7-0.2-3.5,0.4-5.8c0.4-1.7,1.1-3.4,1.9-5
					c0.1-0.3,0.3-0.6,0.5-0.9c0.3-0.6,0.5-1.3,0.8-1.9c0.2-0.4,0.6-0.5,0.6-1c-0.5,0.1-0.5,0.6-0.7,0.9c-0.4,0.6-0.7,1-1.2,1.8
					c-0.8,1.4-2.1,4-2.6,6c-0.6,2.3-0.5,4.2-0.4,6.4c0,0.7,0,1.4,0.2,2c0.3,1.7,1.2,3.3,2.1,4.8c0.6,1,1.1,2.1,1.8,2.9
					c0.6,0.6,1.7,1.1,2.5,1.4c2.2,0.8,5.5,1.5,8.1,1.6c4.8,0.3,9.2-0.7,13.5-1.3c1.5-0.2,2.9-0.4,4.4-0.5c0.2-0.2,0.7-0.1,1-0.2
					c0.2,0.2-0.2,0.5-0.3,0.7c-0.5,0-0.5-0.3-0.9-0.4c-0.1,0.3-0.2,0.5-0.3,0.7c-0.4,0-0.6-0.2-0.8-0.5c-0.3,0.1-0.3,0.6-0.6,0.7
					c-0.5,0-0.4-0.4-0.8-0.5c-0.2,0.2-0.3,0.5-0.5,0.8c-0.4-0.1-0.4-0.5-0.8-0.6c-0.2,0.2-0.2,0.6-0.4,0.8c-0.4-0.1-0.5-0.4-0.9-0.5
					c-0.2,0.3-0.2,0.7-0.5,0.9c-0.4-0.1-0.3-0.5-0.7-0.6c-0.1,0.4-0.5,0.8-0.4,1c-0.3-0.2-0.4-0.5-0.7-0.8c-0.5,0-0.3,0.7-0.5,0.9
					c-0.5,0.3-0.5-0.8-1-0.5c-0.2,0.4,0,0.7-0.4,0.9c-0.6,0-0.3-0.6-0.7-0.8c-0.6,0,0,1-0.5,1c-0.6,0.2-0.3-0.6-0.7-0.8
					c-0.7,0.1,0,1-0.6,1.1c-0.6-0.1-0.2-0.8-0.8-0.9c-0.4,0.2,0.1,1.1-0.4,1.1c-0.7,0-0.1-0.9-0.9-0.9c-0.4,0.2,0,1-0.2,1
					c-0.7,0.3-0.6-0.7-1-0.9c-0.5,0.2-0.2,1-0.3,1.1c-0.6,0.3-0.5-0.6-0.9-0.8c-0.2,0.1-0.3,0.8-0.2,0.9c-0.8,0.4-1.7,0.3-2.5,0.4
					c-0.4,0.1-0.9,0.2-1.3,0.3c-5.3,0.7-10.9,1.3-16.5,1.7c-0.8,0.1-1.6,0.1-2.5,0.2c-1,0-2.1,0-3,0.4c-0.7,2.7-1.9,4.6-3.2,6.5
					c-0.8,1.3-1.7,2.4-2.7,3.4c-0.6,0.7-1.5,1.6-2.2,2.2c-0.9,0.8-1.7,1.7-2.5,2.7c-0.1-1.7,0.3-2.9,0.4-4.7
					c0.1-1.3-0.1-2.9-0.2-4.3c0-0.6,0-1.4-0.1-2.2c-0.1-0.8-0.4-1.5-0.3-2c0.2-0.6,1-0.9,1.3-1.2c1.7-0.2,3.6-0.1,5.3-0.3
					c0.3,0,0.8,0.2,0.9-0.3c-4.1,0.2-8.4-0.4-12.5-0.9c-0.2,0-1.3-0.1-1.7-0.2c-0.7-0.1-2.6-0.4-2.8-0.4c-3.4-0.5-7.7-1.4-11.2-2.4
					c-1-0.3-2-0.5-3.1-0.8c-3.3-0.8-6.2-1.9-9.4-3c-4.2-1.5-8-3.5-11.8-5.3c-1.1-0.5-2.2-1.1-3.3-1.6c-0.9-0.4-1.7-0.6-2.8-1
					c-0.5-0.2-0.9-0.3-1.6-0.5c-0.8-0.3-1.8-0.7-2.8-0.7c1.3,0.8,2.8,1.1,4.3,1.6c1.2,0.4,2.3,1.1,3.5,1.6c1,0.4,2.2,1.1,3.3,1.7
					c-1.9-0.5-2.7,1.8-4.2,2.3c0.2-0.6,0.9-0.9,1.3-1.4c0.4-0.4,1-1,0.5-1.7c-1.7,0.2-2.7,1.9-3.8,3.2c-0.6,0.8-1.1,1.7-1.8,2.3
					c0.1-0.6,0.5-1.1,0.9-1.8c0.1-0.1,0-0.3,0.1-0.4c0,0,0.2-0.1,0.2-0.2c0.3-0.6,0.4-1.2,0.8-1.8c0.4-0.6,0.7-1.1,1.4-1.3
					c0.1-0.4-0.1-0.6,0.2-0.7c-0.2-0.2-0.5,0.5-0.8,0.5c-0.2,0.4-0.4,0.7-0.7,0.9c-0.5,0.5-0.8,0.8-1.3,1.4
					c-0.1,0.2-0.3,0.5-0.5,0.5c-0.3,0.9-1.1,1.4-1.6,2.2c-0.5,0.8-0.8,1.6-1.3,2.5c0.4-2.9,2-5.3,3.2-7.5c0-0.1-0.1-0.1-0.1,0
					c-0.5,0.3-0.9,0.9-1.3,1.4c-0.2,0.2-0.5,0.3-0.6,0.5c-0.1,0.1-0.1,0.3-0.2,0.4c-0.1,0.1-0.2,0.1-0.3,0.3
					c-0.1,0.2-0.1,0.5-0.3,0.8C479.7,196.2,478.4,197.9,477.9,199.9z M556.6,139.9c0,0.6,0.4,1,0.7,1.4c0.1-0.1,0.1,0,0,0
					c0.1,1,1,1.5,1,2.5c0.3,0.1,1.5,2.1,1.5,3.3c0.8,0.6,0.7,1.8,1.3,2.5c-0.2,0.6,0.5,1.1,0.3,1.4c-0.2-0.3-0.4-0.6-0.5-0.9
					c-0.1,0.2-0.2,0.2-0.3,0c-0.2-0.6-1-2.5-1.2-2.8c-0.1-0.1-0.4-0.7-0.4-0.8c-0.1-0.3-0.4-1.4-0.8-1.4c0-0.7-0.4-1.2-0.8-1.6
					c-0.1-0.7-0.4-1.5-0.9-1.5c0.2-0.4-0.2-1.2-0.7-1.5c0-0.5-0.3-0.8-0.4-1c-0.1-0.2-0.1-0.5-0.3-0.5c0.1-0.6-0.3-0.9-0.5-1.4
					C555.7,138.1,555.7,139.3,556.6,139.9z M553.3,138.7c-0.3,0.2-0.5,0.7-0.7,0.5c0.4-0.6,0.7-1.1,1.4-1.2
					C553.9,138.3,553.5,138.5,553.3,138.7z M551.1,137.4c0.1,0.3,0.4,0.4,0.6,0.6c0.1,0.4,0.3,0.8,0.4,1c0.1,0.1,0.3,0.2,0.4,0.3
					c0.1,0.3,0.1,0.6,0.3,0.9c0.1,0.3,0.5,0.5,0.6,0.7c0.1,0.2,0.1,0.5,0.2,0.8c0.1,0.2,0.4,0.4,0.5,0.6c0.1,0.2,0.1,0.6,0.2,0.8
					c0.1,0.3,0.5,0.5,0.6,0.7c0.1,0.3,0.2,0.6,0.4,0.9c0.2,0.5,0.4,0.9,0.6,1.4c0.2,0.6,0.7,1,0.9,1.4c0.1,0.2,0.1,0.5,0.2,0.8
					c0.3,0.7,0.8,1.3,0.9,2.1c-0.9,0-0.8-0.9-1.1-1.6c-0.1-0.3-0.3-0.5-0.5-0.8c-0.3-0.6-0.6-1.2-0.8-1.8c-0.5-0.9-1.1-1.9-1.3-2.8
					c-0.3-0.1-0.2-0.5-0.5-0.5c-0.1-0.9-0.6-1.4-0.9-2.1c-0.2-0.4-0.5-0.7-0.7-1.1c-0.3-0.5-0.2-1.3-0.9-1.4c-0.4,0.7-1,1.3-1.6,1.7
					c0.4-0.9,1.1-1.3,1.6-2C551.3,137.9,550.6,137.4,551.1,137.4z M556.8,139.5c0.1-0.4,0.4-0.5,0.6-0.6
					C557.3,139.2,557.1,139.4,556.8,139.5z M547.6,146.1c0.5-1.5,1.3-2.6,2.2-3.6c-0.1-0.6-0.3-1.2-0.9-1.4c0-0.7-0.2-1.3-0.9-1.5
					c0.1-0.4-0.2-0.5,0-1c0.3,0,0.4,0.2,0.6,0.2c0.1-0.7,0.8-1,1.2-0.8c-0.2,0.6-0.9,0.6-1.2,1.2c0.1,0.9,1,1.2,1,2.2
					c0.3,0.2,0.3,0.6,0.7,0.7c0,0.8,0.3,1.3,0.9,1.6c-0.1,0.5,0.3,0.6,0.2,1.1c0.4,0.3,0.7,0.7,0.8,1.2c0.2,0.5,0,0.5,0.2,0.6
					c0.6,0.3,0.5,0.8,0.7,1.3c0.4,0.7,1.2,1.2,1.2,2c-0.9,0.1-0.9-0.9-1.1-1.6c-0.9-0.6-0.9-1.7-1.7-2.3c-0.2-0.6-0.3-1.3-1-1.6
					c-0.3,0.9-0.8,1.7-1.4,2.3c0.3-1.1,0.9-1.7,1.4-2.5c-0.2-0.6-0.2-1.2-0.9-1.4C549.1,144,548.3,145.1,547.6,146.1z M557.8,140.7
					c0.3-0.1,0.5-0.4,0.6-0.7c0.2,0,0.3-0.3,0.6-0.2C559,140.2,558,140.7,557.8,140.7z M544.3,141.3c0.8-1.3,2-2.8,3-3.6
					c0.2,0,0.3,0.1,0.4,0.2c0.1,0,0.1,0.1,0.1,0.2c-0.2,0-0.3-0.1-0.4-0.2c-1.6,1.7-3.2,4-4.3,6.1c-0.2,0.3-0.2,0.8-0.6,1
					C543,143.6,543.6,142.4,544.3,141.3z M553.7,140.4c0.2-0.6,0.8-1.2,1.2-1.2C554.5,139.7,554.2,140.3,553.7,140.4z M543,141
					c-0.7,1.1-1.3,2.2-2,3.2c0.6-2.4,2-3.8,3.1-5.6c0.1-0.4-0.3-0.3-0.2-0.7c0.5,0.5,0.7,0,1.3,0C544.5,139,543.7,139.9,543,141z
					 M542.7,138.6c-0.2,0.3-0.4,0.5-0.6,0.7c-0.8,0.9-1.4,2.3-2.2,3.2c0.4-1.8,1.4-2.7,2-4.2c0.5-0.1,0.8-0.6,1.3-0.7
					C543,138,542.8,138.3,542.7,138.6z M558.8,142.1c0.2-0.4,0.4-0.9,0.9-0.9C559.6,141.8,559.1,141.8,558.8,142.1z M554.5,142
					c0.2-0.6,0.6-1,1.1-1.2C555.3,141.4,555,141.8,554.5,142z M551.7,140.3c-0.1,0-0.1,0-0.1,0.1c-0.3,0.5-0.9,1.4-1.3,1.3
					C550.7,141.2,551.2,140.2,551.7,140.3z M544.2,145.4c0.8-2.5,2.1-4.4,3.7-5.8C546.7,141.5,545.4,143.4,544.2,145.4z
					 M540.7,138.8c-0.9,0.4-1.1,1.6-1.9,2.2c0.2-1.3,1-2,1.1-2.8c0.4,0,0.6,0.3,0.8,0.2C540.8,138.5,540.8,138.7,540.7,138.8z
					 M537.6,139.7c0-0.7,0.4-0.9,0.7-1.1C538.5,139.1,538,139.5,537.6,139.7z M559.4,143.7c0.3-0.2,0.4-0.8,0.8-0.9
					C560.5,143.4,559.5,143.8,559.4,143.7z M555.5,143.3c0.2-0.3,0.6-1,0.8-0.8C556,142.7,555.8,143.2,555.5,143.3z M545.8,145.8
					c0.8-1.9,1.6-3.6,3-4.7C547.8,142.7,546.9,144.3,545.8,145.8z M537.5,140c-0.1,0.5,0.5,1.2,1.1,1.5c0.2,0.7,0.5,1.2,1.1,1.6
					c0.1,1.3,1.2,1.9,1.3,3.2c-0.5-0.1-0.7-0.4-0.9-0.9c-0.4-0.9-1.2-1.4-1.3-2.4c-0.4-0.2-0.5-0.5-0.8-0.7
					c-0.2-1.3-1.6-1.8-1.7-3.2c0.1,0.3-0.2,0.2-0.3,0.4c-0.4,0.6-0.6,1.4-1.1,1.9c0-1.2,0.8-1.9,0.8-2.7
					C536.7,138.9,536.8,140,537.5,140z M551.3,143.2c0.3-0.3,0.7-1.3,1-1.1C552,142.3,551.6,143.3,551.3,143.2z M560.4,145.1
					c0.3-0.2,0.3-0.7,0.7-0.7C561.2,144.6,560.5,145.3,560.4,145.1z M556.3,145c0.2-0.3,0.6-1,0.8-0.8
					C556.7,144.3,556.7,144.9,556.3,145z M533,139.9c0.1,0.1,0.1,0,0.1,0c-0.3-0.2,0.3,0.4,0.6,0.3c-0.1,0.4,0.2,0.6,0.1,1
					c0.5,0.2,0.5,0.8,1,1c0.1,1.1,1.5,1.9,1.3,2.9c0-0.1-0.1-0.1-0.1,0.1c-0.5-0.3-0.7-0.9-0.8-1.5c-0.9-0.6-0.8-1.9-1.8-2.5
					c-0.1,0.1-0.1,0.4-0.4,0.3c0.6-0.7-0.4-1.3-0.6-1.9C532.8,139.6,532.9,139.8,533,139.9z M552.6,144.4c0.1-0.3,0.2-0.4,0.4-0.6
					C552.9,144.1,552.7,144.3,552.6,144.4z M536,143.1c0.2-0.8,0.4-1.5,0.9-1.9C536.6,142,536.5,143,536,143.1z M561.1,146.7
					c0.3-0.1,0.2-0.7,0.6-0.7c0,0.1,0.1,0.1,0.2,0.1C561.7,146.3,561.3,146.9,561.1,146.7z M531.2,142.1c0.2-0.8,0-1.4,0.6-1.6
					C531.8,141,531.5,141.7,531.2,142.1z M529.8,141.1c0,0.3,0,0.3,0.1,0.7c0.7,0.8,1.3,1.6,1.6,2.6c0.3,0.3,0.9,0.5,0.9,1
					c-0.2-0.1-0.2,0.1-0.4,0c-0.4-0.1,0.1-0.3-0.2-0.5c-0.3,0-0.2-0.2-0.5-0.2c-0.4-0.7-0.9-1.5-1.3-2.1c-0.1-0.2-0.4-0.2-0.4-0.7
					c-0.1-0.5-0.7-0.8-0.6-1.3C529.4,140.8,529.5,141.5,529.8,141.1z M532.5,143.4c0.1-0.5,0.1-1.2,0.5-1.4
					C532.8,142.8,532.9,143,532.5,143.4z M561.9,148.4c0.2-0.2,0.3-0.5,0.4-0.9c0.3,0,0.3,0.3,0.3,0.6
					C562.3,148,562,148.7,561.9,148.4z M537.6,143.9c0.1-0.5-0.1-0.7,0.4-0.9C537.9,143.4,537.8,143.8,537.6,143.9z M526,142.1
					c0.1,0,0.3-0.1,0.3,0c0.2,0.2,0.3,0.6,0.3,1c0.4,0.7,1.2,1.1,1.3,2c-0.2-0.1-0.7,0-0.7-0.2c0.1,0-0.6-1.1-1.2-1.7
					c0.1-0.6-0.4-0.9-0.6-1.4C525.8,141.5,525.9,142.1,526,142.1z M539,146.3c-0.3-0.1-0.5-0.1-0.8-0.2c0.1-0.4,0.5-0.4,0.7-0.7
					C538.7,145.9,538.9,146.1,539,146.3z M535.2,145.7c0-0.1,0-0.2,0.1-0.3c0.2-0.1,1.2,0.5,1,0.1c0.3,0,0.1,0.3,0.5,0.3
					c0.2-0.1,0.2-0.4,0.4-0.6c0,0.1,0.1,0.2,0.3,0.3c0,0.2-0.2,0.2-0.3,0.3c0.1,0.2,0.6,0,0.3,0.3
					C536.8,145.9,536,145.9,535.2,145.7z M522,142.5c0.4,1,1.4,1.5,1.8,2.5c-0.3-0.1-0.6-0.1-0.7,0c-0.3-0.7-0.7-1.7-1.5-1.7
					C521.6,143,521.6,142.4,522,142.5z M545.6,147.6c-0.2,0-0.4-0.1-0.6-0.1c0-0.4,0.3-0.4,0.4-0.6
					C545.1,147.4,545.7,147.3,545.6,147.6z M543.9,147.2c-0.2,0.1-0.8,0-0.8-0.3c0.4,0.2,0.4-0.3,0.7-0.3
					C543.6,147,543.8,147,543.9,147.2z M542.4,147c-0.5-0.1-0.7,0.1-0.9-0.3c0.3,0,0.3-0.3,0.6-0.3
					C541.9,146.8,542.3,146.7,542.4,147z M534.1,145.5c-0.1,0.1-0.3,0.1-0.5,0c0.1-0.2,0.2-0.6,0.4-0.7
					C533.9,145.2,534.1,145.3,534.1,145.5z M547,148c-0.3,0-0.5-0.1-0.5-0.3c0.2,0,0.3-0.2,0.5-0.2C546.9,147.7,547.1,147.7,547,148
					z M540.5,146.6c-0.3,0-0.4,0.1-0.5-0.2c0.2,0,0.2-0.1,0.3-0.1C540.3,146.4,540.4,146.5,540.5,146.6z M548.6,148.4
					c-0.1,0-0.3-0.1-0.4-0.1c0-0.3,0.2-0.4,0.4-0.5C548.7,148,548.7,148.2,548.6,148.4z M550.3,148.9c-0.3,0.1-0.5,0-0.7-0.1
					c0.1-0.3,0.4-0.4,0.7-0.4C550.2,148.6,550.4,148.6,550.3,148.9z M551.8,149.3c-0.2,0-0.3-0.1-0.4-0.2c0.1-0.3,0.3-0.3,0.5-0.4
					C551.9,148.9,551.9,149.1,551.8,149.3z M561.6,151.3c0.3,0.2,0.5,0.5,0.5,0.9c-0.2,0-0.1,0.1-0.1,0.3c-0.3-0.3-0.6-0.6-0.7-1.1
					C561.7,151.5,561.5,151.6,561.6,151.3z M558,151.4c0.2-0.3-0.2-0.2-0.4-0.3c0.1-0.2,0.3-0.3,0.5-0.3
					C558.4,151.1,558.5,151.4,558,151.4z M519.1,145.1c-0.4,0.1-0.2-0.2-0.3-0.5c-0.1-0.2-0.6-0.9-0.2-0.9
					C518.7,144.1,519.5,144.6,519.1,145.1z M539.4,158.5c0,0.1-0.1,0.1-0.1-0.1c0-0.3-0.2-1.3,0-1.2
					C539.4,157.7,539.4,158.1,539.4,158.5z M601.9,176.7c0.1-0.3-0.1-0.4,0-0.7c0.2,0,0.4,0.1,0.6,0.1
					C602.5,176.5,602.1,176.4,601.9,176.7z M589.6,174.9c0.4-0.4,1.1-1,1.8-0.6C590.8,174.3,590.1,175.1,589.6,174.9z M595.2,175.4
					c0.5,0.9,1.5,2.4,0.6,3.7c-0.5-0.1-0.4-0.7-0.3-1.3c0-1-0.9-1.4-0.9-2.4C594.8,175.3,595,175.4,595.2,175.4z M587.8,178.4
					c0.2-0.7,0.4-1.9,0.9-2.6c1-0.5,3-1,3.9,0.1c-0.6,0-1.4-0.1-2-0.2c-0.8,0.5-1.9,1.1-2,2.4c0,0.2,0.1,0.7,0.2,0.9
					c0.1,0.3,0.3,0.5,0.3,0.8C588.4,179.5,588.1,178.9,587.8,178.4z M604,179.9c0.1-0.1,0.2-0.2,0.3-0.4c0-0.5,0.6-1.2,0.7-1.4
					c0.4-0.5,0,0.1,0,0.1c-0.1,0.8-0.6,1.8-1.1,2.6C603.9,180.5,603.9,180.2,604,179.9z M588.2,175.6c-0.1-0.2,0.1-0.4,0.3-0.5
					C588.5,175.4,588.4,175.6,588.2,175.6z M594.6,179.3c-0.1,0.3-0.4,0.8-1,0.7c0.2-0.6,0.5-1.1,0.5-1.7c0-0.8-0.5-1.2-0.7-1.8
					C594.3,176.8,595,178.4,594.6,179.3z M590.6,180c-0.4-0.2-0.7-0.4-0.9-0.8c-0.4-1.8,1-2.9,2.3-2.8c0.7,0.1,1.4,0.9,1.5,1.4
					c0.2,0.7-0.2,1.8-0.8,2.2C591.9,180.4,591.2,180.2,590.6,180z M609,180.7c-0.4,0.3-1,0.5-1.1,0.9c-0.1,0.2-0.8,0.3-0.7,0.7
					c-0.7,0.1-0.9,0.9-1.7,1c0,0.1,0,0.2-0.1,0.3c-0.4-0.1-0.5,0.4-0.7,0.5c-0.1,0.1-0.2,0-0.3,0c-0.1,0.1-0.1,0.3-0.2,0.4
					c-0.1,0-0.3,0.1-0.5,0.1c-0.1,0-0.1,0.2-0.1,0.2c-0.4,0.3-0.8,0.4-1,0.9c-0.5,0.1-0.9,0.5-1.2,0.8c-0.4-0.1-0.7,0-1-0.3
					c0.5-0.8,1.6-1.3,2.1-1.8c0.3-0.3,0.4-0.4,0.6-0.5c0.5-0.3,0.9-0.8,1.4-0.8c0-0.3,0.2-0.4,0.4-0.5c0.6-0.4,1.4-0.8,1.9-1.1
					c0.2-0.2,0.4-0.3,0.6-0.4c0.9-0.4,1.6-0.8,2.3-1.2C609.7,180.3,609.3,180.5,609,180.7z M587.5,179.1c-0.2-0.6-0.4-1.8,0.4-2.1
					C587.4,177.7,587.9,178.7,587.5,179.1z M613.9,192.3c-0.1-0.3,0.5-0.3,0.4-0.1C614.1,192.1,614.2,192.4,613.9,192.3z
					 M613.5,192.4c-0.4,0.1-0.6,0.4-1.1,0.3C612.1,191.8,613.4,191.4,613.5,192.4z M611.7,192.9c-0.3,0-0.5,0.3-0.9,0.2
					c0.1-0.5-0.1-0.7-0.1-1.1C611.2,191.2,612.3,191.7,611.7,192.9z M602.5,194.9c-0.1,0-0.2,0.1-0.4,0c0-0.1,0-0.1,0-0.2
					c0.1,0,0.1-0.1,0.2-0.1C602.3,194.8,602.5,194.8,602.5,194.9z M600.8,195.4c0-0.1-0.1-0.1-0.2-0.1c0-0.3,0.1-0.4,0.4-0.4
					C601.1,195,601,195.3,600.8,195.4z M599.6,195.6c-0.2,0-0.3-0.1-0.4-0.2c0-0.3,0.3-0.2,0.5-0.3
					C599.8,195.3,599.6,195.3,599.6,195.6z M598.2,195.8c-0.9-0.1-0.1-0.9,0.3-0.4C598.3,195.4,598.3,195.8,598.2,195.8z
					 M597.1,195.6c-0.2,0-0.1,0.4-0.3,0.5c-0.3,0-0.3-0.2-0.5-0.3c0.1-0.3,0.3-0.3,0.4-0.5C596.6,195.6,597.3,195.4,597.1,195.6z
					 M595,195.9c0.4-0.2,0.4-0.2,0.9-0.2C595.9,196.2,595.1,196.5,595,195.9z M593.7,196.1c0.2-0.1,0.5-0.2,0.9-0.1
					C594.4,196.7,593.8,196.6,593.7,196.1z M592.4,196.2c0.3,0.1,0.4-0.2,0.9-0.1C593.3,196.9,592.2,196.9,592.4,196.2z
					 M591.6,196.9c-0.4,0-0.5-0.2-0.7-0.4c0.4,0.1,0.8-0.4,1.1,0C591.8,196.6,591.8,196.9,591.6,196.9z M590.1,197.2
					c-0.1-0.1-0.4-0.2-0.3-0.5c0.2-0.2,0.7,0,1-0.1C590.6,197,590.4,197.2,590.1,197.2z M461.8,183.8c-0.1-0.3-1.5-2-2.2-2.4
					c1.1,0.2,2.3,0.4,3.4,0.6C462.7,182.7,462.3,183.3,461.8,183.8z M456.4,182.7c-0.3-0.4-1.5-1.8-1.7-2.1c1.1,0.3,2,0.2,3.1,0.5
					C457.3,181.7,456.9,182.2,456.4,182.7z M468.3,183.4c-0.4,0.7-0.9,1.4-1.5,1.8c-0.1-0.5-0.8-1.6-1-1.7c-0.1-0.4-0.6-0.6-0.7-1.1
					C466.2,182.8,467.3,183.1,468.3,183.4z M451.5,181.8c-0.7-0.6-1.3-1.2-2-1.8c1,0.1,2,0.2,2.9,0.2
					C452.3,181,451.8,181.1,451.5,181.8z M473.4,185c-0.3,0.6-0.7,1.1-1.2,1.5c-0.3-0.8-1-1.5-1.4-2.3
					C471.7,184.4,472.4,184.8,473.4,185z M445.5,181.6c0-0.5,0-1.1-0.5-1.3c-0.5,0.1-1.1-0.2-1.2-0.6c1.2,0.2,2.2,0,3.4,0.2
					C446.7,180.6,446.3,181.4,445.5,181.6z M440.6,181.5c-0.7-0.1-0.4-0.8-1-1c-0.5,0.1-1-0.2-1.3-0.6c1.1-0.1,2.3-0.1,3.4-0.1
					C441.5,180.4,441,180.8,440.6,181.5z M435.5,181.1c-0.4-0.4-1.1-0.6-1.4-1c0.8,0.1,1.8-0.3,2.4-0.1
					C436.1,180.4,435.9,180.9,435.5,181.1z M477.5,197.4c-0.2,0.3-0.4,0.6-0.6,0.8c-0.5,0.9-0.6,2-1.1,2.9c0-0.8,0.2-1.3,0.3-2
					c0-0.4-0.1-0.8,0-1.1c0.1-0.4,0.6-0.6,0.9-0.9c0.3-0.4,0.5-0.8,0.8-1c0-0.1,0.1-0.1,0.2-0.1C477.8,196.5,477.7,197,477.5,197.4z
					 M474.5,201.4c-0.8-0.4-0.1-1.5,0.3-1.8C474.9,200.2,474.6,201,474.5,201.4z M472.7,202c-0.1-0.2-0.1-0.9,0.3-0.7
					C473,201.7,473,202,472.7,202z M538.2,218.4c-0.7,0.6-1.3,1.3-2,1.6c-0.2,0.1-0.5,0.2-0.8,0.1c0-0.3,0.3-0.4,0.4-0.5
					c0.2-0.1,0.4-0.2,0.6-0.3c0.5-0.3,0.7-0.5,1.1-0.9c0.9-0.7,1.8-1.5,2.5-2.2c0-0.2,0.2-0.2,0.1,0
					C540,216.9,538.9,217.8,538.2,218.4z"/>
				<path class="st3" d="M561.4,169.9c-0.3,0.1-0.4,0.5-0.7,0.7C560.9,170.8,561.3,170.2,561.4,169.9z"/>
				<path class="st3" d="M563.5,170.9c-0.2-0.3-0.1,0.4-0.1,0.6C563.7,171.5,563.3,171.2,563.5,170.9z"/>
				<path class="st3" d="M582.6,177.1c-0.6,2.3-0.3,4.5-0.2,6.3c0,0.7,0,1.4,0,2c0.1,0.8,0.2,1.5,0.2,2.4c0,0.1,0.1,1.9,0.4,2.6
					c0.3,1,0.4,2.6,0.9,3.8c-0.3-1.6-0.3-3.7-0.6-5.4c0-0.2,0-0.4,0-0.5c-0.1-0.8-0.4-1.9-0.5-2.9c-0.1-1.3-0.1-2.7-0.1-4.1
					C582.6,180,582.5,178.6,582.6,177.1z"/>
				<path class="st3" d="M579.6,178.2c-0.4,1.6-0.1,3.1,0,4.7c0.1,1.1,0.1,2.2,0.2,3.4c0,0.1,0.1,0.8,0.1,0.9
					c0.2,3.1,1.1,5.8,1.7,8.8c0.2-0.6-0.1-1.2-0.2-1.7c-0.2-1.4-0.2-2.7-0.4-4.1c-0.2-1.3-0.5-2.6-0.7-3.9
					C579.8,183.6,579.6,180.9,579.6,178.2z"/>
				<path class="st3" d="M546.1,185.6c0.1-0.3,0.7-0.3,0.9-0.1c0.2,3.2,0.7,7,0.7,11.4c-0.1,0.2,0,0.4,0.1,0.2
					c0.2-0.8,0.2-1.7,0.2-2.2c0-0.7,0.1-1.6,0-2.4c0-0.5,0.1-1,0-1.4c0-0.1-0.2-0.2-0.2-0.2c0-0.5,0.1-1,0-1.6
					c-0.1-0.3-0.1-0.7-0.1-1.2c-0.1-1.2-0.6-2.5-0.4-2.8c0.4-0.7,1.8-0.7,2.5-0.9c0.1-0.4,0.4-0.9,0.1-1.1c-0.5,0-0.7,0.5-1,0.8
					c-0.8-0.1-1,0.9-1.8,0.7c-0.3,0.3-0.6,0.5-1,0.7c-0.2-0.4-0.1-0.7-0.4-1.1c-0.4,0.3-0.3,1-0.3,1.4c-0.1,0.3-0.4,0.3-0.7,0.4
					c0.3-0.5-0.2-0.4,0.2-0.7c-0.1-0.3-0.4-0.4-0.5-0.6c-0.4,0.3-0.4,0.6-0.4,1.2c0.3,0.1,0.2-0.2,0.4-0.1c-0.2,0.6-0.6,0.8-1.3,0.7
					c0.1-0.4,0.3,0.2,0.4-0.2c0.1-0.3-0.1-0.4-0.3-0.3c0.3-0.3,0-1.1-0.4-0.9c-0.2,0.7,0.5,0.9,0.1,1.4c-0.2,0.2-0.7-0.1-0.9-0.2
					c0.1-0.3,0-1.1-0.5-1.3c-0.2,0.5-0.2,0.6-0.1,1c-1.5-0.2-1.2-1.9-0.6-2.8c0.3,0.3,0.4,0.8,0.6,1.2c0.5-1.6,0.1-3.4-0.2-4.8
					c-0.1-0.6-0.3-1.3-0.1-1.8c-0.1-0.2-0.4-0.3-0.4-0.6c0.1-0.1,0.2-0.1,0.3-0.2c-0.1-0.2-0.5-0.2-0.5-0.4
					c-0.3-0.1,0.3-0.1,0.2-0.4c-0.3-0.1-0.2-0.5-0.3-0.7c-0.1-0.2-0.2-0.5-0.2-0.7c-0.1-0.5,0-1-0.3-1.4c0.1-0.5,0.4-0.4,0.2-0.8
					c0.6,0.4,0.8,1.4,1,2.2c0.1,0.5,0.2,1,0.1,1.4c-0.1,0.2,0.3,0.2,0.3,0.4c0,0.2-0.1,0.4-0.3,0.4c-0.1,0.3,0.5,0,0.4,0.3
					c0.1,0.2,0.1,0.4-0.2,0.4c0.3,0.3,0.2,0.8,0.3,1.2c0.1,0.4,0.1,0.9,0.2,1.3c0,0.2,0.2,0.4,0.2,0.6c0.1,0.9,0,2,0.5,2.6
					c0.2,0.2,0.6-0.3,0.5-0.4c0,0-0.2,0-0.2,0c0.2-0.8,0.1-1.1-0.1-1.9c-0.2-1-0.3-2.1-0.5-3.2c0-0.2-0.1-0.2-0.2-0.3
					c0.1-0.2-0.2-0.5,0.2-0.4c0-0.1-0.2-0.1-0.4-0.2c0.1-0.4-0.1-0.3,0.1-0.6c-0.3-0.1-0.2-0.6-0.3-0.8c-0.1-0.5-0.2-1-0.4-1.6
					c0-0.1,0.1-0.1,0.1-0.3c0-0.1-0.3-0.1-0.1-0.3c0.1-0.3,0.5-0.1,0.7,0c0.2,0.2,0.1,0.3,0,0.5c0.3,0.2,0.3,0.7,0.3,1
					c0.1,0.4,0.1,0.8,0.1,1.2c0.1,0.7,0.4,1.3,0.2,1.7c0.2,0.3,0.3,0.7,0.3,1.1c0.2,1,0.4,2.2,0.4,3.5c0.4,0-0.1,0.6,0.4,0.5
					c-0.3,0.4,0.2,0.8,0.2,1.2c0.2-0.4,0.2-0.8,0.2-1.3c0.1-1.3-0.9-3.8-0.7-5.3c-0.4-0.3-0.1-0.8-0.5-1.2c0.3-0.2,0-0.4-0.1-0.7
					c-0.1-0.5-0.1-1-0.2-1.5c0-0.2,0-0.3,0-0.4c-0.1-0.3-0.1-0.2,0.2-0.5c0.3,0,0.3,0.2,0.5,0.3c0.2,0.4,0.1,0.8,0.2,1.2
					c0.1,0.4,0.3,0.7,0.3,1.1c0,0.3-0.1,0.6-0.1,0.8c0,0.2,0.1,0.2,0.1,0.4c0,0.1-0.1,0.2-0.1,0.3c0,0,0.2,0.1,0.2,0.1
					c0.4,1.9,0.4,4.3,1.2,6.1c0.2-0.6,0.3-1.2,0.2-1.9c0,0-0.2,0-0.2-0.1c0,0,0.2-0.1,0.1-0.2c0-0.1-0.2-0.1-0.2-0.1
					c-0.1-0.3,0-0.8-0.1-1.2c-0.1-0.3-0.1-0.6-0.1-1c-0.1-0.5-0.4-1.1-0.2-1.7c-0.3-0.2-0.3-0.6-0.4-0.9c-0.1-0.3-0.2-0.6-0.3-0.9
					c-0.1-0.6-0.1-1.3-0.4-1.9c0.2-0.3,0.4-0.4,0.1-0.7c0.3-0.1,0.3,0.2,0.5,0.4c0.3,0.4,0.4,0.6,0.5,1.4c0.1,0.7,0.3,1.3,0.2,2
					c0.4,0.3,0,0.5,0.3,0.8c0.1,0.9,0.3,1.8,0.4,2.7c0,0.3,0,0.7,0.3,0.8c-0.2,0.5,0.2,1.2,0.4,1.7c0.2-0.3,0.2-0.7,0.2-1.1
					c0-0.2-0.2-0.4-0.2-0.6c0-0.3,0.2-0.5,0.1-0.7c-0.1-0.4-0.3-0.9-0.4-1.3c-0.2-0.8-0.3-1.7-0.4-2.3c0-0.2,0-0.4,0-0.5
					c0-0.1-0.2-0.2-0.3-0.4c-0.1-0.3,0-0.7-0.1-1.1c-0.1-0.5-0.4-0.8-0.1-1.2c0.1-0.1-0.1-0.3,0.1-0.5c0.2,0.1,0.1,0.3,0.2,0.5
					c0.2,0.4,0.4,0.6,0.5,1.2c0.2,1,0.2,2.2,0.5,3.3c0.1,0.2,0.1,0.5,0.2,0.8c0.2,1.1,0.4,1.9,0.7,2.9c0.5-1.5-0.2-3.2-0.4-4.5
					c-0.1-0.8-0.3-1.6-0.4-2.3c-0.1-0.5-0.2-0.9,0.1-1.5c0.4,0.4,0.5,1.1,0.6,1.7c0.3,1.7,0.6,3.7,1.2,5.3c0.2-1,0-2-0.1-2.9
					c-0.1-0.5-0.1-1-0.2-1.4c-0.1-0.7-0.6-1.5-0.3-2.4c-0.1,0-0.3,0-0.3-0.2c0.2-0.4,0.6,0.1,0.9,0.1c0.1,0.3-0.3,0.1-0.4,0.1
					c0.9,0.5,0.3,1.9,0.8,2.7c0.8-0.3,0.1-1.4-0.1-1.8c0.1-0.3-0.2-0.5,0.2-0.5c0-0.2-0.6-0.5,0-0.4c0-0.2-0.3-0.3-0.4-0.5
					c-0.4-0.2,0,0.2-0.2,0.2c-6.1-1.6-12.4-1.2-18.1-1.1c-0.1,0.2-0.5,0-0.5,0.3c-1.3-0.4-3.1,0-4.5,0.1c-1.1,0.1-2.2,0.2-3.3,0.5
					c-0.9,0.2-2.3,0.2-3.3,0.3c-2.3,0.3-4.6,1-6.8,1.6c-0.4,0.1-1,0.1-1.2,0.5c0.2,0.9,1.5,0.7,2.2,0.8c4,0.8,8.6,2.1,12.2,3.3
					c0.2,0.1,0.5,0.1,0.7,0.1c1.8,0.5,3.3,1.4,5,2.1c1.3,0.5,2.6,0.9,3.9,1.5c1.2,0.5,2.4,1.1,3.5,1.7c0.1,0.2-0.4,0.3-0.3,0.4
					c0,0,0.2,0,0.2,0c-0.1,0.2-0.2,0.3-0.2,0.5c0,0.1,0.1,0.2,0.1,0.3c0,0.2-0.1,0.3-0.1,0.5c0,0.1,0.2,0.1,0.2,0.1
					c0.1,0.4-0.1,0.8,0,1.4c0,0.1,0.1,0.3,0.1,0.4c0,1.3-0.2,2.7-0.3,4.1c-0.1,0.9-0.2,2.2-0.6,3.2c0.5-0.1,0.5-0.8,0.6-1.5
					c0.5-2.6,0.6-5.1,0.9-7.6c0.1-0.5,0-0.8-0.1-1.3c0-0.2-0.1-0.3,0-0.1c0.3,0,0-0.3-0.3-0.3c0.8,0,1.7,0.7,2.6,0.9
					c0,1.3,0.1,2.6,0.1,3.8c0,0.4,0.1,0.9,0.1,1.3c0,0.3-0.2,0.6-0.2,0.9c0,0.3,0.1,0.7,0.1,1c0,1-0.5,2.3-0.4,3.5
					c0.6-1.1,0.3-2.5,0.5-3.3c0.1-0.3,0.2-0.5,0.3-0.8c0.1-0.9,0-1.8,0-2.8c0-1.2,0.1-2.3,0.1-3.3c0.2-0.1,0.6-0.2,0.7,0
					c0.3,0.8,0.3,1.8,0.3,2.8c0,0.7,0.2,1.7,0.1,2.2c0,0.2-0.2,0.3-0.2,0.5c0,0.5,0.1,1.1,0.1,1.6c0,1.1-0.3,2.2-0.3,3.3
					c0.5-1.9,0.6-4.2,0.7-6.5c0-0.6-0.1-1.6-0.1-2.5c0-0.5,0.1-1,0-1.5c0.3,0.2,0.3-0.1,0.5-0.1c0.4,0,0.3,0.4,0.5,0.5
					c-0.1,3.2,0.3,6.3,0,9.7c0.3-0.9,0.4-1.8,0.4-2.8c0-0.3,0.2-0.6,0.2-0.9c0-0.2-0.1-0.5-0.1-0.8c0-0.5,0.1-1.3,0.1-2.1
					c0-0.2-0.2-0.5-0.2-0.8c-0.1-0.7,0-1.4-0.1-2.1c-0.1-0.4,0-1.5,0.7-1.4c0.3,0.3,0.3,1.3,0.4,2c0.1,1.2,0.1,2.2,0.2,3.5
					c0,1,0.1,3.1,0.2,4.8c0,0.2-0.1,0.3-0.1,0.5c-0.1,0.3,0.1,0.2,0.1,0c0.2-1.5,0.4-3.1,0.3-4.7c0-0.2-0.1-0.4-0.1-0.6
					c0-0.4,0.1-0.9,0.1-1.3c0-0.4-0.2-0.8-0.2-1.2C546.2,187.9,546,186.8,546.1,185.6z M542.8,173.1c-0.1-0.3,0.5-0.2,0.4,0
					C543.1,173,543,173.1,542.8,173.1z M541.8,172.8C542.1,173.3,541.2,172.8,541.8,172.8L541.8,172.8z M538.7,172.6
					c0.1-0.1,0.3-0.1,0.5,0C539.4,173,538.7,172.8,538.7,172.6z M537.9,172.9c0.1,0.2,0.4,0.4,0.4,0.7c0,0.1,0,0.2,0.2,0.3
					c-0.3,0.2,0.1,0.6,0.1,1c0,0.5-0.1,1,0.2,1.2c0,0.3-0.2,0.2-0.3,0.4c0.1,0,0.3,0.1,0.4,0.1c0,0.4-0.2,0.4-0.3,0.6
					c0.6,0,0.2,0.4,0.2,0.6c0,0.1,0.2,0.4,0.2,0.7c0,0.5-0.1,0.8-0.3,0.9c-0.3-0.5-0.3-1.3-0.6-1.8c0-0.3,0.2-0.2,0.2-0.5
					c-0.5-0.1-0.4-0.6,0-0.6c-0.2,0-0.3-0.1-0.4-0.2c-0.2-0.2,0.1-0.5,0-0.6c0,0-0.2-0.1-0.2-0.1c-0.1-0.5,0-0.8-0.1-1.2
					c0-0.2-0.2-0.4-0.2-0.6c0-0.2,0.2-0.2,0.2-0.4c0-0.1-0.2,0-0.2-0.1c0,0,0.3-0.2,0.3-0.3c0,0.1-0.2-0.1-0.2-0.1
					c0,0,0.2-0.1,0-0.2c0.1,0,0.3,0.1,0.4,0.1C538.1,172.7,537.9,172.8,537.9,172.9z M536.2,172.4c0.3,0.1,0.7,0.8,0.8,1.1
					c0.1,0.4,0.1,0.7,0.1,1.1c0.1,0.4,0.2,1.1,0.3,1.3c0.1,0.4-0.2,0.3-0.2,0.6c0.1,0,0.3,0.1,0.4,0.1c0,0.3-0.2,0.5-0.2,0.7
					c0.5,0.2,0.3,1.2,0,1.6c0-0.6-0.7-1.1-0.3-1.8c-0.3,0-0.2-0.3-0.3-0.5c0.1,0,0.2-0.2,0.3-0.3c-0.3-0.1-0.3-0.5-0.4-0.8
					c-0.1-0.5-0.1-1.1-0.3-1.4c0-0.1-0.2-0.2-0.2-0.2c0,0,0.1-0.1,0.1-0.2c0-0.1-0.2-0.1-0.2-0.2c0-0.3,0.2-0.5,0.3-0.9
					C536.3,172.5,536.2,172.5,536.2,172.4z M539.4,173.1c0.4,1,0.5,1.9,0.7,3.2c-0.1,0-0.3,0.1-0.3,0.2c0.2,0,0.4,0.1,0.5,0.2
					c0,0.3-0.2,0.3-0.3,0.5c0.2,0,0.2,0.2,0.4,0.2c0,0.3-0.2,0.4-0.2,0.6c0.4,0,0.2,0.5,0.2,0.7c0.1,0.4,0.3,1.1,0.3,1.4
					c0,0.2-0.2,0.2-0.2,0.4c0,0.1,0.3,0.4-0.1,0.4c0-0.4-0.2-0.6-0.2-0.7c-0.1-0.3,0-0.4-0.1-0.6c-0.1-0.1,0-0.3,0-0.4
					c0-0.1-0.2-0.2-0.3-0.4c-0.1-0.3,0.1-1.1-0.2-1.1c0-0.4,0-0.4,0.2-0.6c-0.3,0-0.4-0.2-0.5-0.4c0.2,0,0.3-0.1,0.4-0.3
					c-0.2,0-0.3-0.1-0.4-0.2c0-1.3-0.7-2.4-0.3-3.2C539.1,173,539.3,173,539.4,173.1z M535.5,175.2c-0.2-0.7-1-1.8-0.3-2.5
					C535.7,173.2,536,174.4,535.5,175.2z M534.4,173.5c-0.1,0.4-0.1,1-0.3,1.2c0.1-0.3-0.4-0.6-0.5-0.9c0-0.1,0.1-0.3,0.1-0.4
					c0-0.1-0.2-0.2-0.2-0.3c0-0.1,0.4-0.1,0.2-0.3C534.4,172.9,534,173.3,534.4,173.5z M532.7,174.6c-0.2-0.5-0.6-1.2-0.2-1.7
					C533,173.1,533.1,174.1,532.7,174.6z M531.4,174.4c-0.1-0.5-0.4-0.8-0.3-1.4c0.1,0,0.2,0,0.3,0.1
					C531.3,173.4,531.8,174,531.4,174.4z M529.9,174.2c0-0.2-0.4-1,0.1-1C530,173.4,530.3,174.1,529.9,174.2z M528.8,174.2
					c-0.3,0-0.1-0.4-0.4-0.4c0.3-0.3-0.2-0.5,0.2-0.6C528.8,173.5,528.7,173.9,528.8,174.2z M527,173.5c-0.1-0.3,0.5-0.2,0.4,0
					C527.3,173.5,527.2,173.6,527,173.5z M527.2,174.2c0.2-0.2-0.3-0.6,0.2-0.5C527.3,173.8,527.4,174.3,527.2,174.2z M536.1,178.3
					c-0.5-0.4-0.8-1.5-0.3-2.3C536.1,176.6,536.3,177.5,536.1,178.3z M534.5,177.8c-0.1-0.5-0.5-1.3-0.1-1.8
					C534.6,176.5,535,177.3,534.5,177.8z M529.1,180.5c-0.3,0.1-0.2-0.6,0-0.5C529.1,180.1,529.2,180.3,529.1,180.5z M533.8,182.1
					c-0.2,0-0.2,0.3-0.5,0.1c0-0.5,0.2-0.7-0.1-1.1c0.2,0.1,0.3-0.1,0.4,0C533.4,181.6,533.7,181.7,533.8,182.1z M530.7,181.2
					c-0.3-0.1-0.3-0.4-0.3-0.7c0.1,0,0.2,0,0.3,0.1C530.7,181,530.6,180.8,530.7,181.2z M532,181.3c0.1,0,0.3,0,0.3,0.2
					c-0.2,0.1-0.3,0.2-0.2,0.4c-0.4,0-0.1-0.6-0.3-0.8c0.1,0,0.3,0,0.3,0.2C532.1,181.2,532,181.2,532,181.3z M535.6,183.3
					c-0.5,0-0.7-0.2-1-0.4c0.1-0.4-0.1-0.7,0.2-0.9c0.1,0,0.2-0.1,0.3,0C535.1,182.5,535.7,182.7,535.6,183.3z M537.2,183.9
					c-0.4,0.1-0.9-0.3-1.4-0.5c0-0.6,0.4-0.7,0.6-1.1C536.6,182.9,537.1,183.3,537.2,183.9z M538.7,184.4c0.2-0.4,0.4-0.6,0.7-0.8
					c0.1,0.4,0.5,0.7,0.7,1.1c0.1,0.2-0.1,0.4,0.1,0.5c-0.6,0.3-1.2-0.3-1.5-0.7c-0.6,0.3-0.9-0.4-1.4-0.5c0.1-0.5,0.3-0.9,0.7-0.9
					C538.1,183.6,538.4,184,538.7,184.4z"/>
				<path class="st3" d="M576.6,179c0.1-0.4-0.2-0.2-0.1,0.1c0.3,3.6,0.4,7,0.9,10.2c0.1,0.5,0.2,1.1,0.3,1.7
					c0.2,0.9,0.3,1.7,0.6,2.6c0.3,0.8,0.5,1.8,0.7,2.8c0.1-0.6,0-1.4-0.1-2.2c-0.2-1.4-0.3-2.9-0.6-4.4c-0.1-0.3-0.2-0.7-0.2-1
					c0-0.2,0-0.5,0-0.6c0-0.1-0.2-0.2-0.3-0.4c-0.1-0.4,0-0.8-0.1-1.2c-0.1-0.8-0.4-1.7-0.5-2.6c-0.1-1.5-0.5-3.2-0.6-4.9
					C576.6,179.1,576.6,179,576.6,179z"/>
				<path class="st3" d="M575.3,179.5c0.1-0.2-0.1-0.2-0.1-0.1c0,0.1,0,0.2-0.1,0.3c0.2,2.7,0.4,5.4,0.7,8.1c0.2,1.4,0.4,2.7,0.6,4
					c0.2,1.3,0.9,2.4,1,3.7c0.3-0.5,0-0.9-0.1-1.4c-0.1-0.8,0.1-1.5-0.1-2.4c0-0.1-0.1-0.2-0.2-0.3c-0.1-0.6-0.3-1.3-0.4-2
					c-0.2-1.1-0.3-2.2-0.7-3.2c-0.3-2.2-0.7-4.4-0.9-6.6C575.3,179.6,575.3,179.5,575.3,179.5z"/>
				<path class="st3" d="M576.3,195.8c0.2-0.4-0.1-0.9-0.1-1.3c-0.1-0.9,0.1-1.7-0.1-2.6c0-0.1-0.1-0.2-0.1-0.3
					c-0.2-1-0.4-1.9-0.6-3.2c0-0.2-0.1-0.2-0.1-0.3c-0.6-2.6-1.1-5.5-1.4-8.4c0.1-0.4-0.2-0.2-0.1,0.1c0.2,0.7,0,1.2,0.1,2.2
					c0,0.3,0,0.5,0.1,0.8c0.1,0.6,0.2,1.5,0.3,2.3c0.1,0.6,0,1.3,0.1,1.9c0.1,0.5,0.4,1.1,0.2,1.7c0.3,0.3,0.2,0.7,0.2,1
					c0.1,0.6,0.2,1.3,0.4,2.1c0.1,0.4,0,0.8,0.1,1.1c0,0.1,0.2,0.2,0.2,0.4C575.7,193.9,576.1,194.9,576.3,195.8z"/>
				<path class="st3" d="M573.6,194.7c0.4-1.2,0-2.4-0.3-3.7c-0.3-1.3-0.4-2.6-0.9-3.7c0.2-0.7-0.2-1.3-0.4-2
					c-0.1-0.6-0.2-1.3-0.3-2c-0.2-1.3-0.5-2.5-0.7-3.8c0-0.4-0.3,0.3,0,0.2c0,2.4,0.5,4.8,0.8,7.3c0.2,1.4,0.3,2.9,0.6,4.4
					c0,0.2,0.1,0.3,0.1,0.4c0,0.3,0.1,1.5,0.3,2c0.1,0.1,0.3,0.3,0.4,0.5C573.4,194.5,573.4,194.8,573.6,194.7z"/>
				<path class="st3" d="M572.6,179.8c-0.2,1-0.1,2.1,0.1,3.1c0.2,1.7,0.5,3.6,0.8,5.7c0.1,0.9,0.1,1.9,0.5,2.9
					c-0.1,1.5,0.5,2.6,1,3.7c0,0.2,0.1,0,0.1-0.1c-0.2-0.7,0.1-1.5,0-2.2c0-0.4-0.3-0.8-0.3-1.1c0-0.2,0.1-0.5,0-0.6
					c0-0.2-0.2-0.3-0.2-0.5c-0.3-1.2-0.4-2.3-0.6-3.5c0-0.2-0.2-0.3-0.2-0.5c-0.1-0.4-0.1-0.8-0.2-1.2c0-0.1,0-0.3,0-0.4
					c-0.1-0.3-0.3-0.7-0.3-1c-0.1-0.4,0.1-0.8,0-1.2C572.9,182,572.5,180.9,572.6,179.8z"/>
				<path class="st3" d="M549.5,176.4c-0.5,0.5,0.3,1.3,0.3,2.1C549.9,178,549.7,177,549.5,176.4z"/>
				<path class="st3" d="M567.2,181c0-0.5-0.1-0.6-0.1-0.7C567,179.8,567.1,181.2,567.2,181z"/>
				<path class="st3" d="M565.9,180.7c-0.1,1,0.2,2,0.3,2.9c0.1,1.2,0.2,2.2,0.4,3.4c0,0.2,0.1,0.5,0.2,0.9c0.2,1.5,0.3,2.9,0.8,4.3
					c-0.1,1.6,0.9,2.5,1,4c0.2-0.5,0-1,0-1.6c0-0.4,0.2-0.9,0.1-1.3c0-0.5-0.2-1.1-0.3-1.7c-0.1-0.3-0.1-0.6-0.2-0.9
					c0-0.1,0-0.3,0-0.4c0,0-0.2-0.1-0.2-0.1c0-0.1,0.1-0.1,0.1-0.1c-0.2-1.2-0.5-2.2-0.9-3.1C566.9,184.8,566.2,182.9,565.9,180.7z"
					/>
				<path class="st3" d="M552.5,178.6c0,0.8,0.2,1.6,0.3,2.4c0.1,0.8,0.2,1.6,0.3,2.3c0,0.1,0.1,0.1,0.2,0.2c0-0.1,0,0.5,0.1,0.8
					c0.2,1.1,0.3,2.4,0.5,3.7c0,0.3,0.1,0.7,0.2,1.2c0,0.4,0.1,0.7,0.1,1.1c0,0.3,0.2,0.7,0.2,1c0.1,0.4,0,0.8,0.1,1.3
					c0,0.3,0.2,0.7,0.2,1c0.2,1.2,0.2,2.5,0.4,3.8c0.3-1.7,0-3.3-0.2-4.9C554.4,187.7,553.5,183.2,552.5,178.6z"/>
				<path class="st3" d="M567.3,196.3c0.2-0.4,0-0.8,0-1.2c0-0.5,0.1-1,0-1.4c0-0.8-0.3-1.9-0.5-2.8c0,0,0.1,0,0-0.1
					c0,0-0.1-0.2-0.1-0.1c-0.2-1.1-0.3-2.2-0.6-3.2c-0.5-2-1-4-1.4-6.1c0-0.2-0.1,0-0.1,0.2c0.4,0.6,0.1,1.4,0.3,2.1
					c0,0,0.2,0.1,0.2,0.1c0,0.1-0.1,0.6-0.1,0.8c0.1,0.9,0.4,1.8,0.5,2.7c0,0.2,0.2,1.1,0.3,1.7c0.2,1.1,0.3,2,0.5,3.1
					c0.1,0.2,0.1,0.5,0.2,0.8C566.6,194,567.1,195,567.3,196.3z"/>
				<path class="st3" d="M561.8,194.9c0.2-1.3,0-2.5-0.2-3.7c-0.1-0.6-0.2-1.2-0.3-1.9c-0.1-0.4-0.2-0.8-0.3-1.3
					c-0.4-2.2-1.1-4.9-1.7-7.2c0.2-0.4-0.3-0.1,0,0C559.9,185.9,560.5,190.5,561.8,194.9z"/>
				<path class="st3" d="M553.6,197c0.3-1.5,0-3.1-0.1-4.7c-0.1-1.5-0.3-3-0.6-4.5c-0.5-3-1.1-5.8-1.7-8.6c0-0.6-0.1,0.5,0,0.7
					c0.1,1,0.5,2.3,0.7,3.3C552.7,187.5,553.1,192.4,553.6,197z"/>
				<path class="st3" d="M560.7,181c-0.1,0.6,0,1.3,0.1,1.8c0.2,1.2,0.4,2.4,0.6,3.7c0.3,1.8,0.6,3.6,0.9,5.4c0.1,0.3,0.1,0.7,0.1,1
					c0.2,0.7,0.5,1.6,0.7,2.5c0.3-0.3,0.1-0.7,0.1-1c-0.1-1.2-0.2-2.4-0.4-3.6c-0.1-0.8-0.3-1.6-0.5-2.2c0-0.1,0.1,0,0.1,0
					c0.1-0.4-0.3-1.1-0.4-1.8c-0.1-0.6-0.2-1.4-0.4-2C561.3,183.5,560.9,182.2,560.7,181z"/>
				<path class="st3" d="M564.5,195.7c0.3-0.5,0-1.1,0-1.7c0-0.3,0.1-0.6,0.1-0.9c0-0.2-0.1-0.3-0.1-0.4c0-0.1,0-0.3,0-0.4
					c-0.1-0.5-0.1-0.9-0.3-1.4c0-0.1-0.1-0.3-0.1-0.3c-0.1-0.5-0.1-1.1-0.2-1.6c-0.5-2.3-1.1-4.7-1.7-7c0.1-0.4-0.2-0.2-0.1,0.1
					C562.7,186.3,563.3,191.3,564.5,195.7z"/>
				<path class="st3" d="M554.9,185.3c0.2-0.7-0.1-1.4-0.2-2.3c0-0.5-0.4-1.9-0.6-2.7c0.1-0.3-0.1-0.2-0.1,0
					C554.3,182,554.6,183.6,554.9,185.3z"/>
				<path class="st3" d="M563.5,182c-0.2,0.6,0,1.2,0.1,1.8c0.2,2,0.5,3.5,0.8,5.5c0.4,2.4,0.9,4.5,1.5,6.9c0.2-0.4,0-0.8,0-1.3
					c0-0.9,0.1-1.5-0.1-2.3c-0.1-0.4-0.2-0.9-0.3-1.4c-0.4-2-0.9-4.4-1.4-6.3C564,183.9,563.7,183,563.5,182z"/>
				<path class="st3" d="M558.1,181c0,2.1,0.5,4.4,0.8,6.5c0.3,2.2,0.7,4.2,1.3,6.1c0.4-0.5,0.3-1.1,0.2-1.7
					c-0.1-1.1-0.4-2.1-0.6-3.2C559.4,186.2,558.8,183.5,558.1,181z"/>
				<path class="st3" d="M588.4,188.5C588.7,189.3,588.4,186.7,588.4,188.5L588.4,188.5z"/>
				<path class="st3" d="M552.2,197c0.4-1,0.1-2.2,0.1-3.3c-0.1-1.1-0.1-2.3-0.2-3.4c-0.2-1.7-0.5-3.1-0.8-4.8
					c-0.1-0.4-0.1-0.6-0.2-1c-0.1-0.3,0-0.3,0-0.5c0-0.1-0.3-0.3,0-0.6c-0.3-0.5-0.2-1.2-0.5-1.7c-0.1-0.3-0.1,0.1,0,0.2
					c-0.1,0.5,0.1,0.8,0,1.4c0.1,0.4,0.3,0.6,0.5,0.9C551.2,188.4,551.9,192.9,552.2,197z"/>
				<path class="st3" d="M587.2,189.5c-0.2-0.3,0,0.3-0.1,0.5C587.5,189.9,587.1,189.6,587.2,189.5z"/>
				<path class="st3" d="M493,172.4c-0.6,0.4-1.1,0.9-1.5,1.4c-0.5,0.3-1,0.7-1.4,1.1c-0.3,0.1-0.7,0.4-1,0.7
					c-0.3,0.3-0.7,0.5-1,0.8c-1,0.8-2,1.6-3.1,2.4c-0.1,0.1-0.2,0.1-0.3,0.2c0,0,0,0.2,0,0.2c0,0-0.2-0.1-0.2,0
					c-0.8,0.5-1.6,1.4-2.4,2.1c-1.6,1.2-2.9,2.7-4.1,4.3c3.4-3.7,7.5-6.2,11.3-9.4c0.6-0.5,1.1-0.9,1.6-1.4
					C491.6,174.1,492.3,173.3,493,172.4z"/>
				<path class="st3" d="M497.2,173.4c-0.2,0.1-0.3,0.2-0.4,0.5C497,173.8,497.1,173.7,497.2,173.4z"/>
				<path class="st3" d="M495,173.2c-0.3-0.2-0.6,0.4-0.9,0.7c-0.2,0.2-0.3,0.3-0.5,0.4c-1.1,1-2.5,2.1-3.8,3.1
					c-0.1,0.1-0.1,0.3-0.3,0.4c0,0-0.2-0.1-0.2,0c-0.2,0.1-0.3,0.3-0.5,0.4c-0.1,0.1-0.1,0.2-0.2,0.3c-0.1,0.1-0.3,0-0.3,0
					c-0.3,0.2-0.6,0.5-0.9,0.8c-2.6,2-5.4,3.8-7.4,6.6c-0.2,0,0,0.1,0,0c0.6-0.5,1.4-1.3,2.1-1.8c0.1-0.1,0.3-0.3,0.4-0.5
					c0,0,0.2,0.1,0.2,0c0.1,0,0.2-0.3,0.3-0.4c0.3-0.3,0.6-0.5,0.9-0.8c0.8-0.6,1.6-1.1,2.5-1.8c0.3-0.2,0.5-0.6,0.9-0.8
					c0.1-0.1,0.3,0,0.3,0c0.1-0.1,0.1-0.2,0.2-0.3c0.2-0.1,0.4-0.2,0.6-0.3c1-0.8,2.2-1.7,3.2-2.6c0.1-0.1,0.3-0.3,0.4-0.5
					C493,175.5,494,174.3,495,173.2z"/>
				<path class="st3" d="M490.5,172.3c-1.1,0.8-2.2,1.7-3.3,2.6c-0.5,0.4-0.8,0.7-1.4,1c-0.9,0.6-2.1,1.5-3.1,2.3
					c-0.2,0.1-0.3,0.3-0.5,0.4c-0.2,0.1-0.4,0.2-0.6,0.3c-0.3,0.3-0.6,0.7-0.9,1c-0.1,0.1-0.3,0.1-0.3,0.1c-0.1,0.1-0.1,0.2-0.2,0.3
					c-0.1,0.1-0.3,0.1-0.3,0.1c-0.3,0.3-0.8,0.8-1.2,1.2c-0.4,0.4-0.7,0.8-1.1,1.3c0.3,0.1,0.4-0.2,0.6-0.3c0.5-0.4,1-1,1.5-1.4
					c0.6-0.5,1.5-1.1,2.2-1.7c0.2-0.2,0.5-0.3,0.5-0.6c0.6-0.1,0.9-0.6,1.3-0.9c0.8-0.6,1.5-1.1,2.3-1.7c0.1-0.1,0.2-0.2,0.3-0.3
					c0.4-0.3,0.9-0.6,1.3-0.9c0.1-0.1,0.1-0.2,0.2-0.3C488.6,174.1,489.8,173.3,490.5,172.3z"/>
				<path class="st3" d="M501,174.7c-0.4,0.4-0.7,0.9-1.1,1.3c-1,1.2-2.2,2.3-3.3,3.4c-0.9,0.6-1.7,1.4-2.5,2.1
					c-0.8,0.7-1.7,1.2-2.6,1.9c-1.7,1.3-3.3,2.7-4.9,4.2c0.3,0.1,0.6-0.3,0.8-0.5c0.8-0.6,1.8-1.3,2.7-1.8c0.3-0.2,0.1-0.3,0.3-0.5
					c0.6-0.2,1.1-0.6,1.6-1c0.8-0.5,1.5-1.1,2.2-1.7c0.2-0.2,0.5-0.3,0.7-0.5c0.3-0.2,0.4-0.4,0.6-0.6c1-0.8,2.1-1.7,3-2.8
					c0,0,0.6-0.7,0.8-1c0,0,0.2,0,0.2-0.1c0.1-0.2,0.2-0.5,0.3-0.7C500.3,175.8,500.7,175.3,501,174.7z"/>
				<path class="st3" d="M488.4,188.4c0.4,0.1,0.7-0.4,1-0.6c0.3-0.2,0.7-0.4,1-0.7c0.1-0.1,0.1-0.2,0.3-0.3c0,0,0.2,0.1,0.2,0
					c0,0,0-0.2,0-0.2c0,0,0.2,0.1,0.2,0c0.1,0,0.1-0.3,0.3-0.4c0.1-0.1,0.2,0,0.3,0c0.1-0.1,0.1-0.2,0.2-0.3c0,0,0.2,0.1,0.2,0
					c0.1,0,0.1-0.3,0.3-0.4c1.3-1,2.7-1.8,3.9-2.9c0.1-0.1,0.2-0.2,0.3-0.3c0.1-0.1,0.2-0.1,0.2-0.2c0.1-0.1,0.2-0.3,0.4-0.5
					c0.1-0.1,0.3,0,0.3,0c0.1-0.1,0.1-0.2,0.2-0.3c0.1-0.1,0.4-0.2,0.5-0.3c1.8-1.6,3.4-3.5,4.6-5.8c0.3-0.8-0.3,0.4-0.4,0.6
					c-0.4,0.6-1,1.2-1.6,1.8c-0.5,0.6-1,1.3-1.6,1.8c-0.3,0.3-0.6,0.5-0.9,0.8c-0.3,0.3-0.6,0.5-0.9,0.8c-0.6,0.5-1.2,1.1-1.8,1.6
					C493,184.6,490.5,186.5,488.4,188.4z"/>
				<path class="st3" d="M498.8,174.5c-0.4,0.2-0.6,0.7-0.9,1c-0.3,0.3-0.6,0.6-0.9,0.9c-0.6,0.6-1.1,1.3-1.9,1.7
					c-0.8,0.9-1.7,1.6-2.7,2.4c-0.1,0.1-0.2,0.2-0.3,0.3c0,0-0.2,0.1-0.2,0.2c-0.3,0.3-0.8,0.5-1,0.9c-0.3,0-0.4,0.2-0.6,0.3
					c-0.5,0.3-0.9,0.6-1.5,1c-0.3,0.3-0.6,0.6-0.9,0.8c-0.1,0.1-0.2,0-0.3,0c-0.1,0.1-0.1,0.2-0.2,0.3c-0.1,0.1-0.3,0.2-0.5,0.3
					c-0.1,0.1,0.1,0.1,0,0.2c-0.1,0.1-0.3,0-0.3,0c-0.1,0.1-0.1,0.2-0.2,0.3c-0.8,0.6-1.6,1.5-2.3,2.3c0.1,0,0.1,0,0.1-0.1
					c1-0.9,2.1-1.6,3.2-2.5c0.6-0.4,1-0.9,1.6-1.3c0.5-0.4,1.2-0.6,1.7-1.1c0.2-0.1,0.2-0.4,0.4-0.6c0.6-0.5,1.2-0.8,1.8-1.3
					c0.6-0.4,1.1-1,1.7-1.4c0.3-0.4,0.6-0.8,1.1-1c0.1-0.5,0.5-0.7,0.8-1c0.3-0.3,0.4-0.5,0.7-0.8c0.1-0.2,0.2-0.3,0.4-0.6
					C498,175.6,498.5,175,498.8,174.5z"/>
				<path class="st3" d="M487.4,172.6c-0.4-0.1-0.6,0.3-1,0.6c-0.2,0.1-0.4,0.2-0.6,0.3c-0.4,0.3-0.7,0.7-1.3,0.8
					c-1.2,1-2.4,2-3.7,2.9c-0.5,0.3-0.8,0.6-1.3,1c-0.2,0.2-0.4,0.5-0.7,0.7c-0.4,0.4-1,0.7-1.5,1.1c-0.2,0.2-0.3,0.5-0.4,0.7
					c-0.4,0.5-1.1,1-1.5,1.6c0.2,0.1,0.5-0.3,0.7-0.5c1.1-1.1,2.3-2.3,3.6-3.3c0.1-0.1,0.2-0.1,0.2-0.2c0.2-0.2,0.7-0.4,1-0.7
					c0.1-0.1,0.1-0.3,0.3-0.4c1-0.8,2.2-1.5,3.2-2.3C485.6,174.3,486.4,173.3,487.4,172.6z"/>
				<path class="st3" d="M490.8,188.9c0.1,0.3,0.3-0.1,0.5-0.1c0.5-0.3,1-0.7,1.5-1.1c0.2-0.2,0.2,0,0.3-0.1c0.3-0.2,0.7-0.5,1-0.8
					c1.4-1,2.8-1.9,4.1-3.1c0.8-0.7,2-1.5,2.6-2.3c0.2-0.2,0.4-0.5,0.6-0.7c0.4-0.5,1-0.8,1.3-1.2c0.5-0.7,1.6-2.5,1.9-3.4
					c0-0.1,0.3-0.2,0-0.2c-1.1,1.9-2.6,3.3-3.9,4.9c-0.4,0.2-0.6,0.6-1,1c-0.5,0.4-1.2,1-1.7,1.6c-0.8,0.3-1.3,0.9-1.8,1.4
					C494.4,186.1,492.5,187.4,490.8,188.9z"/>
				<path class="st3" d="M496.4,174.6c-0.3-0.1-0.6,0.2-0.8,0.4c-0.2,0.2-0.5,0.5-0.7,0.7c-0.5,0.4-0.9,0.9-1.4,1.3
					c-0.3,0.2-0.6,0.4-0.8,0.6c-0.1,0.1-0.1,0.2-0.2,0.3c-0.1,0-0.2,0-0.2,0.1c-0.5,0.4-1,0.7-1.5,1.2c-0.3,0.3-0.5,0.4-0.9,0.7
					c-0.1,0.1-0.2,0.2-0.3,0.3c-0.2,0.1-0.7,0.3-0.9,0.8c-2.5,1.5-4.7,3.5-6.7,5.7c0.6-0.3,1-0.8,1.5-1.2c0.5-0.4,1-0.8,1.5-1.2
					c0.5-0.4,1-0.8,1.5-1.2c0.7-0.5,1.4-0.9,2.1-1.5c0.1-0.1,0.2-0.2,0.3-0.3c0.1-0.1,0.3-0.1,0.3-0.1c0.8-0.6,1.7-1.3,2.6-2
					c0.2-0.2,0.6-0.4,0.9-0.6c0.2-0.1,0.3-0.4,0.4-0.6c0.4-0.3,1-0.8,1.4-1.2c0.6-0.6,1.1-1.1,1.5-1.7
					C496.1,174.7,496.1,174.6,496.4,174.6z"/>
				<path class="st3" d="M587.5,191.6c0-0.2-0.2,0.1,0,0.1c-0.1,0.4,0.1,0.6,0,1c0.4,0.3-0.1-0.6,0.1-0.9
					C587.5,191.7,587.5,191.7,587.5,191.6z"/>
				<path class="st3" d="M515.5,178.2c-0.4,0.6-0.5,1.2-0.8,1.9c-0.4,1.1-1.1,2.2-1.7,3.3c-0.6,1.2-1.1,2.1-1.9,3
					c-0.4,0.4-0.7,0.9-1.1,1.3c-0.1,0.1-0.3,0.1-0.4,0.3c-0.5,0.7-1.3,1.5-2.1,2c-0.1,0.3-0.3,0.4-0.3,0.7c-1.4,0.7-2.3,2-3.6,2.8
					c0.4,0.1,0.7-0.3,1.1-0.5c0.1-0.1,0.3-0.1,0.3-0.1c0.1-0.1,0.2-0.3,0.3-0.4c1.1-0.8,2.5-1.6,3.6-2.7c0.8-0.8,1.6-1.6,2.3-2.6
					c0.1-0.1,0.3-0.2,0.4-0.3c0.1-0.2,0.1-0.3,0.2-0.4c0.3-0.5,0.6-0.9,1-1.4c0.4-0.5,0.6-1,1.1-1.8c0.2-0.3,0.5-0.7,0.6-1
					C515,180.8,515,179.6,515.5,178.2z"/>
				<path class="st3" d="M506.4,176.7c-0.2-0.2-0.5,0.3-0.7,0.6c-0.6,0.8-1.2,1.9-1.9,2.7c-0.4,0.3-0.8,0.7-1.1,1.2
					c-3.1,3.3-6.8,5.8-10.2,8.6c0,0.1,0.1,0.1,0.1,0c2.2-1.2,4-3.1,6.2-4.3c0.2-0.5,0.7-0.6,1.1-1c0.4-0.3,0.7-0.7,1.1-1.1
					c0.7-0.6,1.5-1.2,2.2-1.9C504.6,180.1,505.5,178.5,506.4,176.7z"/>
				<path class="st3" d="M522,179.6c-0.5,0.7-0.4,1.6-0.5,2.3c0,0.2-0.3,0.5-0.3,0.7c-0.5,1.5-0.9,3.6-1.7,5.1
					c-0.1,0.2-0.3,0.5-0.5,0.8c-0.4,0.7-0.9,1.5-1.5,2.2c-0.2,0.2-0.4,0.4-0.5,0.6c-0.2,0.2-0.3,0.5-0.5,0.8c-0.1,0.1-0.2,0-0.4,0.3
					c0,0-0.1,0.3-0.3,0.6c-0.4,0.5-1,0.8-1.5,1.4c-0.2,0.2-0.4,0.4-0.5,0.6c-0.4,0.4-0.8,0.7-1.2,1.2c0,0.1,0.1,0.1,0.1,0
					c1-0.8,1.9-1.7,3-2.4c0.5-1.1,1.4-1.7,2.2-2.5c0.4-1.1,1.2-1.9,1.9-3.2c0.8-1.6,2-3.9,2.2-5.9c0-0.2,0-0.4,0-0.6
					C522,180.9,522.3,180.3,522,179.6z"/>
				<path class="st3" d="M523.7,180c-0.2,0.1-0.3,0.7-0.5,1.4c-0.3,1.3-0.4,2.2-0.7,3.4c-0.4,1.4-0.8,2.7-1.5,4
					c-0.4,0.8-0.8,1.7-1.3,2.3c-0.4,0.5-0.9,0.9-1.3,1.5c-0.1,0.2-0.1,0.4-0.2,0.6c-0.1,0.1-0.2,0.2-0.4,0.5c-0.7,1-1.6,1.9-2.5,2.7
					c0.3,0.1,0.4-0.3,0.6-0.4c0.2-0.2,0.4-0.4,0.6-0.6c0.7-0.6,1.5-1,1.9-2.1c0.2-0.3,0.7-0.3,1-0.6c0.4-0.4,0.7-1.2,1.1-1.9
					c0.6-1,0.9-1.4,1.5-2.8C522.9,185.4,523.9,182.8,523.7,180z"/>
				<path class="st3" d="M518.7,179.1c-0.2,0.6-0.6,1.8-0.9,2.7c-0.2,0.6-0.5,1.1-0.7,1.7c-0.2,0.7-0.4,1.3-0.7,1.9
					c-0.1,0.3-0.3,0.6-0.5,0.9c-0.2,0.3-0.3,0.6-0.5,0.9c-0.3,0.5-0.7,0.7-1.1,1.3c-0.6,1-1.4,2-2.4,2.6c0,0.4-0.3,0.4-0.3,0.8
					c-0.6,0.6-1.6,0.5-1.8,1.6c0.2,0,0.4,0,0.6-0.1c0.1-0.1,0.2-0.3,0.3-0.4c0,0,0.2,0.1,0.2,0c0.1-0.1,0.2-0.2,0.3-0.3
					c0.3-0.2,0.3-0.4,0.7-0.7c0.5-0.5,1.2-1.1,1.7-1.7c0.1-0.1,0.3-0.2,0.4-0.4c0.3-0.4,0.5-0.8,0.9-1.2c0.4-0.5,0.8-0.8,0.9-1.4
					c0.4-0.4,0.7-1.1,1.1-1.8c0.1-0.2,0.1-0.4,0.2-0.6c0.2-0.3,0.7-0.9,0.9-1.4c0.3-0.8,0.4-1.6,0.5-2.3
					C518.6,180.4,518.9,179.7,518.7,179.1z"/>
				<path class="st3" d="M511.8,177.8c-0.5,0.6-0.6,1.5-1,2.1c-0.1,0.2-0.4,0.4-0.5,0.6c-0.2,0.3-0.2,0.6-0.4,0.9c0,0-0.2,0-0.2,0.1
					c-0.2,0.3-0.5,1-0.8,1.3c-0.3,0.4-0.6,0.7-0.9,1.1c-0.3,0.4-0.5,0.9-0.9,1.2c-0.6,0.7-1.5,1.2-2,2c-1,0.6-1.8,1.7-2.9,2.3
					c-0.5,0.3-1.1,1-1.6,1.4c-0.4,0.3-0.7,0.6-1.1,1c-0.1,0.1-0.4,0.2-0.1,0.1c0.3-0.1,0.8-0.4,1.2-0.6c0,0,0-0.2,0-0.2
					c0,0,0.2,0.1,0.2,0c0,0,0-0.2,0-0.2c0.1,0,0.3,0,0.5-0.1c0.1-0.1,0.2-0.3,0.4-0.4c0.6-0.4,1.2-0.9,1.8-1.4
					c0.3-0.2,0.7-0.4,1-0.7c0.3-0.2,0.5-0.5,0.8-0.8c0.3-0.3,0.6-0.5,0.9-0.8c0.9-0.8,1.7-1.9,2.7-2.8c0-0.4,0.4-0.7,0.6-1.1
					c0.7-0.9,1.3-2.3,1.9-3.5C511.3,179,512,178.2,511.8,177.8z"/>
				<path class="st3" d="M484.1,172.8c-0.2-0.1-0.4,0.1-0.6,0.2c-0.7,0.4-1.5,1-2.2,1.5c-0.1,0.1-0.3,0.1-0.3,0.2
					c-0.2,0.2-0.4,0.4-0.8,0.6c-0.1,0.1-0.2,0.2-0.3,0.3c-0.1,0-0.4,0.3-0.5,0.3c-0.3,0.2-0.9,0.6-1.2,0.9c-0.5,0.4-0.9,0.9-1.3,1.4
					c-0.7,0.7-1.4,1.2-2.1,2c-0.4,0.4-0.6,0.7-1,1.3c0.6-0.4,1-1,1.4-1.4c0.2-0.2,0.5-0.4,0.7-0.6c0.2-0.2,0.1-0.3,0.3-0.5
					c0.5-0.5,1.3-1,1.9-1.5c0.3-0.2,0.5-0.4,0.7-0.6c0.3-0.2,0.6-0.3,0.8-0.5c0.4-0.3,0.7-0.7,1-1c0.6-0.5,1.1-0.8,1.7-1.3
					c0.1-0.1,0.1-0.2,0.3-0.3c0,0,0.2,0.1,0.2,0c0.1,0,0.1-0.4,0.3-0.5c0,0,0.2,0.1,0.2,0C483.7,173.4,483.9,173.1,484.1,172.8z"/>
				<path class="st3" d="M548.6,184.8c0-0.3-0.4,0.1-0.5,0.1c0,0.1,0.2,0.1,0.4,0.2C548.4,185,548.5,184.8,548.6,184.8z"/>
				<path class="st3" d="M513.7,178.3c-0.4,0-0.2,0.4-0.3,0.6c-0.5,1.3-1.3,2.6-2.1,3.8c-0.3,0.4-0.4,0.9-0.7,1.3
					c-0.7,1.1-1.7,2-2.6,3c-0.3,0.3-0.6,0.8-0.8,1c-0.3,0.3-0.8,0.5-1.1,0.8c-0.3,0.2-0.4,0.6-0.7,0.8c-0.6,0.6-1.4,1-2,1.5
					c-0.1,0.1-0.1,0.2-0.3,0.3c-0.5,0.3-1,0.9-1.6,1.3c0.5,0.1,1.2-0.7,1.8-1.2c1.3-1,2.9-1.9,4-3.3c1.5-1.1,2.7-2.7,3.9-4.3
					C512.4,182.2,513,180.3,513.7,178.3z"/>
				<path class="st3" d="M526.8,180.9c-0.5,0.3-0.4,1-0.5,1.4c-0.5,2.5-0.5,4.6-1.5,6.8c-0.3,0.7-0.7,1.6-1.1,2.3
					c-1.2,2.4-2.9,4.6-4.6,6.5c0.8-0.7,1.6-1.5,2.3-2.3c0.3-0.3,0.7-0.7,0.9-1c0.1-0.2,0.1-0.4,0.2-0.6c0.1-0.1,0.3-0.2,0.4-0.4
					c0.4-0.6,0.7-1.2,1.1-2c0.2-0.3,0.5-0.7,0.6-1c0.3-0.6,0.3-1.2,0.5-1.8c0.1-0.3,0.3-0.6,0.4-0.9c0.2-0.5,0.3-1.3,0.5-1.7
					c0.1-0.3,0.2-0.5,0.3-0.9C526.8,184,527.1,182.3,526.8,180.9z"/>
				<path class="st3" d="M471.8,181.1c1.3-1.3,2.5-3,4-4.2c0.7-0.6,1.4-1.1,2.1-1.6c0.1-0.1,0.1-0.1,0.2-0.2
					c0.2-0.1,0.5-0.4,0.9-0.6c0.2-0.1,0.5-0.6,1-0.7c0-0.2,0.1-0.3,0.2-0.4c0.2-0.2,0.6-0.4,0.9-0.7c0.1-0.1,0.2-0.2-0.1-0.2
					c-0.8,0.8-1.9,1.1-2.8,1.9c-0.3,0.2-0.4,0.4-0.6,0.6c-0.5,0.5-1.3,1.1-1.9,1.7c-0.5,0.5-1,1.1-1.6,1.6c-0.3,0.3-0.6,0.4-0.9,0.7
					c-0.1,0.1-0.2,0.4-0.3,0.6C472.6,180,472.1,180.5,471.8,181.1z"/>
				<path class="st3" d="M548.5,185.4c-0.3,1.2,0.1,2.8,0.3,4c-0.2,0.6,0,1.2,0.1,1.9c0,0.5,0,1.3,0,1.5c0,0.5,0.1,1,0.1,1.6
					c0.1,1,0.2,2.1,0.2,3.2c-0.1,0.1-0.1,0.6,0,0.3C549.6,193.3,549.3,189.3,548.5,185.4z"/>
				<path class="st3" d="M470.2,180.1c0.7-0.6,1.2-1.5,1.8-2.2c1.7-2,4.2-3.4,6.1-5.4c0.2-0.3-0.4,0.1-0.7,0.3
					c-1.6,1-3.1,2.4-4.4,3.9c-0.1,0.1-0.3,0.3-0.4,0.5c-0.2,0.2-0.4,0.2-0.5,0.3c-0.3,0.3-0.4,0.8-0.8,0.8
					C471.1,179.1,470.4,179.3,470.2,180.1z"/>
				<path class="st3" d="M531.2,182.4c-0.7,2.4-0.3,5.2-0.9,7.7c-0.1,0.4-0.4,0.7-0.5,1.1c-0.1,0.4-0.1,0.9-0.2,1.3
					c-0.2,0.7-0.7,1.5-0.9,2.2c-0.2,0.6-0.4,1.1-0.9,1.4c-0.2,0.8-0.6,1.4-1,1.9c0,0.1,0.1,0.1,0.1,0c1.1-1.1,1.9-2.8,2.7-4.7
					c0.5-1.2,0.9-2.3,1.2-3.7c0.4-1.7,0.7-3.3,0.9-4.7c0-0.3,0.2-0.7,0.2-0.9c0,0-0.2-0.2-0.2-0.2
					C531.6,183.5,531.7,182.6,531.2,182.4z"/>
				<path class="st3" d="M475.5,172.2c-0.3-0.1-0.6,0.2-0.9,0.4c0,0-0.8,0.6-1.1,0.8c0,0-0.2,0.1-0.2,0.2c-0.2,0.2-0.4,0.6-0.7,0.8
					c-0.2,0.2-0.4,0.3-0.6,0.4c-0.4,0.6-0.9,1.1-1.4,1.7c-0.5,0.5-0.9,1.2-1.4,1.5c-0.3,0.8-0.9,1.3-1.2,2.2
					c1.2-1.5,2.2-3.2,3.5-4.5c0.7-0.7,1.3-1.3,2-1.9C474.2,173.4,474.8,172.7,475.5,172.2z"/>
				<path class="st3" d="M472.4,172.2c-0.3-0.1-0.5,0.3-0.8,0.5c-0.2,0.2-0.5,0.3-0.7,0.5c-0.4,0.2-1.1,1.2-1.5,1.6
					c-1.2,1.4-2.6,3.1-3.2,4.9c0.5-0.7,1-1.4,1.4-2.1c0.1-0.2,0.2-0.6,0.4-0.8c0.3-0.4,0.7-0.9,1.1-1.3c0.3-0.4,0.7-0.8,1.1-1.2
					C470.8,173.8,471.7,173.1,472.4,172.2z"/>
				<path class="st3" d="M587.8,193.9c-0.2-0.2,0.1,0.7,0,1C588.1,194.7,587.8,194.2,587.8,193.9z"/>
				<path class="st3" d="M586.5,194.3c-0.2-0.3,0,0.4,0,0.5C586.7,195.2,586.6,194.4,586.5,194.3z"/>
				<path class="st3" d="M585.3,194.4c-0.2-0.2,0,0.7,0,1C585.5,195.2,585.3,194.7,585.3,194.4z"/>
				<path class="st3" d="M568.6,191.4c0,2,1.1,3.3,1.4,5.1c0.2,0.3,0-0.2,0-0.2c-0.1-1.3,0.1-3.6-1.2-4.5
					C568.8,191.7,568.9,191.4,568.6,191.4z"/>
				<path class="st3" d="M584,194.8c-0.3,0.2,0.1,0.6,0,1C584.3,195.6,584,195.1,584,194.8z"/>
				<path class="st3" d="M582.7,194.8c-0.3,0.2,0.1,0.7,0,1.1C583,195.7,582.7,195.1,582.7,194.8z"/>
				<path class="st3" d="M457.4,179.5c0.5-0.4,0.5-1.5,0.8-2.4c0.3-0.8,0.7-1.5,1-2.3c0.1-0.2,0-0.4,0.1-0.5
					c0.2-0.5,0.4-1.1,0.6-1.6c0-0.5-0.5,0.5-0.7,0.9C458.2,175.4,457.8,177.1,457.4,179.5z"/>
				<path class="st3" d="M570.6,194c0.1,0.9,0.6,1.5,0.7,2.6C571.3,196.1,571.5,194.2,570.6,194z"/>
				<path class="st3" d="M573.8,195.9c-0.2-0.3,0,0.4,0,0.5C574,196.7,573.9,196,573.8,195.9z"/>
				<path class="st3" d="M557.7,193.9c-0.5,1,0.3,2.3,0.2,3.1C558.2,196.1,557.8,194.8,557.7,193.9z"/>
				<path class="st3" d="M509.5,191c-0.4,0.1-0.6,0.4-0.9,0.7c-0.9,0.9-1.8,1.8-2.9,2.5c0.3,0,0.9-0.5,1.3-0.8
					c0.2-0.1,0.5-0.4,0.8-0.6C508.4,192.4,509.7,192,509.5,191z"/>
				<path class="st3" d="M537.4,197.6c-0.3,0,0,0.7-0.3,0.7C537.2,198.6,537.5,197.6,537.4,197.6z"/>
				<path class="st3" d="M533.9,197.1c-0.7-0.2-0.5,0.9-0.8,1.2c0.1,0.2,0.2-0.2,0.3-0.3C533.5,197.8,533.8,197.4,533.9,197.1z"/>
				<path class="st3" d="M529.5,197.4c-0.2,0.1-0.3,0.4-0.4,0.7C529.3,197.9,529.3,197.6,529.5,197.4z"/>
				<path class="st3" d="M511.8,194.2c-0.6,0.3-0.9,0.9-1.4,1.3c-0.3,0.1,0.2,0.1,0.4-0.1c0.2-0.1,0.6-0.6,0.8-0.6
					C511.6,194.5,512,194.4,511.8,194.2z"/>
				<path class="st3" d="M509,194.2c-0.6,0-0.7,0.7-1.2,0.8C508.1,195.1,508.8,194.6,509,194.2z"/>
				<path class="st3" d="M522.7,197.1c-0.2-0.3-0.4,0.4-0.6,0.5C522.3,197.9,522.5,197.2,522.7,197.1z"/>
				<path class="st3" d="M518.1,196.5c-0.6-0.1-0.7,0.7-1.1,0.9C517.2,197.4,517.8,196.9,518.1,196.5z"/>
				<path class="st3" d="M515.2,196.6c-0.1-0.4-0.3,0.1-0.5,0.1C514.8,197,515,196.6,515.2,196.6z"/>
				<path class="st3" d="M540.1,210.7c0,0.3-0.3,0.5-0.5,0.8c-0.6,0.7-1.2,1.4-1.9,2.1c-0.8,1-1.7,2-2,3.2c1.2,0.6,1.8-0.7,2.6-1.4
					c0.8-0.8,1.8-1.7,2.6-2.8c0.7-0.9,1.3-1.9,1.9-2.7c0.5-0.7,0.9-1.3,1.3-2.2c0.1-0.2,0-0.4,0.1-0.5c0.2-0.4,0.7-1.3,0.7-2.1
					c-0.2-0.2-0.3-0.4-0.3-0.7c-1.5,0.5-1.8,2.6-2.7,3.8c-0.2-0.5,0.2-2,0.5-2.6c-0.4,0.1-0.6,0.6-0.8,0.9c-0.7,1-1.4,2-2.2,3
					c-0.5,0.7-1,1.3-1.5,1.9c-0.5,0.6-1.2,1.2-1.2,2c0.3,0,0.3,0.1,0.5,0.1c0.5-0.1,1.1-0.8,1.5-1.2
					C539.2,211.8,539.7,211.2,540.1,210.7z"/>
			</g>
			<path class="st3" d="M600,186.3c0.3-0.4,2.3-2.4,3.4-3.1c1.1-0.7,4.5-2.9,4.5-2.9l1.6-0.7l0.8-0.3c0,0-0.4,0.9-0.8,1.2
				s-1.6,1.2-1.6,1.2l-0.6,0.5l-1.4,1.1l-1,0.7l-1.2,1.2l-1.4,0.9l-1.6,1.3L600,186.3z"/>
		</g>
		<g>
			<rect x="344.8" y="419.2" class="st4" width="12.8" height="48"/>
			<path class="st4" d="M404.2,438c14.2,1,17.7,2.8,17.7,13.8c0,7.9,0.3,15.7-20.8,15.7c-12.2,0-20.3-0.3-20.3-16h12.3
				c0,5,1.8,5.5,8.1,5.5c6,0,8-0.4,8-4.4c0-4.2-0.7-4.1-6.7-4.5l-2.8-0.2c-11.8-0.8-18.7-0.8-18.7-14.5c0-13.8,7.7-14.7,20.3-14.7
				c10.5,0,19.5,0.2,19.5,13.4v2h-12.3c0-4.9-2-4.9-7.2-4.9c-6.9,0-7.5,1.4-7.5,4.1c0,3.8,1.9,4,5.2,4.2L404.2,438z"/>
			<polygon class="st4" points="457.2,456 477.2,456 477.2,467.2 444.4,467.2 444.4,419.2 457.2,419.2 			"/>
			<path class="st4" d="M509.9,458.9l-2.4,8.3h-13.3l14.4-48h19.5l14.6,48h-13.1l-2.5-8.3H509.9z M518.6,428.8h-0.1l-5.8,20.8h11.9
				L518.6,428.8z"/>
			<polygon class="st4" points="575.4,467.2 562.6,467.2 562.6,419.2 584.3,419.2 598,456 598.5,456 597.8,419.2 610.6,419.2 
				610.6,467.2 588.7,467.2 575.2,430.3 574.7,430.3 			"/>
			<path class="st4" d="M635.5,419.2h24.3c13.4,0,19.3,5,19.3,18.6v10c0,13.1-4.2,19.3-17.6,19.3h-26V419.2z M648.3,456h11.2
				c4.7,0,6.5-3.1,6.5-8.2v-10c0-6.2-2-7.5-6.5-7.5h-11.2V456z"/>
		</g>
		<g>
			<path class="st4" d="M200.3,325.9c8,8,12.9,18.8,12.9,29.7c0,31.2-37.1,45.4-63.1,45.4c-9.7,0-31.9-4.2-42.8-22.6
				c-0.6,1.1-1.3,2.3-1.9,3.4c-2.3,4.4-5.3,6.1-8,6.1c-6.8,0-13.7-9.7-13.7-20c0-3,0.6-6.1,2.1-9.1c4.4-8.6,44.7-59.3,66-85.2
				c-12.2,3.6-22.6,7.6-27.8,11.2c-2.1,1.5-4.4,2.1-6.3,2.1c-8.2,0-11-10.5-11-17.1c0-3.6,1.3-5.9,4.4-7.2
				c7.2-3.2,45.4-18.1,78.7-18.1c21.9,0,33.3,3.4,43.7,23.6c3,5.3,8.7,12.7,8.7,19C242.1,300.6,223.7,316.4,200.3,325.9z
				 M170.8,334.3c-10.5,0-24.3,2.5-39,8.2c-5.9,7.8-11.4,15.6-16.2,22.6c4.9,7,17.7,10.3,31.9,10.3c22.2,0,46.8-8.9,46.8-27.4
				C194.2,335.8,180.3,334.3,170.8,334.3z M199.9,265.5c-4.4,0-9.3,0.4-14.1,1.1c1.7,1.7,2.7,3.2,2.7,4.8c0,1.5-0.8,3-2.5,4.4
				c-2.1,1.9-14.8,16.7-29.7,35.2c19.4-0.4,66.2-17.9,66.2-34.4C222.5,266.4,206.8,265.5,199.9,265.5z"/>
			<path class="st4" d="M326.1,362.4c-13.5,18.6-30,31.4-39.9,31.4c-11.8,0-17.7-10.3-20-20.3c-9.3,8.4-19.2,15.2-24.7,15.2
				c-3.6,0-7.8-0.8-11-8.2c-3.4-7.4-8.7-7.2-8.7-14.3c0-30,40.5-67.7,53.8-73.4c1.7-0.6,3.4-1.3,5.1-1.3c3.4,0,7.4,1.7,13.3,6.8
				c2.1,1.5,4.4,4.8,5.9,9.3c2.3-3.8,4-6.3,4.8-7.4c1.5-1.7,3.2-2.5,5.3-2.5c6.8,0,15,8,15,14.8c0,1.9-0.6,3.6-2.1,5.1
				c-5.9,5.7-36.5,46.6-36.5,51.1c0,5.1,2.7,7.2,5.1,7.2c5.9,0,16.5-5.5,33.5-26.2c1.1-1.3,2.1-1.7,3.2-1.7c1.5,0,2.7,1.3,2.7,3.6
				C331,354,329.7,357.8,326.1,362.4z M290,312.8c-12,0-48.1,44.7-48.1,57.2c0,1.7,0.6,2.7,1.9,2.7c11.2,0,44.5-47.7,50.8-57
				C293.4,313.7,291.9,312.8,290,312.8z"/>
			<path class="st4" d="M381.4,355c-3,5.1-32.9,35.4-46.6,35.4c-11,0-21.5-12.2-20.7-23.6c1.1-13.9,12-35.9,39.9-72.4
				c2.5-3.4,4.6-4.4,6.8-4.4c4.6,0,19.2,7.8,18.8,12.7c-0.2,1.5-0.8,3-2.5,4.9c-24.5,27.4-43.2,61-43.9,69.4c0,1.3,0.4,2.1,1.1,2.1
				c9.1,0,31-20,43.7-34.4c0.8-0.8,1.5-1.3,2.1-1.3c1.9,0,3,3.2,2.7,6.8C382.6,351.9,382.2,353.5,381.4,355z M388.5,279.9
				c-11.8,0-18.8-7.6-18.1-14.8c0.4-6.3,6.3-12,19.4-12c12.9,0,17.9,6.1,17.5,12.7C406.9,272.8,399.7,279.9,388.5,279.9z"/>
			<path class="st4" d="M468.9,351c-7.4,16-25.9,35.9-44.7,35.9c-9.3,0.2-14.3-7.6-14.3-18.8c0-8.6,9.1-26.6,17.3-36.7
				c-19.4,13.1-51.9,58.4-56.3,58.4c-6.7,0-16-6.8-16-12.9c0-0.6,0.2-1.5,0.4-1.9c3.2-8.6,38.8-71.1,41.3-75.1
				c2.1-3.4,4.2-4.4,6.3-4.4c4,0,16.7,7.8,16.7,11.8c0,0.8-0.2,1.9-0.8,3c-1.9,3.2-23.4,37.8-32.1,50.4c14.6-16,52.9-58,57-62.6
				c1.7-1.7,3.2-2.3,4.9-2.3c4.2,0,16.9,9.7,16.9,14.1c0,1.5-0.8,3.2-2.5,5.3c-21.5,26.8-32.9,46.2-32.9,54.2c0,2.7,1.9,5.3,4.6,5.1
				c7.6,0,26.6-20.9,31-27c0.6-0.8,1.3-1.1,2.1-1.1c1.3,0,1.7,0.6,1.7,2.5C469.3,349.5,469.3,350.2,468.9,351z"/>
			<path class="st4" d="M523.7,296.2c0.6,0,1.1,0,1.7,0c9.3,0,13.5,6.5,17.7,10.8c3.6,3.6,5.7,7.8,5.7,16.7
				c0,18.4-39,67.7-59.9,67.7c-7.2,0-9.9-2.7-14.1-7c-7.2-7.2-17.1-9.3-17.1-28.3c0-19,67.1-92.8,74.5-110.1
				c1.1-2.5,3.2-3.6,6.3-3.6c7.6,0,17.7,5.9,17.7,14.8C556.2,263.3,540.6,270,523.7,296.2z M521.2,310.3c-8.4,0-45.1,40.3-45.1,55.5
				c0,3.8,2.1,5.9,7,5.9c9.1,0,44.9-40.3,44.9-55.5C528,312.6,526.1,310.3,521.2,310.3z"/>
			<path class="st4" d="M637.2,355.2c-7.2,13.5-31.4,35.4-44.7,35.4c-8.6,0-21.1-9.3-21.1-22.2c0-19.4,20.3-40.9,32.5-54.4
				c-6.1,0-15,0-17.3-0.4c-1.5-0.2-32.9,52.5-45.4,66.9c-1.3,1.7-3.2,2.3-4.9,2.3c-2.7,0-5.5-2.1-5.5-5.1c0-1.7,0.6-3.6,2.3-5.5
				c6.8-8.2,38-55.7,39-58.6c0-0.4,0.2-0.8,0.2-1.3c0-1.9-0.6-4.2-0.6-7c0-2.3,0.4-5.1,2.1-7.6c5.7-8.6,13.9-21.9,25.7-21.7
				c2.3,0,3.8,0.6,3.8,3.2c0,3.6-2.7,9.1-5.1,12.9c0.6,0,1.1,0,1.7,0c9.1,0,23.2-3,26.4-3.4c0.4-0.2,0.8-0.2,1.3-0.2
				c5.5,0,10.5,12,10.5,16.9c0,2.5-0.8,4.8-2.7,6.5c-13.7,11.6-43.7,48.5-43.7,60.8c0,2.7,1.7,3.8,4.2,3.8c12,0,38.4-27.4,40.5-30
				c0.4-0.4,0.8-0.6,1.3-0.6c0.8,0,1.5,1.1,1.5,2.7C639.3,350.4,638.7,352.7,637.2,355.2z"/>
			<path class="st4" d="M689.8,355c-3,5.1-32.9,35.4-46.6,35.4c-11,0-21.5-12.2-20.7-23.6c1.1-13.9,12-35.9,39.9-72.4
				c2.5-3.4,4.6-4.4,6.8-4.4c4.6,0,19.2,7.8,18.8,12.7c-0.2,1.5-0.8,3-2.5,4.9c-24.5,27.4-43.2,61-43.9,69.4c0,1.3,0.4,2.1,1.1,2.1
				c9.1,0,31-20,43.7-34.4c0.8-0.8,1.5-1.3,2.1-1.3c1.9,0,2.9,3.2,2.7,6.8C691,351.9,690.6,353.5,689.8,355z M696.9,279.9
				c-11.8,0-18.8-7.6-18.1-14.8c0.4-6.3,6.3-12,19.4-12c12.9,0,17.9,6.1,17.5,12.7C715.3,272.8,708.1,279.9,696.9,279.9z"/>
			<path class="st4" d="M811.5,263c-25.9,26.4-71.9,93.5-71.9,111.4c0,2.3,1.1,3.6,3.2,3.6c9.1,0,34.6-30.2,38.6-34.8
				c0.6-0.6,1.5-0.8,2.1-0.8c2.1,0,4,2.3,4,5.1c0,0.6,0,1.5-0.4,2.1c-2.3,4.2-27,41.6-47.9,41.6c-9.1,0-16.2-7.8-19.4-14.8
				c-6.8,5.7-17.1,12.9-22.6,12.9c-7.2,0-11-2.7-14.1-7.4c-2.7-3.8-9.5-8-9.5-15.2c0-25.7,42-74.5,60.3-74.5
				c12.4,0,12.2,10.3,16.9,13.5c12.9-19.8,28.3-41.8,44.5-61.2c0.8-1.1,1.9-1.5,3-1.5c4.4,0,16.5,9.5,16.5,14.3
				C814.6,259.2,813.6,260.9,811.5,263z M737.6,317.3c-0.8,0-1.7,0.2-2.7,0.6c-8.7,3.4-40.7,39.9-40.7,56.1c0,1.5,1.3,2.5,2.7,2.5
				c5.1,0,17.3-9.3,29.3-31.4c3-5.1,9.3-15.6,15.4-25.3C740.8,318.1,738.9,317.3,737.6,317.3z"/>
			<path class="st4" d="M868.2,308.2c-35.9,50-49.2,112.2-80.8,116.2c-24.7,3.2-40.5-11-41.3-21.3c-0.2-3.2,1.3-4.4,3.4-4.9
				c4.6-0.4,12,3.4,13.9,6.5c4.6,7.8,9.5,10.3,14.1,9.7c9.3-1.1,23.2-19.2,27-32.5c-2.7,3-9.1,6.1-10.8,6.3
				c-5.9,0.8-10.3-4-13.3-6.1c-3.2-2.7-12.4-4.2-13.7-18.1c-1.9-19.8,36.5-68.6,59.3-71.3c8-1.1,7.4,3.8,11,7c2.7,2.3,4.9,4,6.1,5.5
				c3.6-5.9,5.3-9.3,5.3-9.3c1.3-2.3,2.7-3.2,4.2-3.4c3-0.4,6.1,3,8.4,3.4c4,1.1,8.7,3,9.1,6.8C870.3,304.2,869.7,305.9,868.2,308.2
				z M829.4,317c-14.3,1.7-44.5,42.2-43,58c0.2,2.7,3.2,2.3,5.5,2.1c7.2-0.8,42.4-48.9,41.6-58.4C833.2,316.8,830.9,316.8,829.4,317
				z"/>
			<path class="st4" d="M939.9,359.9c-8.4,15-35.9,33.8-50.4,33.8c-7.2,0-16.9-4.2-23.8-12c-4.6-5.3-11.4-9.3-11.4-23.8
				c0-20,45.1-68.8,64.1-69.2c6.1,0,7.6,1.5,13.7,10.5c2.5,4,7.2,9.1,7.2,16c0,26.8-40.5,48.5-63.9,48.5c-0.2,0-0.4,0-0.6,0
				c-1.1,3-1.7,5.7-1.7,8c0,5.7,3.4,9.5,11.8,9.5c24.5,0,43.2-24.7,49.8-28.7c0.2-0.2,0.6-0.2,0.8-0.2c2.1,0,4.9,2.5,4.9,5.5
				C940.4,358.4,940.1,359,939.9,359.9z M920.1,315.6c-10.8,0-31.4,24.5-36.9,32.5c14.6,0.4,38-25.7,38-31.4
				C921.2,316,920.7,315.6,920.1,315.6z"/>
		</g>
	</g>
</g>
<g id="Layer_2_1_">
</g>
<g id="Layer_4" class="st5">
</g>
</svg>
