<?xml version="1.0" encoding="utf-8"?>
<!-- Generator: Adobe Illustrator 25.1.0, SVG Export Plug-In . SVG Version: 6.00 Build 0)  -->
<svg version="1.2" baseProfile="tiny" id="Layer_1" xmlns="http://www.w3.org/2000/svg" xmlns:xlink="http://www.w3.org/1999/xlink"
	 x="0px" y="0px" width="1024px" height="576px" viewBox="0 0 1024 576" overflow="visible" xml:space="preserve">
<g>
	<path fill="#311F0C" d="M61.4,248.8v59c0,1.8,1.8,3.3,3.1,3.3h31.3c2,0,3.9-1.4,3.9-3.3V124.1h61.4v211.1
		c0,15.6-12.1,27.2-26.8,27.2H27.2C12.7,362.4,0,350.8,0,335.2v-86.4L61.4,248.8z"/>
	<path fill="#311F0C" d="M237.4,362.4h-61V124.1h61V362.4z"/>
	<path fill="#311F0C" d="M1024,124.1v198.7c0,5.5-1,10.6-3.3,15.6c-2.3,4.9-4.9,9.2-8.6,12.7c-3.5,3.7-7.8,6.6-12.5,8.6
		c-4.9,2-10,3.1-15.6,3.1H812.2c-5.5,0-10.6-1-15.6-3.1s-9.2-4.9-12.7-8.6c-3.7-3.7-6.6-7.8-8.6-12.7s-3.1-10-3.1-15.6V124.1h60
		v180.4H870V124.1h55.9v180.4H964V124.1L1024,124.1z"/>
	<path fill="#311F0C" d="M426.4,338.9c0-16.6,11.3-27.9,27.9-27.9c26.6,0,31.5,8.2,45.9,8.2c11.9,0,25-9.4,25-28.7
		s-13.1-28.7-25-28.7c-14.3,0-19.3,8.2-45.9,8.2c-16.6,0-27.9-11.3-27.9-27.9v-26h-88.3v50.6h32.2V307c0,2-1.4,3.5-3.9,3.5H317
		c-1.8,0-3.5-1.4-3.5-3.5V179c0-2,1.8-3.9,3.5-3.9h109.4V152c0-16.6,11.3-27.9,27.9-27.9H280c-15.2,0-27.4,12.3-27.4,26.8v184.3
		c0,15.6,12.3,27.2,27.4,27.2h146.4V338.9z"/>
	<path fill="#311F0C" d="M729.5,124.1H580.6v23.3c0,16.6-11.3,27.9-27.9,27.9c-26.6,0-30.9-8.4-45.5-8.4
		c-12.5,0-25.6,10.2-25.6,29.5s13.1,29.5,25.6,29.5c14.3,0,18.6-8.4,45.5-8.4c16.6,0,27.9,11.3,27.9,27.9v89.3
		c0,16.6-11.3,27.9-27.9,27.9H642v-59.4h54.1v59.4h61.4V152.1C757.6,135.5,746.1,124.1,729.5,124.1L729.5,124.1z M696.1,251.6H642
		V180c0-3.9,3.3-7,7.4-7h38.1c4.9,0,8.4,2.9,8.4,7L696.1,251.6z"/>
	<path fill="#311F0C" d="M164.2,423.7c0,7-0.6,12.3-1.4,16s-2.3,6.3-4.1,8.2c-2.7,2.7-7.4,4.1-13.7,4.1h-23.6
		c-6.6,0-11.3-1.4-13.9-4.1c-5.1-4.9-7.6-15.4-7.6-31.1s2.5-26.2,7.6-31.3c2.7-2.7,7.4-4.1,13.9-4.1H145c6.6,0,11.1,1.4,13.7,4.1
		c1.8,1.8,3.1,4.5,4.1,8.2c0.8,3.7,1.4,8.8,1.4,15.8H144c-0.2-6.1-0.8-9.8-1.6-10.6c-0.6-0.6-2-0.8-4.7-0.8h-9
		c-2.5,0-4.1,0.2-4.7,0.8c-1.2,1.2-1.8,7.4-1.8,18s0.6,16.8,1.8,18c0.6,0.6,2,0.8,4.7,0.8h9c2.5,0,4.1-0.2,4.7-0.8
		c1-1,1.4-4.5,1.6-11.1L164.2,423.7z"/>
	<path fill="#311F0C" d="M194.2,381.3h23.6c6.6,0,11.3,1.4,13.9,4.1c5.1,4.9,7.6,15.4,7.6,31.3c0,15.8-2.5,26.2-7.6,31.1
		c-2.7,2.7-7.4,4.1-13.9,4.1h-23.6c-6.6,0-11.3-1.4-13.9-4.1c-5.1-4.9-7.6-15.4-7.6-31.1s2.5-26.2,7.6-31.3
		C182.9,382.7,187.4,381.3,194.2,381.3z M194.8,416.5c0,10.6,0.6,16.8,1.8,18c0.6,0.6,2,0.8,4.7,0.8h9c2.5,0,4.1-0.2,4.7-0.8
		c1.2-1.2,1.8-7.4,1.8-18s-0.6-16.8-1.8-18c-0.6-0.6-2-0.8-4.7-0.8h-9c-2.5,0-4.1,0.2-4.7,0.8C195.4,399.7,194.8,405.9,194.8,416.5z
		"/>
	<path fill="#311F0C" d="M315,381.3v70.5h-15c-2.3,0-4.1-0.4-5.5-1c-1.4-0.8-2.7-2-3.9-4.1l-21.7-35.2h-0.4v40.3H248v-70.5h18.4
		c2.3,0,4.1,0.4,5.5,1c1.4,0.8,2.7,2,3.7,4.1l18.2,30.9h0.4v-36L315,381.3z"/>
	<path fill="#311F0C" d="M388.7,429.8c0,8.8-1.8,15-5.5,18.6c-2.3,2.3-5.9,3.5-11.1,3.5H343c-6.1,0-10.2-1-12.5-3.3
		c-1.6-1.6-2.7-3.9-3.3-7s-1-7.6-1-13.5h19.9c0.2,4.1,0.4,6.6,1,7.2s2,0.8,4.7,0.8H362c2.9,0,4.7-0.2,5.1-0.6c0.6-0.6,0.8-2,0.8-4.5
		c0-2-0.2-3.5-0.8-4.1c-0.4-0.4-2.3-0.8-5.3-1.2l-20.9-2.5c-4.3-0.4-7.6-1.8-9.6-3.9c-3.1-3.1-4.5-8.6-4.5-16.8s1.8-14.1,5.5-17.8
		c2.3-2.3,5.9-3.5,10.9-3.5h27c6.1,0,10.2,1,12.5,3.3c1.6,1.6,2.9,3.9,3.5,6.8c0.8,2.9,1.2,7.2,1.2,12.9h-19.9
		c-0.2-3.5-0.4-5.7-1-6.3s-2-0.8-4.3-0.8h-10c-2.3,0-3.7,0.2-4.1,0.4c-0.6,0.6-0.8,1.8-0.8,4.1c0,2,0.2,3.5,0.8,4.1
		c0.4,0.4,2,0.8,5.3,1l21.1,2.5c4.3,0.6,7.4,1.8,9.4,3.9C387.1,416.1,388.7,421.6,388.7,429.8L388.7,429.8z"/>
	<path fill="#311F0C" d="M457.7,397.9h-21.1v53.9h-21.7v-54.1h-20.7v-16.6h63.5L457.7,397.9z"/>
	<path fill="#311F0C" d="M506.1,436.2c-0.2-3.9-0.8-6.1-1.8-7.2c-1-0.8-3.1-1.2-6.3-1.2h-10.6v24h-21.7v-70.5h45.1
		c6.8,0,11.3,1.2,13.7,3.7c1.6,1.6,2.9,3.7,3.5,5.9c0.6,2.3,1,5.7,1,10.4c0,6.3-1,10.9-2.9,13.3c-1.8,2.7-4.9,4.3-9.2,5.3v0.2
		c3.9,0.8,6.8,2.3,8.6,4.1s2.7,5.1,2.9,10c0.2,6.3,0.6,12.3,1,17.6h-22.1C506.7,447.8,506.3,442.7,506.1,436.2L506.1,436.2z
		 M487.2,412.4h11.7c3.3,0,5.1-0.2,5.7-0.8c1-1,1.6-3.3,1.6-6.8s-0.6-5.7-1.6-6.6c-0.6-0.6-2.5-0.8-5.7-0.8h-11.7V412.4z"/>
	<path fill="#311F0C" d="M602.5,381.3v42.2c0,7.4-0.4,12.7-1.4,16c-0.8,3.3-2.5,5.9-4.5,8.2c-1.6,1.6-3.7,2.7-5.9,3.3
		s-5.7,0.8-10.4,0.8H560c-4.5,0-8-0.2-10.4-0.8c-2.3-0.6-4.3-1.6-5.9-3.3c-2-2-3.5-4.7-4.5-8.2c-0.8-3.3-1.4-8.6-1.4-16v-42.2h21.7
		v42.2c0,5.3,0.4,8.4,1.4,9.2c0.8,0.8,2.7,1,5.9,1h6.8c3.1,0,5.1-0.4,5.9-1c1-1,1.4-4.1,1.4-9.2v-42.2H602.5z"/>
	<path fill="#311F0C" d="M675.6,423.7c0,7-0.6,12.3-1.4,16s-2.3,6.3-4.1,8.2c-2.7,2.7-7.4,4.1-13.7,4.1h-23.6
		c-6.6,0-11.3-1.4-13.9-4.1c-5.1-4.9-7.6-15.4-7.6-31.1s2.5-26.2,7.6-31.3c2.7-2.7,7.4-4.1,13.9-4.1h23.6c6.6,0,11.1,1.4,13.7,4.1
		c1.8,1.8,3.1,4.5,4.1,8.2s1.4,8.8,1.4,15.8h-20.3c-0.2-6.1-0.8-9.8-1.6-10.6c-0.6-0.6-2-0.8-4.7-0.8h-9c-2.5,0-4.1,0.2-4.7,0.8
		c-1.2,1.2-1.8,7.4-1.8,18s0.6,16.8,1.8,18c0.6,0.6,2,0.8,4.7,0.8h9c2.5,0,4.1-0.2,4.7-0.8c1-1,1.4-4.5,1.6-11.1L675.6,423.7z"/>
	<path fill="#311F0C" d="M744.2,397.9h-21.1v53.9h-21.7v-54.1h-20.7v-16.6h63.5V397.9z"/>
	<path fill="#311F0C" d="M774.1,451.7h-21.7v-70.5h21.7V451.7z"/>
	<path fill="#311F0C" d="M805.1,381.3h23.6c6.6,0,11.3,1.4,13.9,4.1c5.1,4.9,7.6,15.4,7.6,31.3c0,15.8-2.5,26.2-7.6,31.1
		c-2.7,2.7-7.4,4.1-13.9,4.1h-23.6c-6.6,0-11.3-1.4-13.9-4.1c-5.1-4.9-7.6-15.4-7.6-31.1s2.5-26.2,7.6-31.3
		C793.8,382.7,798.5,381.3,805.1,381.3z M805.7,416.5c0,10.6,0.6,16.8,1.8,18c0.6,0.6,2,0.8,4.7,0.8h9c2.5,0,4.1-0.2,4.7-0.8
		c1.2-1.2,1.8-7.4,1.8-18s-0.6-16.8-1.8-18c-0.6-0.6-2-0.8-4.7-0.8h-9c-2.5,0-4.1,0.2-4.7,0.8C806.3,399.7,805.7,405.9,805.7,416.5z
		"/>
	<path fill="#311F0C" d="M925.9,381.3v70.5h-15c-2.3,0-4.1-0.4-5.5-1c-1.4-0.8-2.7-2-3.9-4.1l-21.7-35.2h-0.4v40.3h-20.5v-70.5h18.4
		c2.3,0,4.1,0.4,5.5,1c1.4,0.8,2.7,2,3.7,4.1l18.4,30.9h0.4v-36L925.9,381.3z"/>
</g>
</svg>
