<?xml version="1.0" encoding="utf-8"?>
<!-- Generator: Adobe Illustrator 25.1.0, SVG Export Plug-In . SVG Version: 6.00 Build 0)  -->
<svg version="1.1" id="Layer_1" xmlns="http://www.w3.org/2000/svg" xmlns:xlink="http://www.w3.org/1999/xlink" x="0px" y="0px"
	 width="500px" height="500px" viewBox="0 0 500 500" style="enable-background:new 0 0 500 500;" xml:space="preserve">
<style type="text/css">
	.st0{fill:#BC3737;}
	.st1{fill:#FFFFFF;}
	.st2{fill:#231F20;}
	.st3{fill:none;}
	.st4{display:none;}
	.st5{display:inline;}
	.st6{display:inline;fill:#FFFFFF;}
	.st7{display:inline;fill:#231F20;}
</style>
<g id="Layer_3">
</g>
<g id="Layer_1_1_">
	<g>
		<g>
			<path class="st0" d="M500,250.6C499.7,388.6,387.5,500.3,249.4,500C111.4,499.7-0.3,387.5,0,249.4C0.3,111.4,112.5-0.3,250.6,0
				C388.6,0.3,500.3,112.5,500,250.6z"/>
		</g>
		<circle class="st1" cx="250" cy="253.1" r="227.8"/>
		<path class="st0" d="M466.7,250c0-119.7-97-216.7-216.7-216.7S33.3,130.3,33.3,250l0,0v0c0,3.1,2.5,5.6,5.6,5.6h422.2
			C464.2,255.6,466.7,253.1,466.7,250L466.7,250L466.7,250z"/>
		<g>
			<path class="st1" d="M283.3,251.5c0.1-36.8,30-66.6,66.8-66.5c36.8,0.1,66.6,30,66.5,66.8L283.3,251.5z"/>
		</g>
		<path class="st0" d="M407.3,243.1h-33.6c-0.8,0-1.4-0.6-1.4-1.4c0-0.8,0.6-1.4,1.4-1.4h33.6c0.8,0,1.4,0.6,1.4,1.4
			C408.7,242.5,408.1,243.1,407.3,243.1z"/>
		<path class="st0" d="M395.2,265.2h-18.2c-0.8,0-1.4-0.6-1.4-1.4c0-0.8,0.6-1.4,1.4-1.4h18.2c0.8,0,1.4,0.6,1.4,1.4
			C396.5,264.5,395.9,265.2,395.2,265.2z"/>
		<path class="st0" d="M384.3,287.2h-18.2c-0.8,0-1.4-0.6-1.4-1.4c0-0.8,0.6-1.4,1.4-1.4h18.2c0.8,0,1.4,0.6,1.4,1.4
			C385.7,286.6,385.1,287.2,384.3,287.2z"/>
		<path class="st0" d="M371.8,199.1h-12.1c-0.8,0-1.4-0.6-1.4-1.4s0.6-1.4,1.4-1.4h12.1c0.8,0,1.4,0.6,1.4,1.4
			S372.5,199.1,371.8,199.1z"/>
		<path class="st0" d="M398.5,221.1h-30.9c-0.8,0-1.4-0.6-1.4-1.4c0-0.8,0.6-1.4,1.4-1.4h30.9c0.8,0,1.4,0.6,1.4,1.4
			C399.9,220.5,399.3,221.1,398.5,221.1z"/>
		<g>
			<path class="st0" d="M182.9,375.6h-6.7v-25h6.7V375.6z"/>
			<path class="st0" d="M202.3,360.4c7.4,0.5,9.2,1.5,9.2,7.2c0,4.1,0.2,8.2-10.8,8.2c-6.4,0-10.6-0.1-10.6-8.3h6.4
				c0,2.6,0.9,2.9,4.2,2.9c3.1,0,4.2-0.2,4.2-2.3c0-2.2-0.4-2.1-3.5-2.3l-1.5-0.1c-6.2-0.4-9.8-0.4-9.8-7.6c0-7.2,4-7.6,10.6-7.6
				c5.5,0,10.1,0.1,10.1,7v1h-6.4c0-2.6-1.1-2.6-3.7-2.6c-3.6,0-3.9,0.7-3.9,2.1c0,2,1,2.1,2.7,2.2L202.3,360.4z"/>
			<path class="st0" d="M223.9,369.8h10.4v5.8h-17.1v-25h6.7L223.9,369.8L223.9,369.8z"/>
			<path class="st0" d="M246.5,371.3l-1.2,4.3h-6.9l7.5-25h10.1l7.6,25h-6.8l-1.3-4.3H246.5z M251,355.6L251,355.6l-3.1,10.8h6.2
				L251,355.6z"/>
			<path class="st0" d="M275.7,375.6h-6.7v-25h11.3l7.2,19.2h0.3l-0.4-19.2h6.7v25h-11.4l-7.1-19.2h-0.3L275.7,375.6z"/>
			<path class="st0" d="M301.7,350.6h12.7c7,0,10.1,2.6,10.1,9.7v5.2c0,6.8-2.2,10.1-9.2,10.1h-13.6L301.7,350.6L301.7,350.6z
				 M308.4,369.8h5.8c2.5,0,3.4-1.6,3.4-4.3v-5.2c0-3.2-1-3.9-3.4-3.9h-5.8V369.8z"/>
		</g>
		<g>
			<path class="st0" d="M62,343.6c-3.7,1.5-7.9-0.2-9.4-3.9l-8.3-20L91,300.4l8.3,20c1.5,3.7-0.2,7.9-3.9,9.4l-11.1,4.6
				c-2.2,0.9-5.1,0.6-6.5-1.2c0.3,2.3-1.6,4.6-3.8,5.5L62,343.6z M61.2,332.3l8.9-3.7l-2.8-6.7l-8.9,3.7L61.2,332.3z M80,324.4
				l7.9-3.3l-2.8-6.7l-7.9,3.3L80,324.4z"/>
			<path class="st0" d="M90.2,386.1c-3.2,2.4-7.7,1.7-10.1-1.5L71.5,373c-2.4-3.2-1.7-7.7,1.5-10.1l29-21.5
				c3.2-2.4,7.7-1.7,10.1,1.5l8.6,11.6c2.4,3.2,1.7,7.7-1.5,10.1L90.2,386.1z M86.6,375.3l23.2-17.2l-4.3-5.8l-23.2,17.2L86.6,375.3
				z"/>
			<path class="st0" d="M123,426.4l-8.6-7.3l2.7-4.8l-7.5-6.4l-4.3,3.5l-8.6-7.3l41-31.5l9.7,8.2L123,426.4z M121.9,405.6l9.1-15.1
				l-13.7,11.2L121.9,405.6z"/>
			<path class="st0" d="M170.6,431.8l-3.1,19.1l-10.1-5l3.9-18.6l-1.8-0.9l-8.1,16.5l-9.7-4.8l22.3-45.4l19.4,9.6
				c3.6,1.8,5,6.1,3.3,9.7l-7.8,15.9C177.2,431,173.7,432.5,170.6,431.8z M170.6,419.9l4.6-9.4l-6.5-3.2l-4.6,9.4L170.6,419.9z"/>
			<path class="st0" d="M219.8,457.8c-0.8,3.9-4.7,6.4-8.6,5.5l-21.2-4.6l10.6-49.4l21.2,4.6c3.9,0.8,6.4,4.7,5.5,8.6L219.8,457.8z
				 M210,452l6.1-28.2l-7.1-1.5l-6.1,28.2L210,452z"/>
			<path class="st0" d="M317.5,448.9c1,3.8-1.3,7.8-5.1,8.8l-14,3.7c-3.8,1-7.8-1.3-8.8-5.1l-9.2-34.9c-1-3.8,1.3-7.8,5.1-8.8
				l14-3.7c3.8-1,7.8,1.3,8.8,5.1l2.3,8.7l-10.5,2.8l-1.4-5.2l-7,1.8l7.4,27.9l7-1.8l-1.4-5.2l10.5-2.8L317.5,448.9z"/>
			<path class="st0" d="M363.5,426.7c1.9,3.5,0.6,7.9-2.8,9.8l-12.7,7c-3.5,1.9-7.9,0.6-9.8-2.8L320.7,409c-1.9-3.5-0.6-7.9,2.8-9.8
				l12.7-7c3.5-1.9,7.9-0.6,9.8,2.8L363.5,426.7z M352.2,428.7l-13.9-25.3l-6.3,3.5l13.9,25.3L352.2,428.7z"/>
			<path class="st0" d="M390.8,389.6l16.7,9.8l-8.3,7.6l-16-10.3l-1.5,1.4l12.5,13.5l-8,7.3L352,381.9l15.9-14.7
				c2.9-2.7,7.5-2.5,10.2,0.4l12,13C392.5,383.2,392.7,387,390.8,389.6z M379.7,385.3l-7.1-7.7l-5.3,4.9l7.1,7.7L379.7,385.3z"/>
			<path class="st0" d="M417.5,343.1c3.3,2.2,4.2,6.7,2,10l-6,9l15.3,10.2l-6,9l-42-28.1l12-18c2.2-3.3,6.7-4.2,10-2L417.5,343.1z
				 M408.5,350.1l-8.7-5.8l-4,6l8.7,5.8L408.5,350.1z"/>
			<path class="st0" d="M437,305.8c2.2-1,5.1-1.2,7.7-0.3l7.1,2.6c3.7,1.4,5.7,5.5,4.3,9.3l-4.9,13.6c-1.4,3.8-5.5,5.7-9.3,4.3
				l-8.5-3.1l3.7-10.2l5.1,1.9l2.5-6.8l-3.7-1.3l-19.2,9.1c-2.2,1-5.1,1.2-7.7,0.3l-6.1-2.2c-3.7-1.4-5.7-5.5-4.3-9.3l4.9-13.6
				c1.4-3.7,5.5-5.7,9.3-4.3l8.5,3.1l-3.7,10.2l-5.1-1.9l-2.5,6.8l2.7,1L437,305.8z"/>
		</g>
		<polygon class="st0" points="255.2,432.6 258.6,439.6 266.2,440.7 260.7,446 262,453.6 255.2,450 248.4,453.6 249.7,446 
			244.2,440.7 251.8,439.6 		"/>
		<g>
			<path class="st1" d="M159.4,193.6c-1.1,0.4-1.8,0.3-2-0.3c-0.2-0.5,0-1.1,0.9-1.5c9.8-4.9,64.6-12.3,104.6-14.7
				c48.1-2.9,104.4-1.4,104.4-1.4c0.5,0,1,0.3,1,0.8c0,0.5-0.4,0.9-0.9,0.9c0,0-92.4,3.1-107.9,4.3
				C215.8,185.1,162.8,192.3,159.4,193.6z"/>
			<path class="st1" d="M351.9,174c-0.5-1.3-1.2-3.4-1.3-4.9c-0.2-2.8,0.6-5.4,2.1-7.6l0,0c0.2-0.2,0.3-0.5,0.3-0.8
				c0-0.6-0.6-1.1-1.3-1.1c-0.2,0-0.3,0.1-0.5,0.1c-5.5,1.9-9.3,7-8.9,12.8c0,0.4,0.1,0.8,0.1,1.2L351.9,174z"/>
		</g>
		<g>
			<path class="st1" d="M166.2,90.9c-1,0.3-1.6,0.1-1.7-0.4c-0.1-0.5,0.1-1,0.9-1.3c9-3.7,57.6-5.7,92.8-4.4
				c42.3,1.6,91.5,7.9,91.5,7.9c0.5,0,0.8,0.4,0.8,0.9c0,0.5-0.4,0.8-0.8,0.8c0,0-81.2-5.3-94.8-5.6C216.3,87.9,169.3,90,166.2,90.9
				z"/>
			<path class="st1" d="M336.4,90.1c-0.4-1.2-0.8-3.3-0.7-4.7c0.1-2.6,1-5,2.5-6.9v0c0.2-0.2,0.3-0.4,0.3-0.7c0-0.6-0.4-1.1-1-1.1
				c-0.2,0-0.3,0-0.5,0.1c-5,1.3-8.7,5.7-8.9,11.1c0,0.4,0,0.7,0,1.1L336.4,90.1z"/>
		</g>
		<g>
			<path class="st1" d="M153.4,151.3c-1,0.3-1.5,0.1-1.7-0.5c-0.1-0.5,0.1-1,0.9-1.3c9.1-3.5,57.7-4.7,92.9-2.7
				c42.3,2.4,91.3,9.6,91.3,9.6c0.4,0,0.8,0.4,0.8,0.9c0,0.5-0.4,0.8-0.9,0.8c0,0-81-6.8-94.7-7.3
				C203.6,149.3,156.5,150.5,153.4,151.3z"/>
			<path class="st1" d="M323.6,153.7c-0.3-1.2-0.7-3.3-0.7-4.7c0.1-2.6,1.1-5,2.7-6.9v0c0.2-0.2,0.3-0.4,0.3-0.7
				c0-0.6-0.4-1.1-1-1.1c-0.2,0-0.3,0-0.4,0.1c-5,1.2-8.8,5.6-9.1,11c0,0.4,0,0.7,0,1.1L323.6,153.7z"/>
		</g>
		<g>
			<path class="st1" d="M172.5,143.4c-0.8,0.3-1.5,0.2-1.6-0.3c-0.1-0.5,0.3-1.1,0.9-1.5c7-4.2,44.9-8.3,72.6-8.4
				c33.2-0.1,71.9,4.4,71.9,4.4c0.4,0,0.6,0.4,0.6,0.8c0,0.5-0.3,0.9-0.6,0.9c0,0-61.2-2.8-71.9-2.4
				C236.2,137.2,186.1,138,172.5,143.4z"/>
			<path class="st1" d="M305.1,134.9c-0.4-1.1-0.8-3-0.8-4.2c0-2.4,0.7-4.6,2-6.3v0c0.1-0.2,0.2-0.4,0.2-0.6c0-0.5-0.4-1-1-1
				c-0.1,0-0.3,0-0.4,0.1c-4.4,1.4-7.6,5.5-7.6,10.3c0,0.3,0,0.7,0,1L305.1,134.9z"/>
		</g>
		<g>
			<path class="st1" d="M250.8,165.9c0.5-3.4,1.6-6.2,1.6-7.7c0-2.7-2.5-3-5.9-3c-3.4,0-5.8,0.3-5.9,3c-0.1,1.9,1.6,3.7,1.7,6.6
				C243.5,163.9,249.5,165,250.8,165.9z"/>
			<g>
				<path class="st1" d="M250.6,167.3c0.1-2.4-2.4-4.4-5.5-4.5c-3.1-0.1-5.8,1.7-5.8,4.1L250.6,167.3z"/>
			</g>
			<path class="st1" d="M273.7,166.2c-0.2-3.2-1-6-0.9-7.4c0.2-2.5,2.6-2.7,5.8-2.4c3.3,0.2,5.5,0.7,5.4,3.3
				c-0.1,1.8-1.8,3.4-2.1,6.1C280.7,164.8,274.9,165.4,273.7,166.2z"/>
			<g>
				<path class="st1" d="M273.8,167.6c0.1-2.3,2.6-4,5.6-3.9c3,0.1,5.3,2,5.2,4.3L273.8,167.6z"/>
			</g>
			<g>
				<path class="st1" d="M201.9,159.7c4.9,0.2,18.6,10.6,24.7,10.8c-5.1-0.2-21.9-4.1-24.1-6.3C198.5,160.2,201.9,159.7,201.9,159.7
					"/>
				<path class="st1" d="M310.1,163c-4.6-0.2-7.1,4.1-16.7,3.8c-3.2-0.1-31.2-1.5-33-1.5c-4.5,0-34.5,0.4-41.8,0.5
					c1.6,0.9,3.3,1.7,4.8,2.3l2.6,1c0.6,0.2,1.1,0.3,1.6,0.3c4.7-0.2,29.5-1.8,38-1.5c12,0.5,38.3,2.6,41.1,2.7
					c4,0.2,7.1-1.6,7.2-3.6C313.9,165.2,313,163.1,310.1,163z"/>
			</g>
		</g>
		<g>
			<path class="st1" d="M229.5,121.9c0.6-3.4,1.9-6.1,1.9-7.6c0.2-2.7-2.3-3.1-5.8-3.3c-3.4-0.2-5.8,0-6.1,2.7
				c-0.2,1.9,1.4,3.8,1.4,6.7C222.3,119.5,228.3,120.9,229.5,121.9z"/>
			<g>
				<path class="st1" d="M229.2,123.3c0.2-2.4-2.2-4.5-5.3-4.8c-3.1-0.3-5.8,1.4-6,3.8L229.2,123.3z"/>
			</g>
			<path class="st1" d="M252.3,123.3c0-3.3-0.7-6-0.6-7.4c0.3-2.5,2.7-2.5,5.9-2.1c3.2,0.4,5.4,1,5.2,3.5c-0.2,1.8-2,3.3-2.4,6
				C259.4,122.3,253.6,122.6,252.3,123.3z"/>
			<g>
				<path class="st1" d="M252.4,124.7c0.2-2.3,2.8-3.9,5.7-3.6c3,0.3,5.2,2.3,5,4.5L252.4,124.7z"/>
			</g>
			<g>
				<path class="st1" d="M180.9,113.4c4.9,0.4,18.1,11.4,24.2,12c-5.1-0.4-21.7-5.2-23.8-7.4C177.5,113.8,180.9,113.4,180.9,113.4"
					/>
				<path class="st1" d="M288.9,121.9c-4.6-0.4-7.3,3.8-16.8,3c-3.2-0.3-31.1-3-32.9-3c-4.5-0.2-34.5-1.3-41.7-1.6
					c1.6,1,3.2,1.9,4.7,2.6l2.6,1.1c0.6,0.2,1.1,0.3,1.5,0.4c4.7,0.1,29.5-0.4,38,0.3c12,1,38.1,4.4,40.9,4.7
					c3.9,0.3,7.2-1.2,7.4-3.3C292.6,124.3,291.8,122.1,288.9,121.9z"/>
			</g>
		</g>
		<g>
			<path class="st1" d="M265.8,103.2c-0.5-3.4-1.6-6.2-1.7-7.6c-0.1-2.7,2.4-3,5.9-3.1c3.4,0,5.8,0.3,6,2.9c0.1,1.9-1.6,3.7-1.6,6.6
				C273.1,101.1,267,102.3,265.8,103.2z"/>
			<g>
				<path class="st1" d="M266,104.7c-0.1-2.4,2.3-4.4,5.5-4.6c3.1-0.2,5.8,1.7,5.9,4L266,104.7z"/>
			</g>
			<path class="st1" d="M242.9,103.8c0.2-3.3,1-6,0.8-7.4c-0.2-2.5-2.6-2.6-5.8-2.4c-3.3,0.3-5.5,0.8-5.4,3.3
				c0.1,1.8,1.8,3.4,2.2,6.1C235.9,102.5,241.7,103,242.9,103.8z"/>
			<g>
				<path class="st1" d="M242.8,105.2c-0.1-2.3-2.6-4-5.6-3.8c-3,0.1-5.3,2.1-5.2,4.4L242.8,105.2z"/>
			</g>
			<g>
				<path class="st1" d="M314.6,96.5c-4.9,0.2-18.5,10.8-24.6,11.1c5.1-0.3,21.9-4.4,24-6.5C318,97,314.6,96.5,314.6,96.5"/>
				<path class="st1" d="M206.4,101c4.6-0.2,7.2,4.1,16.7,3.6c3.2-0.2,31.2-1.8,33-1.8c4.5,0,34.5,0,41.8,0
					c-1.6,0.9-3.3,1.7-4.8,2.4l-2.6,1c-0.6,0.2-1.1,0.3-1.6,0.4c-4.7-0.1-29.5-1.5-38-1.1c-12,0.6-38.3,3-41,3.1
					c-4,0.2-7.1-1.5-7.2-3.5C202.6,103.3,203.6,101.1,206.4,101z"/>
			</g>
		</g>
		<g>
			<g>
				<path class="st1" d="M211.6,70.9c-0.5,0-0.9,0.3-1.3,0.6c-0.1,0.1-0.4,0.4-0.4,0.4c-0.5,0.5-0.8,1.1-0.7,1.8
					c0.1,1.2,1.3,2.2,2.5,2.1c0.7-0.1,1.3-0.5,1.7-1c0.1-0.1,0.3-0.4,0.3-0.5c0.3-0.4,0.4-0.9,0.3-1.4
					C213.9,71.7,212.8,70.8,211.6,70.9z"/>
				<polygon class="st1" points="209.4,77.1 211.5,75 211.4,73.1 207.3,73.6 207.7,77.2 				"/>
				<path class="st1" d="M211.4,77.9c-0.2-1.7-1.7-2.9-3.4-2.8c-0.7,0.1-1.3,0.3-1.8,0.8c-0.1,0.1-0.5,0.5-0.6,0.6
					c-0.7,0.6-1.1,1.6-1,2.6c0.2,1.7,1.8,3,3.5,2.9c1-0.1,1.9-0.6,2.3-1.4c0.1-0.1,0.4-0.6,0.5-0.7
					C211.3,79.2,211.5,78.6,211.4,77.9z M208,80.1c-0.8,0.1-1.4-0.5-1.5-1.2c-0.1-0.8,0.5-1.4,1.2-1.5c0.8-0.1,1.4,0.5,1.5,1.2
					C209.3,79.4,208.7,80.1,208,80.1z"/>
			</g>
			<g>
				<path class="st1" d="M242.9,68c0.5-0.1,1,0.1,1.4,0.3c0.1,0.1,0.4,0.3,0.5,0.3c0.6,0.3,1,1,1,1.7c0.1,1.2-0.8,2.4-2.1,2.5
					c-0.7,0.1-1.4-0.2-1.8-0.7c-0.1-0.1-0.4-0.4-0.4-0.4c-0.3-0.3-0.5-0.8-0.6-1.3C240.8,69.2,241.7,68.1,242.9,68z"/>
				<polygon class="st1" points="246.2,73.7 243.7,72 243.5,70.1 247.6,69.9 247.9,73.4 				"/>
				<path class="st1" d="M251.2,74.7c-0.1-1-0.6-1.9-1.4-2.3c-0.1-0.1-0.6-0.4-0.7-0.5c-0.5-0.3-1.2-0.5-1.9-0.4
					c-1.7,0.2-2.9,1.7-2.8,3.4c0.1,0.7,0.3,1.3,0.8,1.8c0.1,0.1,0.5,0.5,0.6,0.6c0.6,0.7,1.6,1.1,2.6,1
					C250.1,77.9,251.4,76.4,251.2,74.7z M248.2,76.4c-0.8,0.1-1.4-0.5-1.5-1.2c-0.1-0.8,0.5-1.4,1.2-1.5c0.8-0.1,1.4,0.5,1.5,1.2
					C249.5,75.7,248.9,76.3,248.2,76.4z"/>
			</g>
			<path class="st1" d="M259.7,64.7c-1.8-1.5-10.4,1.7-12.2,1.8l-22.9,1.9l-19.4,1.8c-3.9,0.4-9.4-1.7-11.2,0.5
				c-1.8,2.2,6.3,4.4,8.5,4.2l22.4-2.1l25.9-2.4C253.5,70.2,261.9,66.6,259.7,64.7z"/>
		</g>
		<g>
			<g>
				<path class="st1" d="M275.7,60.1c-0.5-0.2-1-0.1-1.4,0c-0.1,0-0.5,0.2-0.6,0.2c-0.6,0.2-1.2,0.7-1.4,1.4
					c-0.4,1.2,0.3,2.5,1.5,2.9c0.7,0.2,1.4,0.1,1.9-0.3c0.1-0.1,0.4-0.3,0.5-0.3c0.4-0.3,0.7-0.6,0.8-1.1
					C277.5,61.7,276.8,60.5,275.7,60.1z"/>
				<polygon class="st1" points="271.3,64.9 274,63.8 274.7,62 270.7,60.9 269.7,64.3 				"/>
				<path class="st1" d="M270.7,62.5c-0.7-0.2-1.4-0.2-2,0c-0.1,0.1-0.7,0.3-0.8,0.3c-0.9,0.3-1.6,1-1.9,2c-0.5,1.7,0.4,3.5,2.1,4
					c1,0.3,1.9,0.2,2.7-0.4c0.1-0.1,0.6-0.4,0.7-0.5c0.5-0.4,1-0.9,1.2-1.6C273.2,64.8,272.3,63,270.7,62.5z M270.4,66.3
					c-0.2,0.7-1,1.1-1.7,0.9c-0.7-0.2-1.1-1-0.9-1.7c0.2-0.7,1-1.1,1.7-0.9C270.3,64.8,270.7,65.5,270.4,66.3z"/>
			</g>
			<g>
				<path class="st1" d="M305.6,69.7c0.5,0.1,0.9,0.5,1.1,0.8c0.1,0.1,0.3,0.4,0.3,0.5c0.4,0.5,0.5,1.3,0.3,2
					c-0.4,1.2-1.7,1.8-2.9,1.5c-0.7-0.2-1.2-0.7-1.4-1.4c0-0.1-0.2-0.5-0.2-0.6c-0.2-0.4-0.2-0.9,0-1.4
					C303.2,70,304.4,69.4,305.6,69.7z"/>
				<polygon class="st1" points="306.4,76.2 304.8,73.8 305.3,71.9 309.2,73.3 308,76.7 				"/>
				<path class="st1" d="M310.2,76.4c-0.1-0.1-0.4-0.6-0.5-0.7c-0.4-0.5-0.9-0.9-1.6-1.2c-1.6-0.5-3.3,0.4-3.9,2
					c-0.2,0.7-0.2,1.4,0,2c0.1,0.1,0.3,0.7,0.3,0.8c0.3,0.9,1,1.6,2,1.9c1.7,0.5,3.5-0.4,4-2.1C311,78.2,310.8,77.2,310.2,76.4z
					 M308.8,78.7c-0.2,0.7-1,1.1-1.7,0.9c-0.7-0.2-1.1-1-0.9-1.7c0.2-0.7,1-1.1,1.7-0.9C308.7,77.2,309.1,77.9,308.8,78.7z"/>
			</g>
			<path class="st1" d="M322.3,73.4c-1.1-2.1-10.2-2.6-11.9-3.1L288.6,63l-18.5-5.9c-3.7-1.2-8-5.3-10.5-4c-2.5,1.3,4.1,6.5,6.2,7.2
				l21.4,6.9l24.7,8C314.4,76,323.6,76,322.3,73.4z"/>
		</g>
		<g>
			<ellipse class="st0" cx="249.4" cy="327.9" rx="77.6" ry="4.2"/>
		</g>
		<path class="st1" d="M240.9,192.7c-0.1-1.9-1.8-3.4-3.7-3.4c-1.9,0-3.3,1.5-3.2,3.4c0.1,1.9,1.8,3.4,3.7,3.4
			C239.6,196.1,241,194.6,240.9,192.7z"/>
		<path class="st1" d="M296.8,192.7c-0.1-1.9-1.8-3.4-3.7-3.4c-1.9,0-3.3,1.5-3.2,3.4c0.1,1.9,1.8,3.4,3.7,3.4
			C295.5,196.1,296.9,194.6,296.8,192.7z"/>
		<path class="st0" d="M324.5,283.5c1,13.1-8.9,23.7-22,23.7c-13.1,0-24.5-10.6-25.5-23.7c-1-13.1,8.9-23.7,22-23.7
			C312.2,259.8,323.6,270.4,324.5,283.5z"/>
		<path class="st0" d="M224.8,283.5c1,13.1-8.9,23.7-22,23.7c-13.1,0-24.5-10.6-25.5-23.7c-1-13.1,8.9-23.7,22-23.7
			C212.4,259.8,223.8,270.4,224.8,283.5z"/>
		<g>
			<path class="st0" d="M360.5,260.4h-13c-4.5,0-8.6,3.5-9.4,8l-0.9,5.5c-0.4,2.4,0.3,4.9,1.8,6.7c1.5,1.8,3.8,2.8,6.3,2.8h13
				c4.5,0,8.6-3.5,9.4-8l0.9-5.5c0.4-2.4-0.3-4.9-1.8-6.7C365.2,261.4,362.9,260.4,360.5,260.4L360.5,260.4z"/>
			<path class="st0" d="M150.5,260.4h-11.2c-2.5,0-4.8,1.1-6.3,3c-1.5,1.9-2,4.4-1.4,6.9l1.3,5.6c1,4.3,5.2,7.5,9.6,7.5h11.2
				c2.5,0,4.8-1.1,6.3-3c1.5-1.9,2-4.4,1.4-6.9l-1.3-5.6C159.1,263.6,154.9,260.4,150.5,260.4L150.5,260.4z"/>
			<path class="st0" d="M342.3,193H216.9c-2.7,0-5.4,1.4-6.9,3.5l-20.1,28.3l-46.5,7.7l-0.3,0.1l-0.3,0.1c-2.6,0.8-4.7,2.5-5.9,4.9
				c-1.5,2.9-1.7,6.7-0.6,10.4l9,36.9c0.7,3.2,3.6,5.5,6.9,5.6l6.3,0.2l5.4,0.2l180.4-0.2h5.1c3.5,0,6.6-2.6,7.1-6.1l6.8-42.7
				c0.2-1.5,0.2-3.3-0.2-4.8l-0.1-0.2l-0.1-0.2l-12.3-37C349.7,195.8,346.1,193,342.3,193L342.3,193z"/>
		</g>
		<path class="st2" d="M308.4,287.4c0.2,2.8,2.7,5.1,5.5,5.1c2.8,0,4.9-2.3,4.7-5.1c-0.2-2.8-2.7-5.1-5.5-5.1
			C310.3,282.3,308.2,284.6,308.4,287.4z"/>
		<g>
			<path class="st0" d="M187.3,260.2c15.1,0,28.2,12.2,29.3,27.3c1.1,15.1-10.2,27.3-25.3,27.3s-28.2-12.2-29.3-27.3
				C161,272.4,172.3,260.2,187.3,260.2z"/>
			<g>
				<g>
					<path class="st0" d="M185.4,261.7c0.1,0.7,0.6,1.2,1.3,1.2h1.6c0.7,0,1.2-0.6,1.1-1.2l-0.1-1.7c0-0.7-0.6-1.2-1.3-1.2h-1.6
						c-0.7,0-1.2,0.6-1.1,1.2L185.4,261.7z"/>
				</g>
				<g>
					<path class="st0" d="M189.3,314.9c0,0.7,0.6,1.2,1.3,1.2h1.6c0.7,0,1.2-0.6,1.1-1.2l-0.1-1.7c0-0.7-0.6-1.2-1.3-1.2h-1.6
						c-0.7,0-1.2,0.6-1.1,1.2L189.3,314.9z"/>
				</g>
			</g>
			<g>
				<g>
					<path class="st0" d="M192.2,262c-0.1,0.7,0.3,1.4,1,1.5l1.7,0.4c0.7,0.2,1.3-0.2,1.4-0.9l0.3-1.5c0.1-0.7-0.3-1.4-1-1.5
						l-1.7-0.4c-0.7-0.2-1.3,0.2-1.4,0.9L192.2,262z"/>
				</g>
				<g>
					<path class="st0" d="M182.2,313.4c-0.1,0.7,0.3,1.4,1,1.5l1.7,0.4c0.7,0.2,1.3-0.2,1.4-0.9l0.3-1.6c0.1-0.7-0.3-1.4-1-1.5
						l-1.7-0.4c-0.7-0.2-1.3,0.2-1.4,0.9L182.2,313.4z"/>
				</g>
			</g>
			<g>
				<g>
					<path class="st0" d="M198.8,264.1c-0.3,0.6-0.1,1.4,0.5,1.7l1.6,0.9c0.6,0.3,1.3,0.1,1.6-0.5l0.7-1.4c0.3-0.6,0.1-1.4-0.5-1.7
						l-1.6-0.9c-0.6-0.3-1.3-0.1-1.6,0.5L198.8,264.1z"/>
				</g>
				<g>
					<path class="st0" d="M175.6,310.2c-0.3,0.6-0.1,1.4,0.5,1.7l1.6,0.9c0.6,0.3,1.3,0.1,1.6-0.5l0.7-1.4c0.3-0.6,0.1-1.4-0.5-1.7
						l-1.6-0.9c-0.6-0.3-1.3-0.1-1.6,0.5L175.6,310.2z"/>
				</g>
			</g>
			<g>
				<g>
					<path class="st0" d="M204.7,267.8c-0.5,0.5-0.4,1.3,0.1,1.8l1.3,1.2c0.5,0.5,1.3,0.4,1.7-0.1l1-1.1c0.5-0.5,0.4-1.3-0.1-1.8
						l-1.3-1.2c-0.5-0.5-1.3-0.4-1.7,0.1L204.7,267.8z"/>
				</g>
				<g>
					<path class="st0" d="M169.9,305.4c-0.5,0.5-0.4,1.3,0.1,1.8l1.3,1.2c0.5,0.5,1.3,0.4,1.7-0.1l1-1.1c0.5-0.5,0.4-1.3-0.1-1.8
						l-1.3-1.2c-0.5-0.5-1.3-0.4-1.7,0.1L169.9,305.4z"/>
				</g>
			</g>
			<g>
				<g>
					<path class="st0" d="M209.6,272.8c-0.6,0.4-0.8,1.1-0.4,1.7l1,1.5c0.4,0.6,1.1,0.7,1.7,0.4l1.3-0.8c0.6-0.4,0.8-1.1,0.4-1.7
						l-1-1.5c-0.4-0.6-1.2-0.7-1.7-0.4L209.6,272.8z"/>
				</g>
				<g>
					<path class="st0" d="M165.5,299.4c-0.6,0.3-0.8,1.1-0.4,1.7l1,1.5c0.4,0.6,1.2,0.7,1.7,0.4l1.3-0.8c0.6-0.3,0.8-1.1,0.4-1.7
						l-1-1.5c-0.4-0.6-1.2-0.7-1.7-0.4L165.5,299.4z"/>
				</g>
			</g>
			<g>
				<g>
					<path class="st0" d="M213.1,278.8c-0.7,0.2-1,0.9-0.8,1.5l0.6,1.6c0.2,0.6,0.9,1,1.6,0.8l1.5-0.4c0.7-0.2,1-0.9,0.8-1.5
						l-0.6-1.6c-0.2-0.6-0.9-1-1.6-0.8L213.1,278.8z"/>
				</g>
				<g>
					<path class="st0" d="M162.7,292.6c-0.7,0.2-1,0.9-0.8,1.5l0.6,1.6c0.2,0.6,0.9,1,1.6,0.8l1.5-0.4c0.7-0.2,1-0.9,0.8-1.5
						l-0.6-1.6c-0.2-0.6-0.9-1-1.6-0.8L162.7,292.6z"/>
				</g>
			</g>
			<g>
				<g>
					<path class="st0" d="M215,285.4c-0.7,0-1.2,0.6-1.1,1.2l0.1,1.6c0,0.7,0.6,1.2,1.3,1.2l1.6,0c0.7,0,1.2-0.6,1.1-1.2l-0.1-1.7
						c0-0.7-0.6-1.2-1.3-1.2L215,285.4L215,285.4z"/>
				</g>
				<g>
					<path class="st0" d="M161.8,285.4c-0.7,0-1.2,0.6-1.1,1.2l0.1,1.6c0.1,0.7,0.6,1.2,1.3,1.2l1.6,0c0.7,0,1.2-0.6,1.1-1.2
						l-0.1-1.7c-0.1-0.7-0.6-1.2-1.3-1.2L161.8,285.4L161.8,285.4z"/>
				</g>
			</g>
			<g>
				<g>
					<path class="st0" d="M215.1,292.2c-0.7-0.2-1.3,0.2-1.4,0.9l-0.3,1.6c-0.1,0.7,0.3,1.4,1,1.5l1.7,0.4c0.7,0.2,1.3-0.2,1.4-0.9
						l0.3-1.6c0.1-0.7-0.3-1.4-1-1.5L215.1,292.2z"/>
				</g>
				<g>
					<path class="st0" d="M162.7,278.4c-0.7-0.2-1.3,0.2-1.4,0.9l-0.3,1.6c-0.1,0.7,0.3,1.4,1,1.5l1.7,0.4c0.7,0.2,1.3-0.2,1.4-0.9
						l0.3-1.6c0.1-0.7-0.3-1.4-1-1.5L162.7,278.4z"/>
				</g>
			</g>
			<g>
				<g>
					<path class="st0" d="M213.5,298.6c-0.6-0.3-1.3-0.1-1.6,0.5l-0.7,1.4c-0.3,0.6-0.1,1.4,0.5,1.7l1.6,0.9
						c0.6,0.3,1.3,0.1,1.6-0.5l0.7-1.4c0.3-0.6,0.1-1.4-0.5-1.7L213.5,298.6z"/>
				</g>
				<g>
					<path class="st0" d="M165.5,272c-0.6-0.3-1.3-0.1-1.6,0.5l-0.7,1.4c-0.3,0.6-0.1,1.4,0.5,1.7l1.6,0.9c0.6,0.3,1.3,0.1,1.6-0.5
						l0.7-1.4c0.3-0.6,0.1-1.4-0.5-1.7L165.5,272z"/>
				</g>
			</g>
			<g>
				<g>
					<path class="st0" d="M210.2,304.2c-0.5-0.5-1.3-0.4-1.7,0.1l-1,1.1c-0.5,0.5-0.4,1.3,0.1,1.8l1.3,1.2c0.5,0.5,1.3,0.4,1.7-0.1
						l1-1.1c0.5-0.5,0.4-1.3-0.1-1.8L210.2,304.2z"/>
				</g>
				<g>
					<path class="st0" d="M169.9,266.6c-0.5-0.5-1.3-0.4-1.7,0.1l-1,1.1c-0.5,0.5-0.4,1.3,0.1,1.8l1.3,1.2c0.5,0.5,1.3,0.4,1.7-0.1
						l1-1.1c0.5-0.5,0.4-1.3-0.1-1.8L169.9,266.6z"/>
				</g>
			</g>
			<g>
				<g>
					<path class="st0" d="M205.6,308.8c-0.4-0.6-1.1-0.8-1.7-0.4l-1.3,0.8c-0.6,0.3-0.8,1.1-0.4,1.7l1,1.5c0.4,0.6,1.1,0.7,1.7,0.4
						l1.3-0.8c0.6-0.4,0.8-1.1,0.4-1.7L205.6,308.8z"/>
				</g>
				<g>
					<path class="st0" d="M175.6,262.7c-0.4-0.6-1.2-0.7-1.7-0.4l-1.3,0.8c-0.6,0.3-0.8,1.1-0.4,1.7l1,1.5c0.4,0.6,1.2,0.7,1.7,0.4
						l1.3-0.8c0.6-0.4,0.8-1.1,0.4-1.7L175.6,262.7z"/>
				</g>
			</g>
			<g>
				<g>
					<path class="st0" d="M199.8,311.8c-0.2-0.6-0.9-1-1.6-0.8l-1.5,0.4c-0.7,0.2-1,0.9-0.8,1.5l0.6,1.6c0.2,0.6,0.9,1,1.6,0.8
						l1.5-0.4c0.7-0.2,1-0.9,0.8-1.5L199.8,311.8z"/>
				</g>
				<g>
					<path class="st0" d="M182.3,260.5c-0.2-0.6-0.9-1-1.6-0.8l-1.5,0.4c-0.7,0.2-1,0.9-0.8,1.5l0.6,1.6c0.2,0.6,0.9,1,1.6,0.8
						l1.5-0.4c0.7-0.2,1-0.9,0.8-1.5L182.3,260.5z"/>
				</g>
			</g>
		</g>
		<g>
			<path class="st1" d="M190.4,300.9c7.5,0,13.1-6,12.5-13.5c-0.5-7.5-7-13.5-14.5-13.5c-7.5,0-13.1,6-12.5,13.5
				C176.4,294.9,182.9,300.9,190.4,300.9z"/>
			<path class="st1" d="M188.2,271.8c8.7,0,16.2,7,16.8,15.7c0.6,8.6-5.8,15.7-14.5,15.7s-16.2-7-16.8-15.7
				C173.1,278.8,179.5,271.8,188.2,271.8 M188.2,270.6c-4.5,0-8.6,1.8-11.6,4.9c-3,3.2-4.4,7.4-4.1,12c0.7,9.2,8.7,16.7,17.9,16.7
				c4.5,0,8.6-1.8,11.6-4.9c3-3.2,4.4-7.4,4.1-12C205.5,278.1,197.4,270.6,188.2,270.6L188.2,270.6z"/>
			<g>
				<path class="st1" d="M187.7,265.5c-0.4,0-0.8-0.3-0.9-0.8l-0.1-1.1c0-0.2,0.1-0.5,0.2-0.6c0.2-0.2,0.4-0.3,0.6-0.3l0.1,0
					c0.4,0,0.8,0.4,0.9,0.8l0.1,1.1c0,0.2-0.1,0.5-0.2,0.6C188.2,265.4,188,265.5,187.7,265.5L187.7,265.5z"/>
				<path class="st1" d="M176.5,268.5c-0.3,0-0.6-0.1-0.7-0.4l-0.3-0.5c-0.3-0.4-0.1-0.9,0.2-1.2c0.1-0.1,0.3-0.1,0.5-0.1
					c0.3,0,0.6,0.1,0.7,0.4l0.3,0.5c0.1,0.2,0.2,0.4,0.1,0.6c0,0.2-0.2,0.4-0.4,0.5C176.8,268.5,176.7,268.5,176.5,268.5z"/>
				<path class="st1" d="M212.2,288.3c-0.5,0-0.9-0.4-0.9-0.9c0-0.5,0.4-0.9,0.9-0.9h0.6c0.5,0,0.9,0.4,0.9,0.9
					c0,0.5-0.4,0.9-0.9,0.9H212.2z"/>
				<path class="st1" d="M181.8,266.3c-0.4,0-0.7-0.2-0.8-0.6l-0.4-1.1c-0.2-0.5,0.1-0.9,0.5-1.1c0.1,0,0.2,0,0.3,0
					c0.4,0,0.7,0.2,0.8,0.6l0.4,1.1c0.1,0.2,0.1,0.5,0,0.7c-0.1,0.2-0.3,0.4-0.5,0.4C182,266.3,181.9,266.3,181.8,266.3z"/>
				<path class="st1" d="M210.9,282.4c-0.4,0-0.7-0.3-0.8-0.6c-0.1-0.5,0.1-0.9,0.6-1.1l1.1-0.3c0.1,0,0.2,0,0.2,0
					c0.4,0,0.7,0.3,0.8,0.6c0.1,0.5-0.1,0.9-0.6,1.1l-1.1,0.3C211.1,282.4,211,282.4,210.9,282.4z"/>
				<path class="st1" d="M208.3,276.9c-0.3,0-0.6-0.2-0.7-0.4c-0.1-0.2-0.2-0.4-0.1-0.7c0.1-0.2,0.2-0.4,0.4-0.5l1-0.6
					c0.1-0.1,0.3-0.1,0.4-0.1c0.3,0,0.6,0.2,0.7,0.4c0.1,0.2,0.2,0.4,0.1,0.7c-0.1,0.2-0.2,0.4-0.4,0.5l-1,0.6
					C208.6,276.8,208.4,276.9,208.3,276.9z"/>
				<path class="st1" d="M204.3,272.2c-0.2,0-0.4-0.1-0.6-0.2c-0.3-0.3-0.4-0.9,0-1.2l0.8-0.8c0.2-0.2,0.4-0.3,0.6-0.3
					c0.2,0,0.4,0.1,0.6,0.2c0.3,0.3,0.4,0.9,0,1.2l-0.8,0.8C204.8,272.1,204.5,272.2,204.3,272.2z"/>
				<path class="st1" d="M199.3,268.5c-0.1,0-0.3,0-0.4-0.1c-0.2-0.1-0.4-0.3-0.4-0.5s-0.1-0.5,0-0.7l0.5-1c0.1-0.3,0.4-0.5,0.8-0.5
					c0.1,0,0.3,0,0.4,0.1c0.2,0.1,0.4,0.3,0.4,0.5c0.1,0.2,0.1,0.5,0,0.7l-0.5,1C199.9,268.4,199.6,268.5,199.3,268.5z"/>
				<path class="st1" d="M193.6,266.3c-0.1,0-0.1,0-0.2,0c-0.2,0-0.4-0.2-0.5-0.4c-0.1-0.2-0.2-0.4-0.1-0.6l0.2-1.1
					c0.1-0.4,0.4-0.7,0.8-0.7c0.1,0,0.1,0,0.2,0c0.2,0,0.4,0.2,0.5,0.4c0.1,0.2,0.2,0.4,0.1,0.6l-0.2,1.1
					C194.4,266,194,266.3,193.6,266.3z"/>
				<path class="st1" d="M172.1,272.2c-0.2,0-0.4-0.1-0.6-0.2c-0.4-0.3-0.4-0.9-0.1-1.2c0.2-0.2,0.4-0.3,0.6-0.3
					c0.2,0,0.4,0.1,0.6,0.2c0.4,0.3,0.4,0.9,0.1,1.2C172.5,272.1,172.3,272.2,172.1,272.2z"/>
				<path class="st1" d="M211.9,294.2c-0.1,0-0.1,0-0.2,0c-0.5-0.1-0.8-0.6-0.7-1c0.1-0.4,0.4-0.7,0.8-0.7c0.1,0,0.2,0,0.2,0
					c0.5,0.1,0.8,0.6,0.7,1C212.6,293.9,212.3,294.2,211.9,294.2z"/>
			</g>
			<path class="st1" d="M211.9,292.8c0.3,0.1,0.5,0.4,0.5,0.7c-0.1,0.3-0.4,0.5-0.7,0.4c-0.3-0.1-0.5-0.4-0.5-0.7
				C211.3,292.9,211.6,292.7,211.9,292.8z"/>
		</g>
		<path class="st0" d="M184.3,287.4c0.2,2.8,2.7,5.1,5.5,5.1s4.9-2.3,4.7-5.1c-0.2-2.8-2.7-5.1-5.5-5.1
			C186.2,282.3,184.1,284.6,184.3,287.4z"/>
		<g>
			<path class="st0" d="M311.5,260.2c15.1,0,28.2,12.2,29.3,27.3c1.1,15.1-10.2,27.3-25.3,27.3c-15.1,0-28.2-12.2-29.3-27.3
				C285.1,272.4,296.4,260.2,311.5,260.2z"/>
			<g>
				<g>
					<path class="st0" d="M309.5,261.7c0.1,0.7,0.6,1.2,1.3,1.2h1.6c0.7,0,1.2-0.6,1.1-1.2l-0.1-1.7c0-0.7-0.6-1.2-1.3-1.2h-1.6
						c-0.7,0-1.2,0.6-1.1,1.2L309.5,261.7z"/>
				</g>
				<g>
					<path class="st0" d="M313.5,314.9c0,0.7,0.6,1.2,1.3,1.2h1.6c0.7,0,1.2-0.6,1.1-1.2l-0.1-1.7c0-0.7-0.6-1.2-1.3-1.2h-1.6
						c-0.7,0-1.2,0.6-1.1,1.2L313.5,314.9z"/>
				</g>
			</g>
			<g>
				<g>
					<path class="st0" d="M316.3,262c-0.1,0.7,0.3,1.4,1,1.5l1.7,0.4c0.7,0.2,1.3-0.2,1.4-0.9l0.3-1.5c0.1-0.7-0.3-1.4-1-1.5
						l-1.7-0.4c-0.7-0.2-1.3,0.2-1.4,0.9L316.3,262z"/>
				</g>
				<g>
					<path class="st0" d="M306.3,313.4c-0.1,0.7,0.3,1.4,1,1.5l1.7,0.4c0.7,0.2,1.3-0.2,1.4-0.9l0.3-1.6c0.1-0.7-0.3-1.4-1-1.5
						l-1.7-0.4c-0.7-0.2-1.3,0.2-1.4,0.9L306.3,313.4z"/>
				</g>
			</g>
			<g>
				<g>
					<path class="st0" d="M322.9,264.1c-0.3,0.6-0.1,1.4,0.5,1.7l1.6,0.9c0.6,0.3,1.3,0.1,1.6-0.5l0.7-1.4c0.3-0.6,0.1-1.4-0.5-1.7
						l-1.6-0.9c-0.6-0.3-1.3-0.1-1.6,0.5L322.9,264.1z"/>
				</g>
				<g>
					<path class="st0" d="M299.7,310.2c-0.3,0.6-0.1,1.4,0.5,1.7l1.6,0.9c0.6,0.3,1.3,0.1,1.6-0.5l0.7-1.4c0.3-0.6,0.1-1.4-0.5-1.7
						l-1.6-0.9c-0.6-0.3-1.3-0.1-1.6,0.5L299.7,310.2z"/>
				</g>
			</g>
			<g>
				<g>
					<path class="st0" d="M328.8,267.8c-0.5,0.5-0.4,1.3,0.1,1.8l1.3,1.2c0.5,0.5,1.3,0.4,1.7-0.1l1-1.1c0.5-0.5,0.4-1.3-0.1-1.8
						l-1.3-1.2c-0.5-0.5-1.3-0.4-1.7,0.1L328.8,267.8z"/>
				</g>
				<g>
					<path class="st0" d="M294,305.4c-0.5,0.5-0.4,1.3,0.1,1.8l1.3,1.2c0.5,0.5,1.3,0.4,1.7-0.1l1-1.1c0.5-0.5,0.4-1.3-0.1-1.8
						l-1.3-1.2c-0.5-0.5-1.3-0.4-1.7,0.1L294,305.4z"/>
				</g>
			</g>
			<g>
				<g>
					<path class="st0" d="M333.7,272.8c-0.6,0.4-0.8,1.1-0.4,1.7l1,1.5c0.4,0.6,1.2,0.7,1.7,0.4l1.3-0.8c0.6-0.4,0.8-1.1,0.4-1.7
						l-1-1.5c-0.4-0.6-1.2-0.7-1.7-0.4L333.7,272.8z"/>
				</g>
				<g>
					<path class="st0" d="M289.6,299.4c-0.6,0.3-0.8,1.1-0.4,1.7l1,1.5c0.4,0.6,1.2,0.7,1.7,0.4l1.3-0.8c0.6-0.3,0.8-1.1,0.4-1.7
						l-1-1.5c-0.4-0.6-1.1-0.7-1.7-0.4L289.6,299.4z"/>
				</g>
			</g>
			<g>
				<g>
					<path class="st0" d="M337.2,278.8c-0.7,0.2-1,0.9-0.8,1.5l0.6,1.6c0.2,0.6,0.9,1,1.6,0.8l1.5-0.4c0.7-0.2,1-0.9,0.8-1.5
						l-0.6-1.6c-0.2-0.6-0.9-1-1.6-0.8L337.2,278.8z"/>
				</g>
				<g>
					<path class="st0" d="M286.9,292.6c-0.7,0.2-1,0.9-0.8,1.5l0.6,1.6c0.2,0.6,0.9,1,1.6,0.8l1.5-0.4c0.7-0.2,1-0.9,0.8-1.5
						L290,293c-0.2-0.6-0.9-1-1.6-0.8L286.9,292.6z"/>
				</g>
			</g>
			<g>
				<g>
					<path class="st0" d="M339.1,285.4c-0.7,0-1.2,0.6-1.1,1.2l0.1,1.6c0.1,0.7,0.6,1.2,1.3,1.2l1.6,0c0.7,0,1.2-0.6,1.1-1.2
						l-0.1-1.7c0-0.7-0.6-1.2-1.3-1.2L339.1,285.4L339.1,285.4z"/>
				</g>
				<g>
					<path class="st0" d="M285.9,285.4c-0.7,0-1.2,0.6-1.1,1.2l0.1,1.6c0.1,0.7,0.6,1.2,1.3,1.2l1.6,0c0.7,0,1.2-0.6,1.1-1.2
						l-0.1-1.7c-0.1-0.7-0.6-1.2-1.3-1.2L285.9,285.4L285.9,285.4z"/>
				</g>
			</g>
			<g>
				<g>
					<path class="st0" d="M339.2,292.2c-0.7-0.2-1.3,0.2-1.4,0.9l-0.3,1.6c-0.1,0.7,0.3,1.4,1,1.5l1.7,0.4c0.7,0.2,1.3-0.2,1.4-0.9
						l0.3-1.6c0.1-0.7-0.3-1.4-1-1.5L339.2,292.2z"/>
				</g>
				<g>
					<path class="st0" d="M286.8,278.4c-0.7-0.2-1.3,0.2-1.4,0.9l-0.3,1.6c-0.1,0.7,0.3,1.4,1,1.5l1.7,0.4c0.7,0.2,1.3-0.2,1.4-0.9
						l0.3-1.6c0.1-0.7-0.3-1.4-1-1.5L286.8,278.4z"/>
				</g>
			</g>
			<g>
				<g>
					<path class="st0" d="M337.6,298.6c-0.6-0.3-1.3-0.1-1.6,0.5l-0.7,1.4c-0.3,0.6-0.1,1.4,0.5,1.7l1.6,0.9
						c0.6,0.3,1.3,0.1,1.6-0.5l0.7-1.4c0.3-0.6,0.1-1.4-0.5-1.7L337.6,298.6z"/>
				</g>
				<g>
					<path class="st0" d="M289.6,272c-0.6-0.3-1.3-0.1-1.6,0.5l-0.7,1.4c-0.3,0.6-0.1,1.4,0.5,1.7l1.6,0.9c0.6,0.3,1.3,0.1,1.6-0.5
						l0.7-1.4c0.3-0.6,0.1-1.4-0.5-1.7L289.6,272z"/>
				</g>
			</g>
			<g>
				<g>
					<path class="st0" d="M334.4,304.2c-0.5-0.5-1.3-0.4-1.7,0.1l-1,1.1c-0.5,0.5-0.4,1.3,0.1,1.8l1.3,1.2c0.5,0.5,1.3,0.4,1.7-0.1
						l1-1.1c0.5-0.5,0.4-1.3-0.1-1.8L334.4,304.2z"/>
				</g>
				<g>
					<path class="st0" d="M294,266.6c-0.5-0.5-1.3-0.4-1.8,0.1l-1,1.1c-0.5,0.5-0.4,1.3,0.1,1.8l1.3,1.2c0.5,0.5,1.3,0.4,1.7-0.1
						l1-1.1c0.5-0.5,0.4-1.3-0.1-1.8L294,266.6z"/>
				</g>
			</g>
			<g>
				<g>
					<path class="st0" d="M329.7,308.8c-0.4-0.6-1.2-0.8-1.7-0.4l-1.3,0.8c-0.6,0.3-0.8,1.1-0.4,1.7l1,1.5c0.4,0.6,1.1,0.7,1.7,0.4
						l1.3-0.8c0.6-0.4,0.8-1.1,0.4-1.7L329.7,308.8z"/>
				</g>
				<g>
					<path class="st0" d="M299.7,262.7c-0.4-0.6-1.2-0.7-1.7-0.4l-1.3,0.8c-0.6,0.3-0.8,1.1-0.4,1.7l1,1.5c0.4,0.6,1.2,0.7,1.7,0.4
						l1.3-0.8c0.6-0.4,0.8-1.1,0.4-1.7L299.7,262.7z"/>
				</g>
			</g>
			<g>
				<g>
					<path class="st0" d="M323.9,311.8c-0.2-0.6-0.9-1-1.6-0.8l-1.5,0.4c-0.7,0.2-1,0.9-0.8,1.5l0.6,1.6c0.2,0.6,0.9,1,1.6,0.8
						l1.5-0.4c0.7-0.2,1-0.9,0.8-1.5L323.9,311.8z"/>
				</g>
				<g>
					<path class="st0" d="M306.4,260.5c-0.2-0.6-0.9-1-1.6-0.8l-1.5,0.4c-0.7,0.2-1,0.9-0.8,1.5l0.6,1.6c0.2,0.6,0.9,1,1.6,0.8
						l1.5-0.4c0.7-0.2,1-0.9,0.8-1.5L306.4,260.5z"/>
				</g>
			</g>
		</g>
		<g>
			<path class="st1" d="M314.5,300.9c7.5,0,13.1-6,12.5-13.5c-0.5-7.5-7-13.5-14.5-13.5c-7.5,0-13.1,6-12.5,13.5
				C300.5,294.9,307,300.9,314.5,300.9z"/>
			<path class="st1" d="M312.3,271.8c8.7,0,16.2,7,16.8,15.7c0.6,8.6-5.8,15.7-14.5,15.7c-8.7,0-16.2-7-16.8-15.7
				C297.2,278.8,303.7,271.8,312.3,271.8 M312.3,270.6c-4.5,0-8.6,1.8-11.6,4.9c-3,3.2-4.4,7.4-4.1,12c0.7,9.2,8.7,16.7,17.9,16.7
				c4.5,0,8.6-1.8,11.6-4.9c3-3.2,4.4-7.4,4.1-12C329.6,278.1,321.6,270.6,312.3,270.6L312.3,270.6z"/>
			<g>
				<path class="st1" d="M311.8,265.5c-0.4,0-0.8-0.3-0.9-0.8l-0.1-1.1c0-0.2,0.1-0.5,0.2-0.6c0.2-0.2,0.4-0.3,0.6-0.3l0.1,0
					c0.4,0,0.8,0.4,0.9,0.8l0.1,1.1c0,0.2-0.1,0.5-0.2,0.6C312.3,265.4,312.1,265.5,311.8,265.5L311.8,265.5z"/>
				<path class="st1" d="M300.6,268.5c-0.3,0-0.6-0.1-0.7-0.4l-0.3-0.5c-0.3-0.4-0.1-0.9,0.2-1.2c0.1-0.1,0.3-0.1,0.5-0.1
					c0.3,0,0.6,0.1,0.7,0.4l0.3,0.5c0.1,0.2,0.2,0.4,0.1,0.6c0,0.2-0.2,0.4-0.4,0.5C301,268.5,300.8,268.5,300.6,268.5z"/>
				<path class="st1" d="M336.3,288.3c-0.5,0-0.9-0.4-0.9-0.9c0-0.5,0.4-0.9,0.9-0.9h0.6c0.5,0,0.9,0.4,0.9,0.9
					c0,0.5-0.4,0.9-0.9,0.9H336.3z"/>
				<path class="st1" d="M306,266.3c-0.4,0-0.7-0.2-0.8-0.6l-0.4-1.1c-0.2-0.5,0.1-0.9,0.5-1.1c0.1,0,0.2,0,0.3,0
					c0.4,0,0.7,0.2,0.8,0.6l0.4,1.1c0.1,0.2,0.1,0.5,0,0.7c-0.1,0.2-0.3,0.4-0.5,0.4C306.2,266.3,306.1,266.3,306,266.3z"/>
				<path class="st1" d="M335.1,282.4c-0.4,0-0.7-0.3-0.8-0.6c-0.1-0.5,0.1-0.9,0.6-1.1l1.1-0.3c0.1,0,0.2,0,0.2,0
					c0.4,0,0.7,0.3,0.8,0.6c0.1,0.5-0.1,0.9-0.6,1.1l-1.1,0.3C335.2,282.4,335.1,282.4,335.1,282.4z"/>
				<path class="st1" d="M332.4,276.9c-0.3,0-0.6-0.2-0.7-0.4c-0.1-0.2-0.2-0.4-0.1-0.7c0.1-0.2,0.2-0.4,0.4-0.5l1-0.6
					c0.1-0.1,0.3-0.1,0.4-0.1c0.3,0,0.6,0.2,0.7,0.4c0.1,0.2,0.2,0.4,0.1,0.7c-0.1,0.2-0.2,0.4-0.4,0.5l-1,0.6
					C332.7,276.8,332.5,276.9,332.4,276.9z"/>
				<path class="st1" d="M328.4,272.2c-0.2,0-0.4-0.1-0.6-0.2c-0.3-0.3-0.4-0.9,0-1.2l0.8-0.8c0.2-0.2,0.4-0.3,0.6-0.3
					c0.2,0,0.4,0.1,0.6,0.2c0.4,0.3,0.4,0.9,0,1.2l-0.8,0.8C328.9,272.1,328.7,272.2,328.4,272.2z"/>
				<path class="st1" d="M323.4,268.5c-0.1,0-0.3,0-0.4-0.1c-0.2-0.1-0.4-0.3-0.4-0.5c-0.1-0.2-0.1-0.5,0-0.7l0.5-1
					c0.1-0.3,0.4-0.5,0.8-0.5c0.1,0,0.3,0,0.4,0.1c0.2,0.1,0.4,0.3,0.4,0.5c0.1,0.2,0.1,0.5,0,0.7l-0.5,1
					C324,268.4,323.8,268.5,323.4,268.5z"/>
				<path class="st1" d="M317.8,266.3c-0.1,0-0.1,0-0.2,0c-0.2,0-0.4-0.2-0.5-0.4c-0.1-0.2-0.2-0.4-0.1-0.6l0.2-1.1
					c0.1-0.4,0.4-0.7,0.8-0.7c0.1,0,0.1,0,0.2,0c0.2,0,0.4,0.2,0.5,0.4c0.1,0.2,0.2,0.4,0.1,0.6l-0.2,1.1
					C318.5,266,318.2,266.3,317.8,266.3z"/>
				<path class="st1" d="M296.2,272.2c-0.2,0-0.4-0.1-0.6-0.2c-0.4-0.3-0.4-0.9-0.1-1.2c0.2-0.2,0.4-0.3,0.6-0.3
					c0.2,0,0.4,0.1,0.6,0.2c0.4,0.3,0.4,0.9,0.1,1.2C296.7,272.1,296.5,272.2,296.2,272.2z"/>
				<path class="st1" d="M336,294.2c-0.1,0-0.1,0-0.2,0c-0.5-0.1-0.8-0.6-0.7-1c0.1-0.4,0.4-0.7,0.8-0.7c0.1,0,0.2,0,0.2,0
					c0.5,0.1,0.8,0.6,0.7,1C336.7,293.9,336.4,294.2,336,294.2z"/>
			</g>
			<path class="st1" d="M336.1,292.8c0.3,0.1,0.5,0.4,0.5,0.7c-0.1,0.3-0.4,0.5-0.7,0.4c-0.3-0.1-0.5-0.4-0.5-0.7
				C335.4,292.9,335.7,292.7,336.1,292.8z"/>
		</g>
		<path class="st0" d="M308.4,287.4c0.2,2.8,2.7,5.1,5.5,5.1c2.8,0,4.9-2.3,4.7-5.1c-0.2-2.8-2.7-5.1-5.5-5.1
			S308.2,284.6,308.4,287.4z"/>
		<path class="st1" d="M344.2,285.7h5.1c1.1,0,2.1-0.9,2.3-2l6.8-42.7c0.1-0.8,0.1-2.1-0.1-2.9l-12.4-37.2c-0.4-1.6-2-3-3.6-3H216.9
			c-1.1,0-2.4,0.6-3,1.5l-21.3,30l-48.5,8c-3.8,1.1-4.4,5.7-3.2,9.3l9.1,37.1c0.2,1,1.2,1.8,2.2,1.8l6.4,0.2
			c-1.3-17,11.6-32.6,28.6-32.6s32.2,15.7,33.5,32.6h62.2c0,0,0-1.9,0-1.9c-1.3-17,11.5-30.7,28.5-30.7c17,0,31.8,13.8,33,30.7
			C344.2,283.9,344.2,285.7,344.2,285.7z"/>
		<line class="st3" x1="278" y1="281.1" x2="224.6" y2="281.1"/>
		<path class="st0" d="M307.4,231.7c0.2,1,1.2,1.8,2.2,1.8h32c1,0,1.7-0.8,1.5-1.8l-5.7-27.2c-0.2-1-1.2-1.8-2.2-1.8h-32
			c-1,0-1.7,0.8-1.5,1.8L307.4,231.7z"/>
		<path class="st0" d="M255.2,231.6c0.1,1,1,1.8,2,1.8h39.9c1,0,1.7-0.8,1.5-1.8l-5.7-27.2c-0.2-1-1.2-1.8-2.2-1.8h-35.6
			c-1,0-1.8,0.8-1.7,1.8L255.2,231.6z"/>
		<path class="st0" d="M220.6,202.6c-1,0-2.3,0.7-2.9,1.5l-12.9,19.1c-0.6,0.8-0.5,2.2,0.1,3l4.7,5.8c0.6,0.8,2,1.4,3,1.4h36.3
			c1,0,1.8-0.8,1.7-1.8l-1.9-27.1c-0.1-1-1-1.8-2-1.8L220.6,202.6L220.6,202.6z"/>
		<path class="st0" d="M251.3,239.4c0.1,1.1-0.8,2-1.9,2h-10.6c-1.1,0-2.1-0.9-2.2-2l0,0c-0.1-1.1,0.8-2,1.9-2h10.6
			C250.3,237.4,251.2,238.3,251.3,239.4L251.3,239.4z"/>
		<path class="st0" d="M299.5,239.4c0.1,1.1-0.8,2-1.9,2h-10.6c-1.1,0-2.1-0.9-2.2-2l0,0c-0.1-1.1,0.8-2,1.9-2h10.6
			C298.5,237.4,299.5,238.3,299.5,239.4L299.5,239.4z"/>
		<path class="st1" d="M358.4,278.5c2.2,0,4.2-1.7,4.5-3.9l0.9-5.5c0.3-2.1-1.1-3.9-3.3-3.9h-10.3c-2.2,0-4.2,1.7-4.5,3.9l-0.9,5.5
			c-0.3,2.1,1.1,3.9,3.3,3.9H358.4z"/>
		<path class="st1" d="M142.5,278.5c-2.2,0-4.3-1.7-4.8-3.8l-1.3-5.6c-0.5-2.1,0.8-3.8,3-3.8h11.2c2.1,0,4.3,1.7,4.8,3.8l1.3,5.6
			c0.5,2.1-0.8,3.8-3,3.8H142.5z"/>
		<path class="st0" d="M219.2,265.2c-0.4,0-0.7-0.2-0.9-0.5c-7.6-10.6-19.3-16.9-31.2-16.9c-9.2,0-17.8,3.8-24.2,10.8
			c-1.7,1.8-3.2,3.9-4.5,6.1c-0.3,0.5-1,0.7-1.6,0.4c-0.5-0.3-0.7-1-0.4-1.6c1.4-2.3,3-4.5,4.8-6.4c6.9-7.4,16.1-11.5,25.9-11.5
			c12.6,0,25,6.7,33,17.9c0.4,0.5,0.3,1.2-0.3,1.6C219.7,265.1,219.5,265.2,219.2,265.2z"/>
		<path class="st0" d="M280.7,265.2c-0.2,0-0.4,0-0.6-0.2c-0.6-0.3-0.7-1-0.4-1.6c1.4-2.4,3-4.6,4.9-6.6
			c6.8-7.4,16.3-11.4,26.6-11.4c13.1,0,25.6,6.6,33.4,17.8c0.4,0.5,0.2,1.2-0.3,1.6c-0.5,0.4-1.2,0.2-1.6-0.3
			c-7.4-10.5-19.1-16.8-31.5-16.8c-9.7,0-18.5,3.8-24.9,10.7c-1.8,1.9-3.3,4-4.5,6.2C281.5,265,281.1,265.2,280.7,265.2z"/>
	</g>
</g>
<g id="Layer_2_1_">
</g>
<g id="Layer_4" class="st4">
	<g class="st5">
		<path class="st2" d="M624.4,693.1C624,842.2,502.9,962.8,353.7,962.5C204.6,962.2,84,841,84.4,691.9
			C84.7,542.8,205.8,422.2,355,422.5C504.1,422.9,624.7,544,624.4,693.1z"/>
	</g>
	<circle class="st6" cx="354.4" cy="695.8" r="246"/>
	<path class="st7" d="M588.4,692.5c0-129.2-104.8-234-234-234s-234,104.8-234,234l0,0v0c0,3.3,2.7,6,6,6h456
		C585.7,698.5,588.4,695.8,588.4,692.5L588.4,692.5L588.4,692.5z"/>
	<g class="st5">
		<g>
			<path class="st1" d="M272.1,504.6c-1.1,0.3-1.7,0-1.8-0.5c-0.1-0.5,0.1-1.1,1-1.4c9.9-3.7,62.3-4.5,100.3-2.1
				c45.6,2.9,98.5,11.2,98.5,11.2c0.5,0,0.9,0.5,0.8,0.9c0,0.5-0.4,0.9-0.9,0.8c0,0-87.5-8.1-102.2-8.7
				C326.3,502.9,275.5,503.7,272.1,504.6z"/>
			<path class="st1" d="M455.9,507.7c-0.4-1.3-0.8-3.6-0.7-5.1c0.2-2.8,1.3-5.4,2.9-7.4v0c0.2-0.2,0.3-0.4,0.3-0.7
				c0-0.6-0.4-1.2-1.1-1.2c-0.2,0-0.3,0-0.5,0.1c-5.4,1.3-9.6,5.9-9.9,11.8c0,0.4,0,0.8,0,1.2L455.9,507.7z"/>
		</g>
		<g>
			<g>
				<path class="st1" d="M316.7,484.4c-0.5,0-1,0.2-1.4,0.6c-0.1,0.1-0.4,0.4-0.5,0.4c-0.5,0.5-0.9,1.2-0.8,2
					c0.1,1.3,1.3,2.4,2.6,2.3c0.8,0,1.4-0.4,1.8-1c0.1-0.1,0.3-0.5,0.4-0.6c0.3-0.4,0.4-0.9,0.4-1.5
					C319.2,485.3,318,484.3,316.7,484.4z"/>
				<polygon class="st1" points="314.2,491 316.5,488.8 316.5,486.7 312,487.2 312.4,491 				"/>
				<path class="st1" d="M316.3,491.9c-0.1-1.8-1.7-3.2-3.5-3.1c-0.8,0-1.4,0.3-2,0.8c-0.1,0.1-0.6,0.5-0.7,0.6
					c-0.8,0.7-1.2,1.7-1.1,2.7c0.2,1.9,1.8,3.3,3.7,3.2c1.1-0.1,2-0.6,2.6-1.5c0.1-0.1,0.4-0.6,0.5-0.8
					C316.1,493.4,316.4,492.6,316.3,491.9z M312.6,494.3c-0.8,0.1-1.5-0.6-1.6-1.4c-0.1-0.8,0.6-1.5,1.4-1.6
					c0.8-0.1,1.5,0.6,1.6,1.4C314,493.5,313.4,494.2,312.6,494.3z"/>
			</g>
			<g>
				<path class="st1" d="M350.6,482.1c0.5,0,1.1,0.1,1.5,0.4c0.1,0.1,0.5,0.3,0.5,0.4c0.6,0.4,1,1.1,1.1,1.9c0.1,1.3-1,2.5-2.3,2.6
					c-0.8,0.1-1.5-0.3-2-0.8c-0.1-0.1-0.4-0.4-0.4-0.5c-0.3-0.4-0.5-0.9-0.6-1.4C348.3,483.4,349.3,482.3,350.6,482.1z"/>
				<polygon class="st1" points="354,488.4 351.4,486.5 351.2,484.4 355.7,484.3 355.8,488.2 				"/>
				<path class="st1" d="M359.4,489.6c-0.1-1.1-0.6-2-1.5-2.6c-0.1-0.1-0.6-0.4-0.8-0.5c-0.6-0.4-1.3-0.6-2-0.5
					c-1.8,0.1-3.2,1.7-3.1,3.5c0,0.8,0.3,1.4,0.8,2c0.1,0.1,0.5,0.6,0.6,0.7c0.7,0.8,1.6,1.2,2.7,1.1
					C358.1,493.1,359.5,491.5,359.4,489.6z M356.1,491.4c-0.8,0.1-1.5-0.6-1.6-1.4c-0.1-0.8,0.6-1.5,1.4-1.6
					c0.8-0.1,1.5,0.6,1.6,1.4C357.5,490.6,356.9,491.3,356.1,491.4z"/>
			</g>
			<path class="st1" d="M368.9,479.1c-1.9-1.7-11.2,1.5-13.2,1.6l-24.7,1.4l-21,1.4c-4.2,0.3-10.1-2.1-12.1,0.2
				c-2,2.3,6.7,4.9,9.1,4.8l24.2-1.6l28-1.8C362,484.9,371.2,481.2,368.9,479.1z"/>
		</g>
		<g>
			<g>
				<path class="st1" d="M386.2,474.6c-0.5-0.2-1-0.2-1.5,0c-0.1,0-0.5,0.2-0.6,0.2c-0.7,0.2-1.3,0.7-1.5,1.5
					c-0.4,1.3,0.2,2.7,1.5,3.2c0.7,0.3,1.5,0.2,2.1-0.2c0.1-0.1,0.5-0.3,0.6-0.4c0.4-0.3,0.8-0.7,0.9-1.2
					C388.1,476.4,387.4,475,386.2,474.6z"/>
				<polygon class="st1" points="381.3,479.7 384.3,478.6 385.1,476.6 380.8,475.3 379.6,479 				"/>
				<path class="st1" d="M380.8,477c-0.7-0.3-1.5-0.3-2.1,0c-0.2,0.1-0.7,0.3-0.9,0.3c-1,0.3-1.8,1-2.1,2.1
					c-0.6,1.8,0.4,3.8,2.1,4.4c1,0.4,2.1,0.2,2.9-0.3c0.1-0.1,0.6-0.4,0.8-0.5c0.6-0.4,1.1-0.9,1.3-1.7
					C383.4,479.6,382.5,477.7,380.8,477z M380.4,481.1c-0.3,0.8-1.1,1.2-1.9,0.9c-0.8-0.3-1.2-1.1-0.9-1.9c0.3-0.8,1.1-1.2,1.9-0.9
					C380.2,479.5,380.6,480.3,380.4,481.1z"/>
			</g>
			<g>
				<path class="st1" d="M418.2,485.9c0.5,0.2,0.9,0.5,1.2,0.9c0.1,0.1,0.3,0.5,0.4,0.6c0.4,0.6,0.5,1.4,0.2,2.1
					c-0.5,1.3-1.9,1.9-3.2,1.5c-0.7-0.3-1.3-0.8-1.5-1.5c0-0.1-0.2-0.5-0.2-0.6c-0.2-0.5-0.2-1,0-1.5
					C415.6,486.1,417,485.4,418.2,485.9z"/>
				<polygon class="st1" points="418.9,492.9 417.2,490.2 417.9,488.2 422,489.8 420.7,493.4 				"/>
				<path class="st1" d="M423.1,493.2c-0.1-0.1-0.4-0.6-0.5-0.8c-0.4-0.6-0.9-1.1-1.7-1.3c-1.7-0.6-3.6,0.3-4.3,2
					c-0.3,0.7-0.3,1.5,0,2.1c0.1,0.2,0.3,0.7,0.3,0.9c0.3,0.9,1,1.7,2.1,2.1c1.8,0.6,3.8-0.4,4.4-2.1
					C423.8,495.1,423.6,494.1,423.1,493.2z M421.5,495.6c-0.3,0.8-1.1,1.2-1.9,0.9c-0.8-0.3-1.2-1.1-0.9-1.9
					c0.3-0.8,1.1-1.2,1.9-0.9C421.4,494,421.8,494.8,421.5,495.6z"/>
			</g>
			<path class="st1" d="M436.2,490.3c-1.1-2.3-10.9-3.1-12.8-3.7l-23.3-8.4l-19.8-7c-3.9-1.4-8.5-5.9-11.2-4.6
				c-2.7,1.3,4.2,7.2,6.5,8l22.9,8.1l26.5,9.4C427.6,492.8,437.6,493.1,436.2,490.3z"/>
		</g>
	</g>
</g>
</svg>
