<?xml version="1.0" encoding="utf-8"?>
<!-- Generator: Adobe Illustrator 25.1.0, SVG Export Plug-In . SVG Version: 6.00 Build 0)  -->
<svg version="1.1" id="Layer_1" xmlns="http://www.w3.org/2000/svg" xmlns:xlink="http://www.w3.org/1999/xlink" x="0px" y="0px"
	 width="500px" height="500px" viewBox="0 0 500 500" style="enable-background:new 0 0 500 500;" xml:space="preserve">
<style type="text/css">
	.st0{display:none;}
	.st1{display:inline;}
	.st2{fill:#231F20;}
	.st3{display:inline;fill:#FFFFFF;}
	.st4{display:inline;fill:#231F20;}
	.st5{fill:#FFFFFF;}
	.st6{fill:#BC3737;}
</style>
<g id="Layer_3">
</g>
<g id="Layer_2_1_">
</g>
<g id="Layer_4" class="st0">
	<g class="st1">
		<path class="st2" d="M624.4,693.1C624,842.2,502.9,962.8,353.7,962.5C204.6,962.2,84,841,84.4,691.9
			C84.7,542.8,205.8,422.2,355,422.5C504.1,422.9,624.7,544,624.4,693.1z"/>
	</g>
	<circle class="st3" cx="354.4" cy="695.8" r="246"/>
	<path class="st4" d="M588.4,692.5c0-129.2-104.8-234-234-234s-234,104.8-234,234l0,0v0c0,3.3,2.7,6,6,6h456
		C585.7,698.5,588.4,695.8,588.4,692.5L588.4,692.5L588.4,692.5z"/>
	<g class="st1">
		<g>
			<path class="st5" d="M272.1,504.6c-1.1,0.3-1.7,0-1.8-0.5c-0.1-0.5,0.1-1.1,1-1.4c9.9-3.7,62.3-4.5,100.3-2.1
				c45.6,2.9,98.5,11.2,98.5,11.2c0.5,0,0.9,0.5,0.8,0.9c0,0.5-0.4,0.9-0.9,0.8c0,0-87.5-8.1-102.2-8.7
				C326.3,502.9,275.5,503.7,272.1,504.6z"/>
			<path class="st5" d="M455.9,507.7c-0.4-1.3-0.8-3.6-0.7-5.1c0.2-2.8,1.3-5.4,2.9-7.4v0c0.2-0.2,0.3-0.4,0.3-0.7
				c0-0.6-0.4-1.2-1.1-1.2c-0.2,0-0.3,0-0.5,0.1c-5.4,1.3-9.6,5.9-9.9,11.8c0,0.4,0,0.8,0,1.2L455.9,507.7z"/>
		</g>
		<g>
			<g>
				<path class="st5" d="M316.7,484.4c-0.5,0-1,0.2-1.4,0.6c-0.1,0.1-0.4,0.4-0.5,0.4c-0.5,0.5-0.9,1.2-0.8,2
					c0.1,1.3,1.3,2.4,2.6,2.3c0.8,0,1.4-0.4,1.8-1c0.1-0.1,0.3-0.5,0.4-0.6c0.3-0.4,0.4-0.9,0.4-1.5
					C319.2,485.3,318,484.3,316.7,484.4z"/>
				<polygon class="st5" points="314.2,491 316.5,488.8 316.5,486.7 312,487.2 312.4,491 				"/>
				<path class="st5" d="M316.3,491.9c-0.1-1.8-1.7-3.2-3.5-3.1c-0.8,0-1.4,0.3-2,0.8c-0.1,0.1-0.6,0.5-0.7,0.6
					c-0.8,0.7-1.2,1.7-1.1,2.7c0.2,1.9,1.8,3.3,3.7,3.2c1.1-0.1,2-0.6,2.6-1.5c0.1-0.1,0.4-0.6,0.5-0.8
					C316.1,493.4,316.4,492.6,316.3,491.9z M312.6,494.3c-0.8,0.1-1.5-0.6-1.6-1.4c-0.1-0.8,0.6-1.5,1.4-1.6
					c0.8-0.1,1.5,0.6,1.6,1.4C314,493.5,313.4,494.2,312.6,494.3z"/>
			</g>
			<g>
				<path class="st5" d="M350.6,482.1c0.5,0,1.1,0.1,1.5,0.4c0.1,0.1,0.5,0.3,0.5,0.4c0.6,0.4,1,1.1,1.1,1.9c0.1,1.3-1,2.5-2.3,2.6
					c-0.8,0.1-1.5-0.3-2-0.8c-0.1-0.1-0.4-0.4-0.4-0.5c-0.3-0.4-0.5-0.9-0.6-1.4C348.3,483.4,349.3,482.3,350.6,482.1z"/>
				<polygon class="st5" points="354,488.4 351.4,486.5 351.2,484.4 355.7,484.3 355.8,488.2 				"/>
				<path class="st5" d="M359.4,489.6c-0.1-1.1-0.6-2-1.5-2.6c-0.1-0.1-0.6-0.4-0.8-0.5c-0.6-0.4-1.3-0.6-2-0.5
					c-1.8,0.1-3.2,1.7-3.1,3.5c0,0.8,0.3,1.4,0.8,2c0.1,0.1,0.5,0.6,0.6,0.7c0.7,0.8,1.6,1.2,2.7,1.1
					C358.1,493.1,359.5,491.5,359.4,489.6z M356.1,491.4c-0.8,0.1-1.5-0.6-1.6-1.4c-0.1-0.8,0.6-1.5,1.4-1.6
					c0.8-0.1,1.5,0.6,1.6,1.4C357.5,490.6,356.9,491.3,356.1,491.4z"/>
			</g>
			<path class="st5" d="M368.9,479.1c-1.9-1.7-11.2,1.5-13.2,1.6l-24.7,1.4l-21,1.4c-4.2,0.3-10.1-2.1-12.1,0.2
				c-2,2.3,6.7,4.9,9.1,4.8l24.2-1.6l28-1.8C362,484.9,371.2,481.2,368.9,479.1z"/>
		</g>
		<g>
			<g>
				<path class="st5" d="M386.2,474.6c-0.5-0.2-1-0.2-1.5,0c-0.1,0-0.5,0.2-0.6,0.2c-0.7,0.2-1.3,0.7-1.5,1.5
					c-0.4,1.3,0.2,2.7,1.5,3.2c0.7,0.3,1.5,0.2,2.1-0.2c0.1-0.1,0.5-0.3,0.6-0.4c0.4-0.3,0.8-0.7,0.9-1.2
					C388.1,476.4,387.4,475,386.2,474.6z"/>
				<polygon class="st5" points="381.3,479.7 384.3,478.6 385.1,476.6 380.8,475.3 379.6,479 				"/>
				<path class="st5" d="M380.8,477c-0.7-0.3-1.5-0.3-2.1,0c-0.2,0.1-0.7,0.3-0.9,0.3c-1,0.3-1.8,1-2.1,2.1
					c-0.6,1.8,0.4,3.8,2.1,4.4c1,0.4,2.1,0.2,2.9-0.3c0.1-0.1,0.6-0.4,0.8-0.5c0.6-0.4,1.1-0.9,1.3-1.7
					C383.4,479.6,382.5,477.7,380.8,477z M380.4,481.1c-0.3,0.8-1.1,1.2-1.9,0.9c-0.8-0.3-1.2-1.1-0.9-1.9c0.3-0.8,1.1-1.2,1.9-0.9
					C380.2,479.5,380.6,480.3,380.4,481.1z"/>
			</g>
			<g>
				<path class="st5" d="M418.2,485.9c0.5,0.2,0.9,0.5,1.2,0.9c0.1,0.1,0.3,0.5,0.4,0.6c0.4,0.6,0.5,1.4,0.2,2.1
					c-0.5,1.3-1.9,1.9-3.2,1.5c-0.7-0.3-1.3-0.8-1.5-1.5c0-0.1-0.2-0.5-0.2-0.6c-0.2-0.5-0.2-1,0-1.5
					C415.6,486.1,417,485.4,418.2,485.9z"/>
				<polygon class="st5" points="418.9,492.9 417.2,490.2 417.9,488.2 422,489.8 420.7,493.4 				"/>
				<path class="st5" d="M423.1,493.2c-0.1-0.1-0.4-0.6-0.5-0.8c-0.4-0.6-0.9-1.1-1.7-1.3c-1.7-0.6-3.6,0.3-4.3,2
					c-0.3,0.7-0.3,1.5,0,2.1c0.1,0.2,0.3,0.7,0.3,0.9c0.3,0.9,1,1.7,2.1,2.1c1.8,0.6,3.8-0.4,4.4-2.1
					C423.8,495.1,423.6,494.1,423.1,493.2z M421.5,495.6c-0.3,0.8-1.1,1.2-1.9,0.9c-0.8-0.3-1.2-1.1-0.9-1.9
					c0.3-0.8,1.1-1.2,1.9-0.9C421.4,494,421.8,494.8,421.5,495.6z"/>
			</g>
			<path class="st5" d="M436.2,490.3c-1.1-2.3-10.9-3.1-12.8-3.7l-23.3-8.4l-19.8-7c-3.9-1.4-8.5-5.9-11.2-4.6
				c-2.7,1.3,4.2,7.2,6.5,8l22.9,8.1l26.5,9.4C427.6,492.8,437.6,493.1,436.2,490.3z"/>
		</g>
	</g>
</g>
<g>
	<path class="st6" d="M500,250.6C499.7,388.6,387.5,500.3,249.4,500C111.4,499.7-0.3,387.5,0,249.4C0.3,111.4,112.5-0.3,250.6,0
		C388.6,0.3,500.3,112.5,500,250.6z"/>
</g>
<g>
	<g>
		<path class="st5" d="M144,208.1c-1.2,0.5-2,0.3-2.3-0.3c-0.2-0.5,0-1.2,1-1.7c11.3-5.6,74.1-14.1,120-16.8
			c55.1-3.3,119.7-1.6,119.7-1.6c0.6,0,1.1,0.4,1.1,0.9c0,0.6-0.4,1-1,1.1c0,0-106,3.6-123.8,4.9C208.7,198.4,147.9,206.6,144,208.1
			z"/>
		<path class="st5" d="M364.8,185.6c-0.6-1.4-1.4-3.9-1.5-5.6c-0.2-3.2,0.7-6.2,2.5-8.8l0,0c0.2-0.2,0.3-0.5,0.3-0.9
			c0-0.7-0.7-1.3-1.5-1.2c-0.2,0-0.4,0.1-0.6,0.2c-6.3,2.2-10.6,8-10.2,14.6c0,0.5,0.1,0.9,0.2,1.4L364.8,185.6z"/>
	</g>
	<g>
		<path class="st5" d="M139.3,163.7c-1.1,0.3-1.8,0.1-2-0.5c-0.2-0.5,0.1-1.1,1-1.5c10.4-4,66.2-5.4,106.5-3.1
			c48.5,2.7,104.7,11,104.7,11c0.5,0,0.9,0.5,0.9,1c0,0.5-0.5,0.9-1,0.9c0,0-93-7.8-108.6-8.4C196.9,161.4,142.9,162.7,139.3,163.7z
			"/>
		<path class="st5" d="M334.5,166.4c-0.4-1.4-0.8-3.8-0.8-5.4c0.2-3,1.3-5.7,3.1-7.9v0c0.2-0.2,0.3-0.5,0.3-0.8
			c0-0.7-0.5-1.3-1.1-1.3c-0.2,0-0.4,0-0.5,0.1c-5.7,1.4-10.1,6.4-10.5,12.6c0,0.4,0,0.9,0,1.3L334.5,166.4z"/>
	</g>
	<g>
		<path class="st5" d="M247.1,180.8c0.7-3.9,2-7,2.1-8.7c0.1-3.1-2.7-3.5-6.7-3.7c-3.9-0.1-6.7,0.1-6.9,3.2
			c-0.2,2.2,1.7,4.3,1.7,7.6C238.8,178.2,245.7,179.7,247.1,180.8z"/>
		<g>
			<path class="st5" d="M246.7,182.4c0.2-2.7-2.6-5.2-6.2-5.4c-3.6-0.3-6.7,1.7-6.9,4.5L246.7,182.4z"/>
		</g>
		<path class="st5" d="M273.3,182c-0.1-3.7-0.9-6.9-0.8-8.5c0.3-2.9,3-3,6.8-2.5c3.7,0.4,6.3,1.1,6.1,3.9c-0.1,2-2.2,3.8-2.7,6.9
			C281.4,180.7,274.7,181.2,273.3,182z"/>
		<g>
			<path class="st5" d="M273.3,183.6c0.2-2.6,3.1-4.5,6.5-4.2c3.4,0.2,6,2.5,5.8,5.1L273.3,183.6z"/>
		</g>
		<g>
			<path class="st5" d="M192.3,171.8c5.6,0.4,20.9,12.8,27.9,13.4c-5.9-0.4-25-5.6-27.4-8.1C188.4,172.3,192.3,171.8,192.3,171.8"/>
			<path class="st5" d="M315.2,179.8c-5.3-0.4-8.4,4.5-19.3,3.7c-3.7-0.3-35.7-2.9-37.8-3c-5.2-0.2-39.6-0.9-47.9-1.1
				c1.9,1.1,3.7,2.1,5.4,2.9l3,1.2c0.6,0.2,1.2,0.4,1.8,0.5c5.4,0,33.9-1,43.6-0.2c13.8,1,43.8,4.5,47,4.7c4.5,0.3,8.2-1.5,8.4-3.9
				C319.5,182.5,318.5,180,315.2,179.8z"/>
		</g>
	</g>
	<g>
		<path class="st5" d="M254.6,149.5c-0.7-3.9-2.1-7-2.2-8.7c-0.2-3.1,2.7-3.6,6.6-3.7c3.9-0.2,6.7,0.1,6.9,3.1
			c0.2,2.2-1.7,4.3-1.6,7.6C262.9,146.9,256,148.4,254.6,149.5z"/>
		<g>
			<path class="st5" d="M255,151.2c-0.2-2.7,2.5-5.2,6.1-5.5c3.6-0.3,6.7,1.7,6.9,4.4L255,151.2z"/>
		</g>
		<path class="st5" d="M228.5,151c0.1-3.7,0.9-6.9,0.7-8.5c-0.3-2.9-3.1-2.9-6.8-2.5c-3.7,0.4-6.3,1.1-6,4c0.2,2,2.2,3.8,2.7,6.9
			C220.3,149.8,227,150.2,228.5,151z"/>
		<g>
			<path class="st5" d="M228.4,152.6c-0.2-2.6-3.1-4.5-6.6-4.2c-3.4,0.3-6,2.6-5.8,5.2L228.4,152.6z"/>
		</g>
		<g>
			<path class="st5" d="M309.3,140.1c-5.6,0.5-20.8,13-27.8,13.6c5.9-0.5,24.9-5.8,27.3-8.4C313.3,140.5,309.3,140.1,309.3,140.1"/>
			<path class="st5" d="M186.5,149.1c5.3-0.4,8.4,4.4,19.3,3.5c3.7-0.3,35.7-3.2,37.8-3.3c5.2-0.2,39.5-1.3,47.9-1.5
				c-1.8,1.1-3.7,2.1-5.4,2.9l-2.9,1.2c-0.6,0.2-1.2,0.4-1.8,0.5c-5.4,0-33.9-0.7-43.6,0.1c-13.8,1.1-43.8,4.8-46.9,5.1
				c-4.5,0.4-8.2-1.4-8.4-3.8C182.2,151.9,183.2,149.4,186.5,149.1z"/>
		</g>
	</g>
	<g>
		<path class="st5" d="M261.2,126c0.8-3.8,2.3-6.9,2.5-8.6c0.3-3-2.6-3.7-6.5-4c-3.9-0.3-6.7-0.2-7,2.9c-0.2,2.1,1.5,4.4,1.4,7.7
			C253.1,123,259.9,124.8,261.2,126z"/>
		<g>
			<path class="st5" d="M260.8,127.6c0.3-2.7-2.3-5.3-5.9-5.7c-3.6-0.4-6.7,1.4-7.1,4.2L260.8,127.6z"/>
		</g>
		<path class="st5" d="M287.4,128.4c0.1-3.7-0.6-6.9-0.4-8.5c0.4-2.9,3.2-2.8,6.9-2.2c3.7,0.6,6.2,1.3,5.9,4.2c-0.2,2-2.4,3.7-3,6.8
			C295.5,127.4,288.9,127.6,287.4,128.4z"/>
		<g>
			<path class="st5" d="M287.4,130c0.3-2.6,3.3-4.3,6.7-3.9c3.4,0.4,5.9,2.8,5.6,5.4L287.4,130z"/>
		</g>
		<g>
			<path class="st5" d="M206.9,114.6c5.6,0.7,20.3,13.8,27.3,14.6c-5.9-0.7-24.7-6.7-27-9.3C203,114.9,206.9,114.6,206.9,114.6"/>
			<path class="st5" d="M329.4,128c-5.3-0.6-8.5,4.1-19.4,2.8c-3.7-0.4-35.6-4.5-37.6-4.6c-5.2-0.4-39.5-2.7-47.8-3.2
				c1.8,1.1,3.6,2.2,5.3,3.1l2.9,1.3c0.6,0.2,1.2,0.4,1.8,0.5c5.4,0.2,33.9,0.5,43.6,1.7c13.7,1.6,43.6,6.4,46.7,6.8
				c4.5,0.5,8.3-1.1,8.6-3.5C333.5,130.9,332.6,128.4,329.4,128z"/>
		</g>
	</g>
	<g>
		<g>
			<path class="st5" d="M240.1,80.4c-0.6,0-1.1,0.2-1.5,0.6c-0.1,0.1-0.5,0.4-0.5,0.5c-0.6,0.5-0.9,1.2-0.9,2.1
				c0.1,1.4,1.3,2.6,2.8,2.5c0.8,0,1.5-0.4,2-1.1c0.1-0.1,0.3-0.5,0.4-0.6c0.3-0.4,0.5-1,0.4-1.6C242.6,81.4,241.4,80.4,240.1,80.4z
				"/>
			<polygon class="st5" points="237.2,87.4 239.7,85.1 239.7,82.9 235,83.3 235.3,87.4 			"/>
			<path class="st5" d="M239.4,88.3c-0.1-1.9-1.8-3.4-3.7-3.4c-0.8,0-1.5,0.3-2.1,0.8c-0.1,0.1-0.6,0.5-0.7,0.6
				c-0.8,0.7-1.3,1.7-1.2,2.9c0.1,2,1.8,3.6,3.8,3.5c1.2,0,2.2-0.6,2.8-1.5c0.1-0.1,0.5-0.7,0.6-0.8
				C239.2,89.9,239.5,89.2,239.4,88.3z M235.4,90.8c-0.9,0-1.6-0.6-1.6-1.5c0-0.9,0.6-1.6,1.5-1.6c0.9,0,1.6,0.6,1.6,1.5
				C236.9,90,236.3,90.8,235.4,90.8z"/>
		</g>
		<g>
			<path class="st5" d="M276.1,78.8c0.6,0,1.1,0.1,1.6,0.4c0.1,0.1,0.5,0.3,0.6,0.4c0.6,0.4,1.1,1.1,1.1,2c0,1.4-1.1,2.7-2.5,2.8
				c-0.8,0.1-1.6-0.3-2.1-0.9c-0.1-0.1-0.4-0.4-0.5-0.5c-0.3-0.4-0.6-0.9-0.6-1.5C273.6,80,274.7,78.8,276.1,78.8z"/>
			<polygon class="st5" points="279.5,85.4 276.8,83.4 276.6,81.2 281.4,81.2 281.5,85.3 			"/>
			<path class="st5" d="M285.3,86.9c0-1.2-0.6-2.2-1.5-2.8c-0.1-0.1-0.7-0.5-0.8-0.6c-0.6-0.4-1.4-0.7-2.2-0.6
				c-1.9,0.1-3.4,1.8-3.4,3.7c0,0.8,0.3,1.5,0.8,2.1c0.1,0.1,0.5,0.6,0.6,0.7c0.7,0.8,1.7,1.3,2.9,1.2
				C283.8,90.6,285.3,88.8,285.3,86.9z M281.7,88.7c-0.9,0-1.6-0.6-1.6-1.5c0-0.9,0.6-1.6,1.5-1.6c0.9,0,1.6,0.6,1.6,1.5
				C283.2,87.9,282.5,88.6,281.7,88.7z"/>
		</g>
		<path class="st5" d="M295.5,75.9c-2-1.8-12,1.3-14.1,1.4l-26.3,1l-22.3,1.1c-4.4,0.2-10.7-2.4-12.8-0.1c-2.2,2.4,7,5.4,9.6,5.3
			l25.8-1.2l29.8-1.3C288.1,81.9,298,78.2,295.5,75.9z"/>
	</g>
	<g>
		<g>
			<path class="st5" d="M258.3,31.5c-0.5-0.2-1.1-0.2-1.6,0c-0.1,0-0.6,0.2-0.7,0.2c-0.7,0.2-1.3,0.8-1.6,1.6
				c-0.4,1.4,0.3,2.9,1.7,3.3c0.8,0.3,1.6,0.1,2.2-0.3c0.1-0.1,0.5-0.3,0.6-0.4c0.4-0.3,0.8-0.7,1-1.3
				C260.3,33.4,259.6,32,258.3,31.5z"/>
			<polygon class="st5" points="253.2,37.1 256.3,35.8 257.1,33.7 252.5,32.4 251.3,36.4 			"/>
			<path class="st5" d="M252.6,34.3c-0.8-0.3-1.6-0.2-2.2,0c-0.2,0.1-0.8,0.3-0.9,0.3c-1,0.4-1.8,1.1-2.2,2.3
				c-0.6,1.9,0.5,4,2.3,4.6c1.1,0.4,2.2,0.2,3.1-0.4c0.1-0.1,0.7-0.5,0.8-0.5c0.6-0.4,1.1-1,1.3-1.8
				C255.4,36.9,254.4,34.9,252.6,34.3z M252.2,38.6c-0.3,0.8-1.2,1.3-2,1c-0.8-0.3-1.3-1.2-1-2c0.3-0.8,1.2-1.3,2-1
				C252.1,36.9,252.5,37.8,252.2,38.6z"/>
		</g>
		<g>
			<path class="st5" d="M292.6,42.7c0.6,0.2,1,0.5,1.3,1c0.1,0.1,0.3,0.5,0.4,0.6c0.4,0.6,0.6,1.5,0.3,2.2c-0.5,1.4-2,2.1-3.3,1.7
				c-0.8-0.2-1.4-0.8-1.6-1.6c0-0.1-0.2-0.6-0.3-0.7c-0.2-0.5-0.2-1.1,0-1.6C289.8,43,291.2,42.3,292.6,42.7z"/>
			<polygon class="st5" points="293.4,50.2 291.6,47.3 292.2,45.2 296.7,46.8 295.3,50.7 			"/>
			<path class="st5" d="M297.9,50.4c-0.1-0.1-0.4-0.7-0.5-0.8c-0.4-0.6-1-1.1-1.8-1.3c-1.8-0.6-3.8,0.5-4.5,2.3
				c-0.3,0.8-0.2,1.6,0,2.2c0.1,0.2,0.3,0.8,0.3,0.9c0.3,1,1.1,1.8,2.3,2.2c1.9,0.6,4-0.5,4.6-2.4C298.7,52.4,298.5,51.3,297.9,50.4
				z M296.3,53c-0.3,0.8-1.1,1.3-2,1c-0.8-0.3-1.3-1.2-1-2c0.3-0.8,1.2-1.3,2-1C296.1,51.3,296.5,52.1,296.3,53z"/>
		</g>
		<path class="st5" d="M311.7,46.9c-1.2-2.4-11.7-3-13.7-3.6l-24.9-8.4L251.9,28c-4.2-1.4-9.2-6.1-12-4.6c-2.9,1.5,4.7,7.5,7.1,8.3
			l24.6,8l28.3,9.3C302.7,49.9,313.3,49.9,311.7,46.9z"/>
	</g>
	<g>
		<path class="st5" d="M177.6,102.5c-0.9,0.2-1.7,0.1-1.8-0.6c-0.1-0.6,0.5-1.2,1.2-1.6c8.5-3.8,52.3-3.4,83.8,0.2
			c37.8,4.4,81.4,14.8,81.4,14.8c0.4,0,0.7,0.5,0.6,1c-0.1,0.5-0.4,0.9-0.8,0.9c0,0-69.4-11.4-81.6-12.5
			C250.9,104,193.8,98.2,177.6,102.5z"/>
		<path class="st5" d="M329.7,110.8c-0.3-1.3-0.5-3.5-0.4-4.9c0.3-2.7,1.5-5.1,3.2-6.9v0c0.2-0.2,0.3-0.4,0.4-0.7
			c0.1-0.6-0.4-1.2-1-1.2c-0.2,0-0.3,0-0.5,0.1c-5.2,0.9-9.4,5.2-10.1,10.7c0,0.4-0.1,0.8-0.1,1.2L329.7,110.8z"/>
	</g>
	<path class="st5" d="M241.2,199.6c-0.1-1.8-1.7-3.3-3.6-3.3c-1.8,0-3.2,1.5-3.1,3.3c0.1,1.8,1.7,3.3,3.6,3.3
		C240,202.9,241.3,201.4,241.2,199.6z"/>
	<path class="st5" d="M295.2,199.6c-0.1-1.8-1.7-3.3-3.6-3.3c-1.8,0-3.2,1.5-3.1,3.3c0.1,1.8,1.7,3.3,3.6,3.3
		C293.9,202.9,295.3,201.4,295.2,199.6z"/>
	<path class="st5" d="M190.3,275.9c8.4,0,15.6,6.8,16.2,15.1c0.6,8.3-5.6,15.1-14,15.1c-8.4,0-15.6-6.8-16.2-15.1
		C175.7,282.6,182,275.9,190.3,275.9 M190.3,274.8c-4.3,0-8.3,1.7-11.2,4.8c-2.9,3.1-4.3,7.2-3.9,11.5c0.7,8.9,8.4,16.1,17.3,16.1
		c4.3,0,8.3-1.7,11.2-4.8c2.9-3.1,4.3-7.2,3.9-11.5C207,282,199.3,274.8,190.3,274.8L190.3,274.8z"/>
	<g>
		<g>
			<path class="st5" d="M189.8,269.8c-0.4,0-0.8-0.3-0.8-0.8l-0.1-1.1c0-0.2,0.1-0.4,0.2-0.6c0.1-0.2,0.4-0.3,0.6-0.3h0.1
				c0.4,0,0.8,0.3,0.8,0.8l0.1,1.1c0,0.2-0.1,0.4-0.2,0.6C190.3,269.7,190.1,269.8,189.8,269.8L189.8,269.8z"/>
			<path class="st5" d="M179.1,272.8c-0.3,0-0.5-0.1-0.7-0.4l-0.3-0.5c-0.2-0.4-0.1-0.9,0.2-1.2c0.1-0.1,0.3-0.1,0.5-0.1
				c0.3,0,0.5,0.1,0.7,0.4l0.3,0.5c0.1,0.2,0.2,0.4,0.1,0.6c0,0.2-0.2,0.4-0.4,0.5C179.4,272.7,179.2,272.8,179.1,272.8z"/>
			<path class="st5" d="M213.5,291.8c-0.5,0-0.8-0.4-0.8-0.8c0-0.5,0.4-0.8,0.8-0.8h0.6c0.5,0,0.8,0.4,0.8,0.8
				c0,0.5-0.4,0.8-0.8,0.8H213.5z"/>
			<path class="st5" d="M184.2,270.6c-0.4,0-0.7-0.2-0.8-0.6l-0.4-1.1c-0.2-0.4,0.1-0.9,0.5-1.1c0.1,0,0.2,0,0.3,0
				c0.4,0,0.7,0.2,0.8,0.6l0.4,1.1c0.1,0.2,0.1,0.4,0,0.6c-0.1,0.2-0.3,0.3-0.5,0.4C184.4,270.6,184.3,270.6,184.2,270.6z"/>
			<path class="st5" d="M212.3,286.1c-0.4,0-0.7-0.2-0.8-0.6c-0.1-0.4,0.1-0.9,0.6-1l1-0.3c0.1,0,0.1,0,0.2,0c0.4,0,0.7,0.2,0.8,0.6
				c0.1,0.4-0.1,0.9-0.6,1l-1,0.3C212.4,286.1,212.4,286.1,212.3,286.1z"/>
			<path class="st5" d="M209.7,280.8c-0.3,0-0.6-0.2-0.7-0.4c-0.1-0.2-0.1-0.4-0.1-0.6c0.1-0.2,0.2-0.4,0.4-0.5l0.9-0.6
				c0.1-0.1,0.3-0.1,0.4-0.1c0.3,0,0.6,0.2,0.7,0.4c0.1,0.2,0.1,0.4,0.1,0.6c-0.1,0.2-0.2,0.4-0.4,0.5l-0.9,0.6
				C210,280.8,209.9,280.8,209.7,280.8z"/>
			<path class="st5" d="M205.9,276.3c-0.2,0-0.4-0.1-0.6-0.2c-0.3-0.3-0.4-0.8,0-1.2l0.7-0.8c0.2-0.2,0.4-0.3,0.6-0.3
				c0.2,0,0.4,0.1,0.6,0.2c0.3,0.3,0.4,0.8,0,1.2l-0.7,0.8C206.3,276.2,206.1,276.3,205.9,276.3z"/>
			<path class="st5" d="M201.1,272.8c-0.1,0-0.3,0-0.4-0.1c-0.2-0.1-0.3-0.3-0.4-0.5c-0.1-0.2-0.1-0.4,0.1-0.6l0.5-1
				c0.1-0.3,0.4-0.5,0.7-0.5c0.1,0,0.3,0,0.4,0.1c0.2,0.1,0.3,0.3,0.4,0.5c0.1,0.2,0.1,0.4,0,0.6l-0.5,1
				C201.7,272.6,201.4,272.8,201.1,272.8z"/>
			<path class="st5" d="M195.6,270.6c-0.1,0-0.1,0-0.2,0c-0.2,0-0.4-0.2-0.5-0.4c-0.1-0.2-0.2-0.4-0.1-0.6l0.2-1.1
				c0.1-0.4,0.4-0.7,0.8-0.7c0.1,0,0.1,0,0.2,0c0.2,0,0.4,0.2,0.5,0.3c0.1,0.2,0.2,0.4,0.1,0.6l-0.2,1.1
				C196.3,270.3,196,270.6,195.6,270.6z"/>
			<path class="st5" d="M174.8,276.3c-0.2,0-0.4-0.1-0.6-0.2c-0.3-0.3-0.4-0.8-0.1-1.2c0.1-0.2,0.4-0.2,0.6-0.2
				c0.2,0,0.4,0.1,0.6,0.2c0.3,0.3,0.4,0.8,0.1,1.2C175.2,276.2,175,276.3,174.8,276.3z"/>
			<path class="st5" d="M213.2,297.5c-0.1,0-0.1,0-0.2,0c-0.4-0.1-0.7-0.6-0.6-1c0.1-0.4,0.4-0.6,0.8-0.6c0.1,0,0.1,0,0.2,0
				c0.4,0.1,0.7,0.6,0.6,1C213.9,297.3,213.6,297.5,213.2,297.5z"/>
		</g>
		<path class="st5" d="M213.3,296.2c0.3,0.1,0.5,0.4,0.4,0.7c-0.1,0.3-0.3,0.5-0.6,0.4c-0.3-0.1-0.5-0.4-0.4-0.7
			C212.7,296.3,213,296.1,213.3,296.2z"/>
	</g>
	<path class="st5" d="M310.2,275.9c8.4,0,15.6,6.8,16.2,15.1c0.6,8.3-5.6,15.1-14,15.1c-8.4,0-15.6-6.8-16.2-15.1
		C295.6,282.6,301.8,275.9,310.2,275.9 M310.2,274.8c-4.3,0-8.3,1.7-11.2,4.8c-2.9,3.1-4.3,7.2-3.9,11.5c0.7,8.9,8.4,16.1,17.3,16.1
		c4.3,0,8.3-1.7,11.2-4.8c2.9-3.1,4.3-7.2,3.9-11.5C326.8,282,319.1,274.8,310.2,274.8L310.2,274.8z"/>
	<g>
		<g>
			<path class="st5" d="M309.7,269.8c-0.4,0-0.8-0.3-0.8-0.8l-0.1-1.1c0-0.2,0.1-0.4,0.2-0.6c0.1-0.2,0.4-0.3,0.6-0.3h0.1
				c0.4,0,0.8,0.3,0.8,0.8l0.1,1.1c0,0.2-0.1,0.4-0.2,0.6C310.1,269.7,309.9,269.8,309.7,269.8L309.7,269.8z"/>
			<path class="st5" d="M298.9,272.8c-0.3,0-0.5-0.1-0.7-0.4l-0.3-0.5c-0.2-0.4-0.1-0.9,0.2-1.2c0.1-0.1,0.3-0.1,0.5-0.1
				c0.3,0,0.5,0.1,0.7,0.4l0.3,0.5c0.1,0.2,0.2,0.4,0.1,0.6c0,0.2-0.2,0.4-0.4,0.5C299.2,272.7,299,272.8,298.9,272.8z"/>
			<path class="st5" d="M333.3,291.8c-0.5,0-0.8-0.4-0.8-0.8c0-0.5,0.4-0.8,0.8-0.8h0.6c0.5,0,0.8,0.4,0.8,0.8
				c0,0.5-0.4,0.8-0.8,0.8H333.3z"/>
			<path class="st5" d="M304,270.6c-0.4,0-0.7-0.2-0.8-0.6l-0.4-1.1c-0.1-0.4,0.1-0.9,0.5-1.1c0.1,0,0.2,0,0.3,0
				c0.4,0,0.7,0.2,0.8,0.6l0.4,1.1c0.1,0.2,0.1,0.4,0,0.6c-0.1,0.2-0.3,0.3-0.5,0.4C304.2,270.6,304.1,270.6,304,270.6z"/>
			<path class="st5" d="M332.1,286.1c-0.4,0-0.7-0.2-0.8-0.6c-0.1-0.4,0.1-0.9,0.6-1l1.1-0.3c0.1,0,0.1,0,0.2,0
				c0.4,0,0.7,0.2,0.8,0.6c0.1,0.4-0.1,0.9-0.6,1l-1.1,0.3C332.3,286.1,332.2,286.1,332.1,286.1z"/>
			<path class="st5" d="M329.5,280.8c-0.3,0-0.6-0.2-0.7-0.4c-0.1-0.2-0.2-0.4-0.1-0.6c0.1-0.2,0.2-0.4,0.4-0.5l0.9-0.6
				c0.1-0.1,0.3-0.1,0.4-0.1c0.3,0,0.6,0.2,0.7,0.4c0.1,0.2,0.1,0.4,0.1,0.6c-0.1,0.2-0.2,0.4-0.4,0.5l-0.9,0.6
				C329.8,280.8,329.7,280.8,329.5,280.8z"/>
			<path class="st5" d="M325.7,276.3c-0.2,0-0.4-0.1-0.6-0.2c-0.3-0.3-0.4-0.8,0-1.2l0.7-0.8c0.2-0.2,0.4-0.3,0.6-0.3
				c0.2,0,0.4,0.1,0.6,0.2c0.3,0.3,0.4,0.8,0,1.2l-0.7,0.8C326.1,276.2,325.9,276.3,325.7,276.3z"/>
			<path class="st5" d="M320.9,272.8c-0.1,0-0.3,0-0.4-0.1c-0.2-0.1-0.3-0.3-0.4-0.5c-0.1-0.2-0.1-0.4,0-0.6l0.5-1
				c0.1-0.3,0.4-0.5,0.7-0.5c0.1,0,0.3,0,0.4,0.1c0.2,0.1,0.3,0.3,0.4,0.5c0.1,0.2,0.1,0.4,0,0.6l-0.5,1
				C321.5,272.6,321.2,272.8,320.9,272.8z"/>
			<path class="st5" d="M315.4,270.6c-0.1,0-0.1,0-0.2,0c-0.2,0-0.4-0.2-0.5-0.4c-0.1-0.2-0.2-0.4-0.1-0.6l0.2-1.1
				c0.1-0.4,0.4-0.7,0.8-0.7c0.1,0,0.1,0,0.2,0c0.2,0,0.4,0.2,0.5,0.3c0.1,0.2,0.2,0.4,0.1,0.6l-0.2,1.1
				C316.2,270.3,315.8,270.6,315.4,270.6z"/>
			<path class="st5" d="M294.6,276.3c-0.2,0-0.4-0.1-0.6-0.2c-0.3-0.3-0.4-0.8-0.1-1.2c0.1-0.2,0.4-0.2,0.6-0.2
				c0.2,0,0.4,0.1,0.6,0.2c0.3,0.3,0.4,0.8,0.1,1.2C295,276.2,294.8,276.3,294.6,276.3z"/>
			<path class="st5" d="M333,297.5c-0.1,0-0.1,0-0.2,0c-0.4-0.1-0.7-0.6-0.6-1c0.1-0.4,0.4-0.6,0.8-0.6c0.1,0,0.1,0,0.2,0
				c0.4,0.1,0.7,0.6,0.6,1C333.7,297.3,333.4,297.5,333,297.5z"/>
		</g>
		<path class="st5" d="M333.1,296.2c0.3,0.1,0.5,0.4,0.4,0.7c-0.1,0.3-0.4,0.5-0.7,0.4c-0.3-0.1-0.5-0.4-0.4-0.7
			C332.5,296.3,332.8,296.1,333.1,296.2z"/>
	</g>
	<g>
		<g>
			
				<rect x="160.7" y="406.8" transform="matrix(0.4668 -0.8843 0.8843 0.4668 -274.5016 365.3609)" class="st5" width="10.2" height="7"/>
		</g>
		<g>
			<path class="st5" d="M300.9,362.4v11.9h5.2c2.2,0,3-1.4,3-3.8v-4.6c0-2.9-0.9-3.5-3-3.5H300.9z"/>
		</g>
		<g>
			
				<rect x="189.6" y="430.9" transform="matrix(0.2439 -0.9698 0.9698 0.2439 -267.2903 525.9164)" class="st5" width="28.1" height="7"/>
		</g>
		<g>
			
				<rect x="83.8" y="360.3" transform="matrix(0.8006 -0.5992 0.5992 0.8006 -198.4839 131.2036)" class="st5" width="28.1" height="7"/>
		</g>
		<g>
			<polygon class="st5" points="121.9,403.4 130.8,388.8 117.5,399.6 			"/>
		</g>
		<g>
			
				<rect x="80.8" y="318.6" transform="matrix(0.9164 -0.4003 0.4003 0.9164 -121.8545 60.9606)" class="st5" width="8.3" height="7"/>
		</g>
		<g>
			
				<rect x="62.6" y="326.4" transform="matrix(0.9163 -0.4005 0.4005 0.9163 -126.4928 54.5785)" class="st5" width="9.3" height="7"/>
		</g>
		<g>
			<polygon class="st5" points="251.7,361.7 249,371.3 254.5,371.3 251.8,361.7 			"/>
		</g>
		<g>
			
				<rect x="361.9" y="384.6" transform="matrix(0.7708 -0.6371 0.6371 0.7708 -164.5153 322.1356)" class="st5" width="7" height="10.2"/>
		</g>
		<g>
			
				<rect x="391.5" y="353.5" transform="matrix(0.6038 -0.7971 0.7971 0.6038 -129.3471 456.9791)" class="st5" width="7" height="10.2"/>
		</g>
		<g>
			
				<rect x="329.7" y="406.9" transform="matrix(0.8989 -0.4381 0.4381 0.8989 -150.7627 188.5405)" class="st5" width="7" height="28.1"/>
		</g>
		<g>
			<g>
				<path class="st5" d="M250.5,20C123.5,19.7,20.3,122.5,20,249.5c-0.3,127,102.5,230.2,229.5,230.5
					c127,0.3,230.2-102.5,230.5-229.5C480.3,123.5,377.5,20.3,250.5,20z M56.2,342.4l-8.4-19.3l45.1-19.7l8.4,19.3
					c1.5,3.5-0.1,7.7-3.6,9.3L87,336.6c-2.1,0.9-4.9,0.7-6.3-1.1c0.4,2.2-1.4,4.5-3.6,5.4L65.4,346C61.9,347.6,57.7,346,56.2,342.4z
					 M82.4,384.2L74,372.9c-2.3-3.1-1.7-7.5,1.4-9.8l28.1-21.1c3.1-2.3,7.5-1.7,9.8,1.4l8.4,11.3c2.3,3.1,1.7,7.5-1.4,9.8
					l-28.1,21.1C89.1,387.9,84.7,387.3,82.4,384.2z M114.4,416.5l2.7-4.6l-7.2-6.2l-4.2,3.4l-8.3-7.2l40.1-30.4l9.4,8.1l-24.1,44.1
					L114.4,416.5z M182.2,409.3l-8,15.2c-1.6,3-5,4.4-8.1,3.5l-3.6,18.5l-9.7-5.1l4.3-18l-1.7-0.9l-8.4,15.9l-9.3-4.9l22.9-43.5
					l18.6,9.8C182.7,401.6,184,405.9,182.2,409.3z M249.4,335c-43.7,0-79-1.9-79-4.3c0-2.4,35.4-4.3,79-4.3c43.7,0,79,1.9,79,4.3
					C328.5,333.1,293.1,335,249.4,335z M315.2,365.9v4.6c0,6.1-2,8.9-8.1,8.9h-12v-22.2h11.2C312.4,357.2,315.2,359.6,315.2,365.9z
					 M207.7,370.6l-1.3-0.1c-5.5-0.4-8.7-0.4-8.7-6.7c0-6.4,3.6-6.8,9.4-6.8c4.9,0,9,0.1,9,6.2v0.9h-5.7c0-2.3-0.9-2.3-3.3-2.3
					c-3.2,0-3.5,0.7-3.5,1.9c0,1.8,0.9,1.8,2.4,2l2.5,0.2c6.6,0.5,8.2,1.3,8.2,6.4c0,3.7,0.1,7.3-9.6,7.3c-5.6,0-9.4-0.1-9.4-7.4
					h5.7c0,2.3,0.8,2.5,3.7,2.5c2.8,0,3.7-0.2,3.7-2C210.8,370.8,210.5,370.8,207.7,370.6z M191.3,357.2v22.2h-5.9v-22.2H191.3z
					 M221.6,420.8l-8.6,34.1c-0.9,3.8-4.8,6-8.5,5.1l-20.4-5.1l12-47.7l20.4,5.1C220.2,413.2,222.5,417,221.6,420.8z M237,379.4
					h-15.2v-22.2h5.9v17h9.3V379.4z M258,448.9l-8-5.8l-8,5.8l3-9.4l-8-5.8l9.9,0l3-9.4l3,9.4l9.9,0l-8,5.8L258,448.9z M256.9,379.4
					l-1.2-3.8h-8l-1.1,3.8h-6.2l6.7-22.2h9l6.7,22.2H256.9z M267.2,357.2h10l6.4,17h0.2l-0.4-17h5.9v22.2h-10.1l-6.3-17h-0.2l0.4,17
					h-5.9V357.2z M302.7,458.3l-13.7,3c-3.8,0.8-7.5-1.6-8.4-5.4l-7.5-34.4c-0.8-3.8,1.6-7.5,5.4-8.4l13.7-3
					c3.8-0.8,7.5,1.6,8.4,5.4l1.9,8.6l-10.3,2.2l-1.1-5.2l-6.9,1.5l6,27.5l6.9-1.5l-1.1-5.2l10.3-2.2l1.9,8.6
					C308.9,453.8,306.4,457.5,302.7,458.3z M350.3,440l-12.6,6.2c-3.5,1.7-7.7,0.2-9.4-3.2l-15.4-31.6c-1.7-3.5-0.2-7.7,3.2-9.4
					l12.6-6.2c3.5-1.7,7.7-0.2,9.4,3.2l15.4,31.6C355.2,434.1,353.8,438.3,350.3,440z M389.2,413.6l-15-10.9l-1.5,1.3l11.4,13.8
					l-8.1,6.7l-31.4-37.9l16.3-13.4c3-2.5,7.4-2,9.9,0.9l11,13.3c2.2,2.6,2.1,6.3,0.2,8.8l15.7,10.4L389.2,413.6z M413.3,390.1
					l-39.2-29.7l12.7-16.8c2.3-3.1,6.8-3.7,9.8-1.4l13.7,10.4c3.1,2.3,3.7,6.7,1.4,9.8l-6.4,8.4l14.3,10.8L413.3,390.1z
					 M449.4,330.1l-5.7,12.9c-1.6,3.6-5.7,5.2-9.3,3.6l-8-3.5l4.3-9.6l4.8,2.1l2.8-6.4l-3.5-1.5l-19.3,7.6c-2.2,0.9-5,0.9-7.5-0.2
					l-5.8-2.6c-3.5-1.6-5.2-5.7-3.6-9.3l5.7-12.9c1.6-3.5,5.7-5.2,9.3-3.6l8,3.5l-4.3,9.6l-4.8-2.1l-2.8,6.4l2.6,1.1l19.3-7.6
					c2.2-0.9,5-0.9,7.5,0.2l6.7,2.9C449.4,322.4,451,326.6,449.4,330.1z M464.6,250H358.8l-2.4,14.9h0.2c2.4,0,4.6,1,6.1,2.8
					c1.5,1.7,2.1,4.1,1.8,6.4l-0.8,5.3c-0.7,4.3-4.6,7.7-9,7.7h-1.7l-0.2,1.2c-0.5,3.3-3.5,5.9-6.9,5.9H341l-3.3,0
					c0,0.6,0,1.3-0.1,1.9l0.2,0.1c0.6,0.2,1.1,0.8,0.9,1.5l-0.3,1.5c-0.1,0.6-0.7,1-1.4,0.9l-0.2-0.1c-0.3,0.9-0.6,1.8-0.9,2.7
					l0.2,0.1c0.6,0.3,0.8,1.1,0.5,1.6l-0.7,1.3c-0.3,0.6-1,0.8-1.6,0.5l-0.2-0.1c-0.5,0.8-1,1.6-1.6,2.3l0.2,0.2
					c0.5,0.4,0.5,1.2,0.1,1.7l-1,1.1c-0.4,0.5-1.2,0.5-1.7,0.1l-0.2-0.2c-0.7,0.6-1.4,1.2-2.2,1.8l0.1,0.2c0.4,0.6,0.2,1.3-0.4,1.6
					l-1.3,0.8c-0.6,0.3-1.3,0.2-1.7-0.4l-0.1-0.2c-0.8,0.4-1.7,0.8-2.6,1.1l0.1,0.2c0.2,0.6-0.1,1.3-0.8,1.4l-1.5,0.4
					c-0.6,0.2-1.3-0.2-1.5-0.8l-0.1-0.2c-0.9,0.2-1.9,0.3-2.9,0.4l0,0.2c0,0.7-0.5,1.2-1.1,1.2h-1.6c-0.7,0-1.2-0.5-1.3-1.2l0-0.2
					c-1-0.1-2-0.2-2.9-0.4l0,0.2c-0.1,0.6-0.7,1-1.4,0.9l-1.6-0.4c-0.6-0.2-1.1-0.8-0.9-1.5l0-0.2c-0.9-0.3-1.9-0.7-2.8-1.1
					l-0.1,0.1c-0.3,0.6-1,0.8-1.6,0.5l-1.5-0.8c-0.6-0.3-0.8-1.1-0.5-1.6l0.1-0.1c-0.8-0.6-1.7-1.1-2.4-1.8l-0.1,0.1
					c-0.4,0.5-1.2,0.5-1.7,0.1l-1.3-1.2c-0.4-0.4-0.5-1-0.2-1.4c-6.6-2.5-12.1-7.8-14.6-14.5l-52.5,0c-1.6,6.5-6.1,11.8-12.2,14.3
					c0.4,0.5,0.4,1.2,0,1.6l-1,1.1c-0.4,0.5-1.2,0.5-1.7,0.1l-0.2-0.2c-0.7,0.6-1.4,1.2-2.2,1.8l0.1,0.2c0.4,0.6,0.2,1.3-0.4,1.6
					l-1.2,0.8c-0.6,0.3-1.3,0.2-1.7-0.4l-0.1-0.2c-0.8,0.4-1.7,0.8-2.6,1.1l0.1,0.2c0.2,0.6-0.1,1.3-0.8,1.4l-1.5,0.4
					c-0.6,0.2-1.3-0.2-1.5-0.8l-0.1-0.2c-0.9,0.2-1.9,0.3-2.9,0.4l0,0.2c0.1,0.7-0.4,1.2-1.1,1.2h-1.6c-0.7,0-1.2-0.5-1.3-1.2l0-0.2
					c-1-0.1-2-0.2-2.9-0.4l0,0.2c-0.1,0.6-0.7,1-1.4,0.9l-1.6-0.4c-0.6-0.2-1.1-0.8-0.9-1.5l0-0.2c-0.9-0.3-1.9-0.7-2.8-1.1
					l-0.1,0.1c-0.3,0.6-1,0.8-1.6,0.5l-1.5-0.8c-0.6-0.3-0.8-1.1-0.5-1.6l0.1-0.1c-0.8-0.6-1.7-1.1-2.4-1.8l-0.1,0.1
					c-0.4,0.5-1.2,0.5-1.7,0.1l-1.3-1.2c-0.5-0.4-0.5-1.2-0.1-1.7l0.1-0.1c-0.7-0.7-1.3-1.5-2-2.3l-0.1,0.1
					c-0.6,0.3-1.3,0.2-1.7-0.4l-0.9-1.4c-0.4-0.6-0.2-1.3,0.4-1.6l0.1-0.1c-0.5-0.9-0.9-1.8-1.3-2.7l-0.2,0
					c-0.6,0.2-1.3-0.2-1.5-0.8l-0.5-1.6c-0.2-0.6,0.1-1.3,0.8-1.4l0.2,0c-0.2-0.6-0.2-1.2-0.4-1.8l-4-0.1l-6.1-0.2
					c-3.1,0-5.9-2.3-6.6-5.4l-0.4-1.5h-2.3c-4.3,0-8.2-3.1-9.2-7.3l-1.3-5.4c-0.6-2.4-0.1-4.8,1.4-6.6c1.4-1.8,3.7-2.9,6.1-2.9
					l-2.9-12c-0.3-1-0.5-1.9-0.6-2.9H35.4c-3.9,0-5.7-3.8-5.6-5.7C32.8,125.3,130.2,29.7,250,29.7c119.8,0,217.2,95.6,220.3,214.7
					C470.3,246.2,468.5,250,464.6,250z"/>
			</g>
		</g>
	</g>
	<g>
		<path class="st5" d="M105.7,125.4c3.2-3.2,4.3-3.7,7-1.4c1.9,1.6,3.9,3.2-0.5,8.3c-2.5,2.9-4.3,4.9-8.1,1.6l2.5-3
			c1.2,1,1.7,0.7,3-0.8c1.2-1.4,1.6-2,0.6-2.8c-1-0.9-1.1-0.7-2.5,0.7l-0.6,0.6c-2.6,2.7-4.1,4.4-7.4,1.5c-3.3-2.8-1.9-4.9,0.7-7.9
			c2.2-2.5,4.1-4.6,7.3-1.9l0.5,0.4l-2.5,3c-1.2-1-1.6-0.5-2.7,0.7c-1.4,1.7-1.2,2.1-0.6,2.6c0.9,0.8,1.3,0.4,2.1-0.4L105.7,125.4z"
			/>
		<path class="st5" d="M119.9,102.4l7,7.4c2.8,3,2.2,5.1-1.1,8.2c-4.4,4.2-6,3.5-8.5,0.8l-7-7.4l3-2.8l6.9,7.3
			c1.2,1.3,1.9,0.6,3.1-0.6c1.3-1.2,1.6-1.7,0.4-3l-6.8-7.2L119.9,102.4z"/>
		<path class="st5" d="M126.5,96.9l6.3-4.7c2.8-2.1,4.7-2.5,7,0.5c1.5,2,2.4,3.2,0.5,5.5l0.1,0.1c1.4-1,2.8-0.9,3.8,0.5l1.8,2.4
			l-3.2,2.4l-1.3-1.7c-0.7-0.9-1.5-1.3-2.5-0.5l-2.5,1.9l2.4,3.2l-3.2,2.4L126.5,96.9z M136.9,98.6c1.4-1.1,1-1.5-0.1-2.9
			c-0.8-1.1-1.3-1.2-2.4-0.4l-2.5,1.9l2.5,3.3L136.9,98.6z"/>
		<path class="st5" d="M150.3,87.8l5.3-3.2l1.7,2.8l-5.3,3.2l2.9,4.8l-3.5,2.1l-7.9-13l9.2-5.6l1.7,2.8l-5.8,3.5L150.3,87.8z"/>
		<path class="st5" d="M182.5,70.7l-2.4,4l3,3.6l-4.5-1.1l-2.5,4l-0.4-4.7l-4.5-1.1l4.3-1.8l-0.4-4.7l3,3.5L182.5,70.7z"/>
		<path class="st5" d="M205.9,64.5c4.5-0.7,5.7-0.5,6.5,2.9c0.6,2.4,1.3,4.8-5.2,6.4c-3.8,0.9-6.3,1.4-7.5-3.4l3.8-0.9
			c0.4,1.5,1,1.6,2.9,1.1c1.9-0.4,2.4-0.7,2.1-2c-0.3-1.3-0.5-1.2-2.4-0.9l-0.9,0.2c-3.7,0.6-5.8,1.2-6.9-3.1c-1-4.2,1.3-5.1,5.2-6
			c3.2-0.8,6-1.4,7,2.7l0.1,0.6l-3.8,0.9c-0.4-1.5-1-1.4-2.6-1c-2.1,0.5-2.2,1-2,1.8c0.3,1.2,0.9,1.1,1.9,0.9L205.9,64.5z"/>
		<path class="st5" d="M222.8,61l1.2-0.2l3.1-6.2L232,54l-4.3,8.1l6.8,6.9l-5,0.7l-5-5.4l-1.2,0.2l0.8,5.9l-4,0.5l-2-15.1l4-0.5
			L222.8,61z"/>
		<path class="st5" d="M243,66.1l-0.7,2.6l-4.2,0.1l4.2-15.3l6.2-0.1l5,15.1l-4.1,0.1l-0.9-2.6L243,66.1z M245.5,56.5L245.5,56.5
			l-1.7,6.6l3.8-0.1L245.5,56.5z"/>
		<path class="st5" d="M265.1,69.2l-4.1-0.3l0.8-11.7L258,57l0.3-3.5l12,0.9l-0.3,3.5l-4.1-0.3L265.1,69.2z"/>
		<path class="st5" d="M280.5,61.9l6.4,1.1l-0.5,2.8l-6.4-1.1l-0.5,2.9l7,1.2l-0.6,3.3l-11-1.9l2.5-15l10.8,1.8l-0.6,3.3l-6.8-1.2
			L280.5,61.9z"/>
		<path class="st5" d="M317,70.5l-4.5,1.4l0,4.7l-2.7-3.8l-4.5,1.4l2.8-3.8l-2.7-3.8l4.4,1.5l2.8-3.7l0,4.7L317,70.5z"/>
		<path class="st5" d="M338.8,81.2c3.8,2.4,4.6,3.4,3,6.5c-1.2,2.2-2.2,4.5-8.2,1.4c-3.4-1.8-5.7-3.1-3.4-7.5l3.5,1.8
			c-0.7,1.4-0.3,1.8,1.5,2.7c1.7,0.9,2.3,1.1,2.9-0.1c0.6-1.2,0.4-1.3-1.2-2.2l-0.8-0.5c-3.2-2-5.2-3-3.1-6.8c2-3.9,4.3-3,7.9-1.1
			c3,1.5,5.4,2.9,3.5,6.6l-0.3,0.6l-3.5-1.8c0.7-1.4,0.1-1.7-1.3-2.4c-1.9-1-2.3-0.7-2.7,0.1c-0.6,1.1-0.1,1.4,0.9,2L338.8,81.2z"/>
		<path class="st5" d="M348.4,97.6l-3.4-2.3l8.5-12.6l5.7,3.8l-2.9,12.1l0.1,0.1l6.3-9.8l3.4,2.3l-8.5,12.6l-5.7-3.9l3-12.1
			l-0.1-0.1L348.4,97.6z"/>
		<path class="st5" d="M366.3,103.5l2.8-3.3c3.1-3.6,5.9-2.3,9,0.4c3.1,2.7,4.8,5.3,1.7,8.8l-2.8,3.3c-3.1,3.6-5.9,2.3-9-0.4
			C364.8,109.7,363.2,107.1,366.3,103.5z M374.1,109.6l2.2-2.6c1.5-1.7,1-2.4-0.6-3.7c-1.6-1.4-2.3-1.7-3.8,0l-2.2,2.6
			c-1.4,1.8-1.1,2.4,0.5,3.8C371.9,111,372.6,111.4,374.1,109.6z"/>
		<path class="st5" d="M400.9,123.8l2.7,3l-13.6,7.7l-3.9-4.4l5.7-7.9l-0.1-0.1l-8.6,4.7l-3.9-4.3l9.1-12.6l2.8,3.1l-7.3,9.5
			l0.1,0.1l10.6-5.7l2.8,3.1l-6.9,9.9l0.1,0.1L400.9,123.8z"/>
	</g>
	<path class="st5" d="M204.5,291c-0.5-7.2-6.8-13-14-13c-7.2,0-12.6,5.8-12.1,13c0.5,7.2,6.8,13,14,13
		C199.6,304,205,298.2,204.5,291z M191.8,295.9c-2.7,0-5.1-2.2-5.3-4.9c-0.2-2.7,1.8-4.9,4.6-4.9c2.7,0,5.1,2.2,5.3,4.9
		C196.6,293.7,194.6,295.9,191.8,295.9z"/>
	<path class="st5" d="M356.6,269.6h-5.7l3.7-23.4c0.1-0.8,0.1-2-0.1-2.8l-12-36c-0.3-1.6-1.9-2.9-3.5-2.9H218
		c-1.1,0-2.3,0.6-2.9,1.4l-20.6,28.9l-46.8,7.7c-3.7,1.1-4.2,5.5-3.1,9l4.4,18h-6c-2.1,0-3.4,1.6-2.9,3.7l1.3,5.4
		c0.5,2,2.6,3.7,4.7,3.7h6l1.2,5.1c0.2,1,1.1,1.7,2.1,1.7l6.1,0.2c-1.2-16.4,11.2-31.5,27.6-31.5c16.4,0,31.1,15.1,32.3,31.5h60
		c0,0,0-1.8,0-1.8c-1.2-16.4,11.1-29.7,27.5-29.7c16.4,0,30.7,13.3,31.9,29.7c0,0,0,1.8,0,1.8h4.9c1,0,2-0.8,2.2-1.9l0.8-5.1h5.7
		c2.1,0,4-1.7,4.4-3.7l0.8-5.3C360.1,271.3,358.7,269.6,356.6,269.6z M334,209.1l6.2,29.8h-34.5l-6.2-29.8H334z M220.5,269.5
		c-0.1,0.1-0.2,0.1-0.3,0.1c-0.2,0-0.4-0.1-0.5-0.3c-7.2-10.4-18.8-15.7-31-15.7c-12.2,0-23,5.4-28.7,15.7c-0.1,0.3-0.5,0.3-0.8,0.2
		c-0.3-0.2-0.4-0.5-0.2-0.8c5.9-10.7,16.9-17.1,29.5-17.1c12.6,0,24.6,6.4,32,17.1C220.8,269,220.7,269.4,220.5,269.5z M212.2,238.9
		l-6.8-8.3l14.4-21.4h28.9l2.1,29.8H212.2z M249.5,246.5h-10.2c-1.1,0-2-0.9-2.1-1.9c-0.1-1.1,0.7-1.9,1.8-1.9h10.2
		c1.1,0,2,0.9,2.1,1.9C251.4,245.7,250.5,246.5,249.5,246.5z M253.1,209.1h38l6.2,29.8h-42.1L253.1,209.1z M297.8,244.6
		c0.1,1.1-0.7,1.9-1.8,1.9h-10.2c-1.1,0-2-0.9-2.1-1.9c-0.1-1.1,0.7-1.9,1.8-1.9h10.2C296.8,242.7,297.7,243.5,297.8,244.6z
		 M340.3,269.5c-0.1,0.1-0.2,0.1-0.3,0.1c-0.2,0-0.4-0.1-0.5-0.3c-7.2-10.4-18.8-15.7-31-15.7c-12.2,0-23,5.4-28.7,15.7
		c-0.1,0.3-0.5,0.3-0.8,0.2c-0.3-0.2-0.4-0.5-0.2-0.8c5.9-10.7,16.9-17.1,29.5-17.1c12.6,0,24.6,6.4,32,17.1
		C340.6,269,340.5,269.4,340.3,269.5z"/>
	<path class="st5" d="M324.3,291c-0.5-7.2-6.8-13-14-13c-7.2,0-12.6,5.8-12.1,13c0.5,7.2,6.8,13,14,13
		C319.5,304,324.9,298.2,324.3,291z M311.6,295.9c-2.7,0-5.1-2.2-5.3-4.9c-0.2-2.7,1.8-4.9,4.6-4.9c2.7,0,5.1,2.2,5.3,4.9
		C316.4,293.7,314.4,295.9,311.6,295.9z"/>
</g>
</svg>
