<?xml version="1.0" encoding="utf-8"?>
<!-- Generator: Adobe Illustrator 25.1.0, SVG Export Plug-In . SVG Version: 6.00 Build 0)  -->
<svg version="1.1" xmlns="http://www.w3.org/2000/svg" xmlns:xlink="http://www.w3.org/1999/xlink" x="0px" y="0px" width="500px"
	 height="500px" viewBox="0 0 500 500" style="enable-background:new 0 0 500 500;" xml:space="preserve">
<style type="text/css">
	.st0{fill:#BC3737;}
	.st1{fill:#FFFFFF;}
	.st2{display:none;}
	.st3{display:inline;fill:#BC3737;}
	.st4{fill:none;}
</style>
<g id="Layer_1">
	<g id="Layer_3">
	</g>
	<g id="Layer_1_1_">
	</g>
	<g>
		<circle class="st0" cx="250" cy="250" r="250"/>
	</g>
	<path class="st1" d="M255,120.6c70.2,0,127.1,56.9,127.1,127.1S325.2,374.9,255,374.9c-70.2,0-127.1-56.9-127.1-127.1
		S184.8,120.6,255,120.6 M255,110.2c-75.8,0-137.6,61.7-137.6,137.6c0,75.8,61.7,137.6,137.6,137.6c75.8,0,137.6-61.7,137.6-137.6
		S330.8,110.2,255,110.2L255,110.2z"/>
	<circle class="st1" cx="255" cy="247.7" r="91.2"/>
	<polygon class="st0" points="255,306.3 204.3,277 204.3,218.5 255,189.2 305.7,218.5 305.7,277 	"/>
	<circle class="st1" cx="255" cy="247.7" r="38.1"/>
	<g id="Layer_4" class="st2">
		<rect x="-214.2" y="253.2" class="st3" width="788.9" height="788.9"/>
	</g>
</g>
<g id="Checks">
	<g>
		<g>
			<g>
				<path class="st1" d="M91.5,343.1c0.7,1.3,1.5,2.5,2.3,3.8l-8.6,5.4c-0.8-1.3-1.6-2.6-2.4-4c-0.9-1.6-1.8-3.2-2.7-4.8l8.9-4.9
					C89.7,340.1,90.6,341.6,91.5,343.1z"/>
			</g>
			<g>
				<path class="st1" d="M82.6,326c0.6,1.3,1.2,2.7,1.9,4l-9.1,4.4c-0.7-1.4-1.3-2.8-2-4.2c-0.8-1.7-1.5-3.4-2.2-5.1l9.4-3.9
					C81.2,322.8,81.9,324.4,82.6,326z"/>
			</g>
			<g>
				<path class="st1" d="M75.6,308.1c0.5,1.4,0.9,2.8,1.4,4.2l-9.6,3.4c-0.5-1.5-1-2.9-1.5-4.4c-0.6-1.7-1.1-3.5-1.7-5.3l9.7-2.9
					C74.5,304.8,75,306.4,75.6,308.1z"/>
			</g>
			<g>
				<path class="st1" d="M70.4,289.5c0.3,1.4,0.6,2.9,1,4.3l-9.9,2.4c-0.4-1.5-0.7-3-1.1-4.5c-0.4-1.8-0.8-3.6-1.1-5.4l10-1.9
					C69.7,286.1,70.1,287.8,70.4,289.5z"/>
			</g>
			<g>
				<path class="st1" d="M67.3,270.5c0.2,1.5,0.3,2.9,0.5,4.4l-10.1,1.4c-0.2-1.5-0.4-3.1-0.6-4.6c-0.2-1.8-0.4-3.7-0.5-5.5
					l10.1-0.9C66.9,267.1,67.1,268.8,67.3,270.5z"/>
			</g>
			<g>
				<path class="st1" d="M66.1,251.3c0,1.5,0,2.9,0.1,4.4l-10.2,0.3c0-1.5-0.1-3.1-0.1-4.6c0-1.8,0-3.7,0-5.5l10.2,0.2
					C66.1,247.8,66.1,249.6,66.1,251.3z"/>
			</g>
			<g>
				<path class="st1" d="M67,232.1c-0.1,1.5-0.3,2.9-0.4,4.4l-10.1-0.7c0.1-1.5,0.2-3.1,0.4-4.6c0.2-1.8,0.4-3.7,0.6-5.5l10.1,1.3
					C67.4,228.6,67.2,230.4,67,232.1z"/>
			</g>
			<g>
				<path class="st4" d="M69.9,213.1c-0.3,1.4-0.6,2.9-0.8,4.3l-10-1.8c0.3-1.5,0.6-3,0.9-4.6c0.4-1.8,0.8-3.6,1.2-5.4L71,208
					C70.6,209.7,70.2,211.4,69.9,213.1z"/>
			</g>
			<path class="st1" d="M88,356.9c0.9,1.3,1.7,2.6,2.6,3.8l-8.8,6.1l-5.9-9l9.1-5.7C86,353.8,87,355.4,88,356.9z"/>
			<path class="st1" d="M77.7,339.4c0.7,1.4,1.4,2.7,2.2,4.1l-9.4,5.2l-4.9-9.5l9.7-4.7C76.1,336.1,76.9,337.8,77.7,339.4z"/>
			<path class="st1" d="M69.3,320.9c0.6,1.4,1.2,2.9,1.7,4.3l-9.9,4.2l-3.9-10l10.1-3.6C68,317.5,68.7,319.2,69.3,320.9z"/>
			<path class="st1" d="M62.9,301.6c0.4,1.5,0.8,3,1.3,4.5l-10.3,3.1l-2.8-10.3l10.4-2.6C62,298.1,62.4,299.8,62.9,301.6z"/>
			<path class="st1" d="M58.5,281.8c0.3,1.5,0.5,3.1,0.8,4.6l-10.5,2l-1.7-10.6l10.6-1.5C58,278.1,58.2,280,58.5,281.8z"/>
			<path class="st1" d="M56.3,261.6c0.1,1.5,0.2,3.1,0.3,4.6l-10.7,0.9l-0.6-10.7l10.7-0.3C56.1,257.9,56.2,259.8,56.3,261.6z"/>
			<path class="st1" d="M56.1,241.3c-0.1,1.6-0.1,3.1-0.2,4.6l-10.7-0.2l0.5-10.7l10.7,0.8C56.3,237.6,56.2,239.4,56.1,241.3z"/>
			<path class="st1" d="M58.1,221.1c-0.2,1.5-0.4,3.1-0.6,4.6l-10.6-1.3l1.6-10.6l10.6,1.9C58.7,217.4,58.4,219.2,58.1,221.1z"/>
			<path class="st4" d="M62.2,201.2c-0.4,1.5-0.8,3-1.1,4.5l-10.4-2.5l2.7-10.4l10.3,3C63.1,197.6,62.6,199.4,62.2,201.2z"/>
		</g>
		<g>
			<g>
				<path class="st1" d="M432.8,230.2c0.2,1.5,0.3,2.9,0.4,4.4l10.1-0.9c-0.1-1.5-0.3-3.1-0.4-4.6c-0.2-1.8-0.4-3.7-0.7-5.5
					l-10.1,1.4C432.4,226.7,432.6,228.5,432.8,230.2z"/>
			</g>
			<g>
				<path class="st1" d="M433.9,249.4c0,1.5,0,2.9,0,4.4L444,254c0-1.5,0.1-3.1,0-4.6c0-1.8,0-3.7-0.1-5.5l-10.2,0.3
					C433.8,245.9,433.9,247.7,433.9,249.4z"/>
			</g>
			<g>
				<path class="st1" d="M432.9,268.6c-0.1,1.5-0.3,2.9-0.5,4.4l10.1,1.3c0.2-1.5,0.4-3.1,0.5-4.6c0.2-1.8,0.3-3.7,0.5-5.5
					l-10.1-0.7C433.3,265.2,433.1,266.9,432.9,268.6z"/>
			</g>
			<g>
				<path class="st1" d="M430,287.7c-0.3,1.4-0.6,2.9-1,4.3l9.9,2.3c0.4-1.5,0.7-3,1-4.5c0.4-1.8,0.7-3.6,1-5.4l-10-1.8
					C430.7,284.2,430.3,285.9,430,287.7z"/>
			</g>
			<g>
				<path class="st1" d="M425.1,306.3c-0.5,1.4-0.9,2.8-1.4,4.2l9.6,3.3c0.5-1.5,1-2.9,1.5-4.4c0.6-1.8,1.1-3.5,1.6-5.3l-9.8-2.8
					C426.1,302.9,425.6,304.6,425.1,306.3z"/>
			</g>
			<g>
				<path class="st1" d="M418.2,324.2c-0.6,1.3-1.2,2.7-1.8,4l9.2,4.3c0.7-1.4,1.3-2.8,1.9-4.2c0.7-1.7,1.5-3.4,2.2-5.1l-9.4-3.8
					C419.6,321,418.9,322.6,418.2,324.2z"/>
			</g>
			<g>
				<path class="st1" d="M409.5,341.4c-0.7,1.3-1.5,2.5-2.2,3.8l8.7,5.3c0.8-1.3,1.6-2.7,2.4-4c0.9-1.6,1.8-3.2,2.7-4.8l-9-4.8
					C411.2,338.4,410.4,339.9,409.5,341.4z"/>
			</g>
			<path class="st1" d="M441.6,219.1c0.2,1.5,0.5,3.1,0.7,4.6l10.6-1.5l-1.7-10.6l-10.5,2C441,215.4,441.3,217.2,441.6,219.1z"/>
			<path class="st1" d="M443.8,239.3c0.1,1.5,0.1,3.1,0.2,4.6l10.7-0.3l-0.6-10.7l-10.7,0.9C443.5,235.6,443.7,237.4,443.8,239.3z"
				/>
			<path class="st1" d="M443.8,259.6c-0.1,1.6-0.2,3.1-0.3,4.6l10.7,0.8l0.5-10.7l-10.7-0.2C444,255.9,443.9,257.7,443.8,259.6z"/>
			<path class="st1" d="M441.8,279.8c-0.2,1.5-0.5,3.1-0.8,4.6l10.6,1.9l1.6-10.6l-10.6-1.3C442.3,276.1,442.1,278,441.8,279.8z"/>
			<path class="st1" d="M437.6,299.7c-0.4,1.5-0.8,3-1.2,4.5l10.3,3l2.7-10.4l-10.4-2.5C438.5,296.1,438.1,297.9,437.6,299.7z"/>
			<path class="st1" d="M431.4,319c-0.6,1.5-1.1,2.9-1.7,4.3l9.9,4.1l3.8-10l-10.1-3.5C432.7,315.6,432,317.3,431.4,319z"/>
			<path class="st1" d="M423.2,337.6c-0.7,1.4-1.4,2.8-2.2,4.1l9.5,5.1l4.8-9.6l-9.7-4.6C424.8,334.3,424,335.9,423.2,337.6z"/>
			<path class="st1" d="M413.1,355.2c-0.8,1.3-1.7,2.6-2.6,3.9l8.9,6l5.8-9l-9.2-5.6C415.1,352.1,414.1,353.7,413.1,355.2z"/>
		</g>
		<g>
			<g>
				<path class="st0" d="M232.2,433c1.5,0.1,2.9,0.3,4.4,0.4l-0.7,10.1c-1.5-0.1-3.1-0.2-4.6-0.4c-1.8-0.2-3.7-0.4-5.5-0.6l1.3-10.1
					C228.7,432.6,230.4,432.8,232.2,433z"/>
			</g>
			<g>
				<path class="st0" d="M213.1,430.1c1.4,0.3,2.9,0.6,4.3,0.8l-1.8,10c-1.5-0.3-3-0.6-4.6-0.9c-1.8-0.4-3.6-0.8-5.4-1.2l2.3-9.9
					C209.7,429.4,211.4,429.8,213.1,430.1z"/>
			</g>
			<g>
				<path class="st0" d="M194.5,425.3c1.4,0.4,2.8,0.9,4.2,1.3l-2.8,9.8c-1.5-0.4-3-0.9-4.4-1.3c-1.8-0.6-3.5-1.1-5.2-1.7l3.3-9.6
					C191.2,424.2,192.8,424.7,194.5,425.3z"/>
			</g>
			<g>
				<path class="st0" d="M176.5,418.5c1.3,0.6,2.7,1.2,4.1,1.7l-3.8,9.4c-1.4-0.6-2.9-1.2-4.3-1.8c-1.7-0.7-3.4-1.5-5-2.3l4.3-9.2
					C173.3,417.1,174.9,417.8,176.5,418.5z"/>
			</g>
			<g>
				<path class="st0" d="M159.3,409.9c1.3,0.7,2.6,1.4,3.9,2.1l-4.8,9c-1.4-0.7-2.7-1.5-4.1-2.2c-1.6-0.9-3.2-1.8-4.8-2.8l5.3-8.7
					C156.2,408.1,157.7,409,159.3,409.9z"/>
			</g>
			<g>
				<path class="st0" d="M143,399.5c1.2,0.9,2.4,1.7,3.6,2.5l-5.7,8.4c-1.3-0.9-2.6-1.7-3.8-2.7c-1.5-1.1-3-2.2-4.4-3.3l6.1-8.1
					C140.2,397.5,141.6,398.5,143,399.5z"/>
			</g>
			<g>
				<path class="st0" d="M128,387.5c1.1,1,2.2,1.9,3.3,2.9l-6.6,7.8c-1.2-1-2.4-2-3.5-3c-1.4-1.2-2.7-2.5-4.1-3.7l7-7.4
					C125.4,385.2,126.7,386.4,128,387.5z"/>
			</g>
			<g>
				<path class="st0" d="M114.3,374c1,1.1,2,2.2,3,3.2l-7.3,7c-1.1-1.1-2.1-2.2-3.2-3.4c-1.2-1.4-2.5-2.7-3.7-4.1l7.7-6.6
					C112,371.4,113.1,372.7,114.3,374z"/>
			</g>
			<g>
				<path class="st0" d="M102.1,359.2c0.9,1.2,1.8,2.3,2.7,3.5l-8,6.2c-0.9-1.2-1.9-2.5-2.8-3.7c-1.1-1.5-2.2-3-3.2-4.5l8.3-5.8
					C100,356.3,101,357.7,102.1,359.2z"/>
			</g>
			<g>
				<path class="st0" d="M399.1,357.6c-0.9,1.2-1.7,2.4-2.6,3.5l8.1,6.1c0.9-1.2,1.9-2.5,2.8-3.7c1.1-1.5,2.1-3,3.2-4.5l-8.4-5.7
					C401.1,354.8,400.1,356.2,399.1,357.6z"/>
			</g>
			<g>
				<path class="st0" d="M387,372.6c-1,1.1-2,2.2-3,3.2l7.4,7c1.1-1.1,2.1-2.3,3.1-3.4c1.2-1.4,2.4-2.8,3.6-4.2l-7.8-6.6
					C389.3,370,388.2,371.3,387,372.6z"/>
			</g>
			<g>
				<path class="st0" d="M373.5,386.2c-1.1,1-2.2,2-3.3,2.9l6.6,7.7c1.2-1,2.3-2,3.5-3.1c1.4-1.2,2.7-2.5,4-3.8l-7-7.3
					C376,383.9,374.8,385.1,373.5,386.2z"/>
			</g>
			<g>
				<path class="st0" d="M358.5,398.4c-1.2,0.9-2.4,1.7-3.6,2.6l5.8,8.3c1.3-0.9,2.5-1.8,3.8-2.7c1.5-1.1,3-2.2,4.4-3.3l-6.2-8
					C361.3,396.3,360,397.4,358.5,398.4z"/>
			</g>
			<g>
				<path class="st0" d="M342.4,408.9c-1.3,0.7-2.6,1.5-3.8,2.2l4.9,8.9c1.4-0.7,2.7-1.5,4-2.3c1.6-0.9,3.2-1.9,4.7-2.8l-5.4-8.6
					C345.4,407.1,343.9,408.1,342.4,408.9z"/>
			</g>
			<g>
				<path class="st0" d="M325.3,417.7c-1.3,0.6-2.7,1.2-4,1.8l3.9,9.4c1.4-0.6,2.8-1.2,4.3-1.8c1.7-0.8,3.3-1.5,5-2.3l-4.4-9.2
					C328.5,416.3,326.9,417,325.3,417.7z"/>
			</g>
			<g>
				<path class="st0" d="M307.4,424.7c-1.4,0.5-2.8,0.9-4.2,1.3l2.9,9.7c1.5-0.4,3-0.9,4.4-1.4c1.8-0.6,3.5-1.2,5.2-1.8l-3.4-9.6
					C310.7,423.6,309,424.1,307.4,424.7z"/>
			</g>
			<g>
				<path class="st0" d="M288.8,429.7c-1.4,0.3-2.9,0.6-4.3,0.9l1.9,10c1.5-0.3,3-0.6,4.5-0.9c1.8-0.4,3.6-0.8,5.4-1.2l-2.4-9.9
					C292.2,428.9,290.5,429.3,288.8,429.7z"/>
			</g>
			<g>
				<path class="st0" d="M269.8,432.8c-1.5,0.2-2.9,0.3-4.4,0.4l0.9,10.1c1.5-0.1,3.1-0.3,4.6-0.4c1.8-0.2,3.7-0.4,5.5-0.7
					l-1.4-10.1C273.2,432.4,271.5,432.6,269.8,432.8z"/>
			</g>
			<g>
				<path class="st0" d="M250.6,433.8c-1.5,0-2.9,0-4.4,0l-0.2,10.2c1.5,0,3.1,0.1,4.6,0.1c1.8,0,3.7,0,5.5-0.1l-0.3-10.2
					C254.1,433.8,252.3,433.8,250.6,433.8z"/>
			</g>
			<path class="st0" d="M241.3,443.9c1.6,0.1,3.1,0.1,4.6,0.1l-0.2,10.7l-10.7-0.5l0.8-10.7C237.6,443.7,239.5,443.8,241.3,443.9z"
				/>
			<path class="st0" d="M221.1,441.9c1.5,0.2,3.1,0.4,4.6,0.6l-1.3,10.6l-10.6-1.6l1.9-10.6C217.4,441.3,219.3,441.6,221.1,441.9z"
				/>
			<path class="st0" d="M201.2,437.8c1.5,0.4,3,0.8,4.5,1.1l-2.5,10.4l-10.4-2.7l3-10.3C197.6,436.9,199.4,437.4,201.2,437.8z"/>
			<path class="st0" d="M181.8,431.7c1.5,0.5,2.9,1.1,4.4,1.6l-3.5,10.1l-10-3.8l4.1-9.9C178.4,430.4,180.1,431,181.8,431.7z"/>
			<path class="st0" d="M163.2,423.6c1.4,0.7,2.8,1.4,4.2,2l-4.6,9.7l-9.6-4.8l5.1-9.5C159.9,421.9,161.5,422.7,163.2,423.6z"/>
			<path class="st0" d="M145.5,413.5c1.3,0.8,2.6,1.6,3.9,2.5l-5.6,9.2l-9-5.8l6-8.9C142.4,411.5,144,412.6,145.5,413.5z"/>
			<path class="st0" d="M129,401.7c1.2,1,2.4,1.9,3.7,2.9l-6.5,8.5l-8.4-6.7l6.9-8.2C126.1,399.4,127.6,400.6,129,401.7z"/>
			<path class="st0" d="M113.8,388.3c1.1,1.1,2.2,2.2,3.4,3.2l-7.3,7.8l-7.6-7.5l7.7-7.4C111.2,385.6,112.5,387,113.8,388.3z"/>
			<path class="st0" d="M100.1,373.3c1,1.2,2,2.4,3,3.6l-8.1,7l-6.8-8.3l8.5-6.6C97.8,370.4,98.9,371.8,100.1,373.3z"/>
			<path class="st0" d="M401.2,371.7c-1,1.2-2,2.4-3,3.6l8.2,6.9l6.7-8.4l-8.5-6.5C403.5,368.8,402.3,370.2,401.2,371.7z"/>
			<path class="st0" d="M387.6,386.8c-1.1,1.1-2.2,2.2-3.3,3.2l7.4,7.7l7.5-7.6l-7.8-7.3C390.2,384.2,388.9,385.5,387.6,386.8z"/>
			<path class="st0" d="M372.6,400.5c-1.2,1-2.4,1.9-3.6,2.9l6.6,8.5l8.3-6.8l-7-8.1C375.4,398.1,374,399.3,372.6,400.5z"/>
			<path class="st0" d="M356.2,412.4c-1.3,0.9-2.6,1.7-3.9,2.5l5.7,9.1l9-5.9l-6.1-8.8C359.3,410.4,357.7,411.4,356.2,412.4z"/>
			<path class="st0" d="M338.6,422.6c-1.4,0.7-2.8,1.4-4.2,2.1l4.7,9.7l9.5-4.9l-5.2-9.4C341.9,420.9,340.3,421.8,338.6,422.6z"/>
			<path class="st0" d="M320.1,431c-1.4,0.6-2.9,1.1-4.4,1.6l3.6,10.1l10-3.9l-4.2-9.9C323.5,429.6,321.8,430.3,320.1,431z"/>
			<path class="st0" d="M300.8,437.3c-1.5,0.4-3,0.8-4.5,1.2l2.6,10.4l10.3-2.8l-3.1-10.3C304.3,436.3,302.6,436.8,300.8,437.3z"/>
			<path class="st0" d="M280.9,441.6c-1.5,0.2-3.1,0.5-4.6,0.7l1.5,10.6l10.6-1.7l-2-10.5C284.6,441,282.8,441.3,280.9,441.6z"/>
			<path class="st0" d="M260.7,443.8c-1.6,0.1-3.1,0.1-4.6,0.2l0.3,10.7l10.7-0.6l-0.9-10.7C264.4,443.5,262.6,443.7,260.7,443.8z"
				/>
		</g>
		<g>
			<g>
				<path class="st0" d="M268.7,67c1.5,0.1,2.9,0.3,4.4,0.5l1.3-10.1c-1.5-0.2-3.1-0.4-4.6-0.5c-1.8-0.2-3.7-0.3-5.5-0.5l-0.7,10.1
					C265.2,66.7,267,66.9,268.7,67z"/>
			</g>
			<g>
				<path class="st0" d="M287.7,70c1.4,0.3,2.9,0.6,4.3,1l2.3-9.9c-1.5-0.4-3-0.7-4.5-1c-1.8-0.4-3.6-0.7-5.4-1l-1.8,10
					C284.3,69.3,286,69.6,287.7,70z"/>
			</g>
			<g>
				<path class="st0" d="M306.3,74.9c1.4,0.5,2.8,0.9,4.2,1.4l3.3-9.6c-1.5-0.5-2.9-1-4.4-1.5c-1.8-0.6-3.5-1.1-5.3-1.6l-2.8,9.8
					C303,73.9,304.7,74.4,306.3,74.9z"/>
			</g>
			<g>
				<path class="st0" d="M324.3,81.8c1.3,0.6,2.7,1.2,4,1.8l4.3-9.2c-1.4-0.7-2.8-1.3-4.2-1.9c-1.7-0.7-3.4-1.5-5.1-2.2l-3.8,9.4
					C321.1,80.4,322.7,81.1,324.3,81.8z"/>
			</g>
			<g>
				<path class="st0" d="M341.5,90.5c1.3,0.7,2.5,1.5,3.8,2.2l5.3-8.7c-1.3-0.8-2.7-1.6-4-2.4c-1.6-0.9-3.2-1.8-4.8-2.7l-4.8,9
					C338.4,88.7,340,89.6,341.5,90.5z"/>
			</g>
			<g>
				<path class="st0" d="M357.7,100.9c1.2,0.9,2.4,1.7,3.5,2.6l6.1-8.1c-1.2-0.9-2.5-1.9-3.7-2.8c-1.5-1.1-3-2.1-4.5-3.2l-5.7,8.4
					C354.8,98.9,356.2,99.9,357.7,100.9z"/>
			</g>
			<g>
				<path class="st0" d="M372.6,112.9c1.1,1,2.2,2,3.2,3l7-7.4c-1.1-1.1-2.3-2.1-3.4-3.1c-1.4-1.2-2.8-2.4-4.2-3.6l-6.6,7.8
					C370,110.6,371.3,111.8,372.6,112.9z"/>
			</g>
			<g>
				<path class="st0" d="M386.3,126.5c1,1.1,2,2.2,2.9,3.3l7.7-6.6c-1-1.2-2-2.3-3.1-3.5c-1.2-1.4-2.5-2.7-3.8-4l-7.3,7
					C383.9,124,385.1,125.2,386.3,126.5z"/>
			</g>
			<g>
				<path class="st0" d="M398.4,141.4c0.9,1.2,1.7,2.4,2.6,3.6l8.3-5.8c-0.9-1.3-1.8-2.5-2.7-3.8c-1.1-1.5-2.2-3-3.3-4.4l-8,6.2
					C396.4,138.6,397.4,140,398.4,141.4z"/>
			</g>
			<g>
				<path class="st0" d="M409,157.6c0.7,1.3,1.5,2.6,2.2,3.8l8.9-4.9c-0.7-1.4-1.5-2.7-2.3-4c-0.9-1.6-1.9-3.2-2.8-4.7l-8.6,5.4
					C407.2,154.6,408.1,156,409,157.6z"/>
			</g>
			<g>
				<path class="st0" d="M417.8,174.7c0.6,1.3,1.2,2.7,1.8,4l9.4-3.9c-0.6-1.4-1.2-2.8-1.8-4.3c-0.8-1.7-1.5-3.3-2.3-5l-9.2,4.4
					C416.3,171.5,417.1,173.1,417.8,174.7z"/>
			</g>
			<g>
				<path class="st0" d="M424.7,192.6c0.5,1.4,0.9,2.8,1.3,4.2l9.7-2.9c-0.4-1.5-0.9-3-1.4-4.4c-0.6-1.8-1.2-3.5-1.8-5.2l-9.6,3.4
					C423.6,189.3,424.2,191,424.7,192.6z"/>
			</g>
			<g>
				<path class="st0" d="M429.8,211.2c0.3,1.4,0.6,2.9,0.9,4.3l10-1.9c-0.3-1.5-0.6-3-0.9-4.6c-0.4-1.8-0.8-3.6-1.2-5.4l-9.9,2.4
					C429,207.8,429.4,209.5,429.8,211.2z"/>
			</g>
			<g>
				<path class="st0" d="M74.7,194.4c-0.4,1.4-0.9,2.8-1.3,4.2l-9.8-2.8c0.4-1.5,0.9-3,1.3-4.4c0.6-1.8,1.1-3.5,1.7-5.2l9.6,3.3
					C75.8,191.1,75.2,192.8,74.7,194.4z"/>
			</g>
			<g>
				<path class="st0" d="M81.5,176.4c-0.6,1.3-1.2,2.7-1.7,4.1l-9.4-3.8c0.6-1.4,1.2-2.9,1.8-4.3c0.7-1.7,1.5-3.4,2.3-5l9.2,4.3
					C82.9,173.2,82.2,174.8,81.5,176.4z"/>
			</g>
			<g>
				<path class="st0" d="M90.1,159.2c-0.7,1.3-1.4,2.6-2.1,3.9l-9-4.8c0.7-1.4,1.5-2.7,2.2-4.1c0.9-1.6,1.8-3.2,2.8-4.8l8.7,5.3
					C91.8,156.2,91,157.7,90.1,159.2z"/>
			</g>
			<g>
				<path class="st0" d="M100.5,143c-0.9,1.2-1.7,2.4-2.5,3.6l-8.4-5.7c0.9-1.3,1.7-2.5,2.7-3.8c1.1-1.5,2.2-3,3.3-4.4l8.1,6.1
					C102.5,140.2,101.5,141.6,100.5,143z"/>
			</g>
			<g>
				<path class="st0" d="M112.5,127.9c-1,1.1-1.9,2.2-2.9,3.3l-7.8-6.6c1-1.2,2-2.4,3-3.5c1.2-1.4,2.5-2.7,3.7-4.1l7.4,7
					C114.8,125.4,113.6,126.6,112.5,127.9z"/>
			</g>
			<g>
				<path class="st0" d="M126,114.2c-1.1,1-2.2,2-3.2,3l-7-7.3c1.1-1.1,2.2-2.1,3.4-3.2c1.4-1.2,2.7-2.5,4.1-3.7l6.6,7.7
					C128.6,111.9,127.3,113.1,126,114.2z"/>
			</g>
			<g>
				<path class="st0" d="M140.8,102c-1.2,0.9-2.4,1.8-3.5,2.7l-6.2-8c1.2-0.9,2.4-1.9,3.7-2.8c1.5-1.1,3-2.2,4.5-3.2l5.8,8.3
					C143.7,100,142.2,101,140.8,102z"/>
			</g>
			<g>
				<path class="st0" d="M156.9,91.4c-1.3,0.7-2.5,1.5-3.8,2.3l-5.4-8.6c1.3-0.8,2.6-1.6,4-2.4c1.6-0.9,3.2-1.8,4.8-2.7l4.9,8.9
					C159.9,89.7,158.4,90.5,156.9,91.4z"/>
			</g>
			<g>
				<path class="st0" d="M174,82.5c-1.3,0.6-2.7,1.2-4,1.9l-4.4-9.1c1.4-0.7,2.8-1.3,4.2-2c1.7-0.8,3.4-1.5,5.1-2.2l3.9,9.4
					C177.2,81.1,175.6,81.8,174,82.5z"/>
			</g>
			<g>
				<path class="st0" d="M191.9,75.5c-1.4,0.5-2.8,0.9-4.2,1.4l-3.4-9.6c1.5-0.5,2.9-1,4.4-1.5c1.8-0.6,3.5-1.1,5.3-1.7l2.9,9.7
					C195.2,74.4,193.6,75,191.9,75.5z"/>
			</g>
			<g>
				<path class="st0" d="M210.4,70.4c-1.4,0.3-2.9,0.7-4.3,1l-2.4-9.9c1.5-0.4,3-0.7,4.5-1.1c1.8-0.4,3.6-0.8,5.4-1.1l1.9,10
					C213.9,69.7,212.2,70,210.4,70.4z"/>
			</g>
			<g>
				<path class="st0" d="M229.4,67.2c-1.5,0.2-2.9,0.3-4.4,0.5l-1.4-10.1c1.5-0.2,3.1-0.4,4.6-0.6c1.8-0.2,3.7-0.4,5.5-0.5l0.9,10.1
					C232.9,66.9,231.2,67,229.4,67.2z"/>
			</g>
			<g>
				<path class="st0" d="M248.6,66.1c-1.5,0-2.9,0-4.4,0.1L243.9,56c1.5,0,3.1-0.1,4.6-0.1c1.8,0,3.7,0,5.5,0l-0.2,10.2
					C252.1,66.1,250.4,66.1,248.6,66.1z"/>
			</g>
			<path class="st0" d="M259.6,56.2c1.6,0.1,3.1,0.2,4.6,0.3l0.8-10.7l-10.7-0.5L254.1,56C255.9,56,257.8,56.1,259.6,56.2z"/>
			<path class="st0" d="M279.8,58.2c1.5,0.2,3.1,0.5,4.6,0.8l1.9-10.6l-10.6-1.6l-1.3,10.6C276.2,57.7,278,57.9,279.8,58.2z"/>
			<path class="st0" d="M299.7,62.4c1.5,0.4,3,0.8,4.5,1.2l3-10.3l-10.4-2.7l-2.4,10.4C296.1,61.5,297.9,61.9,299.7,62.4z"/>
			<path class="st0" d="M319,68.6c1.5,0.6,2.9,1.1,4.3,1.7l4.1-9.9l-10-3.8l-3.5,10.1C315.6,67.3,317.3,68,319,68.6z"/>
			<path class="st0" d="M337.6,76.8c1.4,0.7,2.8,1.4,4.1,2.2l5.1-9.5l-9.6-4.8l-4.6,9.7C334.3,75.2,336,76,337.6,76.8z"/>
			<path class="st0" d="M355.2,86.9c1.3,0.8,2.6,1.7,3.9,2.6l6-8.9l-9-5.8l-5.6,9.2C352.1,85,353.7,85.9,355.2,86.9z"/>
			<path class="st0" d="M371.7,98.8c1.2,1,2.4,2,3.6,3l6.9-8.2l-8.4-6.7l-6.5,8.5C368.8,96.5,370.3,97.7,371.7,98.8z"/>
			<path class="st0" d="M386.8,112.4c1.1,1.1,2.2,2.2,3.3,3.3l7.7-7.4l-7.6-7.5l-7.3,7.8C384.2,109.8,385.5,111.1,386.8,112.4z"/>
			<path class="st0" d="M400.5,127.4c1,1.2,1.9,2.4,2.9,3.6l8.5-6.6l-6.8-8.3l-8.1,7C398.1,124.6,399.3,126,400.5,127.4z"/>
			<path class="st0" d="M412.5,143.8c0.8,1.3,1.7,2.6,2.5,3.9l9.1-5.7l-5.9-9l-8.8,6.1C410.4,140.8,411.4,142.3,412.5,143.8z"/>
			<path class="st0" d="M422.7,161.4c0.7,1.4,1.4,2.8,2.1,4.2l9.7-4.7l-4.9-9.5l-9.4,5.2C421,158.1,421.8,159.7,422.7,161.4z"/>
			<path class="st0" d="M431,179.9c0.6,1.4,1.1,2.9,1.6,4.4l10.1-3.6l-3.9-10l-9.9,4.2C429.6,176.5,430.3,178.2,431,179.9z"/>
			<path class="st0" d="M437.3,199.2c0.4,1.5,0.8,3,1.2,4.5l10.4-2.6l-2.8-10.3l-10.3,3.1C436.3,195.7,436.8,197.4,437.3,199.2z"/>
			<path class="st0" d="M68.3,181.8c-0.5,1.5-1.1,2.9-1.6,4.4l-10.1-3.5l3.8-10l9.9,4.1C69.6,178.4,69,180.1,68.3,181.8z"/>
			<path class="st0" d="M76.4,163.2c-0.7,1.4-1.4,2.8-2,4.2l-9.7-4.6l4.8-9.6l9.5,5.1C78.1,159.9,77.3,161.5,76.4,163.2z"/>
			<path class="st0" d="M86.5,145.5c-0.8,1.3-1.7,2.6-2.5,4l-9.2-5.6l5.8-9l8.9,6C88.5,142.4,87.4,144,86.5,145.5z"/>
			<path class="st0" d="M98.3,129c-1,1.2-1.9,2.4-2.9,3.7l-8.5-6.5l6.7-8.4l8.2,6.9C100.6,126.1,99.4,127.5,98.3,129z"/>
			<path class="st0" d="M111.8,113.8c-1.1,1.1-2.2,2.2-3.2,3.4l-7.8-7.3l7.5-7.6l7.4,7.7C114.4,111.2,113,112.5,111.8,113.8z"/>
			<path class="st0" d="M126.7,100.1c-1.2,1-2.4,2-3.6,3l-7-8.1l8.3-6.8l6.6,8.5C129.6,97.8,128.2,98.9,126.7,100.1z"/>
			<path class="st0" d="M143.1,88c-1.3,0.9-2.6,1.7-3.9,2.6l-6.1-8.8l9-5.9l5.7,9.1C146.2,86,144.6,87,143.1,88z"/>
			<path class="st0" d="M160.6,77.7c-1.4,0.7-2.7,1.4-4.1,2.2l-5.2-9.4l9.5-4.9l4.7,9.7C163.9,76.1,162.2,76.9,160.6,77.7z"/>
			<path class="st0" d="M179.1,69.3c-1.5,0.6-2.9,1.2-4.3,1.8l-4.2-9.9l10-3.9l3.6,10.1C182.5,68,180.8,68.7,179.1,69.3z"/>
			<path class="st0" d="M198.4,62.9c-1.5,0.4-3,0.8-4.5,1.3l-3.1-10.3l10.3-2.8l2.6,10.4C201.9,62,200.2,62.4,198.4,62.9z"/>
			<path class="st0" d="M218.2,58.5c-1.5,0.3-3.1,0.5-4.6,0.8l-2-10.5l10.6-1.7l1.5,10.6C221.9,58,220,58.2,218.2,58.5z"/>
			<path class="st0" d="M238.4,56.3c-1.6,0.1-3.1,0.2-4.6,0.3l-0.9-10.7l10.7-0.6l0.3,10.7C242.1,56.1,240.2,56.1,238.4,56.3z"/>
		</g>
	</g>
</g>
<g id="type_2">
	<g>
		<path class="st1" d="M108.9,391.1c-2.7,2.5-6.8,2.3-9.3-0.4c0,0-4.8-5.2-4.8-5.2c-0.9-1-0.9-2.6,0.2-3.5c1-0.9,2.6-0.9,3.5,0.2
			l0,0l4,4.4c0.6,0.7,1.6,0.7,2.3,0.1c0.7-0.6,0.7-1.6,0.1-2.3l-2.1-2.3l0,0c-2.5-2.7-2.3-6.8,0.4-9.3c2.7-2.5,6.8-2.3,9.3,0.4
			l4.8,5.2c0.9,1,0.9,2.6-0.2,3.5c-1,0.9-2.6,0.9-3.5-0.2l-4-4.4c-0.6-0.7-1.6-0.7-2.3-0.1c-0.7,0.6-0.7,1.6-0.1,2.3l2.1,2.3l0,0
			C111.8,384.5,111.6,388.7,108.9,391.1z"/>
		<path class="st1" d="M125.7,403.6c-3,3.4-7.6,4.8-12.1,0.7c-4.6-4.1-3.8-8.7-0.8-12.1l6.5-7.3c1.1-1.2,3-1.3,4.2-0.3
			c1.2,1.1,1.3,3,0.3,4.2l-7.2,8.2c-0.9,1-0.8,2.7,0.3,3.6c1.1,1,2.7,0.9,3.7-0.1c0,0,7.2-8.2,7.2-8.2c1.1-1.2,3-1.3,4.2-0.3
			c1.2,1.1,1.3,3,0.3,4.2L125.7,403.6C125.7,403.6,125.7,403.6,125.7,403.6z"/>
		<path class="st1" d="M139.9,419.2c-0.3,1.6-1.8,2.7-3.5,2.4c-0.4-0.1-0.8-0.3-1.2-0.5c-0.9-0.6-1.4-1.8-1.2-3l1.3-7l-1.8-1.2
			l-3,4.3c-1,1.3-2.8,1.7-4.2,0.7c-1.3-1-1.7-2.8-0.7-4.2l8.9-12.6c1-1.3,2.8-1.7,4.2-0.7c0,0,6.5,4.6,6.5,4.6
			c3,2.1,3.7,6.2,1.6,9.2c-1.4,2-3.7,3-6,2.8L139.9,419.2z M141.5,405.4l-3.2-2.3l-1.9,2.7l3.2,2.3c0,0,0,0,0,0
			c0.7,0.5,1.7,0.3,2.3-0.4C142.4,407,142.3,405.9,141.5,405.4z"/>
		<path class="st1" d="M155.2,415.2l-0.7,1.3c-0.2,0.4-0.1,0.9,0.3,1.2l3.2,1.8l0,0c1.2,0.7,1.6,2.2,0.9,3.4
			c-0.7,1.2-2.2,1.6-3.4,0.9l0,0l-3.2-1.8c-0.4-0.2-0.9-0.1-1.2,0.3l-2.1,3.8c-0.8,1.4-2.6,1.9-4.1,1.1c-1.4-0.8-1.9-2.6-1.1-4.1
			l7.6-13.4c0.8-1.4,2.6-1.9,4.1-1.1l8.5,4.8l0,0c1.2,0.7,1.6,2.2,0.9,3.4c-0.7,1.2-2.2,1.6-3.4,0.9l0,0l-5.1-2.9
			C156,414.6,155.5,414.8,155.2,415.2z"/>
		<path class="st1" d="M212.9,446.1c-0.8,3.5-4.4,5.7-7.9,4.9c0,0-6.9-1.6-6.9-1.6c-1.3-0.3-2.2-1.6-1.8-3c0.3-1.3,1.6-2.2,3-1.8v0
			l5.8,1.4c0.9,0.2,1.7-0.3,2-1.2c0.2-0.9-0.3-1.8-1.2-2l-3-0.7l0,0c-3.5-0.8-5.7-4.4-4.9-7.9c0.8-3.5,4.4-5.7,7.9-4.9l6.9,1.6
			c1.3,0.3,2.2,1.6,1.8,3c-0.3,1.3-1.6,2.2-3,1.8l-5.8-1.4c-0.9-0.2-1.8,0.3-2,1.2c-0.2,0.9,0.3,1.8,1.2,2l3.1,0.7l0,0
			C211.6,439.1,213.7,442.6,212.9,446.1z"/>
		<path class="st1" d="M230.9,450.5c0.7,1.5,0.2,3.3-1.3,4c-0.6,0.3-1.2,0.4-1.7,0.3c-0.9-0.1-1.8-0.7-2.3-1.6l-3.1-6.1l-0.5,3.9
			c-0.2,1.6-1.7,2.8-3.3,2.6c-1.6-0.2-2.8-1.7-2.6-3.3l2-15.3c0.2-1.6,1.7-2.8,3.3-2.6c1.6,0.2,2.8,1.7,2.6,3.3l-0.5,3.9l4.6-5.1
			c1.1-1.2,3-1.3,4.2-0.2c1.2,1.1,1.3,3,0.2,4.2l-4.8,5.4L230.9,450.5z"/>
		<path class="st1" d="M252.6,443l-0.3,10.2c-0.1,1.6-1.4,2.9-3.1,2.9c-1.6-0.1-2.9-1.4-2.9-3.1l0.1-1.8c0-0.5-0.4-0.9-0.8-0.9
			l-3.5-0.1c-0.5,0-0.9,0.4-0.9,0.8l-0.1,1.8c0,1.6-1.4,2.9-3.1,2.9s-2.9-1.4-2.9-3.1l0.3-10.2c0,0,0,0,0,0c0.1-4.5,4.1-8.1,8.9-8
			C249,434.6,252.8,438.4,252.6,443z M245.7,445.3c0.5,0,0.9-0.4,0.9-0.8l0.1-1.7c0.1-1.8-1.1-3.3-2.5-3.3c-1.5,0-2.7,1.4-2.7,3.2
			c0,0,0,0,0,0l-0.1,1.7c0,0.5,0.4,0.9,0.8,0.9L245.7,445.3z"/>
		<path class="st1" d="M272.9,435.9c0.1,1.4-0.9,2.5-2.3,2.6l-2.7,0.2c-0.7,0.1-1.3,0.6-1.3,1.4l0.9,12.1c0.1,1.6-1.1,3.1-2.8,3.2
			c-1.6,0.1-3.1-1.1-3.2-2.8l-0.9-12c-0.1-0.8-0.7-1.4-1.5-1.3l-2.7,0.2c-1.4,0.1-2.5-0.9-2.6-2.3c-0.1-1.4,0.9-2.5,2.3-2.6l14.1-1
			C271.6,433.5,272.8,434.5,272.9,435.9z"/>
		<path class="st1" d="M274.6,439.7c-0.6-3.6,1.8-7,5.4-7.6c0,0,6.1-1,6.1-1l0,0c1.3-0.2,2.6,0.7,2.9,2c0.2,1.3-0.7,2.6-2,2.9l0,0
			l-5,0.8c-0.9,0.1-1.5,1-1.3,1.9c0.2,0.9,1,1.5,1.9,1.3l5-0.8c1.3-0.2,2.6,0.7,2.9,2c0.2,1.3-0.7,2.6-2,2.9v0l-5,0.8
			c-0.9,0.2-1.5,1-1.3,1.9c0.1,0.9,1,1.5,1.9,1.3l5-0.8c1.3-0.2,2.6,0.7,2.9,2c0.2,1.3-0.7,2.6-2,2.9v0l-6.1,1
			c-3.6,0.6-7-1.8-7.6-5.4c-0.3-1.5,0-3,0.7-4.3C275.7,442.6,274.9,441.3,274.6,439.7z"/>
		<path class="st1" d="M344.6,425.7c1.6,3.3,0.2,7.2-3.1,8.8c0,0-6.3,3.1-6.3,3.1c-1.2,0.6-2.7,0.1-3.3-1.2
			c-0.6-1.2-0.1-2.7,1.2-3.3l0,0l5.4-2.6c0.8-0.4,1.1-1.4,0.8-2.2c-0.4-0.8-1.4-1.1-2.2-0.8l-2.8,1.4l0,0c-3.3,1.6-7.2,0.2-8.8-3.1
			c-1.6-3.3-0.2-7.2,3.1-8.8l6.3-3.1c1.2-0.6,2.7-0.1,3.3,1.2c0.6,1.2,0.1,2.7-1.2,3.3l-5.4,2.6c-0.8,0.4-1.1,1.4-0.8,2.2
			c0.4,0.8,1.4,1.1,2.2,0.8l2.9-1.4l0,0C339.2,421.1,343.1,422.5,344.6,425.7z"/>
		<path class="st1" d="M345,418.4c-2.4-3.9-2.4-8.6,2.7-11.9c5.2-3.2,9.5-1.1,11.9,2.7l5.2,8.3c0.9,1.4,0.5,3.2-0.9,4.1
			c-1.4,0.9-3.2,0.5-4.1-0.9l-5.8-9.3c-0.7-1.2-2.3-1.5-3.6-0.7c-1.2,0.8-1.6,2.4-0.9,3.5c0,0,0,0,0,0l5.8,9.2
			c0.9,1.4,0.5,3.2-0.9,4.1c-1.4,0.9-3.2,0.5-4.1-0.9L345,418.4C345,418.4,345,418.4,345,418.4z"/>
		<path class="st1" d="M380.9,395.4c3.9,4.9,3.1,11.9-1.7,15.8c-4.8,3.9-11.9,3.1-15.8-1.7c-3.9-4.9-3.1-11.9,1.7-15.8
			C369.9,389.7,377,390.5,380.9,395.4z M376.4,399.8l-0.8-1c-2.4-3-5.4-2.7-7.3-1.1c-1.9,1.5-2.9,4.4-0.5,7.4l0.8,1
			c2.4,3,5.4,2.7,7.3,1.1C377.8,405.6,378.8,402.8,376.4,399.8z"/>
		<path class="st1" d="M402.2,378.4c3.3,3.1,3.5,6.7,0.4,9.9c-1.4,1.4-3,2-4.8,1.9c0.2,1.8-0.3,3.5-1.7,4.9c-3.1,3.2-6.7,3.2-10,0.1
			c0,0-8.2-7.7-8.2-7.8c-1.2-1.1-1.2-3-0.1-4.2c1.1-1.2,3-1.2,4.2-0.1l8,7.6c0.7,0.7,1.8,0.7,2.4,0.1c0.6-0.6,0.5-1.7-0.2-2.4
			l-8.4-8l0,0c-1-0.9-1-2.5-0.1-3.5c0.9-1,2.5-1,3.5-0.1l8.4,8c0.7,0.7,1.8,0.7,2.4,0.1s0.5-1.7-0.2-2.4l-8-7.6
			c-1.2-1.1-1.2-3-0.1-4.2c1.1-1.2,3-1.2,4.2-0.1L402.2,378.4C402.2,378.4,402.2,378.4,402.2,378.4z"/>
	</g>
	<g>
		<g>
			<circle class="st1" cx="309.8" cy="435.9" r="6.6"/>
		</g>
	</g>
	<g>
		<g>
			<circle class="st1" cx="176.8" cy="430.9" r="6.6"/>
		</g>
	</g>
</g>
<g id="TYPE">
	<g>
		<g>
			<path class="st1" d="M80.5,200.4c-0.7,2.3-3,3.6-5.3,2.9l-21.1-6.2c-2.3-0.7-3.6-3-2.9-5.3c0.7-2.3,3-3.6,5.3-2.9l21.1,6.2
				C79.9,195.8,81.2,198.2,80.5,200.4z"/>
			<path class="st1" d="M83,167.3c4.8,2,7.1,7.5,5.1,12.3c0,0.1-3.9,9.3-3.9,9.3c-0.8,1.8-2.8,2.7-4.6,1.9c-1.8-0.7-2.7-2.8-1.9-4.6
				l0,0l3.3-7.9c0.5-1.2-0.1-2.5-1.3-3c-1.2-0.5-2.5,0.1-3,1.3l-1.7,4.1l0,0c-2,4.8-7.5,7.1-12.3,5.1c-4.8-2-7.1-7.5-5.1-12.3
				l3.9-9.3c0.7-1.8,2.8-2.7,4.6-1.9c1.8,0.7,2.7,2.8,1.9,4.6l-3.3,7.9c-0.5,1.2,0.1,2.5,1.3,3c1.2,0.5,2.5-0.1,3-1.3l1.7-4.2l0,0
				C72.7,167.6,78.2,165.3,83,167.3z"/>
			<path class="st1" d="M101.5,147.5c1.7,1,2.2,3.2,1.2,4.9c0,0-4.5,7.4-4.5,7.5c-2.7,4.4-8.5,5.9-12.9,3.2l-14.4-8.7
				c-2-1.2-2.7-3.8-1.4-5.9c1.2-2,3.8-2.7,5.9-1.4l14.4,8.7c1.1,0.7,2.6,0.3,3.2-0.8l3.8-6.2C97.7,147,99.8,146.5,101.5,147.5z"/>
			<path class="st1" d="M106.8,116.6l11.2,9.2c1.8,1.5,2.1,4.2,0.6,6c-1.5,1.8-4.2,2.1-6,0.6l-1.9-1.6c-0.5-0.4-1.3-0.4-1.7,0.2
				l-3.2,3.9c-0.4,0.5-0.4,1.3,0.2,1.7l1.9,1.6c1.8,1.5,2.1,4.2,0.6,6c-1.5,1.8-4.2,2.1-6,0.6l-11.2-9.2c0,0,0,0,0,0
				c-5-4.1-5.6-11.7-1.3-17C94.2,113.4,101.8,112.5,106.8,116.6z M103.5,126.5c0.4-0.5,0.4-1.3-0.2-1.7l-1.9-1.6c-2-1.6-4.7-1.7-6,0
				c-1.3,1.6-0.8,4.2,1.2,5.9c0,0,0,0,0,0l1.9,1.6c0.5,0.4,1.3,0.4,1.7-0.2L103.5,126.5z"/>
			<path class="st1" d="M111.6,112.4c-4.3-4.9-5.5-11.6,1.1-17.3c6.5-5.8,13-3.8,17.4,1l9.3,10.5c1.6,1.8,1.4,4.5-0.4,6
				c-1.8,1.6-4.5,1.4-6-0.4l-10.3-11.7c-1.3-1.5-3.7-1.6-5.2-0.2c-1.6,1.4-1.8,3.7-0.4,5.2c0,0,0,0,0,0l10.3,11.7
				c1.6,1.8,1.4,4.5-0.4,6c-1.8,1.6-4.5,1.4-6-0.4L111.6,112.4C111.6,112.4,111.6,112.4,111.6,112.4z"/>
			<path class="st1" d="M155.1,101.1l-6.8,4.3c-2,1.3-4.6,0.7-5.9-1.3l-11.8-18.6c-1.3-2-0.7-4.6,1.3-5.9l6.8-4.3
				c7.8-4.7,15.4-1.6,19.9,5.5C163.2,87.8,162.8,96.1,155.1,101.1z M151.7,85.2c-3.1-4.9-5.9-6-9.3-3.8v0l-3,1.9l8.8,13.9l3-1.9
				C154.6,93.1,154.8,90.1,151.7,85.2z"/>
			<path class="st1" d="M173.7,57.3C173.7,57.3,173.7,57.3,173.7,57.3L173.7,57.3c3-1.1,10.3-3.6,10.3-3.6c4.9-1.7,10.3,0.8,12,5.7
				c0.7,2.1,0.7,4.3,0,6.2c1.7,1.1,3.1,2.8,3.9,4.8c1.7,4.9-0.8,10.3-5.7,12l-10,3.5c-0.1,0-0.2,0.1-0.3,0.1
				c-2.2,0.8-4.7-0.4-5.4-2.6l-7.3-20.8C170.3,60.5,171.5,58.1,173.7,57.3z M184.9,60.8l-4.9,1.7l1.5,4.4l4.9-1.7
				c1.2-0.4,1.8-1.8,1.4-3C187.5,61,186.1,60.4,184.9,60.8z M191.8,73.3c-0.4-1.2-1.8-1.8-3-1.4l-4.9,1.7l1.5,4.4l4.9-1.7
				C191.6,75.9,192.2,74.5,191.8,73.3z"/>
			<path class="st1" d="M233.5,58.2c1.5,8.8-4.4,17-13.2,18.5c-8.8,1.5-17-4.4-18.5-13.2c-1.5-8.8,4.4-17,13.2-18.5
				C223.8,43.6,232.1,49.5,233.5,58.2z M224.9,60.6l-0.3-1.7c-0.9-5.4-4.9-7.1-8.3-6.5c-3.4,0.6-6.7,3.5-5.7,8.9l0.3,1.7
				c0.9,5.4,4.9,7.1,8.3,6.5C222.6,68.9,225.8,66,224.9,60.6z"/>
			<path class="st1" d="M263.7,54.9l-0.2,14.5c0,2.4-2,4.2-4.3,4.2c-2.4,0-4.2-2-4.2-4.3l0-2.5c0-0.7-0.5-1.3-1.2-1.3l-5.1-0.1
				c-0.7,0-1.3,0.5-1.3,1.2l0,2.5c0,2.4-2,4.2-4.3,4.2s-4.2-2-4.2-4.3l0.2-14.5c0,0,0,0,0,0c0.1-6.5,5.7-11.7,12.5-11.6
				C258.4,43,263.8,48.4,263.7,54.9z M253.8,58.4c0.7,0,1.3-0.5,1.3-1.2l0-2.5c0-2.6-1.6-4.7-3.7-4.7c-2.1,0-3.8,2-3.9,4.6
				c0,0,0,0,0,0l0,2.4c0,0.7,0.5,1.3,1.2,1.3L253.8,58.4z"/>
			<path class="st1" d="M291.1,71.7c0.6,2.3-0.7,4.6-3,5.2c-0.6,0.2-1.2,0.2-1.8,0.1c-1.6-0.3-3-1.4-3.4-3.1l-2.7-9.9l-3-0.5
				l-1.2,7.4c-0.4,2.3-2.6,3.9-4.9,3.5c-2.3-0.4-3.9-2.6-3.5-4.9l3.6-21.7c0.4-2.3,2.6-3.9,4.9-3.5c0,0,11.2,1.9,11.3,1.9
				c5.1,0.9,8.6,5.7,7.7,10.8c-0.6,3.4-2.9,6.1-6,7.3L291.1,71.7z M284.7,53l-5.6-0.9l-0.8,4.6l5.6,0.9c0,0,0,0,0,0
				c1.3,0.2,2.5-0.6,2.7-1.9C286.8,54.4,285.9,53.2,284.7,53z"/>
			<path class="st1" d="M306.4,82.7l-7.6-2.6c-2.2-0.8-3.4-3.2-2.7-5.4l7.1-20.8c0.8-2.2,3.2-3.4,5.4-2.7l7.6,2.6
				c8.6,3.1,10.9,11,8.2,18.9C321.8,80.6,315.1,85.5,306.4,82.7z M316.7,70c1.9-5.5,0.9-8.3-2.9-9.6l0,0l-3.3-1.1l-5.3,15.5l3.3,1.1
				C312.3,77.2,314.8,75.5,316.7,70z"/>
			<path class="st1" d="M361.2,101.8c-1.7,2.7-9.4,4.7-15.6,0.8c-7.5-4.8-9.7-14.7-4.9-22.2c4.8-7.5,14.7-9.7,22.2-4.9
				c5.6,3.6,7.3,10.2,6.3,13.5c0,0.1-0.2,0.6-0.4,0.9c-1.1,1.6-3.2,2.1-4.9,1.1c-0.9-0.6-1.5-1.5-1.6-2.6c0,0,0,0,0,0
				c-0.2-2.3-0.9-5.1-3.4-6.7c-3.7-2.3-7.4-1.7-10.7,3.5c-3.3,5.2-2.3,8.8,1.4,11.2c2.5,1.6,5.4,1,7.5,0.2c0,0,0,0,0,0
				c0,0,1.4-0.6,3,0.4C361.8,97.9,362.2,100.1,361.2,101.8z"/>
			<path class="st1" d="M392.6,120.7c-6.1,6.5-16.2,6.8-22.7,0.8c-6.5-6.1-6.8-16.2-0.8-22.7c6.1-6.5,16.2-6.8,22.7-0.8
				C398.3,104,398.6,114.2,392.6,120.7z M385.4,115.3l1.2-1.3c3.8-4,2.7-8.2,0.1-10.6c-2.5-2.4-6.8-3.2-10.5,0.8l-1.2,1.3
				c-3.8,4-2.7,8.2-0.1,10.6C377.4,118.5,381.7,119.3,385.4,115.3z"/>
			<path class="st1" d="M402.7,149.3c-1.1,2.1-3.7,2.9-5.8,1.8c-0.6-0.3-1-0.7-1.4-1.2c-1-1.3-1.2-3.1-0.4-4.6l4.8-9l-1.8-2.5
				l-6,4.5c-1.9,1.4-4.6,1-6-0.8c-1.4-1.9-1-4.6,0.8-6l17.6-13.2c1.9-1.4,4.6-1,6,0.8c0,0,6.8,9.1,6.9,9.1c3.1,4.2,2.3,10-1.9,13.2
				c-2.8,2.1-6.3,2.4-9.3,1.1L402.7,149.3z M411,131.3l-3.4-4.5l-3.7,2.8l3.4,4.5c0,0,0,0,0,0c0.8,1,2.2,1.2,3.3,0.5
				C411.5,133.8,411.7,132.3,411,131.3z"/>
			<path class="st1" d="M430.9,169.4c-4.6,2.4-10.3,0.6-12.7-4l0,0l-3.3-6.3l-6.6,3.5c-2.1,1.1-4.7,0.3-5.8-1.8
				c-1.1-2.1-0.3-4.7,1.8-5.8l19.5-10.2c2.1-1.1,4.7-0.3,5.8,1.8c0,0,5.3,10.1,5.3,10.1C437.3,161.3,435.5,167,430.9,169.4z
				 M427,161.8c1.1-0.6,1.6-2,1-3.1l-2.6-5l-4.1,2.2l2.6,5C424.4,161.9,425.8,162.4,427,161.8z"/>
			<path class="st1" d="M430,201.8c-4.9,1.7-10.3-1-11.9-5.9c0-0.1-3.2-9.5-3.2-9.5c-0.6-1.8,0.4-3.9,2.2-4.5
				c1.8-0.6,3.9,0.4,4.5,2.2l0,0l2.8,8.1c0.4,1.2,1.7,1.9,2.9,1.5c1.2-0.4,1.9-1.7,1.5-2.9l-1.4-4.2l0,0c-1.7-4.9,1-10.2,5.9-11.9
				c4.9-1.7,10.3,1,11.9,5.9l3.2,9.5c0.6,1.8-0.4,3.9-2.2,4.5c-1.8,0.6-3.9-0.4-4.5-2.2l-2.8-8.1c-0.4-1.2-1.7-1.9-2.9-1.5
				c-1.2,0.4-1.9,1.7-1.5,2.9l1.5,4.3l0,0C437.6,194.9,434.9,200.2,430,201.8z"/>
		</g>
	</g>
</g>
</svg>
