<?xml version="1.0" encoding="utf-8"?>
<!-- Generator: Adobe Illustrator 16.0.0, SVG Export Plug-In . SVG Version: 6.00 Build 0)  -->
<!DOCTYPE svg PUBLIC "-//W3C//DTD SVG 1.1//EN" "http://www.w3.org/Graphics/SVG/1.1/DTD/svg11.dtd">
<svg version="1.1" id="Layer_1" xmlns="http://www.w3.org/2000/svg" xmlns:xlink="http://www.w3.org/1999/xlink" x="0px" y="0px"
	 width="500px" height="160px" viewBox="0 0 500 160" enable-background="new 0 0 500 160" xml:space="preserve">
<g id="Layer_3">
</g>
<g id="Layer_2_1_">
</g>
<g id="Layer_4" class="st0">
	<g class="st1">
		<path class="st2" d="M624.4,693.1C624,842.2,502.9,962.8,353.7,962.5C204.6,962.2,84,841,84.4,691.9
			C84.7,542.8,205.8,422.2,355,422.5C504.1,422.9,624.7,544,624.4,693.1z"/>
	</g>
	<circle class="st3" cx="354.4" cy="695.8" r="246"/>
	<path class="st4" d="M588.4,692.5c0-129.2-104.8-234-234-234c-129.2,0-234,104.8-234,234l0,0v0c0,3.3,2.7,6,6,6h456
		C585.7,698.5,588.4,695.8,588.4,692.5L588.4,692.5L588.4,692.5z"/>
	<g class="st1">
		<g>
			<path class="st5" d="M272.1,504.6c-1.1,0.3-1.7,0-1.8-0.5c-0.1-0.5,0.1-1.1,1-1.4c9.9-3.7,62.3-4.5,100.3-2.1
				c45.6,2.9,98.5,11.2,98.5,11.2c0.5,0,0.9,0.5,0.8,0.9c0,0.5-0.4,0.9-0.9,0.8c0,0-87.5-8.1-102.2-8.7
				C326.3,502.9,275.5,503.7,272.1,504.6z"/>
			<path class="st5" d="M455.9,507.7c-0.4-1.3-0.8-3.6-0.7-5.1c0.2-2.8,1.3-5.4,2.9-7.4v0c0.2-0.2,0.3-0.4,0.3-0.7
				c0-0.6-0.4-1.2-1.1-1.2c-0.2,0-0.3,0-0.5,0.1c-5.4,1.3-9.6,5.9-9.9,11.8c0,0.4,0,0.8,0,1.2L455.9,507.7z"/>
		</g>
		<g>
			<g>
				<path class="st5" d="M316.7,484.4c-0.5,0-1,0.2-1.4,0.6c-0.1,0.1-0.4,0.4-0.5,0.4c-0.5,0.5-0.9,1.2-0.8,2
					c0.1,1.3,1.3,2.4,2.6,2.3c0.8,0,1.4-0.4,1.8-1c0.1-0.1,0.3-0.5,0.4-0.6c0.3-0.4,0.4-0.9,0.4-1.5
					C319.2,485.3,318,484.3,316.7,484.4z"/>
				<polygon class="st5" points="314.2,491 316.5,488.8 316.5,486.7 312,487.2 312.4,491 				"/>
				<path class="st5" d="M316.3,491.9c-0.1-1.8-1.7-3.2-3.5-3.1c-0.8,0-1.4,0.3-2,0.8c-0.1,0.1-0.6,0.5-0.7,0.6
					c-0.8,0.7-1.2,1.7-1.1,2.7c0.2,1.9,1.8,3.3,3.7,3.2c1.1-0.1,2-0.6,2.6-1.5c0.1-0.1,0.4-0.6,0.5-0.8
					C316.1,493.4,316.4,492.6,316.3,491.9z M312.6,494.3c-0.8,0.1-1.5-0.6-1.6-1.4c-0.1-0.8,0.6-1.5,1.4-1.6
					c0.8-0.1,1.5,0.6,1.6,1.4C314,493.5,313.4,494.2,312.6,494.3z"/>
			</g>
			<g>
				<path class="st5" d="M350.6,482.1c0.5,0,1.1,0.1,1.5,0.4c0.1,0.1,0.5,0.3,0.5,0.4c0.6,0.4,1,1.1,1.1,1.9c0.1,1.3-1,2.5-2.3,2.6
					c-0.8,0.1-1.5-0.3-2-0.8c-0.1-0.1-0.4-0.4-0.4-0.5c-0.3-0.4-0.5-0.9-0.6-1.4C348.3,483.4,349.3,482.3,350.6,482.1z"/>
				<polygon class="st5" points="354,488.4 351.4,486.5 351.2,484.4 355.7,484.3 355.8,488.2 				"/>
				<path class="st5" d="M359.4,489.6c-0.1-1.1-0.6-2-1.5-2.6c-0.1-0.1-0.6-0.4-0.8-0.5c-0.6-0.4-1.3-0.6-2-0.5
					c-1.8,0.1-3.2,1.7-3.1,3.5c0,0.8,0.3,1.4,0.8,2c0.1,0.1,0.5,0.6,0.6,0.7c0.7,0.8,1.6,1.2,2.7,1.1
					C358.1,493.1,359.5,491.5,359.4,489.6z M356.1,491.4c-0.8,0.1-1.5-0.6-1.6-1.4c-0.1-0.8,0.6-1.5,1.4-1.6
					c0.8-0.1,1.5,0.6,1.6,1.4C357.5,490.6,356.9,491.3,356.1,491.4z"/>
			</g>
			<path class="st5" d="M368.9,479.1c-1.9-1.7-11.2,1.5-13.2,1.6l-24.7,1.4l-21,1.4c-4.2,0.3-10.1-2.1-12.1,0.2
				c-2,2.3,6.7,4.9,9.1,4.8l24.2-1.6l28-1.8C362,484.9,371.2,481.2,368.9,479.1z"/>
		</g>
		<g>
			<g>
				<path class="st5" d="M386.2,474.6c-0.5-0.2-1-0.2-1.5,0c-0.1,0-0.5,0.2-0.6,0.2c-0.7,0.2-1.3,0.7-1.5,1.5
					c-0.4,1.3,0.2,2.7,1.5,3.2c0.7,0.3,1.5,0.2,2.1-0.2c0.1-0.1,0.5-0.3,0.6-0.4c0.4-0.3,0.8-0.7,0.9-1.2
					C388.1,476.4,387.4,475,386.2,474.6z"/>
				<polygon class="st5" points="381.3,479.7 384.3,478.6 385.1,476.6 380.8,475.3 379.6,479 				"/>
				<path class="st5" d="M380.8,477c-0.7-0.3-1.5-0.3-2.1,0c-0.2,0.1-0.7,0.3-0.9,0.3c-1,0.3-1.8,1-2.1,2.1
					c-0.6,1.8,0.4,3.8,2.1,4.4c1,0.4,2.1,0.2,2.9-0.3c0.1-0.1,0.6-0.4,0.8-0.5c0.6-0.4,1.1-0.9,1.3-1.7
					C383.4,479.6,382.5,477.7,380.8,477z M380.4,481.1c-0.3,0.8-1.1,1.2-1.9,0.9c-0.8-0.3-1.2-1.1-0.9-1.9c0.3-0.8,1.1-1.2,1.9-0.9
					C380.2,479.5,380.6,480.3,380.4,481.1z"/>
			</g>
			<g>
				<path class="st5" d="M418.2,485.9c0.5,0.2,0.9,0.5,1.2,0.9c0.1,0.1,0.3,0.5,0.4,0.6c0.4,0.6,0.5,1.4,0.2,2.1
					c-0.5,1.3-1.9,1.9-3.2,1.5c-0.7-0.3-1.3-0.8-1.5-1.5c0-0.1-0.2-0.5-0.2-0.6c-0.2-0.5-0.2-1,0-1.5
					C415.6,486.1,417,485.4,418.2,485.9z"/>
				<polygon class="st5" points="418.9,492.9 417.2,490.2 417.9,488.2 422,489.8 420.7,493.4 				"/>
				<path class="st5" d="M423.1,493.2c-0.1-0.1-0.4-0.6-0.5-0.8c-0.4-0.6-0.9-1.1-1.7-1.3c-1.7-0.6-3.6,0.3-4.3,2
					c-0.3,0.7-0.3,1.5,0,2.1c0.1,0.2,0.3,0.7,0.3,0.9c0.3,0.9,1,1.7,2.1,2.1c1.8,0.6,3.8-0.4,4.4-2.1
					C423.8,495.1,423.6,494.1,423.1,493.2z M421.5,495.6c-0.3,0.8-1.1,1.2-1.9,0.9c-0.8-0.3-1.2-1.1-0.9-1.9
					c0.3-0.8,1.1-1.2,1.9-0.9C421.4,494,421.8,494.8,421.5,495.6z"/>
			</g>
			<path class="st5" d="M436.2,490.3c-1.1-2.3-10.9-3.1-12.8-3.7l-23.3-8.4l-19.8-7c-3.9-1.4-8.5-5.9-11.2-4.6
				c-2.7,1.3,4.2,7.2,6.5,8l22.9,8.1l26.5,9.4C427.6,492.8,437.6,493.1,436.2,490.3z"/>
		</g>
	</g>
</g>
<g>
	<g>
		<path class="st6" d="M30,60.9v28.8c0,0.9,0.9,1.6,1.5,1.6h15.3c1,0,1.9-0.7,1.9-1.6l0-89.7h30v103.1c0,7.6-5.9,13.3-13.1,13.3
			H13.3c-7.1,0-13.3-5.7-13.3-13.3V60.9H30z"/>
		<path class="st6" d="M115.9,116.4H86.1V0h29.8V116.4z"/>
		<g>
			<path class="st6" d="M500,0v96.9c0,2.7-0.5,5.2-1.6,7.6c-1.1,2.4-2.4,4.5-4.2,6.2c-1.7,1.8-3.8,3.2-6.1,4.2
				c-2.4,1-4.9,1.5-7.6,1.5h-83.9c-2.7,0-5.2-0.5-7.6-1.5c-2.4-1-4.5-2.4-6.2-4.2c-1.8-1.8-3.2-3.8-4.2-6.2c-1-2.4-1.5-4.9-1.5-7.6
				V0h29.3v88.1h18.4V0h27.3l0,88.1h18.6V0L500,0L500,0z"/>
		</g>
		<g>
			<path class="st6" d="M208.2,104.8c0-8.1,5.5-13.6,13.6-13.6l0,0c13,0,15.4,4,22.4,4c5.8,0,12.2-4.6,12.2-14c0-9.4-6.4-14-12.2-14
				c-7,0-9.4,4-22.4,4v0c-8.1,0-13.6-5.5-13.6-13.6V45h-43.1v24.7h15.7v19.7c0,1-0.7,1.7-1.9,1.7h-24.1c-0.9,0-1.7-0.7-1.7-1.7V26.9
				c0-1,0.9-1.9,1.7-1.9h53.4V13.6c0-8.1,5.5-13.6,13.6-13.6h-85.1c-7.4,0-13.4,6-13.4,13.1v90c0,7.6,6,13.3,13.4,13.3h71.5
				L208.2,104.8L208.2,104.8z"/>
			<path class="st6" d="M356.2,0h-72.7v11.4c0,8.1-5.5,13.6-13.6,13.6c-13,0-15.1-4.1-22.2-4.1c-6.1,0-12.5,5-12.5,14.4
				s6.4,14.4,12.5,14.4c7,0,9.1-4.1,22.2-4.1v0c8.1,0,13.6,5.5,13.6,13.6v43.6c0,8.1-5.5,13.6-13.6,13.6l43.6,0v-29h26.4v29h30V13.6
				C369.9,5.5,364.3,0,356.2,0z M339.9,62.2h-26.4v-35c0-1.9,1.6-3.4,3.6-3.4h18.6c2.4,0,4.1,1.4,4.1,3.4L339.9,62.2L339.9,62.2z"/>
		</g>
	</g>
	<g>
		<path class="st6" d="M80.2,146.2c0,3.4-0.3,6-0.7,7.8c-0.4,1.8-1.1,3.1-2,4c-1.3,1.3-3.6,2-6.7,2H59.3c-3.2,0-5.5-0.7-6.8-2
			c-2.5-2.4-3.7-7.5-3.7-15.2s1.2-12.8,3.7-15.3c1.3-1.3,3.6-2,6.8-2h11.5c3.2,0,5.4,0.7,6.7,2c0.9,0.9,1.5,2.2,2,4
			c0.4,1.8,0.7,4.3,0.7,7.7h-9.9c-0.1-3-0.4-4.8-0.8-5.2c-0.3-0.3-1-0.4-2.3-0.4h-4.4c-1.2,0-2,0.1-2.3,0.4
			c-0.6,0.6-0.9,3.6-0.9,8.8c0,5.2,0.3,8.2,0.9,8.8c0.3,0.3,1,0.4,2.3,0.4h4.4c1.2,0,2-0.1,2.3-0.4c0.5-0.5,0.7-2.2,0.8-5.4
			L80.2,146.2L80.2,146.2z"/>
		<path class="st6" d="M94.8,125.6h11.5c3.2,0,5.5,0.7,6.8,2c2.5,2.4,3.7,7.5,3.7,15.3c0,7.7-1.2,12.8-3.7,15.2
			c-1.3,1.3-3.6,2-6.8,2H94.8c-3.2,0-5.5-0.7-6.8-2c-2.5-2.4-3.7-7.5-3.7-15.2s1.2-12.8,3.7-15.3C89.3,126.2,91.5,125.6,94.8,125.6z
			 M95.1,142.8c0,5.2,0.3,8.2,0.9,8.8c0.3,0.3,1,0.4,2.3,0.4h4.4c1.2,0,2-0.1,2.3-0.4c0.6-0.6,0.9-3.6,0.9-8.8
			c0-5.2-0.3-8.2-0.9-8.8c-0.3-0.3-1-0.4-2.3-0.4h-4.4c-1.2,0-2,0.1-2.3,0.4C95.4,134.6,95.1,137.5,95.1,142.8z"/>
		<path class="st6" d="M153.8,125.6V160h-7.3c-1.1,0-2-0.2-2.7-0.5c-0.7-0.4-1.3-1-1.9-2l-10.6-17.2h-0.2V160h-10v-34.4h9
			c1.1,0,2,0.2,2.7,0.5c0.7,0.4,1.3,1,1.8,2l8.9,15.1h0.2v-17.6L153.8,125.6L153.8,125.6z"/>
		<path class="st6" d="M189.8,149.2c0,4.3-0.9,7.3-2.7,9.1c-1.1,1.1-2.9,1.7-5.4,1.7h-14.2c-3,0-5-0.5-6.1-1.6
			c-0.8-0.8-1.3-1.9-1.6-3.4c-0.3-1.5-0.5-3.7-0.5-6.6h9.7c0.1,2,0.2,3.2,0.5,3.5c0.3,0.3,1,0.4,2.3,0.4h5c1.4,0,2.3-0.1,2.5-0.3
			c0.3-0.3,0.4-1,0.4-2.2c0-1-0.1-1.7-0.4-2c-0.2-0.2-1.1-0.4-2.6-0.6l-10.2-1.2c-2.1-0.2-3.7-0.9-4.7-1.9c-1.5-1.5-2.2-4.2-2.2-8.2
			c0-4,0.9-6.9,2.7-8.7c1.1-1.1,2.9-1.7,5.3-1.7h13.2c3,0,5,0.5,6.1,1.6c0.8,0.8,1.4,1.9,1.7,3.3c0.4,1.4,0.6,3.5,0.6,6.3h-9.7
			c-0.1-1.7-0.2-2.8-0.5-3.1c-0.3-0.3-1-0.4-2.1-0.4H172c-1.1,0-1.8,0.1-2,0.2c-0.3,0.3-0.4,0.9-0.4,2c0,1,0.1,1.7,0.4,2
			c0.2,0.2,1,0.4,2.6,0.5l10.3,1.2c2.1,0.3,3.6,0.9,4.6,1.9C189,142.6,189.8,145.3,189.8,149.2z"/>
		<path class="st6" d="M223.5,133.6h-10.3V160h-10.6v-26.4h-10.1v-8.1h31L223.5,133.6L223.5,133.6z"/>
		<path class="st6" d="M247.1,152.4c-0.1-1.9-0.4-3-0.9-3.5c-0.5-0.4-1.5-0.6-3.1-0.6h-5.2V160h-10.6v-34.4h22
			c3.3,0,5.5,0.6,6.7,1.8c0.8,0.8,1.4,1.8,1.7,2.9c0.3,1.1,0.5,2.8,0.5,5.1c0,3.1-0.5,5.3-1.4,6.5c-0.9,1.3-2.4,2.1-4.5,2.6v0.1
			c1.9,0.4,3.3,1.1,4.2,2c0.9,0.9,1.3,2.5,1.4,4.9c0.1,3.1,0.3,6,0.5,8.6h-10.8C247.4,158.1,247.2,155.5,247.1,152.4z M237.9,140.8
			h5.7c1.6,0,2.5-0.1,2.8-0.4c0.5-0.5,0.8-1.6,0.8-3.3c0-1.7-0.3-2.8-0.8-3.2c-0.3-0.3-1.2-0.4-2.8-0.4h-5.7V140.8z"/>
		<path class="st6" d="M294.2,125.6v20.6c0,3.6-0.2,6.2-0.7,7.8c-0.4,1.6-1.2,2.9-2.2,4c-0.8,0.8-1.8,1.3-2.9,1.6
			c-1.1,0.3-2.8,0.4-5.1,0.4h-9.9c-2.2,0-3.9-0.1-5.1-0.4c-1.1-0.3-2.1-0.8-2.9-1.6c-1-1-1.7-2.3-2.2-4c-0.4-1.6-0.7-4.2-0.7-7.8
			v-20.6h10.6v20.6c0,2.6,0.2,4.1,0.7,4.5c0.4,0.4,1.3,0.5,2.9,0.5h3.3c1.5,0,2.5-0.2,2.9-0.5c0.5-0.5,0.7-2,0.7-4.5v-20.6H294.2z"
			/>
		<path class="st6" d="M329.9,146.2c0,3.4-0.3,6-0.7,7.8c-0.4,1.8-1.1,3.1-2,4c-1.3,1.3-3.6,2-6.7,2H309c-3.2,0-5.5-0.7-6.8-2
			c-2.5-2.4-3.7-7.5-3.7-15.2s1.2-12.8,3.7-15.3c1.3-1.3,3.6-2,6.8-2h11.5c3.2,0,5.4,0.7,6.7,2c0.9,0.9,1.5,2.2,2,4
			c0.4,1.8,0.7,4.3,0.7,7.7H320c-0.1-3-0.4-4.8-0.8-5.2c-0.3-0.3-1-0.4-2.3-0.4h-4.4c-1.2,0-2,0.1-2.3,0.4c-0.6,0.6-0.9,3.6-0.9,8.8
			c0,5.2,0.3,8.2,0.9,8.8c0.3,0.3,1,0.4,2.3,0.4h4.4c1.2,0,2-0.1,2.3-0.4c0.5-0.5,0.7-2.2,0.8-5.4L329.9,146.2L329.9,146.2z"/>
		<path class="st6" d="M363.4,133.6h-10.3V160h-10.6v-26.4h-10.1v-8.1h31L363.4,133.6L363.4,133.6z"/>
		<path class="st6" d="M378,160h-10.6v-34.4H378V160z"/>
		<path class="st6" d="M393.1,125.6h11.5c3.2,0,5.5,0.7,6.8,2c2.5,2.4,3.7,7.5,3.7,15.3c0,7.7-1.2,12.8-3.7,15.2
			c-1.3,1.3-3.6,2-6.8,2h-11.5c-3.2,0-5.5-0.7-6.8-2c-2.5-2.4-3.7-7.5-3.7-15.2s1.2-12.8,3.7-15.3
			C387.6,126.2,389.9,125.6,393.1,125.6z M393.4,142.8c0,5.2,0.3,8.2,0.9,8.8c0.3,0.3,1,0.4,2.3,0.4h4.4c1.2,0,2-0.1,2.3-0.4
			c0.6-0.6,0.9-3.6,0.9-8.8c0-5.2-0.3-8.2-0.9-8.8c-0.3-0.3-1-0.4-2.3-0.4h-4.4c-1.2,0-2,0.1-2.3,0.4
			C393.7,134.6,393.4,137.5,393.4,142.8z"/>
		<path class="st6" d="M452.1,125.6V160h-7.3c-1.1,0-2-0.2-2.7-0.5c-0.7-0.4-1.3-1-1.9-2l-10.6-17.2h-0.2V160h-10v-34.4h9
			c1.1,0,2,0.2,2.7,0.5c0.7,0.4,1.3,1,1.8,2l9,15.1h0.2v-17.6L452.1,125.6L452.1,125.6z"/>
	</g>
</g>
</svg>
