<?xml version="1.0" encoding="utf-8"?>
<!-- Generator: Adobe Illustrator 16.0.0, SVG Export Plug-In . SVG Version: 6.00 Build 0)  -->
<!DOCTYPE svg PUBLIC "-//W3C//DTD SVG 1.1//EN" "http://www.w3.org/Graphics/SVG/1.1/DTD/svg11.dtd">
<svg version="1.1" id="Layer_1" xmlns="http://www.w3.org/2000/svg" xmlns:xlink="http://www.w3.org/1999/xlink" x="0px" y="0px"
	 width="500px" height="500px" viewBox="0 0 500 500" enable-background="new 0 0 500 500" xml:space="preserve">
<g id="Layer_3">
</g>
<g id="Layer_2">
</g>
<g id="Layer_4" display="none">
	<g display="inline">
		<path fill="#231F20" d="M624.358,693.123c-0.337,149.111-121.49,269.727-270.61,269.389
			C204.636,962.18,84.025,841.023,84.36,691.908c0.333-149.117,121.488-269.726,270.603-269.392
			C504.079,422.854,624.692,544.006,624.358,693.123z"/>
	</g>
	<circle display="inline" fill="#FFFFFF" cx="354.359" cy="695.848" r="245.999"/>
	<path display="inline" fill="#231F20" d="M588.359,692.514c-0.002-129.233-104.766-233.998-234-233.998
		c-129.235,0-234,104.765-234,233.998l0,0v0.002c0,3.302,2.7,6,6,6h456c3.3,0,6-2.698,6-6V692.514L588.359,692.514z"/>
	<g display="inline">
		<g>
			<path fill="#FFFFFF" d="M272.146,504.611c-1.057,0.276-1.679,0.043-1.838-0.515c-0.146-0.504,0.088-1.067,0.979-1.401
				c9.854-3.701,62.333-4.523,100.309-2.086c45.633,2.936,98.508,11.207,98.508,11.207c0.487,0.036,0.857,0.457,0.826,0.942
				c-0.033,0.488-0.449,0.857-0.938,0.824c0,0-87.473-8.066-102.217-8.748C326.343,502.92,275.54,503.729,272.146,504.611z"/>
			<path fill="#FFFFFF" d="M455.896,507.695c-0.36-1.332-0.76-3.609-0.662-5.064c0.178-2.832,1.264-5.393,2.945-7.422v-0.006
				c0.184-0.193,0.305-0.445,0.327-0.729c0.04-0.641-0.438-1.19-1.067-1.231c-0.174-0.012-0.334,0.02-0.488,0.078
				c-5.396,1.26-9.569,5.932-9.944,11.754c-0.028,0.401-0.032,0.805-0.021,1.201L455.896,507.695z"/>
		</g>
		<g>
			<g>
				<path fill="#FFFFFF" d="M316.744,484.395c-0.549,0.025-1.033,0.242-1.406,0.572c-0.088,0.08-0.415,0.377-0.493,0.445
					c-0.545,0.475-0.868,1.186-0.802,1.973c0.109,1.344,1.29,2.383,2.643,2.312c0.782-0.037,1.446-0.447,1.842-1.043
					c0.061-0.091,0.311-0.455,0.379-0.552c0.281-0.416,0.432-0.928,0.389-1.475C319.188,485.326,318.045,484.33,316.744,484.395z"/>
				<polygon fill="#FFFFFF" points="314.225,491.008 316.54,488.834 316.489,486.725 312.037,487.197 312.38,491.041 				"/>
				<path fill="#FFFFFF" d="M316.294,491.885c-0.149-1.801-1.731-3.192-3.541-3.104c-0.76,0.037-1.437,0.336-1.954,0.799
					c-0.121,0.111-0.574,0.521-0.688,0.613c-0.758,0.66-1.204,1.651-1.113,2.746c0.152,1.868,1.804,3.311,3.668,3.215
					c1.092-0.056,2.018-0.625,2.566-1.457c0.08-0.123,0.435-0.631,0.526-0.765C316.148,493.355,316.359,492.646,316.294,491.885z
					 M312.566,494.268c-0.814,0.056-1.518-0.562-1.57-1.373c-0.053-0.813,0.559-1.518,1.376-1.571
					c0.812-0.056,1.515,0.561,1.567,1.379C313.995,493.512,313.378,494.215,312.566,494.268z"/>
			</g>
			<g>
				<path fill="#FFFFFF" d="M350.62,482.15c0.55-0.045,1.055,0.1,1.469,0.383c0.103,0.067,0.457,0.317,0.547,0.375
					c0.605,0.395,1.017,1.059,1.058,1.85c0.068,1.349-0.967,2.529-2.315,2.642c-0.78,0.063-1.492-0.255-1.964-0.796
					c-0.068-0.079-0.371-0.409-0.447-0.495c-0.337-0.375-0.549-0.861-0.576-1.41C348.325,483.398,349.322,482.256,350.62,482.15z"/>
				<polygon fill="#FFFFFF" points="353.991,488.375 351.4,486.521 351.175,484.426 355.652,484.305 355.824,488.166 				"/>
				<path fill="#FFFFFF" d="M359.422,489.598c-0.053-1.098-0.624-2.022-1.463-2.573c-0.122-0.078-0.624-0.429-0.758-0.519
					c-0.579-0.391-1.285-0.6-2.045-0.535c-1.805,0.148-3.195,1.734-3.104,3.541c0.04,0.767,0.338,1.439,0.801,1.961
					c0.113,0.121,0.524,0.58,0.623,0.689c0.656,0.754,1.645,1.192,2.73,1.104C358.079,493.113,359.518,491.469,359.422,489.598z
					 M356.062,491.383c-0.812,0.058-1.519-0.561-1.566-1.371c-0.055-0.813,0.562-1.52,1.371-1.571
					c0.812-0.058,1.518,0.559,1.572,1.375C357.493,490.629,356.878,491.328,356.062,491.383z"/>
			</g>
			<path fill="#FFFFFF" d="M368.854,479.121c-1.894-1.656-11.246,1.494-13.235,1.625l-24.737,1.432L309.93,483.6
				c-4.18,0.281-10.121-2.077-12.086,0.162c-2.005,2.289,6.705,4.918,9.104,4.761l24.246-1.642l28.019-1.822
				C361.979,484.873,371.209,481.188,368.854,479.121z"/>
		</g>
		<g>
			<g>
				<path fill="#FFFFFF" d="M386.229,474.564c-0.515-0.191-1.049-0.188-1.521-0.025c-0.112,0.039-0.528,0.182-0.622,0.215
					c-0.691,0.217-1.27,0.744-1.52,1.494c-0.428,1.281,0.25,2.699,1.515,3.168c0.739,0.271,1.51,0.158,2.108-0.234
					c0.09-0.059,0.465-0.295,0.562-0.358c0.424-0.271,0.76-0.681,0.936-1.201C388.104,476.385,387.445,475.016,386.229,474.564z"/>
				<polygon fill="#FFFFFF" points="381.303,479.652 384.294,478.57 385.075,476.607 380.798,475.287 379.592,478.959 				"/>
				<path fill="#FFFFFF" d="M380.833,477.025c-0.718-0.267-1.453-0.261-2.116-0.039c-0.154,0.053-0.732,0.254-0.867,0.295
					c-0.961,0.311-1.761,1.039-2.109,2.082c-0.594,1.778,0.352,3.75,2.105,4.405c1.024,0.378,2.096,0.218,2.932-0.329
					c0.123-0.082,0.643-0.412,0.783-0.496c0.588-0.375,1.058-0.949,1.299-1.67C383.438,479.557,382.527,477.654,380.833,477.025z
					 M380.377,481.09c-0.271,0.771-1.115,1.174-1.884,0.904c-0.767-0.271-1.173-1.115-0.9-1.887c0.273-0.769,1.111-1.171,1.884-0.9
					C380.248,479.482,380.648,480.322,380.377,481.09z"/>
			</g>
			<g>
				<path fill="#FFFFFF" d="M418.245,485.857c0.522,0.174,0.93,0.512,1.198,0.934c0.064,0.102,0.297,0.477,0.355,0.559
					c0.396,0.601,0.512,1.379,0.241,2.119c-0.47,1.262-1.892,1.941-3.167,1.515c-0.748-0.253-1.277-0.824-1.495-1.507
					c-0.032-0.104-0.179-0.522-0.22-0.631c-0.159-0.477-0.164-1.008,0.029-1.526C415.643,486.098,417.011,485.443,418.245,485.857z"
					/>
				<polygon fill="#FFFFFF" points="418.889,492.904 417.238,490.188 417.859,488.172 422.021,489.826 420.654,493.439 				"/>
				<path fill="#FFFFFF" d="M423.064,493.232c-0.075-0.119-0.402-0.642-0.489-0.777c-0.375-0.586-0.947-1.053-1.666-1.297
					c-1.72-0.574-3.621,0.338-4.253,2.035c-0.262,0.715-0.256,1.455-0.032,2.114c0.056,0.156,0.254,0.738,0.301,0.884
					c0.306,0.946,1.042,1.741,2.074,2.09c1.776,0.594,3.751-0.351,4.399-2.107C423.782,495.145,423.622,494.07,423.064,493.232z
					 M421.486,495.592c-0.269,0.771-1.11,1.172-1.881,0.9c-0.77-0.271-1.174-1.115-0.9-1.883c0.27-0.771,1.115-1.17,1.88-0.9
					C421.355,493.98,421.759,494.822,421.486,495.592z"/>
			</g>
			<path fill="#FFFFFF" d="M436.197,490.266c-1.088-2.266-10.928-3.063-12.812-3.727l-23.293-8.437l-19.818-6.952
				c-3.948-1.396-8.479-5.904-11.17-4.615c-2.742,1.312,4.224,7.16,6.491,7.959l22.931,8.055l26.463,9.367
				C427.609,492.84,437.551,493.094,436.197,490.266z"/>
		</g>
	</g>
</g>
<g>
	<g>
		<path fill="#311F0C" d="M71.798,234.51v23.318c0,0.693,0.698,1.256,1.254,1.256h12.426c0.836,0,1.536-0.562,1.536-1.256
			l-0.002-72.597h24.292v83.482c0,6.148-4.746,10.752-10.61,10.752H58.254c-5.723,0-10.75-4.604-10.75-10.752V234.51H71.798z"/>
		<path fill="#311F0C" d="M141.382,279.465h-24.153v-94.234h24.153V279.465z"/>
		<g>
			<path fill="#311F0C" d="M452.496,185.231v78.484c0,2.154-0.43,4.197-1.279,6.125c-0.855,1.932-1.977,3.615-3.367,5.049
				c-1.393,1.438-3.051,2.557-4.98,3.365c-1.932,0.809-3.971,1.213-6.125,1.213H368.76c-2.154,0-4.197-0.404-6.123-1.213
				c-1.932-0.809-3.617-1.928-5.049-3.365c-1.438-1.434-2.559-3.117-3.367-5.049c-0.807-1.928-1.211-3.971-1.211-6.125v-78.484
				h23.693v71.351h14.943v-71.351h22.074l0.004,71.351h15.076v-71.351H452.496z"/>
		</g>
		<g>
			<path fill="#311F0C" d="M216.134,270.115c0-6.561,4.466-11.029,11.026-11.029l0,0c10.561,0,12.474,3.23,18.18,3.23
				c4.717,0,9.861-3.713,9.861-11.328c0-7.615-5.144-11.328-9.861-11.328c-5.707,0-7.619,3.23-18.18,3.23v-0.001
				c-6.56,0-11.026-4.467-11.026-11.028V221.67h-34.905v19.963h12.702v15.914c0,0.838-0.557,1.393-1.535,1.393h-19.545
				c-0.7,0-1.396-0.555-1.396-1.393v-50.54c0-0.839,0.697-1.532,1.396-1.532h43.282v-9.212c0-6.564,4.466-11.032,11.026-11.032
				h-68.97c-6.001,0-10.886,4.886-10.886,10.61v72.872c0,6.148,4.885,10.752,10.886,10.752h57.944V270.115z"/>
			<path fill="#311F0C" d="M336.059,185.231h-58.914v9.215c0,6.56-4.469,11.028-11.033,11.029c-10.559,0-12.24-3.315-17.946-3.315
				c-4.962,0-10.119,4.01-10.119,11.622c0,7.612,5.157,11.622,10.119,11.622c5.706,0,7.387-3.314,17.946-3.314v0.001
				c6.564,0,11.033,4.467,11.033,11.027v35.322c0,6.547-4.449,11.008-10.992,11.027l35.279,0.002v-23.457h21.363v23.457h24.291
				V196.26C347.086,189.699,342.619,185.231,336.059,185.231z M322.795,235.628h-21.363v-28.34c0-1.538,1.26-2.793,2.936-2.793
				h15.074c1.955,0,3.354,1.118,3.354,2.793V235.628z"/>
		</g>
	</g>
	<g>
		<path fill="#311F0C" d="M112.461,303.617c-0.025,2.789-0.206,4.898-0.536,6.334c-0.333,1.432-0.87,2.508-1.614,3.225
			c-1.062,1.062-2.882,1.594-5.456,1.594h-9.32c-2.604,0-4.435-0.531-5.497-1.594c-2.019-1.963-3.026-6.08-3.026-12.346
			s1.007-10.383,3.026-12.348c1.062-1.061,2.893-1.594,5.497-1.594h9.32c2.574,0,4.394,0.533,5.456,1.594
			c0.718,0.717,1.247,1.787,1.593,3.207c0.345,1.42,0.532,3.498,0.557,6.232h-8.004c-0.08-2.443-0.305-3.85-0.678-4.221
			c-0.211-0.213-0.823-0.32-1.834-0.32h-3.542c-1.01,0-1.62,0.107-1.832,0.32c-0.506,0.502-0.758,2.881-0.758,7.129
			s0.251,6.625,0.758,7.129c0.212,0.213,0.822,0.318,1.832,0.318h3.542c1.011,0,1.623-0.105,1.834-0.318
			c0.373-0.371,0.598-1.82,0.678-4.342H112.461z"/>
		<path fill="#311F0C" d="M124.25,286.889h9.279c2.603,0,4.436,0.533,5.497,1.594c2.019,1.965,3.028,6.082,3.028,12.348
			s-1.009,10.383-3.028,12.346c-1.061,1.062-2.894,1.594-5.497,1.594h-9.279c-2.601,0-4.433-0.531-5.496-1.594
			c-2.018-1.963-3.027-6.08-3.027-12.346s1.009-10.383,3.027-12.348C119.816,287.422,121.648,286.889,124.25,286.889z
			 M124.53,300.83c0,4.248,0.251,6.625,0.756,7.129c0.212,0.213,0.822,0.318,1.833,0.318h3.544c1.008,0,1.62-0.105,1.833-0.318
			c0.504-0.504,0.756-2.881,0.756-7.129s-0.252-6.627-0.756-7.129c-0.212-0.213-0.824-0.32-1.833-0.32h-3.544
			c-1.01,0-1.621,0.107-1.833,0.32C124.781,294.203,124.53,296.582,124.53,300.83z"/>
		<path fill="#311F0C" d="M172.084,286.889v27.881h-5.935c-0.902,0-1.619-0.146-2.15-0.438c-0.532-0.293-1.036-0.824-1.515-1.594
			l-8.603-13.9h-0.197v15.932h-8.086v-27.881h7.288c0.904,0,1.627,0.146,2.172,0.439c0.544,0.293,1.042,0.822,1.495,1.592
			l7.248,12.227h0.2v-14.258H172.084z"/>
		<path fill="#311F0C" d="M201.199,306.047c0,3.479-0.717,5.934-2.151,7.369c-0.903,0.902-2.363,1.354-4.382,1.354h-11.51
			c-2.417,0-4.063-0.438-4.937-1.312c-0.613-0.611-1.049-1.521-1.315-2.729c-0.267-1.211-0.401-2.996-0.401-5.357h7.849
			c0.053,1.645,0.196,2.588,0.436,2.826c0.214,0.213,0.836,0.318,1.875,0.318h4.021c1.168,0,1.845-0.092,2.032-0.277
			c0.237-0.238,0.358-0.836,0.358-1.793c0-0.822-0.121-1.354-0.358-1.594c-0.187-0.186-0.877-0.344-2.072-0.477l-8.244-0.957
			c-1.699-0.184-2.96-0.689-3.786-1.514c-1.193-1.195-1.791-3.398-1.791-6.611c0-3.266,0.717-5.615,2.15-7.049
			c0.904-0.902,2.339-1.355,4.302-1.355h10.714c2.442,0,4.089,0.426,4.939,1.275c0.636,0.637,1.101,1.52,1.393,2.648
			c0.292,1.129,0.453,2.834,0.479,5.119h-7.848c-0.053-1.408-0.198-2.23-0.437-2.471c-0.214-0.211-0.771-0.318-1.672-0.318h-3.983
			c-0.929,0-1.461,0.068-1.595,0.199c-0.212,0.213-0.317,0.756-0.317,1.633c0,0.824,0.12,1.354,0.358,1.594
			c0.16,0.158,0.849,0.307,2.07,0.436l8.325,0.959c1.699,0.211,2.949,0.715,3.745,1.512
			C200.613,300.645,201.199,302.834,201.199,306.047z"/>
		<path fill="#311F0C" d="M228.52,293.422h-8.363v21.348h-8.563v-21.348h-8.166v-6.533h25.092V293.422z"/>
		<path fill="#311F0C" d="M247.677,308.596c-0.055-1.514-0.306-2.469-0.756-2.867c-0.373-0.346-1.21-0.518-2.51-0.518h-4.183v9.559
			h-8.562v-27.881h17.804c2.655,0,4.459,0.479,5.418,1.436c0.66,0.664,1.131,1.453,1.41,2.369s0.42,2.291,0.42,4.123
			c0,2.494-0.371,4.262-1.115,5.297c-0.744,1.033-1.965,1.727-3.664,2.07v0.08c1.537,0.346,2.66,0.889,3.365,1.633
			c0.703,0.744,1.082,2.059,1.135,3.943c0.082,2.549,0.227,4.857,0.438,6.93h-8.723
			C247.917,313.203,247.758,311.145,247.677,308.596z M240.229,299.195h4.621c1.272,0,2.019-0.104,2.229-0.316
			c0.425-0.398,0.638-1.301,0.638-2.711c0-1.379-0.213-2.256-0.638-2.627c-0.238-0.213-0.982-0.318-2.229-0.318h-4.621V299.195z"/>
		<path fill="#311F0C" d="M285.793,286.889v16.688c0,2.924-0.18,5.039-0.539,6.354c-0.355,1.314-0.947,2.385-1.77,3.207
			c-0.639,0.637-1.422,1.07-2.35,1.295c-0.93,0.227-2.299,0.338-4.105,0.338h-8.004c-1.805,0-3.174-0.111-4.102-0.338
			c-0.93-0.225-1.713-0.658-2.35-1.295c-0.822-0.822-1.416-1.893-1.773-3.207s-0.537-3.43-0.537-6.354v-16.688h8.562v16.65
			c0,2.07,0.186,3.291,0.559,3.662c0.291,0.293,1.061,0.439,2.309,0.439h2.67c1.248,0,2.016-0.146,2.311-0.439
			c0.369-0.371,0.557-1.592,0.557-3.662v-16.65H285.793z"/>
		<path fill="#311F0C" d="M314.707,303.617c-0.025,2.789-0.205,4.898-0.537,6.334c-0.332,1.432-0.867,2.508-1.613,3.225
			c-1.062,1.062-2.881,1.594-5.453,1.594h-9.322c-2.602,0-4.434-0.531-5.496-1.594c-2.018-1.963-3.027-6.08-3.027-12.346
			s1.01-10.383,3.027-12.348c1.062-1.061,2.895-1.594,5.496-1.594h9.322c2.572,0,4.391,0.533,5.453,1.594
			c0.719,0.717,1.246,1.787,1.594,3.207s0.531,3.498,0.557,6.232h-8.006c-0.078-2.443-0.305-3.85-0.676-4.221
			c-0.213-0.213-0.822-0.32-1.832-0.32h-3.545c-1.008,0-1.617,0.107-1.83,0.32c-0.506,0.502-0.758,2.881-0.758,7.129
			s0.252,6.625,0.758,7.129c0.213,0.213,0.822,0.318,1.83,0.318h3.545c1.01,0,1.619-0.105,1.832-0.318
			c0.371-0.371,0.598-1.82,0.676-4.342H314.707z"/>
		<path fill="#311F0C" d="M341.869,293.422h-8.363v21.348h-8.562v-21.348h-8.166v-6.533h25.092V293.422z"/>
		<path fill="#311F0C" d="M353.697,314.77h-8.561v-27.881h8.561V314.77z"/>
		<path fill="#311F0C" d="M365.887,286.889h9.279c2.604,0,4.436,0.533,5.498,1.594c2.016,1.965,3.025,6.082,3.025,12.348
			s-1.01,10.383-3.025,12.346c-1.062,1.062-2.895,1.594-5.498,1.594h-9.279c-2.604,0-4.436-0.531-5.496-1.594
			c-2.02-1.963-3.027-6.08-3.027-12.346s1.008-10.383,3.027-12.348C361.451,287.422,363.283,286.889,365.887,286.889z
			 M366.164,300.83c0,4.248,0.252,6.625,0.756,7.129c0.217,0.213,0.826,0.318,1.834,0.318h3.543c1.01,0,1.623-0.105,1.832-0.318
			c0.506-0.504,0.76-2.881,0.76-7.129s-0.254-6.627-0.76-7.129c-0.209-0.213-0.822-0.32-1.832-0.32h-3.543
			c-1.008,0-1.617,0.107-1.834,0.32C366.416,294.203,366.164,296.582,366.164,300.83z"/>
		<path fill="#311F0C" d="M413.721,286.889v27.881h-5.936c-0.902,0-1.619-0.146-2.15-0.438c-0.531-0.293-1.033-0.824-1.514-1.594
			l-8.602-13.9h-0.199v15.932h-8.086v-27.881h7.289c0.902,0,1.627,0.146,2.17,0.439c0.545,0.293,1.041,0.822,1.494,1.592
			l7.25,12.227h0.197v-14.258H413.721z"/>
	</g>
</g>
</svg>
