<?xml version="1.0" encoding="utf-8"?>
<!-- Generator: Adobe Illustrator 25.1.0, SVG Export Plug-In . SVG Version: 6.00 Build 0)  -->
<svg version="1.1" id="Layer_1" xmlns="http://www.w3.org/2000/svg" xmlns:xlink="http://www.w3.org/1999/xlink" x="0px" y="0px"
	 width="144px" height="144px" viewBox="0 0 144 144" style="enable-background:new 0 0 144 144;" xml:space="preserve">
<path d="M84,132c0-6.6-5.4-12-12-12s-12,5.4-12,12c0,6.6,5.4,12,12,12S84,138.6,84,132z M72,95c-6.6,0-12-5.4-12-12s5.4-12,12-12
	s12,5.4,12,12S78.6,95,72,95z M72,59.5c-6.6,0-12-5.4-12-12s5.4-12,12-12s12,5.4,12,12S78.6,59.5,72,59.5z M72,24
	c-6.6,0-12-5.4-12-12S65.4,0,72,0s12,5.4,12,12S78.6,24,72,24z M47.5,119.5c-6.6,0-12-5.4-12-12s5.4-12,12-12s12,5.4,12,12
	S54.1,119.5,47.5,119.5z M23,95c-6.6,0-12-5.4-12-12s5.4-12,12-12s12,5.4,12,12S29.6,95,23,95z M121,95c-6.6,0-12-5.4-12-12
	s5.4-12,12-12s12,5.4,12,12S127.6,95,121,95z M96.5,119.5c-6.6,0-12-5.4-12-12s5.4-12,12-12s12,5.4,12,12S103.1,119.5,96.5,119.5z"
	/>
</svg>
