<?xml version="1.0" encoding="utf-8"?>
<!-- Generator: Adobe Illustrator 25.0.1, SVG Export Plug-In . SVG Version: 6.00 Build 0)  -->
<svg version="1.1" id="Layer_1" xmlns="http://www.w3.org/2000/svg" xmlns:xlink="http://www.w3.org/1999/xlink" x="0px" y="0px"
	 viewBox="0 0 500 300" style="enable-background:new 0 0 500 300;" xml:space="preserve">
<path d="M459.9,198.9v59.6H243.8v-43.9H315c48.1,0,68.5-26.4,68.5-59.9c0-30.8-23.4-47.2-40.4-51.2v-1.7c12-2,34.7-17.7,34.7-48.9
	c0-25.4-20.7-52.9-71.5-52.9H0v41.8h74.5v130.9H0v41.8h196.4v43.9h-74.8V300H500V198.9H459.9z M331.3,147c0,14.1-7.7,25.8-39.1,25.8
	h-48.5v-49.6h52.5C320.7,123.2,331.3,132.3,331.3,147z M121.6,41.8h164.7c27.7,0,38.1,6.7,38.1,18.8c0,14.7-9.4,25.1-37.1,25.1
	H121.6V41.8z M121.6,172.8v-49.6h74.8v49.6H121.6z"/>
</svg>
