<?xml version="1.0" encoding="utf-8"?>
<!-- Generator: Adobe Illustrator 16.0.0, SVG Export Plug-In . SVG Version: 6.00 Build 0)  -->
<!DOCTYPE svg PUBLIC "-//W3C//DTD SVG 1.1//EN" "http://www.w3.org/Graphics/SVG/1.1/DTD/svg11.dtd">
<svg version="1.1" id="Layer_1" xmlns="http://www.w3.org/2000/svg" xmlns:xlink="http://www.w3.org/1999/xlink" x="0px" y="0px"
	 width="128px" height="128px" viewBox="0 0 128 128" enable-background="new 0 0 128 128" xml:space="preserve">

	<rect x="0.049" opacity="0" width="127.951" height="128"/>
	<path d="M123.203,4.75c3.163,3.168,4.748,6.918,4.748,11.25v96c0,4.336-1.585,8.082-4.748,11.25
		c-3.167,3.164-6.915,4.75-11.246,4.75H15.994c-4.334,0-8.083-1.586-11.247-4.75C1.581,120.082,0,116.336,0,112V16
		c0-4.332,1.581-8.082,4.747-11.25C7.911,1.586,11.66,0,15.994,0h95.963C116.288,0,120.036,1.586,123.203,4.75z M111.957,56h-8.996
		c0.664,2.836,0.999,5.668,0.999,8.5c0,11-3.916,20.418-11.745,28.25c-7.833,7.836-17.243,11.75-28.239,11.75
		c-10.996,0-20.411-3.914-28.24-11.75C27.903,84.918,23.991,75.5,23.991,64.5c0-2.832,0.332-5.664,1-8.5h-8.996v52
		c0,1.168,0.375,2.125,1.125,2.875c0.75,0.75,1.706,1.125,2.874,1.125h87.967c1.163,0,2.124-0.375,2.874-1.125
		c0.749-0.75,1.124-1.707,1.124-2.875V56z M39.985,64.5c0,6.668,2.331,12.336,6.997,17c4.663,4.668,10.328,7,16.994,7
		c6.661,0,12.327-2.332,16.993-7c4.663-4.664,6.998-10.332,6.998-17c0-6.664-2.335-12.332-6.998-17c-4.666-4.664-10.332-7-16.993-7
		c-6.666,0-12.331,2.336-16.994,7C42.316,52.168,39.985,57.836,39.985,64.5z M111.957,20c0-1.164-0.375-2.125-1.124-2.875
		c-0.75-0.75-1.711-1.125-2.874-1.125H91.965c-1.167,0-2.124,0.375-2.874,1.125S87.967,18.836,87.967,20v16
		c0,1.168,0.374,2.125,1.124,2.875S90.798,40,91.965,40h15.994c1.163,0,2.124-0.375,2.874-1.125c0.749-0.75,1.124-1.707,1.124-2.875
		V20z"/>
</svg>
