<?xml version="1.0" encoding="utf-8"?>
<!-- Generator: Adobe Illustrator 16.0.0, SVG Export Plug-In . SVG Version: 6.00 Build 0)  -->
<!DOCTYPE svg PUBLIC "-//W3C//DTD SVG 1.1//EN" "http://www.w3.org/Graphics/SVG/1.1/DTD/svg11.dtd">
<svg version="1.1" id="Layer_1" xmlns="http://www.w3.org/2000/svg" xmlns:xlink="http://www.w3.org/1999/xlink" x="0px" y="0px"
	 width="128px" height="128px" viewBox="0 0 128 128" enable-background="new 0 0 128 128" xml:space="preserve">
<path d="M106.5,0h-85C9.675,0,0,9.675,0,21.5v85C0,118.325,9.675,128,21.5,128h85c11.825,0,21.5-9.675,21.5-21.5v-85
	C128,9.675,118.325,0,106.5,0z M48,104H32V48h16V104z M40,40c-4.418,0-8-3.582-8-8s3.582-8,8-8s8,3.582,8,8S44.418,40,40,40z
	 M104,104H88V72c0-4.418-3.582-8-8-8s-8,3.582-8,8v32H56V48h16v9.934C75.3,53.401,80.344,48,86,48c9.941,0,18,8.954,18,20V104z"/>
</svg>
