<?xml version="1.0" encoding="utf-8"?>
<!-- Generator: Adobe Illustrator 16.0.0, SVG Export Plug-In . SVG Version: 6.00 Build 0)  -->
<!DOCTYPE svg PUBLIC "-//W3C//DTD SVG 1.1//EN" "http://www.w3.org/Graphics/SVG/1.1/DTD/svg11.dtd">
<svg version="1.1" id="Layer_1" xmlns="http://www.w3.org/2000/svg" xmlns:xlink="http://www.w3.org/1999/xlink" x="0px" y="0px"
	 width="128px" height="128px" viewBox="0 0 128 128" enable-background="new 0 0 128 128" xml:space="preserve">
<g>
	<rect fill-opacity="0" width="127.951" height="128"/>
	<path d="M126.281,16.791c1.146,1.195,1.719,2.604,1.719,4.232v85.954c0,1.736-0.573,3.173-1.719,4.313
		c-1.146,1.139-2.594,1.709-4.338,1.709H6.057c-1.637,0-3.057-0.596-4.256-1.791C0.598,110.017,0,108.604,0,106.978V21.023
		c0-1.735,0.598-3.174,1.801-4.314C3,15.57,4.419,15,6.057,15h115.887C123.688,15,125.135,15.598,126.281,16.791z M115.725,42.349
		L68.747,78.651c-1.202,0.87-2.455,1.302-3.766,1.302c-1.309,0-2.565-0.432-3.764-1.302L12.276,41.047v59.744h103.449V42.349z
		 M14.567,27.209l50.414,38.907l50.087-38.907H14.567z"/>
</g>
</svg>
