<?xml version="1.0" encoding="utf-8"?>
<!-- Generator: Adobe Illustrator 16.0.0, SVG Export Plug-In . SVG Version: 6.00 Build 0)  -->
<!DOCTYPE svg PUBLIC "-//W3C//DTD SVG 1.1//EN" "http://www.w3.org/Graphics/SVG/1.1/DTD/svg11.dtd">
<svg version="1.1" id="Layer_1" xmlns="http://www.w3.org/2000/svg" xmlns:xlink="http://www.w3.org/1999/xlink" x="0px" y="0px"
	 width="128px" height="128px" viewBox="0 0 128 128" enable-background="new 0 0 128 128" xml:space="preserve">
<g>
	<rect x="0.05" opacity="0" width="127.95" height="128"/>
	<path d="M114.954,38c0,1,0,2.086,0,3.25c0,8.836-1.667,17.625-4.998,26.375c-3.334,8.75-8.039,16.75-14.119,24
		c-6.083,7.25-13.955,13.125-23.615,17.625c-9.665,4.5-20.329,6.75-31.988,6.75C25.739,116,12.328,112.086,0,104.25
		c1.999,0.168,4.081,0.25,6.248,0.25c12.159,0,23.074-3.75,32.737-11.25c-5.833,0-10.956-1.707-15.368-5.125
		C19.2,84.711,16.075,80.336,14.244,75c1.664,0.336,3.331,0.5,4.998,0.5c2.331,0,4.663-0.25,6.998-0.75
		c-6.166-1.332-11.206-4.414-15.118-9.25C7.205,60.668,5.248,55.168,5.248,49c0-0.164,0-0.332,0-0.5
		c3.663,2.168,7.58,3.25,11.745,3.25C9.161,46.586,5.248,39.336,5.248,30c0-4.664,1.25-9.082,3.749-13.25
		c6.497,8.168,14.452,14.668,23.866,19.5c9.411,4.836,19.449,7.5,30.112,8c-0.5-2-0.75-4-0.75-6c0-7.164,2.582-13.332,7.748-18.5
		C75.134,14.586,81.3,12,88.465,12c7.661,0,14.076,2.75,19.242,8.25c5.998-1.164,11.578-3.25,16.743-6.25
		c-1.999,6.168-5.833,11-11.495,14.5c5.162-0.664,10.16-2.082,14.994-4.25C124.45,29.586,120.116,34.168,114.954,38z"/>
</g>
</svg>
