<?xml version="1.0" encoding="utf-8"?>
<!-- Generator: Adobe Illustrator 25.0.1, SVG Export Plug-In . SVG Version: 6.00 Build 0)  -->
<svg version="1.1" id="Layer_1" xmlns="http://www.w3.org/2000/svg" xmlns:xlink="http://www.w3.org/1999/xlink" x="0px" y="0px"
	 viewBox="0 0 594 32" style="enable-background:new 0 0 594 32;" xml:space="preserve">
<style type="text/css">
	.st0{fill:#D8D8D8;}
	.st1{fill:#F2F2F2;}
	.st2{fill:#8D8D93;}
	.st3{fill:#6D6D6D;}
	.st4{fill:#FFFFFF;}
</style>
<g>
	<rect class="st0" width="594" height="32"/>
	<rect y="16" class="st1" width="594" height="16"/>
	<circle class="st2" cx="7.3" cy="8" r="3"/>
	<circle class="st2" cx="16.7" cy="8" r="3"/>
	<circle class="st2" cx="26" cy="8" r="3"/>
	<polygon class="st1" points="151.3,16 145.4,3.7 37.2,3.7 31.3,16 	"/>
	<g>
		<path class="st3" d="M13.5,23.5v1H7.4l2.8,2.8L9.5,28l-4-4l4-4l0.7,0.7l-2.8,2.8H13.5z"/>
		<path class="st3" d="M20.2,20l4,4l-4,4l-0.7-0.7l2.8-2.8h-6.1v-1h6.1l-2.8-2.8L20.2,20z"/>
		<path class="st3" d="M33.7,21.2l1.2-1.2v3.5h-3.5l1.6-1.6c-0.6-0.6-1.3-0.9-2.1-0.9c-0.8,0-1.5,0.3-2.1,0.9
			c-0.6,0.6-0.9,1.3-0.9,2.1c0,0.8,0.3,1.5,0.9,2.1c0.6,0.6,1.3,0.9,2.1,0.9c0.7,0,1.2-0.2,1.8-0.6c0.5-0.4,0.9-0.8,1.1-1.4h1
			c-0.2,0.9-0.7,1.6-1.4,2.1c-0.7,0.6-1.5,0.8-2.5,0.8c-1.1,0-2-0.4-2.8-1.2c-0.8-0.8-1.2-1.7-1.2-2.8c0-1.1,0.4-2,1.2-2.8
			c0.8-0.8,1.7-1.2,2.8-1.2C31.9,20,32.9,20.4,33.7,21.2z"/>
	</g>
	<rect x="39.8" y="18" class="st4" width="539.4" height="12"/>
	<g>
		<path class="st3" d="M587.4,21.7c-0.2,0.2-0.5,0.3-0.7,0.3c-0.3,0-0.5-0.1-0.7-0.3c-0.2-0.2-0.3-0.4-0.3-0.7
			c0-0.3,0.1-0.5,0.3-0.7c0.2-0.2,0.4-0.3,0.7-0.3c0.3,0,0.5,0.1,0.7,0.3c0.2,0.2,0.3,0.4,0.3,0.7C587.7,21.3,587.6,21.5,587.4,21.7
			z M586,23.3c0.2-0.2,0.4-0.3,0.7-0.3c0.3,0,0.5,0.1,0.7,0.3c0.2,0.2,0.3,0.4,0.3,0.7c0,0.3-0.1,0.5-0.3,0.7
			c-0.2,0.2-0.4,0.3-0.7,0.3c-0.3,0-0.5-0.1-0.7-0.3c-0.2-0.2-0.3-0.4-0.3-0.7C585.7,23.7,585.8,23.5,586,23.3z M586,26.3
			c0.2-0.2,0.4-0.3,0.7-0.3s0.5,0.1,0.7,0.3c0.2,0.2,0.3,0.4,0.3,0.7c0,0.3-0.1,0.5-0.3,0.7c-0.2,0.2-0.4,0.3-0.7,0.3
			c-0.3,0-0.5-0.1-0.7-0.3c-0.2-0.2-0.3-0.4-0.3-0.7C585.7,26.7,585.8,26.5,586,26.3z"/>
	</g>
	<g>
		<path class="st3" d="M46.8,24.8l1.7,1.7L48,27l-1.7-1.7V25l-0.1-0.1c-0.4,0.4-0.9,0.5-1.4,0.5c-0.6,0-1.1-0.2-1.6-0.6
			c-0.4-0.4-0.7-1-0.7-1.6c0-0.6,0.2-1.2,0.6-1.6c0.4-0.4,1-0.7,1.6-0.7c0.6,0,1.1,0.2,1.6,0.6c0.4,0.4,0.6,1,0.6,1.6
			c0,0.6-0.2,1-0.5,1.4l0.1,0.1H46.8z M43.7,24.3c0.3,0.3,0.7,0.4,1.1,0.4c0.4,0,0.8-0.1,1.1-0.4c0.3-0.3,0.5-0.7,0.5-1.1
			c0-0.4-0.2-0.8-0.4-1.1c-0.3-0.3-0.7-0.4-1.1-0.4c-0.4,0-0.8,0.2-1.1,0.5c-0.3,0.3-0.4,0.7-0.4,1.1C43.2,23.7,43.4,24,43.7,24.3z"
			/>
	</g>
</g>
</svg>
