<?xml version="1.0" encoding="utf-8"?>
<!-- Generator: Adobe Illustrator 25.1.0, SVG Export Plug-In . SVG Version: 6.00 Build 0)  -->
<svg version="1.1" id="Layer_1" xmlns="http://www.w3.org/2000/svg" xmlns:xlink="http://www.w3.org/1999/xlink" x="0px" y="0px"
	 width="72px" height="72px" viewBox="0 0 72 72" style="enable-background:new 0 0 72 72;" xml:space="preserve">
<style type="text/css">
	.st0{fill:#231F20;}
</style>
<g>
	<rect x="43.9" class="st0" width="1" height="28"/>
	<g>
		<path class="st0" d="M59.9,4c4.4,0,8,3.6,8,8s-3.6,8-8,8s-8-3.6-8-8S55.5,4,59.9,4 M59.9,3c-5,0-9,4-9,9s4,9,9,9s9-4,9-9
			S64.9,3,59.9,3z"/>
		<rect x="47.9" y="11.5" class="st0" width="7" height="1"/>
		<rect x="64.9" y="11.5" class="st0" width="7" height="1"/>
		<rect x="59.4" y="17" class="st0" width="1" height="7"/>
		<rect x="59.4" y="0" class="st0" width="1" height="7"/>
		<path class="st0" d="M55.2,11.2c0.3-2,1.9-3.6,3.9-3.9v3.9C59.1,11.2,55.2,11.2,55.2,11.2z"/>
		<path class="st0" d="M58.9,7.6V11h-3.4C55.9,9.3,57.2,8,58.9,7.6 M59.4,7.1c-2.3,0.2-4.2,2.1-4.4,4.4h4.4V7.1z"/>
		<path class="st0" d="M60.7,11.2V7.3c2,0.3,3.6,1.9,3.9,3.9C64.6,11.2,60.7,11.2,60.7,11.2z"/>
		<path class="st0" d="M60.9,7.6c1.7,0.4,3,1.7,3.4,3.4h-3.4V7.6 M60.4,7.1v4.4h4.5C64.7,9.2,62.8,7.3,60.4,7.1L60.4,7.1z"/>
		<path class="st0" d="M60.7,12.8h3.9c-0.3,2-1.9,3.6-3.9,3.9V12.8z"/>
		<path class="st0" d="M64.3,13c-0.4,1.7-1.7,3-3.4,3.4V13H64.3 M64.9,12.5h-4.5V17C62.8,16.8,64.7,14.9,64.9,12.5L64.9,12.5z"/>
		<path class="st0" d="M59.1,16.7c-2-0.3-3.6-1.9-3.9-3.9h3.9C59.1,12.8,59.1,16.7,59.1,16.7z"/>
		<path class="st0" d="M58.9,13v3.4c-1.7-0.4-3-1.7-3.4-3.4H58.9 M59.4,12.5H55c0.2,2.4,2.1,4.2,4.4,4.5V12.5z"/>
	</g>
</g>
<g>
	<rect x="-0.1" y="44" class="st0" width="28" height="1"/>
	<g>
		<path class="st0" d="M11.9,52c4.4,0,8,3.6,8,8s-3.6,8-8,8s-8-3.6-8-8S7.5,52,11.9,52 M11.9,51c-5,0-9,4-9,9s4,9,9,9s9-4,9-9
			S16.9,51,11.9,51z"/>
		<rect x="-0.1" y="59.5" class="st0" width="7" height="1"/>
		<rect x="16.9" y="59.5" class="st0" width="7" height="1"/>
		<rect x="11.4" y="65" class="st0" width="1" height="7"/>
		<rect x="11.4" y="48" class="st0" width="1" height="7"/>
		<path class="st0" d="M7.2,59.2c0.3-2,1.9-3.6,3.9-3.9v3.9C11.1,59.2,7.2,59.2,7.2,59.2z"/>
		<path class="st0" d="M10.9,55.6V59H7.5C7.9,57.3,9.2,56,10.9,55.6 M11.4,55.1c-2.3,0.2-4.2,2.1-4.4,4.4h4.4V55.1z"/>
		<path class="st0" d="M12.7,59.2v-3.9c2,0.3,3.6,1.9,3.9,3.9C16.6,59.2,12.7,59.2,12.7,59.2z"/>
		<path class="st0" d="M12.9,55.6c1.7,0.4,3,1.7,3.4,3.4h-3.4V55.6 M12.4,55.1v4.4h4.5C16.7,57.2,14.8,55.3,12.4,55.1L12.4,55.1z"/>
		<path class="st0" d="M12.7,60.8h3.9c-0.3,2-1.9,3.6-3.9,3.9V60.8z"/>
		<path class="st0" d="M16.3,61c-0.4,1.7-1.7,3-3.4,3.4V61H16.3 M16.9,60.5h-4.5V65C14.8,64.8,16.7,62.9,16.9,60.5L16.9,60.5z"/>
		<path class="st0" d="M11.1,64.7c-2-0.3-3.6-1.9-3.9-3.9h3.9C11.1,60.8,11.1,64.7,11.1,64.7z"/>
		<path class="st0" d="M10.9,61v3.4c-1.7-0.4-3-1.7-3.4-3.4H10.9 M11.4,60.5H7c0.2,2.4,2.1,4.2,4.4,4.5V60.5z"/>
	</g>
</g>
</svg>
