<?xml version="1.0" encoding="utf-8"?>
<!-- Generator: Adobe Illustrator 24.0.3, SVG Export Plug-In . SVG Version: 6.00 Build 0)  -->
<svg version="1.1" id="Layer_1" xmlns="http://www.w3.org/2000/svg" xmlns:xlink="http://www.w3.org/1999/xlink" x="0px" y="0px"
	 viewBox="0 0 32 32" style="enable-background:new 0 0 32 32;" xml:space="preserve">
<style type="text/css">
	.st0{fill:#231F20;}
</style>
<title>registration-black2</title>
<path class="st0" d="M16,8c4.4,0,8,3.6,8,8s-3.6,8-8,8s-8-3.6-8-8S11.6,8,16,8 M16,7c-5,0-9,4-9,9s4,9,9,9s9-4,9-9S21,7,16,7z"/>
<rect x="4" y="15.5" class="st0" width="7" height="1"/>
<rect x="21" y="15.5" class="st0" width="7" height="1"/>
<rect x="15.5" y="21" class="st0" width="1" height="7"/>
<rect x="15.5" y="4" class="st0" width="1" height="7"/>
<path class="st0" d="M11.3,15.2c0.3-2,1.9-3.6,3.9-3.9v3.9H11.3z"/>
<path class="st0" d="M15,11.6V15h-3.4C12,13.3,13.3,12,15,11.6 M15.5,11.1c-2.3,0.2-4.2,2.1-4.4,4.4h4.4V11.1z"/>
<path class="st0" d="M16.8,15.2v-3.9c2,0.3,3.6,1.9,3.9,3.9H16.8z"/>
<path class="st0" d="M17,11.6c1.7,0.4,3,1.7,3.4,3.4H17V11.6 M16.5,11.1v4.4H21C20.8,13.2,18.9,11.3,16.5,11.1L16.5,11.1z"/>
<path class="st0" d="M16.8,16.8h3.9c-0.3,2-1.9,3.6-3.9,3.9V16.8z"/>
<path class="st0" d="M20.4,17c-0.4,1.7-1.7,3-3.4,3.4V17H20.4 M21,16.5h-4.5V21C18.9,20.8,20.8,18.9,21,16.5L21,16.5z"/>
<path class="st0" d="M15.2,20.7c-2-0.3-3.6-1.9-3.9-3.9h3.9V20.7z"/>
<path class="st0" d="M15,17v3.4c-1.7-0.4-3-1.7-3.4-3.4H15 M15.5,16.5h-4.4c0.2,2.4,2.1,4.2,4.4,4.5V16.5z"/>
</svg>
