<svg style="display: none;">
    <symbol viewBox="0 0 100 20" id="svg-arrow-d">
        <polygon points="50,20 0,0 100,0 " />
    </symbol>
    <symbol viewBox="0 0 144 288" id="svg-arrow-dot-dn-long">
        <circle cx="72" cy="276" r="12" />
        <circle cx="72" cy="227" r="12" />
        <circle cx="72" cy="191.5" r="12" />
        <circle cx="72" cy="156" r="12" />
        <circle cx="72" cy="120.5" r="12" />
        <circle cx="72" cy="85" r="12" />
        <circle cx="72" cy="49.5" r="12" />
        <circle cx="72" cy="14" r="12" />
        <circle cx="47.5" cy="251.5" r="12" />
        <circle cx="23" cy="227" r="12" />
        <circle cx="121" cy="227" r="12" />
        <circle cx="96.5" cy="251.5" r="12" />
    </symbol>
    <symbol viewBox="0 0 144 144" id="svg-arrow-dot-dn">
        <path d="M84,132c0-6.6-5.4-12-12-12s-12,5.4-12,12c0,6.6,5.4,12,12,12S84,138.6,84,132z M72,95c-6.6,0-12-5.4-12-12s5.4-12,12-12
	s12,5.4,12,12S78.6,95,72,95z M72,59.5c-6.6,0-12-5.4-12-12s5.4-12,12-12s12,5.4,12,12S78.6,59.5,72,59.5z M72,24
	c-6.6,0-12-5.4-12-12S65.4,0,72,0s12,5.4,12,12S78.6,24,72,24z M47.5,119.5c-6.6,0-12-5.4-12-12s5.4-12,12-12s12,5.4,12,12
	S54.1,119.5,47.5,119.5z M23,95c-6.6,0-12-5.4-12-12s5.4-12,12-12s12,5.4,12,12S29.6,95,23,95z M121,95c-6.6,0-12-5.4-12-12
	s5.4-12,12-12s12,5.4,12,12S127.6,95,121,95z M96.5,119.5c-6.6,0-12-5.4-12-12s5.4-12,12-12s12,5.4,12,12S103.1,119.5,96.5,119.5z" />
    </symbol>
    <symbol viewBox="0 0 20 100" id="svg-arrow-r">
        <polygon points="0,0 20,50 0,100 " />
    </symbol>
    <symbol viewBox="0 0 500 300" id="svg-BL-monogram">
        <path d="M459.9,198.9v59.6H243.8v-43.9H315c48.1,0,68.5-26.4,68.5-59.9c0-30.8-23.4-47.2-40.4-51.2v-1.7c12-2,34.7-17.7,34.7-48.9
	c0-25.4-20.7-52.9-71.5-52.9H0v41.8h74.5v130.9H0v41.8h196.4v43.9h-74.8V300H500V198.9H459.9z M331.3,147c0,14.1-7.7,25.8-39.1,25.8
	h-48.5v-49.6h52.5C320.7,123.2,331.3,132.3,331.3,147z M121.6,41.8h164.7c27.7,0,38.1,6.7,38.1,18.8c0,14.7-9.4,25.1-37.1,25.1
	H121.6V41.8z M121.6,172.8v-49.6h74.8v49.6H121.6z" />
    </symbol>
    <symbol viewBox="0 0 128 128" id="svg-codepen">
        <path d="M127.5,43.3c0-0.1,0-0.2,0-0.2c0-0.2-0.1-0.3-0.1-0.5c0-0.1-0.1-0.2-0.1-0.3c0-0.1-0.1-0.3-0.1-0.4c0-0.1-0.1-0.2-0.1-0.3
	c-0.1-0.1-0.1-0.2-0.2-0.4c-0.1-0.1-0.1-0.2-0.2-0.3c-0.1-0.1-0.1-0.2-0.2-0.3c-0.1-0.1-0.1-0.2-0.2-0.2c-0.1-0.1-0.2-0.2-0.3-0.3
	c-0.1-0.1-0.1-0.1-0.2-0.2c-0.1-0.1-0.2-0.2-0.3-0.3c-0.1-0.1-0.2-0.1-0.2-0.2c0,0-0.1,0-0.1-0.1l-58.5-39c-1.8-1.2-4.3-1.2-6.1,0
	L2,39.5c0,0-0.1,0-0.1,0.1c-0.1,0.1-0.2,0.1-0.2,0.2c-0.1,0.1-0.2,0.2-0.3,0.3c-0.1,0.1-0.1,0.1-0.2,0.2c-0.1,0.1-0.2,0.2-0.3,0.3
	c-0.1,0.1-0.1,0.2-0.2,0.2c-0.1,0.1-0.2,0.2-0.2,0.3c-0.1,0.1-0.1,0.2-0.2,0.3c-0.1,0.1-0.1,0.2-0.2,0.4C0,41.8,0,41.9,0,42
	c-0.1,0.1-0.1,0.3-0.1,0.4c0,0.1-0.1,0.2-0.1,0.3c0,0.2-0.1,0.3-0.1,0.5c0,0.1,0,0.2,0,0.2c0,0.2-0.1,0.5-0.1,0.7v39
	c0,0.2,0,0.5,0.1,0.7c0,0.1,0,0.2,0,0.2c0,0.2,0.1,0.3,0.1,0.5c0,0.1,0.1,0.2,0.1,0.3c0,0.1,0.1,0.3,0.1,0.4c0,0.1,0.1,0.2,0.1,0.3
	c0.1,0.1,0.1,0.2,0.2,0.4c0.1,0.1,0.1,0.2,0.2,0.3c0.1,0.1,0.1,0.2,0.2,0.3c0.1,0.1,0.1,0.2,0.2,0.2c0.1,0.1,0.2,0.2,0.3,0.3
	C1.2,87,1.3,87,1.3,87.1c0.1,0.1,0.2,0.2,0.3,0.3c0.1,0.1,0.2,0.1,0.2,0.2c0,0,0.1,0,0.1,0.1l58.5,39c0.9,0.6,2,0.9,3.1,0.9
	c1.1,0,2.1-0.3,3.1-0.9l58.5-39c0,0,0.1,0,0.1-0.1c0.1-0.1,0.2-0.1,0.2-0.2c0.1-0.1,0.2-0.2,0.3-0.3c0.1-0.1,0.1-0.1,0.2-0.2
	c0.1-0.1,0.2-0.2,0.3-0.3c0.1-0.1,0.1-0.2,0.2-0.2c0.1-0.1,0.2-0.2,0.2-0.3c0.1-0.1,0.1-0.2,0.2-0.3c0.1-0.1,0.1-0.2,0.2-0.4
	c0-0.1,0.1-0.2,0.1-0.3c0.1-0.1,0.1-0.3,0.1-0.4c0-0.1,0.1-0.2,0.1-0.3c0-0.2,0.1-0.3,0.1-0.5c0-0.1,0-0.2,0-0.2c0-0.2,0-0.5,0-0.7
	v-39C127.5,43.8,127.5,43.6,127.5,43.3z M69,15.3l43.1,28.7L92.9,56.9L69,41V15.3z M58,15.3V41l-23.8,16L15,44.1L58,15.3z
	 M10.5,54.3l13.8,9.2l-13.8,9.2V54.3z M58,111.8L15,83l19.3-12.9L58,86.1V111.8z M63.5,76.6l-19.5-13l19.5-13l19.5,13L63.5,76.6z
	 M69,111.8V86.1l23.8-15.9L112.1,83L69,111.8z M116.5,72.8l-13.8-9.2l13.8-9.2V72.8z" />
    </symbol>
    <symbol viewBox="0 0 144 144" id="svg-dot-line">
        <circle cx="72" cy="118.5" r="12" />
        <circle cx="72" cy="83" r="12" />
        <circle cx="72" cy="47.5" r="12" />
        <circle cx="72" cy="12" r="12" />
    </symbol>
    <symbol viewBox="0 0 128 128" id="svg-instagram">
        <rect x="0.049" opacity="0" width="127.951" height="128" />
        <path d="M123.203,4.75c3.163,3.168,4.748,6.918,4.748,11.25v96c0,4.336-1.585,8.082-4.748,11.25
		c-3.167,3.164-6.915,4.75-11.246,4.75H15.994c-4.334,0-8.083-1.586-11.247-4.75C1.581,120.082,0,116.336,0,112V16
		c0-4.332,1.581-8.082,4.747-11.25C7.911,1.586,11.66,0,15.994,0h95.963C116.288,0,120.036,1.586,123.203,4.75z M111.957,56h-8.996
		c0.664,2.836,0.999,5.668,0.999,8.5c0,11-3.916,20.418-11.745,28.25c-7.833,7.836-17.243,11.75-28.239,11.75
		c-10.996,0-20.411-3.914-28.24-11.75C27.903,84.918,23.991,75.5,23.991,64.5c0-2.832,0.332-5.664,1-8.5h-8.996v52
		c0,1.168,0.375,2.125,1.125,2.875c0.75,0.75,1.706,1.125,2.874,1.125h87.967c1.163,0,2.124-0.375,2.874-1.125
		c0.749-0.75,1.124-1.707,1.124-2.875V56z M39.985,64.5c0,6.668,2.331,12.336,6.997,17c4.663,4.668,10.328,7,16.994,7
		c6.661,0,12.327-2.332,16.993-7c4.663-4.664,6.998-10.332,6.998-17c0-6.664-2.335-12.332-6.998-17c-4.666-4.664-10.332-7-16.993-7
		c-6.666,0-12.331,2.336-16.994,7C42.316,52.168,39.985,57.836,39.985,64.5z M111.957,20c0-1.164-0.375-2.125-1.124-2.875
		c-0.75-0.75-1.711-1.125-2.874-1.125H91.965c-1.167,0-2.124,0.375-2.874,1.125S87.967,18.836,87.967,20v16
		c0,1.168,0.374,2.125,1.124,2.875S90.798,40,91.965,40h15.994c1.163,0,2.124-0.375,2.874-1.125c0.749-0.75,1.124-1.707,1.124-2.875
		V20z" />
    </symbol>
    <symbol viewBox="0 0 128 128" id="svg-linkedin">
        <path d="M106.5,0h-85C9.675,0,0,9.675,0,21.5v85C0,118.325,9.675,128,21.5,128h85c11.825,0,21.5-9.675,21.5-21.5v-85
	C128,9.675,118.325,0,106.5,0z M48,104H32V48h16V104z M40,40c-4.418,0-8-3.582-8-8s3.582-8,8-8s8,3.582,8,8S44.418,40,40,40z
	 M104,104H88V72c0-4.418-3.582-8-8-8s-8,3.582-8,8v32H56V48h16v9.934C75.3,53.401,80.344,48,86,48c9.941,0,18,8.954,18,20V104z" />
    </symbol>
    <symbol viewBox="0 0 128 128" id="svg-mail">
        <g>
            <rect fill-opacity="0" width="127.951" height="128" />
            <path d="M126.281,16.791c1.146,1.195,1.719,2.604,1.719,4.232v85.954c0,1.736-0.573,3.173-1.719,4.313
		c-1.146,1.139-2.594,1.709-4.338,1.709H6.057c-1.637,0-3.057-0.596-4.256-1.791C0.598,110.017,0,108.604,0,106.978V21.023
		c0-1.735,0.598-3.174,1.801-4.314C3,15.57,4.419,15,6.057,15h115.887C123.688,15,125.135,15.598,126.281,16.791z M115.725,42.349
		L68.747,78.651c-1.202,0.87-2.455,1.302-3.766,1.302c-1.309,0-2.565-0.432-3.764-1.302L12.276,41.047v59.744h103.449V42.349z
		 M14.567,27.209l50.414,38.907l50.087-38.907H14.567z" />
        </g>
    </symbol>
    <symbol viewBox="0 0 500 250" id="svg-pencil-logo-3">
        <path id="pencil-logo-3-lead" class="logo-lead" d="M500,125l-62.6-62.6c0,0,15,25.6,15,62.6c0,39.4-15,62.6-15,62.6L500,125z" />
        <g id="pencil-logo-3-body">
            <g>
                <path class="logo-body" d="M342,116.1H150V0h192c32,0,58,26,58,58v0.1C400,90.1,374,116.1,342,116.1z" />
            </g>
            <path class="logo-body" d="M351,249.9H150V133.9h201c32,0,58,25.9,58,58v0.1C408.9,224,383,249.9,351,249.9z" />
        </g>
        <path id="pencil-logo-3-eraser" class="logo-eraser" d="M125,250H25c-13.8,0-25-11.2-25-25V25C0,11.2,11.2,0,25,0h100V250z" />
        <path id="pencil-logo-3-hilite" class="logo-hilite" d="M342,116.1H150V0h192c32,0,58,26,58,58v0.1C400,90.1,374,116.1,342,116.1z M408.9,192v-0.1c0-32-26-58-58-58
	H150v116.1h201C383,249.9,408.9,224,408.9,192z M125,0H25C11.2,0,0,11.2,0,25v200c0,13.8,11.2,25,25,25h100V0z M500,125l-62.6-62.6
	c0,0,15,25.6,15,62.6c0,39.4-15,62.6-15,62.6L500,125z" />
    </symbol>
    <symbol viewBox="0 0 500 250" id="svg-pencil-logo">
        <g id="pencil-logo-body">
            <g>
                <path class="logo-body" d="M342.03,116.07H150V0h192.03C374.05,0,400,25.95,400,57.97v0.13C400,90.12,374.05,116.07,342.03,116.07z" />
            </g>
            <path class="logo-body" d="M350.96,249.94H150V133.86h200.96c32.02,0,57.97,25.95,57.97,57.97v0.13
		C408.93,223.98,382.97,249.94,350.96,249.94z" />
        </g>
        <polygon id="pencil-logo-lead" class="logo-lead" points="500,125 450,75 450,175 " />
        <path id="pencil-logo-eraser" class="logo-eraser" d="M125,250H25c-13.81,0-25-11.19-25-25V25C0,11.19,11.19,0,25,0h100V250z" />
        <path id="pencil-logo-hilite" class="logo-hilite" d="M342.03,116.07H150V0h192.03C374.05,0,400,25.95,400,57.97v0.13
	C400,90.12,374.05,116.07,342.03,116.07z M408.93,191.96v-0.13c0-32.02-25.95-57.97-57.97-57.97H150v116.07h200.96
	C382.97,249.94,408.93,223.98,408.93,191.96z M500,125l-50-50v100L500,125z M125,0H25C11.19,0,0,11.19,0,25v200
	c0,13.81,11.19,25,25,25h100V0z" />
    </symbol>
    <symbol viewBox="0 0 128 128" id="svg-twitter">
        <g>
            <rect x="0.05" opacity="0" width="127.95" height="128" />
            <path d="M114.954,38c0,1,0,2.086,0,3.25c0,8.836-1.667,17.625-4.998,26.375c-3.334,8.75-8.039,16.75-14.119,24
		c-6.083,7.25-13.955,13.125-23.615,17.625c-9.665,4.5-20.329,6.75-31.988,6.75C25.739,116,12.328,112.086,0,104.25
		c1.999,0.168,4.081,0.25,6.248,0.25c12.159,0,23.074-3.75,32.737-11.25c-5.833,0-10.956-1.707-15.368-5.125
		C19.2,84.711,16.075,80.336,14.244,75c1.664,0.336,3.331,0.5,4.998,0.5c2.331,0,4.663-0.25,6.998-0.75
		c-6.166-1.332-11.206-4.414-15.118-9.25C7.205,60.668,5.248,55.168,5.248,49c0-0.164,0-0.332,0-0.5
		c3.663,2.168,7.58,3.25,11.745,3.25C9.161,46.586,5.248,39.336,5.248,30c0-4.664,1.25-9.082,3.749-13.25
		c6.497,8.168,14.452,14.668,23.866,19.5c9.411,4.836,19.449,7.5,30.112,8c-0.5-2-0.75-4-0.75-6c0-7.164,2.582-13.332,7.748-18.5
		C75.134,14.586,81.3,12,88.465,12c7.661,0,14.076,2.75,19.242,8.25c5.998-1.164,11.578-3.25,16.743-6.25
		c-1.999,6.168-5.833,11-11.495,14.5c5.162-0.664,10.16-2.082,14.994-4.25C124.45,29.586,120.116,34.168,114.954,38z" />
        </g>
    </symbol>
</svg>